<svg width="29" height="28" viewBox="0 0 29 28" fill="none" xmlns="http://www.w3.org/2000/svg">
<path fill-rule="evenodd" clip-rule="evenodd" d="M22.9584 12.9454H8.6215L13.0114 7.94411C13.4391 7.45775 13.369 6.73393 12.8567 6.32901C12.3432 5.92294 11.5819 5.98947 11.1554 6.47584L5.11371 13.3584C5.06658 13.4123 5.04242 13.4754 5.00737 13.535C4.97837 13.5832 4.94333 13.6245 4.92158 13.6773C4.86721 13.8092 4.83458 13.948 4.83458 14.0879C4.83458 14.0891 4.83337 14.0914 4.83337 14.0925C4.83337 14.0937 4.83458 14.096 4.83458 14.0971C4.83458 14.2371 4.86721 14.3758 4.92158 14.5078C4.94333 14.5605 4.97837 14.6018 5.00737 14.65C5.04242 14.7097 5.06658 14.7727 5.11371 14.8267L11.1554 21.7092C11.3946 21.9811 11.7378 22.1221 12.0834 22.1221C12.3565 22.1221 12.6307 22.035 12.8567 21.856C13.369 21.4511 13.4391 20.7273 13.0114 20.2409L8.6215 15.2396H22.9584C23.6254 15.2396 24.1667 14.7257 24.1667 14.0925C24.1667 13.4593 23.6254 12.9454 22.9584 12.9454Z" fill="#6A515E"/>
</svg>
