<svg width="42" height="43" viewBox="0 0 42 43" fill="none" xmlns="http://www.w3.org/2000/svg">
<g filter="url(#filter0_d)">
<circle cx="21" cy="21.4254" r="16" fill="url(#paint0_linear)"/>
</g>
<path d="M18.75 19.1754H19.875V25.9254H18.75V19.1754Z" fill="white"/>
<path d="M22.125 19.1754H23.25V25.9254H22.125V19.1754Z" fill="white"/>
<path d="M14.25 15.8004V16.9254H15.375V28.1754C15.375 28.4738 15.4935 28.7599 15.7045 28.9709C15.9155 29.1819 16.2016 29.3004 16.5 29.3004H25.5C25.7984 29.3004 26.0845 29.1819 26.2955 28.9709C26.5065 28.7599 26.625 28.4738 26.625 28.1754V16.9254H27.75V15.8004H14.25ZM16.5 28.1754V16.9254H25.5V28.1754H16.5Z" fill="white"/>
<path d="M18.75 13.5504H23.25V14.6754H18.75V13.5504Z" fill="white"/>
<defs>
<filter id="filter0_d" x="0" y="0.425415" width="42" height="42" filterUnits="userSpaceOnUse" color-interpolation-filters="sRGB">
<feFlood flood-opacity="0" result="BackgroundImageFix"/>
<feColorMatrix in="SourceAlpha" type="matrix" values="0 0 0 0 0 0 0 0 0 0 0 0 0 0 0 0 0 0 127 0"/>
<feOffset/>
<feGaussianBlur stdDeviation="2.5"/>
<feColorMatrix type="matrix" values="0 0 0 0 0 0 0 0 0 0 0 0 0 0 0 0 0 0 0.14 0"/>
<feBlend mode="normal" in2="BackgroundImageFix" result="effect1_dropShadow"/>
<feBlend mode="normal" in="SourceGraphic" in2="effect1_dropShadow" result="shape"/>
</filter>
<linearGradient id="paint0_linear" x1="21" y1="5.42542" x2="21" y2="37.4254" gradientUnits="userSpaceOnUse">
<stop stop-color="#8491F6"/>
<stop offset="1" stop-color="#50A9DF"/>
</linearGradient>
</defs>
</svg>
