<svg width="414" height="916" viewBox="0 0 414 916" fill="none" xmlns="http://www.w3.org/2000/svg">
<g clip-path="url(#clip0)">
<rect width="414" height="916" fill="white"/>
<path d="M33.6696 102.56L31.3736 102.224V100.824H45.6256L46.0176 105.164H44.4216L43.6096 102.448L36.6656 102.28V110.176L41.3416 110.092L41.7336 107.768H43.2736V114.208H41.7336L41.3416 111.8L36.6656 111.716V120.06L44.5616 119.78L46.0456 116.252L47.6976 116.756L46.8856 121.628H31.3456V120.256L33.6696 119.976V102.56ZM55.6039 121.936C54.4839 121.936 53.4572 121.656 52.5239 121.096C51.5906 120.536 50.8439 119.677 50.2839 118.52C49.7426 117.362 49.4719 115.934 49.4719 114.236C49.4719 112.649 49.7986 111.202 50.4519 109.896C51.1052 108.589 52.0386 107.562 53.2519 106.816C54.4839 106.05 55.9306 105.668 57.5919 105.668C58.5439 105.668 59.4119 105.77 60.1959 105.976V100.74L57.3399 100.404V99.1997L62.3799 98.6957H62.4639L63.0799 99.1437V120.2H64.7039V121.488C64.1066 121.618 63.5839 121.721 63.1359 121.796C62.7066 121.87 62.2492 121.908 61.7639 121.908C61.2786 121.908 60.9332 121.824 60.7279 121.656C60.5226 121.488 60.4199 121.133 60.4199 120.592V119.696C59.8972 120.33 59.2066 120.862 58.3479 121.292C57.5079 121.721 56.5932 121.936 55.6039 121.936ZM56.7239 119.948C57.4519 119.948 58.1332 119.789 58.7679 119.472C59.4026 119.136 59.8786 118.753 60.1959 118.324V108.076C60.0466 107.852 59.6919 107.656 59.1319 107.488C58.5906 107.301 58.0119 107.208 57.3959 107.208C55.9399 107.208 54.7732 107.768 53.8959 108.888C53.0372 109.989 52.6079 111.697 52.6079 114.012C52.6079 116.028 52.9906 117.521 53.7559 118.492C54.5212 119.462 55.5106 119.948 56.7239 119.948ZM70.2505 103.288C69.6532 103.288 69.2052 103.12 68.9065 102.784C68.6079 102.448 68.4585 102.018 68.4585 101.496C68.4585 100.898 68.6359 100.404 68.9905 100.012C69.3639 99.6197 69.8679 99.4237 70.5025 99.4237C71.1372 99.4237 71.6039 99.5917 71.9025 99.9277C72.2012 100.264 72.3505 100.693 72.3505 101.216C72.3505 101.85 72.1639 102.354 71.7905 102.728C71.4359 103.101 70.9319 103.288 70.2785 103.288H70.2505ZM69.1305 108.244L67.0025 107.74V106.256L71.3425 105.724H71.3985L72.0425 106.228V120.032L74.2825 120.256V121.628H66.8625V120.256L69.1305 120.004V108.244ZM81.0587 121.908C79.9947 121.908 79.2014 121.665 78.6787 121.18C78.1561 120.694 77.8947 119.864 77.8947 118.688V107.936H75.8787V106.676C75.9721 106.657 76.2334 106.592 76.6627 106.48C77.0921 106.368 77.3814 106.265 77.5307 106.172C77.8294 106.004 78.0627 105.668 78.2307 105.164C78.3801 104.809 78.5574 104.24 78.7627 103.456C78.9681 102.672 79.0894 102.205 79.1267 102.056H80.7787L80.8347 106.088H85.5107V107.936H80.8347V116.532C80.8347 117.596 80.8627 118.342 80.9187 118.772C80.9934 119.201 81.1334 119.481 81.3387 119.612C81.5627 119.742 81.9361 119.808 82.4587 119.808C82.9627 119.808 83.5134 119.742 84.1107 119.612C84.7267 119.481 85.2027 119.341 85.5387 119.192L85.9587 120.452C85.5107 120.788 84.7827 121.114 83.7747 121.432C82.7854 121.749 81.8801 121.908 81.0587 121.908ZM96.7256 102.56L94.5416 102.224V100.824H98.2656C98.9376 100.824 99.6003 100.796 100.254 100.74C101.262 100.665 102.214 100.628 103.11 100.628C105.816 100.646 107.73 101.15 108.85 102.14C109.97 103.129 110.53 104.622 110.53 106.62C110.53 108.113 110.184 109.41 109.494 110.512C108.803 111.613 107.842 112.453 106.61 113.032C105.396 113.61 103.996 113.9 102.41 113.9C101.868 113.9 101.318 113.89 100.758 113.872C100.198 113.834 99.8523 113.806 99.7216 113.788V119.948L103.558 120.256V121.628H94.4016V120.256L96.7256 119.976V102.56ZM99.7216 112.248C100.244 112.341 101.14 112.388 102.41 112.388C103.884 112.388 105.079 111.94 105.994 111.044C106.927 110.148 107.394 108.682 107.394 106.648C107.394 105.042 106.992 103.894 106.19 103.204C105.387 102.494 104.136 102.14 102.438 102.14C101.84 102.14 101.206 102.177 100.534 102.252C100.123 102.289 99.8523 102.308 99.7216 102.308V112.248ZM112.557 120.256L114.657 120.088V108.244L112.641 107.74V106.228L116.505 105.724H116.561L117.177 106.228V106.732L117.093 108.916H117.177C117.364 108.598 117.7 108.188 118.185 107.684C118.671 107.18 119.296 106.722 120.061 106.312C120.827 105.882 121.657 105.668 122.553 105.668C122.927 105.668 123.235 105.714 123.477 105.808V108.944C123.347 108.85 123.132 108.766 122.833 108.692C122.553 108.598 122.236 108.552 121.881 108.552C120.332 108.552 118.895 109.028 117.569 109.98V120.06L121.125 120.284V121.628H112.557V120.256ZM125.325 113.816C125.325 112.136 125.671 110.68 126.361 109.448C127.052 108.216 127.957 107.282 129.077 106.648C130.216 105.994 131.429 105.668 132.717 105.668C135.069 105.668 136.833 106.414 138.009 107.908C139.204 109.401 139.801 111.361 139.801 113.788C139.801 115.486 139.456 116.952 138.765 118.184C138.075 119.416 137.16 120.349 136.021 120.984C134.901 121.618 133.697 121.936 132.409 121.936C130.057 121.936 128.284 121.189 127.089 119.696C125.913 118.202 125.325 116.242 125.325 113.816ZM132.577 120.34C133.865 120.34 134.855 119.808 135.545 118.744C136.236 117.68 136.581 116.102 136.581 114.012C136.581 111.94 136.264 110.297 135.629 109.084C134.995 107.87 133.977 107.264 132.577 107.264C131.289 107.264 130.291 107.796 129.581 108.86C128.891 109.924 128.545 111.501 128.545 113.592C128.545 115.664 128.872 117.306 129.525 118.52C130.179 119.733 131.196 120.34 132.577 120.34ZM144.601 107.936H141.969V106.648L144.601 106.116V104.8C144.601 103.642 144.899 102.578 145.497 101.608C146.113 100.637 146.906 99.8717 147.877 99.3117C148.866 98.7331 149.911 98.4437 151.013 98.4437C151.647 98.4437 152.198 98.5277 152.665 98.6957V101.496C152.497 101.346 152.161 101.206 151.657 101.076C151.171 100.926 150.63 100.852 150.033 100.852C149.155 100.852 148.511 101.085 148.101 101.552C147.709 102 147.513 102.784 147.513 103.904V106.116H151.377V107.936H147.513V120.032L150.621 120.256V121.628H142.221V120.256L144.601 120.004V107.936ZM156.865 103.288C156.267 103.288 155.819 103.12 155.521 102.784C155.222 102.448 155.073 102.018 155.073 101.496C155.073 100.898 155.25 100.404 155.605 100.012C155.978 99.6197 156.482 99.4237 157.117 99.4237C157.751 99.4237 158.218 99.5917 158.517 99.9277C158.815 100.264 158.965 100.693 158.965 101.216C158.965 101.85 158.778 102.354 158.405 102.728C158.05 103.101 157.546 103.288 156.893 103.288H156.865ZM155.745 108.244L153.617 107.74V106.256L157.957 105.724H158.013L158.657 106.228V120.032L160.897 120.256V121.628H153.477V120.256L155.745 120.004V108.244ZM164.94 100.74L162.672 100.432V99.2277L167.18 98.6957H167.236L167.852 99.1157V120.032L170.232 120.256V121.628H162.672V120.256L164.94 120.004V100.74ZM179.108 121.936C176.849 121.936 175.123 121.198 173.928 119.724C172.752 118.249 172.164 116.28 172.164 113.816C172.164 112.192 172.472 110.764 173.088 109.532C173.704 108.3 174.563 107.348 175.664 106.676C176.784 106.004 178.053 105.668 179.472 105.668C181.208 105.668 182.552 106.153 183.504 107.124C184.475 108.076 184.988 109.448 185.044 111.24C185.044 112.378 184.979 113.246 184.848 113.844H175.216C175.253 115.692 175.683 117.185 176.504 118.324C177.325 119.444 178.492 120.004 180.004 120.004C180.751 120.004 181.525 119.873 182.328 119.612C183.149 119.332 183.784 119.005 184.232 118.632L184.764 119.864C184.223 120.424 183.42 120.909 182.356 121.32C181.292 121.73 180.209 121.936 179.108 121.936ZM181.964 112.36C182.02 111.968 182.048 111.566 182.048 111.156C182.029 109.942 181.768 108.99 181.264 108.3C180.779 107.59 180.004 107.236 178.94 107.236C177.857 107.236 176.989 107.628 176.336 108.412C175.701 109.196 175.337 110.512 175.244 112.36H181.964Z" fill="#6A515E"/>
<path fill-rule="evenodd" clip-rule="evenodd" d="M53.9583 43.9454H39.6214L44.0113 38.9441C44.439 38.4577 44.3689 37.7339 43.8566 37.329C43.343 36.9229 42.5818 36.9895 42.1553 37.4758L36.1136 44.3584C36.0665 44.4123 36.0423 44.4754 36.0073 44.535C35.9783 44.5832 35.9432 44.6245 35.9215 44.6773C35.8671 44.8092 35.8345 44.948 35.8345 45.0879C35.8345 45.0891 35.8333 45.0914 35.8333 45.0925C35.8333 45.0937 35.8345 45.096 35.8345 45.0971C35.8345 45.2371 35.8671 45.3758 35.9215 45.5078C35.9432 45.5605 35.9783 45.6018 36.0073 45.65C36.0423 45.7097 36.0665 45.7727 36.1136 45.8267L42.1553 52.7092C42.3945 52.9811 42.7377 53.1221 43.0833 53.1221C43.3563 53.1221 43.6306 53.035 43.8566 52.856C44.3689 52.4511 44.439 51.7273 44.0113 51.2409L39.6214 46.2396H53.9583C54.6252 46.2396 55.1666 45.7257 55.1666 45.0925C55.1666 44.4593 54.6252 43.9454 53.9583 43.9454Z" fill="#6A515E"/>
<mask id="mask0" mask-type="alpha" maskUnits="userSpaceOnUse" x="35" y="37" width="25" height="17">
<path fill-rule="evenodd" clip-rule="evenodd" d="M58.4895 43.9454H40.5684L46.0557 38.9441C46.5904 38.4577 46.5028 37.7339 45.8624 37.329C45.2205 36.9229 44.2689 36.9895 43.7357 37.4758L36.1837 44.3584C36.1248 44.4123 36.0946 44.4754 36.0508 44.535C36.0145 44.5832 35.9707 44.6245 35.9435 44.6773C35.8755 44.8092 35.8348 44.948 35.8348 45.0879C35.8348 45.0891 35.8333 45.0914 35.8333 45.0925C35.8333 45.0937 35.8348 45.096 35.8348 45.0971C35.8348 45.2371 35.8755 45.3758 35.9435 45.5078C35.9707 45.5605 36.0145 45.6018 36.0508 45.65C36.0946 45.7097 36.1248 45.7727 36.1837 45.8267L43.7357 52.7092C44.0348 52.9811 44.4638 53.1221 44.8957 53.1221C45.2371 53.1221 45.58 53.035 45.8624 52.856C46.5028 52.4511 46.5904 51.7273 46.0557 51.2409L40.5684 46.2396H58.4895C59.3232 46.2396 59.9999 45.7257 59.9999 45.0925C59.9999 44.4593 59.3232 43.9454 58.4895 43.9454Z" fill="white"/>
</mask>
<g mask="url(#mask0)">
</g>
<rect x="30.7205" y="208.6" width="356.474" height="61.9771" rx="12" fill="#F8F6FA"/>
<path opacity="0.2" d="M62.2566 236.185V247.577H61.2326L54.3526 238.409V247.577H53.1206V236.185H54.1286L61.0086 245.353V236.185H62.2566ZM71.9861 239.529V247.577H70.7061V246.121C70.4715 246.622 70.1141 247.012 69.6341 247.289C69.1648 247.556 68.6155 247.689 67.9861 247.689C67.2715 247.689 66.6421 247.518 66.0981 247.177C65.5648 246.836 65.1488 246.356 64.8501 245.737C64.5621 245.108 64.4181 244.377 64.4181 243.545C64.4181 242.713 64.5675 241.982 64.8661 241.353C65.1648 240.713 65.5808 240.217 66.1141 239.865C66.6581 239.513 67.2821 239.337 67.9861 239.337C68.6155 239.337 69.1648 239.476 69.6341 239.753C70.1035 240.03 70.4608 240.42 70.7061 240.921V239.529H71.9861ZM68.2421 246.617C69.0315 246.617 69.6395 246.35 70.0661 245.817C70.4928 245.273 70.7061 244.505 70.7061 243.513C70.7061 242.521 70.4928 241.758 70.0661 241.225C69.6395 240.692 69.0315 240.425 68.2421 240.425C67.4528 240.425 66.8341 240.702 66.3861 241.257C65.9488 241.801 65.7301 242.564 65.7301 243.545C65.7301 244.526 65.9488 245.284 66.3861 245.817C66.8235 246.35 67.4421 246.617 68.2421 246.617ZM83.4199 239.337C85.2012 239.337 86.0919 240.398 86.0919 242.521V247.577H84.7959V242.585C84.7959 241.828 84.6626 241.278 84.3959 240.937C84.1399 240.596 83.7186 240.425 83.1319 240.425C82.4492 240.425 81.9159 240.654 81.5319 241.113C81.1479 241.572 80.9559 242.196 80.9559 242.985V247.577H79.6599V242.585C79.6599 241.838 79.5266 241.294 79.2599 240.953C78.9932 240.601 78.5666 240.425 77.9799 240.425C77.2972 240.425 76.7586 240.654 76.3639 241.113C75.9799 241.572 75.7879 242.196 75.7879 242.985V247.577H74.4919V241.785C74.4919 240.953 74.4492 240.201 74.3639 239.529H75.5959L75.7239 240.937C75.9479 240.425 76.2786 240.03 76.7159 239.753C77.1639 239.476 77.6812 239.337 78.2679 239.337C78.9079 239.337 79.4306 239.465 79.8359 239.721C80.2412 239.977 80.5399 240.372 80.7319 240.905C80.9772 240.425 81.3346 240.046 81.8039 239.769C82.2839 239.481 82.8226 239.337 83.4199 239.337ZM95.2904 243.513H89.3864C89.3971 244.537 89.6317 245.31 90.0904 245.833C90.5597 246.356 91.2371 246.617 92.1224 246.617C93.0611 246.617 93.9251 246.302 94.7144 245.673L95.1464 246.617C94.7944 246.948 94.3411 247.209 93.7864 247.401C93.2424 247.593 92.6824 247.689 92.1064 247.689C90.8477 247.689 89.8611 247.321 89.1464 246.585C88.4317 245.838 88.0744 244.82 88.0744 243.529C88.0744 242.708 88.2344 241.982 88.5544 241.353C88.8744 240.713 89.3224 240.217 89.8984 239.865C90.4744 239.513 91.1304 239.337 91.8664 239.337C92.9331 239.337 93.7704 239.689 94.3784 240.393C94.9864 241.086 95.2904 242.046 95.2904 243.273V243.513ZM91.8824 240.345C91.2104 240.345 90.6611 240.548 90.2344 240.953C89.8184 241.358 89.5517 241.929 89.4344 242.665H94.1224C94.0584 241.908 93.8344 241.332 93.4504 240.937C93.0771 240.542 92.5544 240.345 91.8824 240.345Z" fill="black"/>
<path d="M54.5746 183.44V196.256H53.4226L45.6826 185.942V196.256H44.2966V183.44H45.4306L53.1706 193.754V183.44H54.5746ZM65.5203 187.202V196.256H64.0803V194.618C63.8163 195.182 63.4143 195.62 62.8743 195.932C62.3463 196.232 61.7283 196.382 61.0203 196.382C60.2163 196.382 59.5083 196.19 58.8963 195.806C58.2963 195.422 57.8283 194.882 57.4923 194.186C57.1683 193.478 57.0063 192.656 57.0063 191.72C57.0063 190.784 57.1743 189.962 57.5103 189.254C57.8463 188.534 58.3143 187.976 58.9143 187.58C59.5263 187.184 60.2283 186.986 61.0203 186.986C61.7283 186.986 62.3463 187.142 62.8743 187.454C63.4023 187.766 63.8043 188.204 64.0803 188.768V187.202H65.5203ZM61.3083 195.176C62.1963 195.176 62.8803 194.876 63.3603 194.276C63.8403 193.664 64.0803 192.8 64.0803 191.684C64.0803 190.568 63.8403 189.71 63.3603 189.11C62.8803 188.51 62.1963 188.21 61.3083 188.21C60.4203 188.21 59.7243 188.522 59.2203 189.146C58.7283 189.758 58.4823 190.616 58.4823 191.72C58.4823 192.824 58.7283 193.676 59.2203 194.276C59.7123 194.876 60.4083 195.176 61.3083 195.176ZM78.3833 186.986C80.3873 186.986 81.3893 188.18 81.3893 190.568V196.256H79.9313V190.64C79.9313 189.788 79.7813 189.17 79.4813 188.786C79.1933 188.402 78.7193 188.21 78.0593 188.21C77.2913 188.21 76.6913 188.468 76.2593 188.984C75.8273 189.5 75.6113 190.202 75.6113 191.09V196.256H74.1533V190.64C74.1533 189.8 74.0033 189.188 73.7033 188.804C73.4033 188.408 72.9233 188.21 72.2633 188.21C71.4953 188.21 70.8893 188.468 70.4453 188.984C70.0133 189.5 69.7973 190.202 69.7973 191.09V196.256H68.3393V189.74C68.3393 188.804 68.2913 187.958 68.1953 187.202H69.5813L69.7253 188.786C69.9773 188.21 70.3493 187.766 70.8413 187.454C71.3453 187.142 71.9273 186.986 72.5873 186.986C73.3073 186.986 73.8953 187.13 74.3513 187.418C74.8073 187.706 75.1433 188.15 75.3593 188.75C75.6353 188.21 76.0373 187.784 76.5653 187.472C77.1053 187.148 77.7113 186.986 78.3833 186.986ZM91.7376 191.684H85.0956C85.1076 192.836 85.3716 193.706 85.8876 194.294C86.4156 194.882 87.1776 195.176 88.1736 195.176C89.2296 195.176 90.2016 194.822 91.0896 194.114L91.5756 195.176C91.1796 195.548 90.6696 195.842 90.0456 196.058C89.4336 196.274 88.8036 196.382 88.1556 196.382C86.7396 196.382 85.6296 195.968 84.8256 195.14C84.0216 194.3 83.6196 193.154 83.6196 191.702C83.6196 190.778 83.7996 189.962 84.1596 189.254C84.5196 188.534 85.0236 187.976 85.6716 187.58C86.3196 187.184 87.0576 186.986 87.8856 186.986C89.0856 186.986 90.0276 187.382 90.7116 188.174C91.3956 188.954 91.7376 190.034 91.7376 191.414V191.684ZM87.9036 188.12C87.1476 188.12 86.5296 188.348 86.0496 188.804C85.5816 189.26 85.2816 189.902 85.1496 190.73H90.4236C90.3516 189.878 90.0996 189.23 89.6676 188.786C89.2476 188.342 88.6596 188.12 87.9036 188.12Z" fill="black"/>
<rect x="30.7205" y="327.712" width="356.474" height="61.9771" rx="12" fill="#F8F6FA"/>
<path opacity="0.2" d="M53.1206 355.297H60.3206V356.385H54.4166V360.353H60.0006V361.457H54.4166V365.601H60.3206V366.689H53.1206V355.297ZM71.2949 358.449C73.0762 358.449 73.9669 359.51 73.9669 361.633V366.689H72.6709V361.697C72.6709 360.94 72.5376 360.39 72.2709 360.049C72.0149 359.708 71.5936 359.537 71.0069 359.537C70.3242 359.537 69.7909 359.766 69.4069 360.225C69.0229 360.684 68.8309 361.308 68.8309 362.097V366.689H67.5349V361.697C67.5349 360.95 67.4016 360.406 67.1349 360.065C66.8682 359.713 66.4416 359.537 65.8549 359.537C65.1722 359.537 64.6336 359.766 64.2389 360.225C63.8549 360.684 63.6629 361.308 63.6629 362.097V366.689H62.3669V360.897C62.3669 360.065 62.3242 359.313 62.2389 358.641H63.4709L63.5989 360.049C63.8229 359.537 64.1536 359.142 64.5909 358.865C65.0389 358.588 65.5562 358.449 66.1429 358.449C66.7829 358.449 67.3056 358.577 67.7109 358.833C68.1162 359.089 68.4149 359.484 68.6069 360.017C68.8522 359.537 69.2096 359.158 69.6789 358.881C70.1589 358.593 70.6976 358.449 71.2949 358.449ZM83.5174 358.641V366.689H82.2374V365.233C82.0027 365.734 81.6454 366.124 81.1654 366.401C80.6961 366.668 80.1467 366.801 79.5174 366.801C78.8027 366.801 78.1734 366.63 77.6294 366.289C77.0961 365.948 76.6801 365.468 76.3814 364.849C76.0934 364.22 75.9494 363.489 75.9494 362.657C75.9494 361.825 76.0987 361.094 76.3974 360.465C76.6961 359.825 77.1121 359.329 77.6454 358.977C78.1894 358.625 78.8134 358.449 79.5174 358.449C80.1467 358.449 80.6961 358.588 81.1654 358.865C81.6347 359.142 81.9921 359.532 82.2374 360.033V358.641H83.5174ZM79.7734 365.729C80.5627 365.729 81.1707 365.462 81.5974 364.929C82.0241 364.385 82.2374 363.617 82.2374 362.625C82.2374 361.633 82.0241 360.87 81.5974 360.337C81.1707 359.804 80.5627 359.537 79.7734 359.537C78.9841 359.537 78.3654 359.814 77.9174 360.369C77.4801 360.913 77.2614 361.676 77.2614 362.657C77.2614 363.638 77.4801 364.396 77.9174 364.929C78.3547 365.462 78.9734 365.729 79.7734 365.729ZM86.0231 358.641H87.3191V366.689H86.0231V358.641ZM87.4791 355.233V356.705H85.8951V355.233H87.4791ZM89.8356 354.913H91.1316V366.689H89.8356V354.913Z" fill="black"/>
<path d="M44.2966 302.552H52.3966V303.776H45.7546V308.24H52.0366V309.482H45.7546V314.144H52.3966V315.368H44.2966V302.552ZM64.7427 306.098C66.7467 306.098 67.7487 307.292 67.7487 309.68V315.368H66.2907V309.752C66.2907 308.9 66.1407 308.282 65.8407 307.898C65.5527 307.514 65.0787 307.322 64.4187 307.322C63.6507 307.322 63.0507 307.58 62.6187 308.096C62.1867 308.612 61.9707 309.314 61.9707 310.202V315.368H60.5127V309.752C60.5127 308.912 60.3627 308.3 60.0627 307.916C59.7627 307.52 59.2827 307.322 58.6227 307.322C57.8547 307.322 57.2487 307.58 56.8047 308.096C56.3727 308.612 56.1567 309.314 56.1567 310.202V315.368H54.6987V308.852C54.6987 307.916 54.6507 307.07 54.5547 306.314H55.9407L56.0847 307.898C56.3367 307.322 56.7087 306.878 57.2007 306.566C57.7047 306.254 58.2867 306.098 58.9467 306.098C59.6667 306.098 60.2547 306.242 60.7107 306.53C61.1667 306.818 61.5027 307.262 61.7187 307.862C61.9947 307.322 62.3967 306.896 62.9247 306.584C63.4647 306.26 64.0707 306.098 64.7427 306.098ZM78.493 306.314V315.368H77.053V313.73C76.789 314.294 76.387 314.732 75.847 315.044C75.319 315.344 74.701 315.494 73.993 315.494C73.189 315.494 72.481 315.302 71.869 314.918C71.269 314.534 70.801 313.994 70.465 313.298C70.141 312.59 69.979 311.768 69.979 310.832C69.979 309.896 70.147 309.074 70.483 308.366C70.819 307.646 71.287 307.088 71.887 306.692C72.499 306.296 73.201 306.098 73.993 306.098C74.701 306.098 75.319 306.254 75.847 306.566C76.375 306.878 76.777 307.316 77.053 307.88V306.314H78.493ZM74.281 314.288C75.169 314.288 75.853 313.988 76.333 313.388C76.813 312.776 77.053 311.912 77.053 310.796C77.053 309.68 76.813 308.822 76.333 308.222C75.853 307.622 75.169 307.322 74.281 307.322C73.393 307.322 72.697 307.634 72.193 308.258C71.701 308.87 71.455 309.728 71.455 310.832C71.455 311.936 71.701 312.788 72.193 313.388C72.685 313.988 73.381 314.288 74.281 314.288ZM81.312 306.314H82.77V315.368H81.312V306.314ZM82.95 302.48V304.136H81.168V302.48H82.95ZM85.601 302.12H87.059V315.368H85.601V302.12Z" fill="black"/>
<rect x="30.7205" y="446.824" width="356.474" height="61.9771" rx="12" fill="#F8F6FA"/>
<path opacity="0.2" d="M53.1206 474.409H57.6646C58.838 474.409 59.75 474.692 60.4006 475.257C61.062 475.823 61.3926 476.601 61.3926 477.593C61.3926 478.585 61.062 479.369 60.4006 479.945C59.7393 480.511 58.8273 480.793 57.6646 480.793H54.4326V485.801H53.1206V474.409ZM57.5526 479.705C58.3953 479.705 59.03 479.524 59.4566 479.161C59.8833 478.799 60.0966 478.276 60.0966 477.593C60.0966 476.911 59.8833 476.393 59.4566 476.041C59.03 475.679 58.3953 475.497 57.5526 475.497H54.4326V479.705H57.5526ZM67.3985 477.561C69.3292 477.561 70.2945 478.623 70.2945 480.745V485.801H68.9985V480.809C68.9985 480.063 68.8492 479.519 68.5505 479.177C68.2519 478.825 67.7825 478.649 67.1425 478.649C66.3959 478.649 65.7985 478.879 65.3505 479.337C64.9025 479.796 64.6785 480.415 64.6785 481.193V485.801H63.3825V474.025H64.6785V479.065C64.9345 478.575 65.2972 478.201 65.7665 477.945C66.2465 477.689 66.7905 477.561 67.3985 477.561ZM76.0699 485.913C75.3126 485.913 74.6459 485.743 74.0699 485.401C73.4939 485.06 73.0459 484.575 72.7259 483.945C72.4166 483.316 72.2619 482.58 72.2619 481.737C72.2619 480.895 72.4166 480.159 72.7259 479.529C73.0459 478.9 73.4939 478.415 74.0699 478.073C74.6459 477.732 75.3126 477.561 76.0699 477.561C76.8272 477.561 77.4939 477.732 78.0699 478.073C78.6459 478.415 79.0886 478.9 79.3979 479.529C79.7179 480.159 79.8779 480.895 79.8779 481.737C79.8779 482.58 79.7179 483.316 79.3979 483.945C79.0886 484.575 78.6459 485.06 78.0699 485.401C77.4939 485.743 76.8272 485.913 76.0699 485.913ZM76.0699 484.841C76.8699 484.841 77.4832 484.58 77.9099 484.057C78.3366 483.524 78.5499 482.751 78.5499 481.737C78.5499 480.756 78.3312 479.999 77.8939 479.465C77.4566 478.921 76.8486 478.649 76.0699 478.649C75.2806 478.649 74.6672 478.921 74.2299 479.465C73.7926 479.999 73.5739 480.756 73.5739 481.737C73.5739 482.751 73.7872 483.524 74.2139 484.057C74.6512 484.58 75.2699 484.841 76.0699 484.841ZM85.9141 477.561C87.8448 477.561 88.8101 478.623 88.8101 480.745V485.801H87.5141V480.809C87.5141 480.063 87.3648 479.519 87.0661 479.177C86.7675 478.825 86.2981 478.649 85.6581 478.649C84.9115 478.649 84.3141 478.879 83.8661 479.337C83.4181 479.796 83.1941 480.415 83.1941 481.193V485.801H81.8981V480.009C81.8981 479.177 81.8555 478.425 81.7701 477.753H83.0021L83.1301 479.193C83.3755 478.671 83.7435 478.271 84.2341 477.993C84.7248 477.705 85.2848 477.561 85.9141 477.561ZM97.9935 481.737H92.0895C92.1002 482.761 92.3349 483.535 92.7935 484.057C93.2629 484.58 93.9402 484.841 94.8255 484.841C95.7642 484.841 96.6282 484.527 97.4175 483.897L97.8495 484.841C97.4975 485.172 97.0442 485.433 96.4895 485.625C95.9455 485.817 95.3855 485.913 94.8095 485.913C93.5509 485.913 92.5642 485.545 91.8495 484.809C91.1349 484.063 90.7775 483.044 90.7775 481.753C90.7775 480.932 90.9375 480.207 91.2575 479.577C91.5775 478.937 92.0255 478.441 92.6015 478.089C93.1775 477.737 93.8335 477.561 94.5695 477.561C95.6362 477.561 96.4735 477.913 97.0815 478.617C97.6895 479.311 97.9935 480.271 97.9935 481.497V481.737ZM94.5855 478.569C93.9135 478.569 93.3642 478.772 92.9375 479.177C92.5215 479.583 92.2549 480.153 92.1375 480.889H96.8255C96.7615 480.132 96.5375 479.556 96.1535 479.161C95.7802 478.767 95.2575 478.569 94.5855 478.569Z" fill="black"/>
<path d="M44.2966 421.664H49.4086C50.7286 421.664 51.7546 421.982 52.4866 422.618C53.2306 423.254 53.6026 424.13 53.6026 425.246C53.6026 426.362 53.2306 427.244 52.4866 427.892C51.7426 428.528 50.7166 428.846 49.4086 428.846H45.7726V434.48H44.2966V421.664ZM49.2826 427.622C50.2306 427.622 50.9446 427.418 51.4246 427.01C51.9046 426.602 52.1446 426.014 52.1446 425.246C52.1446 424.478 51.9046 423.896 51.4246 423.5C50.9446 423.092 50.2306 422.888 49.2826 422.888H45.7726V427.622H49.2826ZM60.3593 425.21C62.5313 425.21 63.6173 426.404 63.6173 428.792V434.48H62.1593V428.864C62.1593 428.024 61.9913 427.412 61.6553 427.028C61.3193 426.632 60.7913 426.434 60.0713 426.434C59.2313 426.434 58.5593 426.692 58.0553 427.208C57.5513 427.724 57.2993 428.42 57.2993 429.296V434.48H55.8413V421.232H57.2993V426.902C57.5873 426.35 57.9953 425.93 58.5233 425.642C59.0633 425.354 59.6753 425.21 60.3593 425.21ZM70.1146 434.606C69.2626 434.606 68.5126 434.414 67.8646 434.03C67.2166 433.646 66.7126 433.1 66.3526 432.392C66.0046 431.684 65.8306 430.856 65.8306 429.908C65.8306 428.96 66.0046 428.132 66.3526 427.424C66.7126 426.716 67.2166 426.17 67.8646 425.786C68.5126 425.402 69.2626 425.21 70.1146 425.21C70.9666 425.21 71.7166 425.402 72.3646 425.786C73.0126 426.17 73.5106 426.716 73.8586 427.424C74.2186 428.132 74.3986 428.96 74.3986 429.908C74.3986 430.856 74.2186 431.684 73.8586 432.392C73.5106 433.1 73.0126 433.646 72.3646 434.03C71.7166 434.414 70.9666 434.606 70.1146 434.606ZM70.1146 433.4C71.0146 433.4 71.7046 433.106 72.1846 432.518C72.6646 431.918 72.9046 431.048 72.9046 429.908C72.9046 428.804 72.6586 427.952 72.1666 427.352C71.6746 426.74 70.9906 426.434 70.1146 426.434C69.2266 426.434 68.5366 426.74 68.0446 427.352C67.5526 427.952 67.3066 428.804 67.3066 429.908C67.3066 431.048 67.5466 431.918 68.0266 432.518C68.5186 433.106 69.2146 433.4 70.1146 433.4ZM81.1893 425.21C83.3613 425.21 84.4473 426.404 84.4473 428.792V434.48H82.9893V428.864C82.9893 428.024 82.8213 427.412 82.4853 427.028C82.1493 426.632 81.6213 426.434 80.9013 426.434C80.0613 426.434 79.3893 426.692 78.8853 427.208C78.3813 427.724 78.1293 428.42 78.1293 429.296V434.48H76.6713V427.964C76.6713 427.028 76.6233 426.182 76.5273 425.426H77.9133L78.0573 427.046C78.3333 426.458 78.7473 426.008 79.2993 425.696C79.8513 425.372 80.4813 425.21 81.1893 425.21ZM94.7786 429.908H88.1366C88.1486 431.06 88.4126 431.93 88.9286 432.518C89.4566 433.106 90.2186 433.4 91.2146 433.4C92.2706 433.4 93.2426 433.046 94.1306 432.338L94.6166 433.4C94.2206 433.772 93.7106 434.066 93.0866 434.282C92.4746 434.498 91.8446 434.606 91.1966 434.606C89.7806 434.606 88.6706 434.192 87.8666 433.364C87.0626 432.524 86.6606 431.378 86.6606 429.926C86.6606 429.002 86.8406 428.186 87.2006 427.478C87.5606 426.758 88.0646 426.2 88.7126 425.804C89.3606 425.408 90.0986 425.21 90.9266 425.21C92.1266 425.21 93.0686 425.606 93.7526 426.398C94.4366 427.178 94.7786 428.258 94.7786 429.638V429.908ZM90.9446 426.344C90.1886 426.344 89.5706 426.572 89.0906 427.028C88.6226 427.484 88.3226 428.126 88.1906 428.954H93.4646C93.3926 428.102 93.1406 427.454 92.7086 427.01C92.2886 426.566 91.7006 426.344 90.9446 426.344Z" fill="black"/>
<rect x="30.7205" y="565.937" width="356.474" height="61.9771" rx="12" fill="#F8F6FA"/>
<path opacity="0.2" d="M58.0806 599.058C58.7526 599.25 59.2646 599.58 59.6166 600.05C59.9686 600.519 60.1446 601.111 60.1446 601.826C60.1446 602.818 59.8086 603.602 59.1366 604.178C58.4646 604.743 57.5526 605.026 56.4006 605.026C55.6646 605.026 54.9553 604.903 54.2726 604.658C53.6006 604.412 53.03 604.066 52.5606 603.618L53.0726 602.61C54.1286 603.484 55.2273 603.922 56.3686 603.922C57.1793 603.922 57.7926 603.74 58.2086 603.378C58.6353 603.015 58.8486 602.482 58.8486 601.778C58.8486 600.38 57.974 599.682 56.2246 599.682H54.9126V598.578H55.9686C56.8113 598.578 57.4566 598.391 57.9046 598.018C58.3526 597.644 58.5766 597.111 58.5766 596.418C58.5766 595.799 58.39 595.324 58.0166 594.994C57.654 594.663 57.1366 594.498 56.4646 594.498C55.3766 594.498 54.2993 594.935 53.2326 595.81L52.7366 594.802C53.1953 594.364 53.7553 594.023 54.4166 593.778C55.0886 593.522 55.7873 593.394 56.5126 593.394C57.5366 593.394 58.3526 593.655 58.9606 594.178C59.5793 594.7 59.8886 595.404 59.8886 596.29C59.8886 596.94 59.7286 597.511 59.4086 598.002C59.0886 598.492 58.646 598.844 58.0806 599.058ZM70.3784 602.434H68.6504V604.914H67.3384V602.434H62.0904V601.442L67.5784 593.522H68.6504V601.346H70.3784V602.434ZM67.3384 601.346V595.746L63.4504 601.346H67.3384Z" fill="black"/>
<path d="M52.6846 550.299H45.9886L44.5666 553.593H43.0366L48.6706 540.777H49.9666L55.6006 553.593H54.0886L52.6846 550.299ZM52.1626 549.075L49.3366 542.487L46.5106 549.075H52.1626ZM65.3994 544.539V553.521C65.3994 554.865 65.0514 555.879 64.3554 556.563C63.6714 557.259 62.6574 557.607 61.3134 557.607C59.9334 557.607 58.7454 557.295 57.7494 556.671L58.0014 555.483C58.5774 555.807 59.1174 556.041 59.6214 556.185C60.1374 556.329 60.7014 556.401 61.3134 556.401C62.1894 556.401 62.8494 556.167 63.2934 555.699C63.7374 555.243 63.9594 554.559 63.9594 553.647V551.505C63.6834 552.081 63.2754 552.531 62.7354 552.855C62.2074 553.167 61.5774 553.323 60.8454 553.323C60.0534 553.323 59.3454 553.137 58.7214 552.765C58.1094 552.393 57.6354 551.865 57.2994 551.181C56.9634 550.497 56.7954 549.711 56.7954 548.823C56.7954 547.935 56.9634 547.149 57.2994 546.465C57.6354 545.781 58.1094 545.253 58.7214 544.881C59.3454 544.509 60.0534 544.323 60.8454 544.323C61.5654 544.323 62.1894 544.479 62.7174 544.791C63.2574 545.103 63.6654 545.541 63.9414 546.105V544.539H65.3994ZM61.1334 552.099C62.0094 552.099 62.6934 551.811 63.1854 551.235C63.6894 550.647 63.9414 549.843 63.9414 548.823C63.9414 547.803 63.6894 547.005 63.1854 546.429C62.6934 545.841 62.0094 545.547 61.1334 545.547C60.2454 545.547 59.5434 545.841 59.0274 546.429C58.5234 547.005 58.2714 547.803 58.2714 548.823C58.2714 549.843 58.5234 550.647 59.0274 551.235C59.5434 551.811 60.2454 552.099 61.1334 552.099ZM75.7767 549.021H69.1347C69.1467 550.173 69.4107 551.043 69.9267 551.631C70.4547 552.219 71.2167 552.513 72.2127 552.513C73.2687 552.513 74.2407 552.159 75.1287 551.451L75.6147 552.513C75.2187 552.885 74.7087 553.179 74.0847 553.395C73.4727 553.611 72.8427 553.719 72.1947 553.719C70.7787 553.719 69.6687 553.305 68.8647 552.477C68.0607 551.637 67.6587 550.491 67.6587 549.039C67.6587 548.115 67.8387 547.299 68.1987 546.591C68.5587 545.871 69.0627 545.313 69.7107 544.917C70.3587 544.521 71.0967 544.323 71.9247 544.323C73.1247 544.323 74.0667 544.719 74.7507 545.511C75.4347 546.291 75.7767 547.371 75.7767 548.751V549.021ZM71.9427 545.457C71.1867 545.457 70.5687 545.685 70.0887 546.141C69.6207 546.597 69.3207 547.239 69.1887 548.067H74.4627C74.3907 547.215 74.1387 546.567 73.7067 546.123C73.2867 545.679 72.6987 545.457 71.9427 545.457Z" fill="black"/>
<rect x="30.7205" y="673.419" width="356.474" height="65" rx="12" fill="#00A3FF"/>
<path d="M181.333 714.099C180.24 714.099 179.213 713.952 178.253 713.659C177.306 713.366 176.5 712.946 175.833 712.399L176.713 710.519C177.406 711.039 178.126 711.426 178.873 711.679C179.633 711.919 180.46 712.039 181.353 712.039C182.34 712.039 183.1 711.866 183.633 711.519C184.18 711.172 184.453 710.686 184.453 710.059C184.453 709.526 184.2 709.119 183.693 708.839C183.2 708.546 182.38 708.272 181.233 708.019C179.446 707.632 178.146 707.132 177.333 706.519C176.52 705.906 176.113 705.012 176.113 703.839C176.113 702.999 176.34 702.252 176.793 701.599C177.246 700.946 177.886 700.432 178.713 700.059C179.553 699.686 180.52 699.499 181.613 699.499C182.613 699.499 183.56 699.652 184.453 699.959C185.36 700.252 186.1 700.666 186.673 701.199L185.813 703.079C184.546 702.066 183.146 701.559 181.613 701.559C180.693 701.559 179.966 701.752 179.433 702.139C178.9 702.512 178.633 703.026 178.633 703.679C178.633 704.239 178.866 704.666 179.333 704.959C179.813 705.252 180.626 705.526 181.773 705.779C182.96 706.059 183.926 706.366 184.673 706.699C185.42 707.019 185.993 707.439 186.393 707.959C186.793 708.466 186.993 709.106 186.993 709.879C186.993 710.732 186.766 711.479 186.313 712.119C185.86 712.746 185.206 713.232 184.353 713.579C183.5 713.926 182.493 714.099 181.333 714.099ZM198.404 703.819V713.919H195.964V712.359C195.644 712.919 195.217 713.346 194.684 713.639C194.151 713.932 193.537 714.079 192.844 714.079C190.377 714.079 189.144 712.692 189.144 709.919V703.819H191.624V709.939C191.624 710.672 191.771 711.212 192.064 711.559C192.371 711.906 192.837 712.079 193.464 712.079C194.197 712.079 194.784 711.839 195.224 711.359C195.664 710.879 195.884 710.239 195.884 709.439V703.819H198.404ZM206.878 703.559C207.758 703.559 208.531 703.779 209.198 704.219C209.878 704.646 210.405 705.252 210.778 706.039C211.151 706.826 211.338 707.739 211.338 708.779C211.338 709.819 211.145 710.746 210.758 711.559C210.385 712.359 209.858 712.979 209.178 713.419C208.511 713.859 207.745 714.079 206.878 714.079C206.131 714.079 205.465 713.919 204.878 713.599C204.305 713.279 203.871 712.832 203.578 712.259V713.919H201.118V699.199H203.598V705.339C203.905 704.779 204.345 704.346 204.918 704.039C205.491 703.719 206.145 703.559 206.878 703.559ZM206.218 712.119C207.045 712.119 207.685 711.826 208.138 711.239C208.591 710.652 208.818 709.832 208.818 708.779C208.818 707.739 208.591 706.939 208.138 706.379C207.685 705.806 207.038 705.519 206.198 705.519C205.358 705.519 204.711 705.806 204.258 706.379C203.805 706.952 203.578 707.766 203.578 708.819C203.578 709.886 203.805 710.706 204.258 711.279C204.711 711.839 205.365 712.119 206.218 712.119ZM225.44 703.559C226.587 703.559 227.44 703.906 228 704.599C228.56 705.279 228.84 706.319 228.84 707.719V713.919H226.34V707.799C226.34 706.999 226.207 706.426 225.94 706.079C225.687 705.719 225.26 705.539 224.66 705.539C223.967 705.539 223.42 705.786 223.02 706.279C222.634 706.759 222.44 707.426 222.44 708.279V713.919H219.94V707.799C219.94 707.012 219.8 706.439 219.52 706.079C219.254 705.719 218.827 705.539 218.24 705.539C217.547 705.539 217 705.786 216.6 706.279C216.2 706.759 216 707.426 216 708.279V713.919H213.52V706.679C213.52 705.612 213.467 704.659 213.36 703.819H215.7L215.88 705.419C216.174 704.819 216.594 704.359 217.14 704.039C217.7 703.719 218.34 703.559 219.06 703.559C220.607 703.559 221.614 704.199 222.08 705.479C222.4 704.879 222.854 704.412 223.44 704.079C224.04 703.732 224.707 703.559 225.44 703.559ZM231.509 703.819H233.989V713.919H231.509V703.819ZM234.129 699.239V701.699H231.349V699.239H234.129ZM239.904 705.699V710.219C239.904 711.406 240.457 711.999 241.564 711.999C241.87 711.999 242.204 711.946 242.564 711.839V713.819C242.124 713.979 241.59 714.059 240.964 714.059C239.817 714.059 238.937 713.739 238.324 713.099C237.71 712.459 237.404 711.539 237.404 710.339V705.699H235.464V703.819H237.404V701.359L239.904 700.519V703.819H242.584V705.699H239.904Z" fill="white"/>
<g filter="url(#filter0_d)">
<path fill-rule="evenodd" clip-rule="evenodd" d="M-0.131189 840.381C1.00061 836.759 4.43723 825.76 20.5652 825.76H140.121C149.056 825.76 158.644 829.161 167.61 848.428C171.374 861.953 181.435 878.072 206.845 878.321L206.845 878.321C232.255 878.072 242.316 861.953 246.081 848.428C255.046 829.161 264.634 825.76 273.569 825.76H393.125C409.253 825.76 412.69 836.759 413.821 840.382C413.888 840.595 413.947 840.783 414 840.942V916H206.845L206.845 916H-0.30957V840.942C-0.25671 840.783 -0.19796 840.595 -0.131189 840.381Z" fill="white"/>
</g>
<path fill-rule="evenodd" clip-rule="evenodd" d="M35.8157 881.791V868.384H37.8782V881.791C37.8782 882.064 37.9868 882.326 38.1802 882.52C38.3736 882.713 38.6359 882.822 38.9094 882.822H57.4719C57.7454 882.822 58.0077 882.713 58.2011 882.52C58.3945 882.326 58.5032 882.064 58.5032 881.791V868.384H60.5657V881.791C60.5657 882.611 60.2397 883.398 59.6595 883.978C59.0793 884.558 58.2924 884.884 57.4719 884.884H38.9094C38.0889 884.884 37.302 884.558 36.7218 883.978C36.1416 883.398 35.8157 882.611 35.8157 881.791ZM58.5032 859.103V866.322L54.3782 862.197V859.103C54.3782 858.83 54.4868 858.567 54.6802 858.374C54.8736 858.181 55.1359 858.072 55.4094 858.072H57.4719C57.7454 858.072 58.0077 858.181 58.2011 858.374C58.3945 858.567 58.5032 858.83 58.5032 859.103Z" fill="url(#paint0_linear)"/>
<path fill-rule="evenodd" clip-rule="evenodd" d="M46.7323 857.041C47.1191 856.654 47.6436 856.437 48.1905 856.437C48.7374 856.437 49.2619 856.654 49.6487 857.041L63.3581 870.748C63.5518 870.942 63.6606 871.204 63.6606 871.478C63.6606 871.752 63.5518 872.015 63.3581 872.208C63.1645 872.402 62.9019 872.511 62.628 872.511C62.3542 872.511 62.0915 872.402 61.8979 872.208L48.1905 858.499L34.4831 872.208C34.2895 872.402 34.0269 872.511 33.753 872.511C33.4792 872.511 33.2165 872.402 33.0229 872.208C32.8292 872.015 32.7205 871.752 32.7205 871.478C32.7205 871.204 32.8292 870.942 33.0229 870.748L46.7323 857.041Z" fill="url(#paint1_linear)"/>
<path d="M366.294 854.614C361.929 854.614 358.378 858.165 358.378 862.53C358.378 866.895 361.929 870.447 366.294 870.447C370.66 870.447 374.211 866.895 374.211 862.53C374.211 858.165 370.66 854.614 366.294 854.614ZM366.294 867.28C363.676 867.28 361.544 865.149 361.544 862.53C361.544 859.911 363.676 857.78 366.294 857.78C368.913 857.78 371.044 859.911 371.044 862.53C371.044 865.149 368.913 867.28 366.294 867.28ZM380.544 884.697V883.114C380.544 877.003 375.571 872.03 369.461 872.03H363.128C357.016 872.03 352.044 877.003 352.044 883.114V884.697H355.211V883.114C355.211 878.748 358.763 875.197 363.128 875.197H369.461C373.826 875.197 377.378 878.748 377.378 883.114V884.697H380.544Z" fill="#DFE7ED"/>
<g filter="url(#filter1_d)">
<circle cx="206.845" cy="836.626" r="32.7021" fill="url(#paint2_linear)"/>
</g>
<path d="M206.93 827.381L197.285 837.847M206.93 827.381L216.405 837.847M206.93 827.381V845.871" stroke="white" stroke-width="3" stroke-linecap="round"/>
<path d="M278.325 855.562V878.624H282.7V883.749H308.95V860.687H304.575V855.562H278.325ZM280.513 858.124H302.388V876.062H280.513V858.124ZM282.7 860.687V873.499H300.2V860.687H282.7ZM284.888 863.249H298.013V870.937H284.888V863.249ZM304.575 863.249H306.763V881.187H284.888V878.624H304.575V863.249Z" fill="#DFE7ED"/>
<path d="M121.388 890.717C122.018 890.702 122.622 890.465 123.095 890.048C123.567 889.631 123.876 889.06 123.968 888.437H118.708C118.802 889.077 119.126 889.661 119.619 890.081C120.112 890.5 120.741 890.726 121.388 890.717Z" fill="#DFE7ED"/>
<path d="M135.898 884.267C134.934 883.407 134.089 882.422 133.388 881.337C132.622 879.839 132.163 878.204 132.038 876.527V871.587C132.034 870.987 131.98 870.388 131.878 869.797C131.091 869.639 130.334 869.356 129.638 868.957C129.903 869.812 130.038 870.702 130.038 871.597V876.537C130.161 878.583 130.723 880.578 131.688 882.387C132.378 883.481 133.198 884.488 134.128 885.387H108.518C109.448 884.488 110.268 883.481 110.958 882.387C111.923 880.578 112.485 878.583 112.608 876.537V871.587C112.603 870.429 112.826 869.282 113.264 868.211C113.703 867.141 114.349 866.167 115.164 865.345C115.98 864.524 116.949 863.872 118.017 863.426C119.085 862.98 120.231 862.749 121.388 862.747C123.082 862.748 124.738 863.249 126.148 864.187C125.992 863.616 125.905 863.028 125.888 862.437V861.807C124.844 861.293 123.722 860.955 122.568 860.807V859.547C122.568 859.193 122.427 858.853 122.177 858.603C121.927 858.352 121.587 858.212 121.233 858.212C120.879 858.212 120.539 858.352 120.289 858.603C120.039 858.853 119.898 859.193 119.898 859.547V860.857C117.314 861.221 114.949 862.509 113.239 864.481C111.53 866.453 110.592 868.977 110.598 871.587V876.527C110.473 878.204 110.014 879.839 109.248 881.337C108.559 882.419 107.728 883.405 106.778 884.267C106.671 884.36 106.586 884.476 106.527 884.605C106.469 884.734 106.438 884.875 106.438 885.017V886.377C106.438 886.642 106.543 886.896 106.731 887.084C106.918 887.271 107.173 887.377 107.438 887.377H135.238C135.503 887.377 135.758 887.271 135.945 887.084C136.133 886.896 136.238 886.642 136.238 886.377V885.017C136.238 884.875 136.207 884.734 136.149 884.605C136.09 884.476 136.005 884.36 135.898 884.267Z" fill="#DFE7ED"/>
<path d="M133.388 867.437C136.149 867.437 138.388 865.198 138.388 862.437C138.388 859.675 136.149 857.437 133.388 857.437C130.627 857.437 128.388 859.675 128.388 862.437C128.388 865.198 130.627 867.437 133.388 867.437Z" fill="#DFE7ED"/>
</g>
<defs>
<filter id="filter0_d" x="-15.3096" y="803.76" width="444.309" height="120.24" filterUnits="userSpaceOnUse" color-interpolation-filters="sRGB">
<feFlood flood-opacity="0" result="BackgroundImageFix"/>
<feColorMatrix in="SourceAlpha" type="matrix" values="0 0 0 0 0 0 0 0 0 0 0 0 0 0 0 0 0 0 127 0"/>
<feOffset dy="-7"/>
<feGaussianBlur stdDeviation="7.5"/>
<feColorMatrix type="matrix" values="0 0 0 0 0.895833 0 0 0 0 0.895833 0 0 0 0 0.895833 0 0 0 0.74 0"/>
<feBlend mode="normal" in2="BackgroundImageFix" result="effect1_dropShadow"/>
<feBlend mode="normal" in="SourceGraphic" in2="effect1_dropShadow" result="shape"/>
</filter>
<filter id="filter1_d" x="167.143" y="796.924" width="79.4041" height="79.4041" filterUnits="userSpaceOnUse" color-interpolation-filters="sRGB">
<feFlood flood-opacity="0" result="BackgroundImageFix"/>
<feColorMatrix in="SourceAlpha" type="matrix" values="0 0 0 0 0 0 0 0 0 0 0 0 0 0 0 0 0 0 127 0"/>
<feOffset/>
<feGaussianBlur stdDeviation="3.5"/>
<feColorMatrix type="matrix" values="0 0 0 0 0.517647 0 0 0 0 0.568627 0 0 0 0 0.964706 0 0 0 1 0"/>
<feBlend mode="normal" in2="BackgroundImageFix" result="effect1_dropShadow"/>
<feBlend mode="normal" in="SourceGraphic" in2="effect1_dropShadow" result="shape"/>
</filter>
<linearGradient id="paint0_linear" x1="48.1907" y1="858.072" x2="48.1907" y2="884.884" gradientUnits="userSpaceOnUse">
<stop stop-color="#8491F6"/>
<stop offset="1" stop-color="#50A9DF"/>
</linearGradient>
<linearGradient id="paint1_linear" x1="48.1905" y1="856.437" x2="48.1905" y2="872.511" gradientUnits="userSpaceOnUse">
<stop stop-color="#8491F6"/>
<stop offset="1" stop-color="#50A9DF"/>
</linearGradient>
<linearGradient id="paint2_linear" x1="206.845" y1="803.924" x2="206.845" y2="869.328" gradientUnits="userSpaceOnUse">
<stop stop-color="#8491F6"/>
<stop offset="1" stop-color="#50A9DF"/>
</linearGradient>
<clipPath id="clip0">
<rect width="414" height="916" fill="white"/>
</clipPath>
</defs>
</svg>
