<svg width="414" height="896" viewBox="0 0 414 896" fill="none" xmlns="http://www.w3.org/2000/svg">
<g clip-path="url(#clip0)">
<rect width="414" height="896" fill="white"/>
<path d="M40.6416 121.936C38.5883 121.936 36.8336 121.497 35.3776 120.62C33.9403 119.724 32.8483 118.473 32.1016 116.868C31.355 115.262 30.9816 113.377 30.9816 111.212C30.9816 109.121 31.4203 107.273 32.2976 105.668C33.175 104.062 34.379 102.821 35.9096 101.944C37.4403 101.048 39.1576 100.6 41.0616 100.6C42.499 100.6 44.2256 100.824 46.2416 101.272L47.1656 101.44L46.8856 106.48H45.0096L44.3096 102.924C44.0483 102.7 43.591 102.513 42.9376 102.364C42.303 102.196 41.519 102.112 40.5856 102.112C39.391 102.112 38.327 102.457 37.3936 103.148C36.4603 103.82 35.723 104.818 35.1816 106.144C34.659 107.469 34.3976 109.056 34.3976 110.904C34.3976 112.658 34.631 114.254 35.0976 115.692C35.5643 117.129 36.2736 118.277 37.2256 119.136C38.1776 119.976 39.3536 120.396 40.7536 120.396C41.743 120.396 42.499 120.312 43.0216 120.144C43.563 119.976 44.0203 119.733 44.3936 119.416L45.5696 116.672L47.3336 116.896L46.6616 120.872C46.2696 120.89 45.691 121.021 44.9256 121.264C44.2536 121.469 43.6003 121.628 42.9656 121.74C42.3496 121.87 41.575 121.936 40.6416 121.936ZM51.1226 100.74L48.7706 100.432V99.2277L53.3346 98.6957H53.3906L54.0066 99.1157V105.612L53.8946 107.992C54.4919 107.45 55.3133 106.937 56.3586 106.452C57.4039 105.966 58.4586 105.724 59.5226 105.724C60.6986 105.724 61.6133 105.948 62.2666 106.396C62.9199 106.844 63.3773 107.534 63.6386 108.468C63.8999 109.382 64.0306 110.624 64.0306 112.192V120.004L65.9906 120.256V121.628H59.2986V120.256L61.1186 120.004V112.164C61.1186 111.062 61.0439 110.204 60.8946 109.588C60.7453 108.953 60.4653 108.486 60.0546 108.188C59.6439 107.87 59.0279 107.712 58.2066 107.712C57.5346 107.712 56.8159 107.88 56.0506 108.216C55.2853 108.552 54.6133 108.944 54.0346 109.392V120.004L55.9666 120.256V121.628H49.4426V120.256L51.1226 120.032V100.74ZM68.0676 117.428C68.0676 115.673 68.945 114.385 70.6996 113.564C72.4543 112.724 74.6756 112.276 77.3636 112.22V111.436C77.3636 110.558 77.2703 109.868 77.0836 109.364C76.897 108.86 76.5703 108.496 76.1036 108.272C75.6556 108.029 75.0116 107.908 74.1716 107.908C73.2196 107.908 72.361 108.048 71.5956 108.328C70.849 108.589 70.1023 108.916 69.3556 109.308L68.6556 107.852C68.8983 107.646 69.3463 107.376 69.9996 107.04C70.653 106.704 71.409 106.405 72.2676 106.144C73.1263 105.882 73.985 105.752 74.8436 105.752C76.169 105.752 77.2143 105.938 77.9796 106.312C78.7636 106.666 79.3236 107.245 79.6596 108.048C79.9956 108.85 80.1636 109.924 80.1636 111.268V120.256H81.8156V121.488C81.4423 121.581 80.9663 121.674 80.3876 121.768C79.8276 121.861 79.333 121.908 78.9036 121.908C78.381 121.908 78.0263 121.824 77.8396 121.656C77.653 121.506 77.5596 121.161 77.5596 120.62V119.696C76.9996 120.256 76.309 120.769 75.4876 121.236C74.685 121.702 73.7703 121.936 72.7436 121.936C71.3996 121.936 70.2796 121.553 69.3836 120.788C68.5063 120.004 68.0676 118.884 68.0676 117.428ZM73.9476 120.032C74.433 120.032 74.993 119.882 75.6276 119.584C76.2623 119.285 76.841 118.93 77.3636 118.52V113.704C75.329 113.704 73.789 114.021 72.7436 114.656C71.717 115.272 71.2036 116.084 71.2036 117.092C71.2036 118.1 71.4463 118.846 71.9316 119.332C72.4356 119.798 73.1076 120.032 73.9476 120.032ZM85.4429 108.244L83.4269 107.74V106.228L87.4309 105.724H87.5149L88.1029 106.228V107.404L88.0749 108.076C88.7469 107.478 89.6336 106.937 90.7349 106.452C91.8363 105.966 92.8909 105.724 93.8989 105.724C95.0749 105.724 95.9803 105.948 96.6149 106.396C97.2683 106.844 97.7256 107.534 97.9869 108.468C98.2483 109.382 98.3789 110.624 98.3789 112.192V120.032L100.339 120.228V121.628H93.7029V120.256L95.4389 120.032V112.164C95.4389 111.062 95.3643 110.204 95.2149 109.588C95.0656 108.953 94.7856 108.486 94.3749 108.188C93.9643 107.87 93.3669 107.712 92.5829 107.712C91.9109 107.712 91.1923 107.88 90.4269 108.216C89.6616 108.552 88.9803 108.944 88.3829 109.392V120.004L90.2869 120.256V121.628H83.6789V120.256L85.4429 120.004V108.244ZM109.049 129.188C106.659 129.188 104.923 128.805 103.841 128.04C102.777 127.293 102.245 126.257 102.245 124.932C102.245 124.11 102.497 123.354 103.001 122.664C103.523 121.973 104.139 121.45 104.849 121.096C103.99 120.61 103.561 119.826 103.561 118.744C103.561 118.072 103.757 117.437 104.149 116.84C104.541 116.242 105.054 115.785 105.689 115.468C104.755 115.057 104.037 114.469 103.533 113.704C103.047 112.938 102.805 112.033 102.805 110.988C102.805 109.905 103.103 108.962 103.701 108.16C104.317 107.357 105.119 106.741 106.109 106.312C107.117 105.882 108.181 105.668 109.301 105.668C111.186 105.668 112.661 106.06 113.725 106.844C114.005 106.564 114.434 106.293 115.013 106.032C115.591 105.77 116.207 105.64 116.861 105.64H117.813V108.104H114.733C115.181 108.794 115.405 109.597 115.405 110.512C115.405 111.613 115.125 112.593 114.565 113.452C114.023 114.292 113.258 114.945 112.269 115.412C111.298 115.878 110.197 116.112 108.965 116.112C108.162 116.112 107.443 116.028 106.809 115.86C106.547 116.121 106.333 116.41 106.165 116.728C105.997 117.045 105.913 117.353 105.913 117.652C105.913 118.324 106.137 118.79 106.585 119.052C107.033 119.294 107.835 119.416 108.993 119.416H112.157C113.967 119.416 115.311 119.761 116.189 120.452C117.066 121.142 117.505 122.122 117.505 123.392C117.505 124.456 117.122 125.426 116.357 126.304C115.591 127.2 114.555 127.9 113.249 128.404C111.961 128.926 110.561 129.188 109.049 129.188ZM109.245 114.572C111.373 114.572 112.437 113.312 112.437 110.792C112.437 109.541 112.157 108.626 111.597 108.048C111.055 107.45 110.234 107.152 109.133 107.152C108.106 107.152 107.294 107.441 106.697 108.02C106.099 108.58 105.801 109.485 105.801 110.736C105.801 111.912 106.081 112.845 106.641 113.536C107.219 114.226 108.087 114.572 109.245 114.572ZM109.301 127.564C110.215 127.564 111.074 127.424 111.877 127.144C112.698 126.882 113.361 126.481 113.865 125.94C114.369 125.417 114.621 124.801 114.621 124.092C114.621 123.252 114.397 122.636 113.949 122.244C113.501 121.87 112.633 121.684 111.345 121.684H108.041C107.294 121.684 106.706 121.637 106.277 121.544C105.511 122.384 105.129 123.326 105.129 124.372C105.129 125.417 105.446 126.21 106.081 126.752C106.715 127.293 107.789 127.564 109.301 127.564ZM126.252 121.936C123.994 121.936 122.267 121.198 121.072 119.724C119.896 118.249 119.308 116.28 119.308 113.816C119.308 112.192 119.616 110.764 120.232 109.532C120.848 108.3 121.707 107.348 122.808 106.676C123.928 106.004 125.198 105.668 126.616 105.668C128.352 105.668 129.696 106.153 130.648 107.124C131.619 108.076 132.132 109.448 132.188 111.24C132.188 112.378 132.123 113.246 131.992 113.844H122.36C122.398 115.692 122.827 117.185 123.648 118.324C124.47 119.444 125.636 120.004 127.148 120.004C127.895 120.004 128.67 119.873 129.472 119.612C130.294 119.332 130.928 119.005 131.376 118.632L131.908 119.864C131.367 120.424 130.564 120.909 129.5 121.32C128.436 121.73 127.354 121.936 126.252 121.936ZM129.108 112.36C129.164 111.968 129.192 111.566 129.192 111.156C129.174 109.942 128.912 108.99 128.408 108.3C127.923 107.59 127.148 107.236 126.084 107.236C125.002 107.236 124.134 107.628 123.48 108.412C122.846 109.196 122.482 110.512 122.388 112.36H129.108ZM143.647 102.56L141.463 102.224V100.824H145.187C145.859 100.824 146.522 100.796 147.175 100.74C148.183 100.665 149.135 100.628 150.031 100.628C152.738 100.646 154.651 101.15 155.771 102.14C156.891 103.129 157.451 104.622 157.451 106.62C157.451 108.113 157.106 109.41 156.415 110.512C155.725 111.613 154.763 112.453 153.531 113.032C152.318 113.61 150.918 113.9 149.331 113.9C148.79 113.9 148.239 113.89 147.679 113.872C147.119 113.834 146.774 113.806 146.643 113.788V119.948L150.479 120.256V121.628H141.323V120.256L143.647 119.976V102.56ZM146.643 112.248C147.166 112.341 148.062 112.388 149.331 112.388C150.806 112.388 152.001 111.94 152.915 111.044C153.849 110.148 154.315 108.682 154.315 106.648C154.315 105.042 153.914 103.894 153.111 103.204C152.309 102.494 151.058 102.14 149.359 102.14C148.762 102.14 148.127 102.177 147.455 102.252C147.045 102.289 146.774 102.308 146.643 102.308V112.248ZM159.423 117.428C159.423 115.673 160.3 114.385 162.055 113.564C163.81 112.724 166.031 112.276 168.719 112.22V111.436C168.719 110.558 168.626 109.868 168.439 109.364C168.252 108.86 167.926 108.496 167.459 108.272C167.011 108.029 166.367 107.908 165.527 107.908C164.575 107.908 163.716 108.048 162.951 108.328C162.204 108.589 161.458 108.916 160.711 109.308L160.011 107.852C160.254 107.646 160.702 107.376 161.355 107.04C162.008 106.704 162.764 106.405 163.623 106.144C164.482 105.882 165.34 105.752 166.199 105.752C167.524 105.752 168.57 105.938 169.335 106.312C170.119 106.666 170.679 107.245 171.015 108.048C171.351 108.85 171.519 109.924 171.519 111.268V120.256H173.171V121.488C172.798 121.581 172.322 121.674 171.743 121.768C171.183 121.861 170.688 121.908 170.259 121.908C169.736 121.908 169.382 121.824 169.195 121.656C169.008 121.506 168.915 121.161 168.915 120.62V119.696C168.355 120.256 167.664 120.769 166.843 121.236C166.04 121.702 165.126 121.936 164.099 121.936C162.755 121.936 161.635 121.553 160.739 120.788C159.862 120.004 159.423 118.884 159.423 117.428ZM165.303 120.032C165.788 120.032 166.348 119.882 166.983 119.584C167.618 119.285 168.196 118.93 168.719 118.52V113.704C166.684 113.704 165.144 114.021 164.099 114.656C163.072 115.272 162.559 116.084 162.559 117.092C162.559 118.1 162.802 118.846 163.287 119.332C163.791 119.798 164.463 120.032 165.303 120.032ZM177.722 119.388C177.909 119.668 178.301 119.92 178.898 120.144C179.514 120.368 180.158 120.48 180.83 120.48C181.894 120.48 182.678 120.274 183.182 119.864C183.686 119.453 183.938 118.884 183.938 118.156C183.938 117.652 183.78 117.213 183.462 116.84C183.145 116.466 182.697 116.14 182.118 115.86C181.558 115.561 180.746 115.206 179.682 114.796C178.245 114.254 177.19 113.61 176.518 112.864C175.865 112.098 175.538 111.1 175.538 109.868C175.538 109.046 175.781 108.328 176.266 107.712C176.77 107.096 177.452 106.62 178.31 106.284C179.188 105.929 180.158 105.752 181.222 105.752C182.081 105.752 182.828 105.817 183.462 105.948C184.116 106.078 184.638 106.209 185.03 106.34C185.422 106.47 185.684 106.554 185.814 106.592V110.064H184.106L183.546 107.992C183.434 107.768 183.136 107.581 182.65 107.432C182.165 107.264 181.624 107.18 181.026 107.18C180.186 107.18 179.505 107.366 178.982 107.74C178.478 108.113 178.226 108.617 178.226 109.252C178.226 109.812 178.357 110.278 178.618 110.652C178.898 111.006 179.244 111.296 179.654 111.52C180.065 111.744 180.625 112.005 181.334 112.304L181.894 112.528C182.94 112.938 183.789 113.33 184.442 113.704C185.096 114.077 185.637 114.572 186.066 115.188C186.514 115.785 186.738 116.522 186.738 117.4C186.738 118.781 186.197 119.882 185.114 120.704C184.05 121.525 182.585 121.936 180.718 121.936C179.804 121.936 178.842 121.814 177.834 121.572C176.845 121.31 176.033 121.049 175.398 120.788V117.204H177.218L177.722 119.388ZM191.859 119.388C192.046 119.668 192.438 119.92 193.035 120.144C193.651 120.368 194.295 120.48 194.967 120.48C196.031 120.48 196.815 120.274 197.319 119.864C197.823 119.453 198.075 118.884 198.075 118.156C198.075 117.652 197.916 117.213 197.599 116.84C197.282 116.466 196.834 116.14 196.255 115.86C195.695 115.561 194.883 115.206 193.819 114.796C192.382 114.254 191.327 113.61 190.655 112.864C190.002 112.098 189.675 111.1 189.675 109.868C189.675 109.046 189.918 108.328 190.403 107.712C190.907 107.096 191.588 106.62 192.447 106.284C193.324 105.929 194.295 105.752 195.359 105.752C196.218 105.752 196.964 105.817 197.599 105.948C198.252 106.078 198.775 106.209 199.167 106.34C199.559 106.47 199.82 106.554 199.951 106.592V110.064H198.243L197.683 107.992C197.571 107.768 197.272 107.581 196.787 107.432C196.302 107.264 195.76 107.18 195.163 107.18C194.323 107.18 193.642 107.366 193.119 107.74C192.615 108.113 192.363 108.617 192.363 109.252C192.363 109.812 192.494 110.278 192.755 110.652C193.035 111.006 193.38 111.296 193.791 111.52C194.202 111.744 194.762 112.005 195.471 112.304L196.031 112.528C197.076 112.938 197.926 113.33 198.579 113.704C199.232 114.077 199.774 114.572 200.203 115.188C200.651 115.785 200.875 116.522 200.875 117.4C200.875 118.781 200.334 119.882 199.251 120.704C198.187 121.525 196.722 121.936 194.855 121.936C193.94 121.936 192.979 121.814 191.971 121.572C190.982 121.31 190.17 121.049 189.535 120.788V117.204H191.355L191.859 119.388ZM201.936 106.088H208.46V107.404L206.332 107.74L208.656 115.972L209.468 119.528L210.28 115.944L212.968 106.088H215.712L218.484 115.944L219.296 119.556L220.192 115.972L222.46 107.768L220.332 107.404V106.088H226.016V107.404L224.532 107.768L220.192 121.852H217.56L214.592 111.968L213.864 108.496L213.276 111.968L210.448 121.852H207.844L203.364 107.74L201.936 107.404V106.088ZM226.88 113.816C226.88 112.136 227.225 110.68 227.916 109.448C228.607 108.216 229.512 107.282 230.632 106.648C231.771 105.994 232.984 105.668 234.272 105.668C236.624 105.668 238.388 106.414 239.564 107.908C240.759 109.401 241.356 111.361 241.356 113.788C241.356 115.486 241.011 116.952 240.32 118.184C239.629 119.416 238.715 120.349 237.576 120.984C236.456 121.618 235.252 121.936 233.964 121.936C231.612 121.936 229.839 121.189 228.644 119.696C227.468 118.202 226.88 116.242 226.88 113.816ZM234.132 120.34C235.42 120.34 236.409 119.808 237.1 118.744C237.791 117.68 238.136 116.102 238.136 114.012C238.136 111.94 237.819 110.297 237.184 109.084C236.549 107.87 235.532 107.264 234.132 107.264C232.844 107.264 231.845 107.796 231.136 108.86C230.445 109.924 230.1 111.501 230.1 113.592C230.1 115.664 230.427 117.306 231.08 118.52C231.733 119.733 232.751 120.34 234.132 120.34ZM243.971 120.256L246.071 120.088V108.244L244.055 107.74V106.228L247.919 105.724H247.975L248.591 106.228V106.732L248.507 108.916H248.591C248.778 108.598 249.114 108.188 249.599 107.684C250.085 107.18 250.71 106.722 251.475 106.312C252.241 105.882 253.071 105.668 253.967 105.668C254.341 105.668 254.649 105.714 254.891 105.808V108.944C254.761 108.85 254.546 108.766 254.247 108.692C253.967 108.598 253.65 108.552 253.295 108.552C251.746 108.552 250.309 109.028 248.983 109.98V120.06L252.539 120.284V121.628H243.971V120.256ZM262.787 121.936C261.667 121.936 260.641 121.656 259.707 121.096C258.774 120.536 258.027 119.677 257.467 118.52C256.926 117.362 256.655 115.934 256.655 114.236C256.655 112.649 256.982 111.202 257.635 109.896C258.289 108.589 259.222 107.562 260.435 106.816C261.667 106.05 263.114 105.668 264.775 105.668C265.727 105.668 266.595 105.77 267.379 105.976V100.74L264.523 100.404V99.1997L269.563 98.6957H269.647L270.263 99.1437V120.2H271.887V121.488C271.29 121.618 270.767 121.721 270.319 121.796C269.89 121.87 269.433 121.908 268.947 121.908C268.462 121.908 268.117 121.824 267.911 121.656C267.706 121.488 267.603 121.133 267.603 120.592V119.696C267.081 120.33 266.39 120.862 265.531 121.292C264.691 121.721 263.777 121.936 262.787 121.936ZM263.907 119.948C264.635 119.948 265.317 119.789 265.951 119.472C266.586 119.136 267.062 118.753 267.379 118.324V108.076C267.23 107.852 266.875 107.656 266.315 107.488C265.774 107.301 265.195 107.208 264.579 107.208C263.123 107.208 261.957 107.768 261.079 108.888C260.221 109.989 259.791 111.697 259.791 114.012C259.791 116.028 260.174 117.521 260.939 118.492C261.705 119.462 262.694 119.948 263.907 119.948Z" fill="#6A515E"/>
<path fill-rule="evenodd" clip-rule="evenodd" d="M53.9583 43.9454H39.6214L44.0113 38.9441C44.439 38.4577 44.3689 37.7339 43.8566 37.329C43.343 36.9229 42.5818 36.9895 42.1553 37.4758L36.1136 44.3584C36.0665 44.4123 36.0423 44.4754 36.0073 44.535C35.9783 44.5832 35.9432 44.6245 35.9215 44.6773C35.8671 44.8092 35.8345 44.948 35.8345 45.0879C35.8345 45.0891 35.8333 45.0914 35.8333 45.0925C35.8333 45.0937 35.8345 45.096 35.8345 45.0971C35.8345 45.2371 35.8671 45.3758 35.9215 45.5078C35.9432 45.5605 35.9783 45.6018 36.0073 45.65C36.0423 45.7097 36.0665 45.7727 36.1136 45.8267L42.1553 52.7092C42.3945 52.9811 42.7377 53.1221 43.0833 53.1221C43.3563 53.1221 43.6306 53.035 43.8566 52.856C44.3689 52.4511 44.439 51.7273 44.0113 51.2409L39.6214 46.2396H53.9583C54.6252 46.2396 55.1666 45.7257 55.1666 45.0925C55.1666 44.4593 54.6252 43.9454 53.9583 43.9454Z" fill="#6A515E"/>
<mask id="mask0" mask-type="alpha" maskUnits="userSpaceOnUse" x="35" y="37" width="25" height="17">
<path fill-rule="evenodd" clip-rule="evenodd" d="M58.4895 43.9454H40.5684L46.0557 38.9441C46.5904 38.4577 46.5028 37.7339 45.8624 37.329C45.2205 36.9229 44.2689 36.9895 43.7357 37.4758L36.1837 44.3584C36.1248 44.4123 36.0946 44.4754 36.0508 44.535C36.0145 44.5832 35.9707 44.6245 35.9435 44.6773C35.8755 44.8092 35.8348 44.948 35.8348 45.0879C35.8348 45.0891 35.8333 45.0914 35.8333 45.0925C35.8333 45.0937 35.8348 45.096 35.8348 45.0971C35.8348 45.2371 35.8755 45.3758 35.9435 45.5078C35.9707 45.5605 36.0145 45.6018 36.0508 45.65C36.0946 45.7097 36.1248 45.7727 36.1837 45.8267L43.7357 52.7092C44.0348 52.9811 44.4638 53.1221 44.8957 53.1221C45.2371 53.1221 45.58 53.035 45.8624 52.856C46.5028 52.4511 46.5904 51.7273 46.0557 51.2409L40.5684 46.2396H58.4895C59.3232 46.2396 59.9999 45.7257 59.9999 45.0925C59.9999 44.4593 59.3232 43.9454 58.4895 43.9454Z" fill="white"/>
</mask>
<g mask="url(#mask0)">
</g>
<rect x="30.7205" y="208.6" width="356.474" height="61.9771" rx="12" fill="#F8F6FA"/>
<path opacity="0.2" d="M62.2566 236.185V247.577H61.2326L54.3526 238.409V247.577H53.1206V236.185H54.1286L61.0086 245.353V236.185H62.2566ZM71.9861 239.529V247.577H70.7061V246.121C70.4715 246.622 70.1141 247.012 69.6341 247.289C69.1648 247.556 68.6155 247.689 67.9861 247.689C67.2715 247.689 66.6421 247.518 66.0981 247.177C65.5648 246.836 65.1488 246.356 64.8501 245.737C64.5621 245.108 64.4181 244.377 64.4181 243.545C64.4181 242.713 64.5675 241.982 64.8661 241.353C65.1648 240.713 65.5808 240.217 66.1141 239.865C66.6581 239.513 67.2821 239.337 67.9861 239.337C68.6155 239.337 69.1648 239.476 69.6341 239.753C70.1035 240.03 70.4608 240.42 70.7061 240.921V239.529H71.9861ZM68.2421 246.617C69.0315 246.617 69.6395 246.35 70.0661 245.817C70.4928 245.273 70.7061 244.505 70.7061 243.513C70.7061 242.521 70.4928 241.758 70.0661 241.225C69.6395 240.692 69.0315 240.425 68.2421 240.425C67.4528 240.425 66.8341 240.702 66.3861 241.257C65.9488 241.801 65.7301 242.564 65.7301 243.545C65.7301 244.526 65.9488 245.284 66.3861 245.817C66.8235 246.35 67.4421 246.617 68.2421 246.617ZM83.4199 239.337C85.2012 239.337 86.0919 240.398 86.0919 242.521V247.577H84.7959V242.585C84.7959 241.828 84.6626 241.278 84.3959 240.937C84.1399 240.596 83.7186 240.425 83.1319 240.425C82.4492 240.425 81.9159 240.654 81.5319 241.113C81.1479 241.572 80.9559 242.196 80.9559 242.985V247.577H79.6599V242.585C79.6599 241.838 79.5266 241.294 79.2599 240.953C78.9932 240.601 78.5666 240.425 77.9799 240.425C77.2972 240.425 76.7586 240.654 76.3639 241.113C75.9799 241.572 75.7879 242.196 75.7879 242.985V247.577H74.4919V241.785C74.4919 240.953 74.4492 240.201 74.3639 239.529H75.5959L75.7239 240.937C75.9479 240.425 76.2786 240.03 76.7159 239.753C77.1639 239.476 77.6812 239.337 78.2679 239.337C78.9079 239.337 79.4306 239.465 79.8359 239.721C80.2412 239.977 80.5399 240.372 80.7319 240.905C80.9772 240.425 81.3346 240.046 81.8039 239.769C82.2839 239.481 82.8226 239.337 83.4199 239.337ZM95.2904 243.513H89.3864C89.3971 244.537 89.6317 245.31 90.0904 245.833C90.5597 246.356 91.2371 246.617 92.1224 246.617C93.0611 246.617 93.9251 246.302 94.7144 245.673L95.1464 246.617C94.7944 246.948 94.3411 247.209 93.7864 247.401C93.2424 247.593 92.6824 247.689 92.1064 247.689C90.8477 247.689 89.8611 247.321 89.1464 246.585C88.4317 245.838 88.0744 244.82 88.0744 243.529C88.0744 242.708 88.2344 241.982 88.5544 241.353C88.8744 240.713 89.3224 240.217 89.8984 239.865C90.4744 239.513 91.1304 239.337 91.8664 239.337C92.9331 239.337 93.7704 239.689 94.3784 240.393C94.9864 241.086 95.2904 242.046 95.2904 243.273V243.513ZM91.8824 240.345C91.2104 240.345 90.6611 240.548 90.2344 240.953C89.8184 241.358 89.5517 241.929 89.4344 242.665H94.1224C94.0584 241.908 93.8344 241.332 93.4504 240.937C93.0771 240.542 92.5544 240.345 91.8824 240.345Z" fill="black"/>
<path d="M54.5746 183.44V196.256H53.4226L45.6826 185.942V196.256H44.2966V183.44H45.4306L53.1706 193.754V183.44H54.5746ZM65.1243 191.684H58.4823C58.4943 192.836 58.7583 193.706 59.2743 194.294C59.8023 194.882 60.5643 195.176 61.5603 195.176C62.6163 195.176 63.5883 194.822 64.4763 194.114L64.9623 195.176C64.5663 195.548 64.0563 195.842 63.4323 196.058C62.8203 196.274 62.1903 196.382 61.5423 196.382C60.1263 196.382 59.0163 195.968 58.2123 195.14C57.4083 194.3 57.0063 193.154 57.0063 191.702C57.0063 190.778 57.1863 189.962 57.5463 189.254C57.9063 188.534 58.4103 187.976 59.0583 187.58C59.7063 187.184 60.4443 186.986 61.2723 186.986C62.4723 186.986 63.4143 187.382 64.0983 188.174C64.7823 188.954 65.1243 190.034 65.1243 191.414V191.684ZM61.2903 188.12C60.5343 188.12 59.9163 188.348 59.4363 188.804C58.9683 189.26 58.6683 189.902 58.5363 190.73H63.8103C63.7383 189.878 63.4863 189.23 63.0543 188.786C62.6343 188.342 62.0463 188.12 61.2903 188.12ZM80.9839 187.202L77.6359 196.256H76.2319L73.6399 189.182L71.0659 196.256H69.6619L66.3139 187.202H67.8439L70.3999 194.51L73.0459 187.202H74.3239L76.9339 194.528L79.5439 187.202H80.9839ZM87.7498 183.44H92.8618C94.1818 183.44 95.2078 183.758 95.9398 184.394C96.6838 185.03 97.0558 185.906 97.0558 187.022C97.0558 188.138 96.6838 189.02 95.9398 189.668C95.1958 190.304 94.1698 190.622 92.8618 190.622H89.2258V196.256H87.7498V183.44ZM92.7358 189.398C93.6838 189.398 94.3978 189.194 94.8778 188.786C95.3578 188.378 95.5978 187.79 95.5978 187.022C95.5978 186.254 95.3578 185.672 94.8778 185.276C94.3978 184.868 93.6838 184.664 92.7358 184.664H89.2258V189.398H92.7358ZM106.987 187.202V196.256H105.547V194.618C105.283 195.182 104.881 195.62 104.341 195.932C103.813 196.232 103.195 196.382 102.487 196.382C101.683 196.382 100.975 196.19 100.363 195.806C99.7631 195.422 99.2951 194.882 98.9591 194.186C98.6351 193.478 98.4731 192.656 98.4731 191.72C98.4731 190.784 98.6411 189.962 98.9771 189.254C99.3131 188.534 99.7811 187.976 100.381 187.58C100.993 187.184 101.695 186.986 102.487 186.986C103.195 186.986 103.813 187.142 104.341 187.454C104.869 187.766 105.271 188.204 105.547 188.768V187.202H106.987ZM102.775 195.176C103.663 195.176 104.347 194.876 104.827 194.276C105.307 193.664 105.547 192.8 105.547 191.684C105.547 190.568 105.307 189.71 104.827 189.11C104.347 188.51 103.663 188.21 102.775 188.21C101.887 188.21 101.191 188.522 100.687 189.146C100.195 189.758 99.9491 190.616 99.9491 191.72C99.9491 192.824 100.195 193.676 100.687 194.276C101.179 194.876 101.875 195.176 102.775 195.176ZM112.866 196.382C111.342 196.382 110.136 195.992 109.248 195.212L109.734 194.132C110.226 194.516 110.724 194.792 111.228 194.96C111.732 195.128 112.296 195.212 112.92 195.212C113.604 195.212 114.12 195.098 114.468 194.87C114.828 194.63 115.008 194.288 115.008 193.844C115.008 193.484 114.888 193.196 114.648 192.98C114.408 192.764 114.012 192.596 113.46 192.476L111.93 192.116C111.174 191.948 110.586 191.648 110.166 191.216C109.758 190.784 109.554 190.268 109.554 189.668C109.554 188.876 109.872 188.234 110.508 187.742C111.144 187.238 111.984 186.986 113.028 186.986C113.664 186.986 114.264 187.088 114.828 187.292C115.392 187.496 115.866 187.79 116.25 188.174L115.764 189.236C114.912 188.528 114 188.174 113.028 188.174C112.38 188.174 111.876 188.3 111.516 188.552C111.168 188.792 110.994 189.134 110.994 189.578C110.994 189.95 111.102 190.244 111.318 190.46C111.546 190.676 111.906 190.844 112.398 190.964L113.928 191.342C114.768 191.534 115.392 191.834 115.8 192.242C116.208 192.638 116.412 193.16 116.412 193.808C116.412 194.588 116.094 195.212 115.458 195.68C114.822 196.148 113.958 196.382 112.866 196.382ZM121.796 196.382C120.272 196.382 119.066 195.992 118.178 195.212L118.664 194.132C119.156 194.516 119.654 194.792 120.158 194.96C120.662 195.128 121.226 195.212 121.85 195.212C122.534 195.212 123.05 195.098 123.398 194.87C123.758 194.63 123.938 194.288 123.938 193.844C123.938 193.484 123.818 193.196 123.578 192.98C123.338 192.764 122.942 192.596 122.39 192.476L120.86 192.116C120.104 191.948 119.516 191.648 119.096 191.216C118.688 190.784 118.484 190.268 118.484 189.668C118.484 188.876 118.802 188.234 119.438 187.742C120.074 187.238 120.914 186.986 121.958 186.986C122.594 186.986 123.194 187.088 123.758 187.292C124.322 187.496 124.796 187.79 125.18 188.174L124.694 189.236C123.842 188.528 122.93 188.174 121.958 188.174C121.31 188.174 120.806 188.3 120.446 188.552C120.098 188.792 119.924 189.134 119.924 189.578C119.924 189.95 120.032 190.244 120.248 190.46C120.476 190.676 120.836 190.844 121.328 190.964L122.858 191.342C123.698 191.534 124.322 191.834 124.73 192.242C125.138 192.638 125.342 193.16 125.342 193.808C125.342 194.588 125.024 195.212 124.388 195.68C123.752 196.148 122.888 196.382 121.796 196.382ZM141.259 187.202L137.911 196.256H136.507L133.915 189.182L131.341 196.256H129.937L126.589 187.202H128.119L130.675 194.51L133.321 187.202H134.599L137.209 194.528L139.819 187.202H141.259ZM146.79 196.382C145.938 196.382 145.188 196.19 144.54 195.806C143.892 195.422 143.388 194.876 143.028 194.168C142.68 193.46 142.506 192.632 142.506 191.684C142.506 190.736 142.68 189.908 143.028 189.2C143.388 188.492 143.892 187.946 144.54 187.562C145.188 187.178 145.938 186.986 146.79 186.986C147.642 186.986 148.392 187.178 149.04 187.562C149.688 187.946 150.186 188.492 150.534 189.2C150.894 189.908 151.074 190.736 151.074 191.684C151.074 192.632 150.894 193.46 150.534 194.168C150.186 194.876 149.688 195.422 149.04 195.806C148.392 196.19 147.642 196.382 146.79 196.382ZM146.79 195.176C147.69 195.176 148.38 194.882 148.86 194.294C149.34 193.694 149.58 192.824 149.58 191.684C149.58 190.58 149.334 189.728 148.842 189.128C148.35 188.516 147.666 188.21 146.79 188.21C145.902 188.21 145.212 188.516 144.72 189.128C144.228 189.728 143.982 190.58 143.982 191.684C143.982 192.824 144.222 193.694 144.702 194.294C145.194 194.882 145.89 195.176 146.79 195.176ZM157.559 186.986C157.859 186.986 158.135 187.022 158.387 187.094L158.351 188.426C158.075 188.33 157.757 188.282 157.397 188.282C156.521 188.282 155.867 188.558 155.435 189.11C155.015 189.65 154.805 190.31 154.805 191.09V196.256H153.347V189.74C153.347 188.804 153.299 187.958 153.203 187.202H154.589L154.733 188.876C154.961 188.264 155.327 187.796 155.831 187.472C156.335 187.148 156.911 186.986 157.559 186.986ZM167.667 183.008V196.256H166.227V194.618C165.963 195.182 165.561 195.62 165.021 195.932C164.493 196.232 163.875 196.382 163.167 196.382C162.375 196.382 161.673 196.184 161.061 195.788C160.461 195.392 159.993 194.84 159.657 194.132C159.321 193.412 159.153 192.584 159.153 191.648C159.153 190.712 159.315 189.896 159.639 189.2C159.975 188.492 160.449 187.946 161.061 187.562C161.673 187.178 162.375 186.986 163.167 186.986C163.875 186.986 164.493 187.142 165.021 187.454C165.549 187.754 165.945 188.18 166.209 188.732V183.008H167.667ZM163.455 195.176C164.343 195.176 165.027 194.876 165.507 194.276C165.987 193.664 166.227 192.8 166.227 191.684C166.227 190.58 165.987 189.728 165.507 189.128C165.027 188.516 164.343 188.21 163.455 188.21C162.567 188.21 161.871 188.51 161.367 189.11C160.875 189.71 160.629 190.556 160.629 191.648C160.629 192.764 160.875 193.634 161.367 194.258C161.871 194.87 162.567 195.176 163.455 195.176Z" fill="black"/>
<rect x="30.7205" y="327.712" width="356.474" height="61.9771" rx="12" fill="#F8F6FA"/>
<path opacity="0.2" d="M53.1206 355.297H60.3206V356.385H54.4166V360.353H60.0006V361.457H54.4166V365.601H60.3206V366.689H53.1206V355.297ZM71.2949 358.449C73.0762 358.449 73.9669 359.51 73.9669 361.633V366.689H72.6709V361.697C72.6709 360.94 72.5376 360.39 72.2709 360.049C72.0149 359.708 71.5936 359.537 71.0069 359.537C70.3242 359.537 69.7909 359.766 69.4069 360.225C69.0229 360.684 68.8309 361.308 68.8309 362.097V366.689H67.5349V361.697C67.5349 360.95 67.4016 360.406 67.1349 360.065C66.8682 359.713 66.4416 359.537 65.8549 359.537C65.1722 359.537 64.6336 359.766 64.2389 360.225C63.8549 360.684 63.6629 361.308 63.6629 362.097V366.689H62.3669V360.897C62.3669 360.065 62.3242 359.313 62.2389 358.641H63.4709L63.5989 360.049C63.8229 359.537 64.1536 359.142 64.5909 358.865C65.0389 358.588 65.5562 358.449 66.1429 358.449C66.7829 358.449 67.3056 358.577 67.7109 358.833C68.1162 359.089 68.4149 359.484 68.6069 360.017C68.8522 359.537 69.2096 359.158 69.6789 358.881C70.1589 358.593 70.6976 358.449 71.2949 358.449ZM83.5174 358.641V366.689H82.2374V365.233C82.0027 365.734 81.6454 366.124 81.1654 366.401C80.6961 366.668 80.1467 366.801 79.5174 366.801C78.8027 366.801 78.1734 366.63 77.6294 366.289C77.0961 365.948 76.6801 365.468 76.3814 364.849C76.0934 364.22 75.9494 363.489 75.9494 362.657C75.9494 361.825 76.0987 361.094 76.3974 360.465C76.6961 359.825 77.1121 359.329 77.6454 358.977C78.1894 358.625 78.8134 358.449 79.5174 358.449C80.1467 358.449 80.6961 358.588 81.1654 358.865C81.6347 359.142 81.9921 359.532 82.2374 360.033V358.641H83.5174ZM79.7734 365.729C80.5627 365.729 81.1707 365.462 81.5974 364.929C82.0241 364.385 82.2374 363.617 82.2374 362.625C82.2374 361.633 82.0241 360.87 81.5974 360.337C81.1707 359.804 80.5627 359.537 79.7734 359.537C78.9841 359.537 78.3654 359.814 77.9174 360.369C77.4801 360.913 77.2614 361.676 77.2614 362.657C77.2614 363.638 77.4801 364.396 77.9174 364.929C78.3547 365.462 78.9734 365.729 79.7734 365.729ZM86.0231 358.641H87.3191V366.689H86.0231V358.641ZM87.4791 355.233V356.705H85.8951V355.233H87.4791ZM89.8356 354.913H91.1316V366.689H89.8356V354.913Z" fill="black"/>
<path d="M54.3586 315.368H52.7926L51.2086 311.102C51.0166 310.574 50.7466 310.22 50.3986 310.04C50.0626 309.86 49.5826 309.77 48.9586 309.77H45.7546V315.368H44.2966V302.552H49.3906C50.7706 302.552 51.8266 302.858 52.5586 303.47C53.3026 304.082 53.6746 304.964 53.6746 306.116C53.6746 306.956 53.4526 307.664 53.0086 308.24C52.5766 308.804 51.9466 309.206 51.1186 309.446C51.4906 309.506 51.8086 309.668 52.0726 309.932C52.3366 310.184 52.5586 310.55 52.7386 311.03L54.3586 315.368ZM49.2646 308.546C51.2326 308.546 52.2166 307.742 52.2166 306.134C52.2166 305.342 51.9766 304.754 51.4966 304.37C51.0166 303.974 50.2726 303.776 49.2646 303.776H45.7546V308.546H49.2646ZM64.1751 310.796H57.5331C57.5451 311.948 57.8091 312.818 58.3251 313.406C58.8531 313.994 59.6151 314.288 60.6111 314.288C61.6671 314.288 62.6391 313.934 63.5271 313.226L64.0131 314.288C63.6171 314.66 63.1071 314.954 62.4831 315.17C61.8711 315.386 61.2411 315.494 60.5931 315.494C59.1771 315.494 58.0671 315.08 57.2631 314.252C56.4591 313.412 56.0571 312.266 56.0571 310.814C56.0571 309.89 56.2371 309.074 56.5971 308.366C56.9571 307.646 57.4611 307.088 58.1091 306.692C58.7571 306.296 59.4951 306.098 60.3231 306.098C61.5231 306.098 62.4651 306.494 63.1491 307.286C63.8331 308.066 64.1751 309.146 64.1751 310.526V310.796ZM60.3411 307.232C59.5851 307.232 58.9671 307.46 58.4871 307.916C58.0191 308.372 57.7191 309.014 57.5871 309.842H62.8611C62.7891 308.99 62.5371 308.342 62.1051 307.898C61.6851 307.454 61.0971 307.232 60.3411 307.232ZM66.4915 309.932H71.5855V311.138H66.4915V309.932ZM74.4783 302.552H82.5783V303.776H75.9363V308.24H82.2183V309.482H75.9363V314.144H82.5783V315.368H74.4783V302.552ZM89.3983 306.098C91.5703 306.098 92.6563 307.292 92.6563 309.68V315.368H91.1983V309.752C91.1983 308.912 91.0303 308.3 90.6943 307.916C90.3583 307.52 89.8303 307.322 89.1103 307.322C88.2703 307.322 87.5983 307.58 87.0943 308.096C86.5903 308.612 86.3383 309.308 86.3383 310.184V315.368H84.8803V308.852C84.8803 307.916 84.8323 307.07 84.7363 306.314H86.1223L86.2663 307.934C86.5423 307.346 86.9563 306.896 87.5083 306.584C88.0603 306.26 88.6903 306.098 89.3983 306.098ZM97.3536 307.466V312.416C97.3536 313.088 97.4916 313.562 97.7676 313.838C98.0436 314.102 98.4336 314.234 98.9376 314.234C99.2736 314.234 99.5976 314.18 99.9096 314.072V315.314C99.5376 315.434 99.1176 315.494 98.6496 315.494C97.7856 315.494 97.1076 315.254 96.6156 314.774C96.1356 314.282 95.8956 313.562 95.8956 312.614V307.466H94.1316V306.314H95.8956V303.992L97.3536 303.47V306.314H99.9456V307.466H97.3536ZM109.281 310.796H102.639C102.651 311.948 102.915 312.818 103.431 313.406C103.959 313.994 104.721 314.288 105.717 314.288C106.773 314.288 107.745 313.934 108.633 313.226L109.119 314.288C108.723 314.66 108.213 314.954 107.589 315.17C106.977 315.386 106.347 315.494 105.699 315.494C104.283 315.494 103.173 315.08 102.369 314.252C101.565 313.412 101.163 312.266 101.163 310.814C101.163 309.89 101.343 309.074 101.703 308.366C102.063 307.646 102.567 307.088 103.215 306.692C103.863 306.296 104.601 306.098 105.429 306.098C106.629 306.098 107.571 306.494 108.255 307.286C108.939 308.066 109.281 309.146 109.281 310.526V310.796ZM105.447 307.232C104.691 307.232 104.073 307.46 103.593 307.916C103.125 308.372 102.825 309.014 102.693 309.842H107.967C107.895 308.99 107.643 308.342 107.211 307.898C106.791 307.454 106.203 307.232 105.447 307.232ZM115.706 306.098C116.006 306.098 116.282 306.134 116.534 306.206L116.498 307.538C116.222 307.442 115.904 307.394 115.544 307.394C114.668 307.394 114.014 307.67 113.582 308.222C113.162 308.762 112.952 309.422 112.952 310.202V315.368H111.494V308.852C111.494 307.916 111.446 307.07 111.35 306.314H112.736L112.88 307.988C113.108 307.376 113.474 306.908 113.978 306.584C114.482 306.26 115.058 306.098 115.706 306.098ZM133.166 302.552V315.368H132.014L124.274 305.054V315.368H122.888V302.552H124.022L131.762 312.866V302.552H133.166ZM143.716 310.796H137.074C137.086 311.948 137.35 312.818 137.866 313.406C138.394 313.994 139.156 314.288 140.152 314.288C141.208 314.288 142.18 313.934 143.068 313.226L143.554 314.288C143.158 314.66 142.648 314.954 142.024 315.17C141.412 315.386 140.782 315.494 140.134 315.494C138.718 315.494 137.608 315.08 136.804 314.252C136 313.412 135.598 312.266 135.598 310.814C135.598 309.89 135.778 309.074 136.138 308.366C136.498 307.646 137.002 307.088 137.65 306.692C138.298 306.296 139.036 306.098 139.864 306.098C141.064 306.098 142.006 306.494 142.69 307.286C143.374 308.066 143.716 309.146 143.716 310.526V310.796ZM139.882 307.232C139.126 307.232 138.508 307.46 138.028 307.916C137.56 308.372 137.26 309.014 137.128 309.842H142.402C142.33 308.99 142.078 308.342 141.646 307.898C141.226 307.454 140.638 307.232 139.882 307.232ZM159.576 306.314L156.228 315.368H154.824L152.232 308.294L149.658 315.368H148.254L144.906 306.314H146.436L148.992 313.622L151.638 306.314H152.916L155.526 313.64L158.136 306.314H159.576ZM166.342 302.552H171.454C172.774 302.552 173.8 302.87 174.532 303.506C175.276 304.142 175.648 305.018 175.648 306.134C175.648 307.25 175.276 308.132 174.532 308.78C173.788 309.416 172.762 309.734 171.454 309.734H167.818V315.368H166.342V302.552ZM171.328 308.51C172.276 308.51 172.99 308.306 173.47 307.898C173.95 307.49 174.19 306.902 174.19 306.134C174.19 305.366 173.95 304.784 173.47 304.388C172.99 303.98 172.276 303.776 171.328 303.776H167.818V308.51H171.328ZM185.579 306.314V315.368H184.139V313.73C183.875 314.294 183.473 314.732 182.933 315.044C182.405 315.344 181.787 315.494 181.079 315.494C180.275 315.494 179.567 315.302 178.955 314.918C178.355 314.534 177.887 313.994 177.551 313.298C177.227 312.59 177.065 311.768 177.065 310.832C177.065 309.896 177.233 309.074 177.569 308.366C177.905 307.646 178.373 307.088 178.973 306.692C179.585 306.296 180.287 306.098 181.079 306.098C181.787 306.098 182.405 306.254 182.933 306.566C183.461 306.878 183.863 307.316 184.139 307.88V306.314H185.579ZM181.367 314.288C182.255 314.288 182.939 313.988 183.419 313.388C183.899 312.776 184.139 311.912 184.139 310.796C184.139 309.68 183.899 308.822 183.419 308.222C182.939 307.622 182.255 307.322 181.367 307.322C180.479 307.322 179.783 307.634 179.279 308.258C178.787 308.87 178.541 309.728 178.541 310.832C178.541 311.936 178.787 312.788 179.279 313.388C179.771 313.988 180.467 314.288 181.367 314.288ZM191.458 315.494C189.934 315.494 188.728 315.104 187.84 314.324L188.326 313.244C188.818 313.628 189.316 313.904 189.82 314.072C190.324 314.24 190.888 314.324 191.512 314.324C192.196 314.324 192.712 314.21 193.06 313.982C193.42 313.742 193.6 313.4 193.6 312.956C193.6 312.596 193.48 312.308 193.24 312.092C193 311.876 192.604 311.708 192.052 311.588L190.522 311.228C189.766 311.06 189.178 310.76 188.758 310.328C188.35 309.896 188.146 309.38 188.146 308.78C188.146 307.988 188.464 307.346 189.1 306.854C189.736 306.35 190.576 306.098 191.62 306.098C192.256 306.098 192.856 306.2 193.42 306.404C193.984 306.608 194.458 306.902 194.842 307.286L194.356 308.348C193.504 307.64 192.592 307.286 191.62 307.286C190.972 307.286 190.468 307.412 190.108 307.664C189.76 307.904 189.586 308.246 189.586 308.69C189.586 309.062 189.694 309.356 189.91 309.572C190.138 309.788 190.498 309.956 190.99 310.076L192.52 310.454C193.36 310.646 193.984 310.946 194.392 311.354C194.8 311.75 195.004 312.272 195.004 312.92C195.004 313.7 194.686 314.324 194.05 314.792C193.414 315.26 192.55 315.494 191.458 315.494ZM200.388 315.494C198.864 315.494 197.658 315.104 196.77 314.324L197.256 313.244C197.748 313.628 198.246 313.904 198.75 314.072C199.254 314.24 199.818 314.324 200.442 314.324C201.126 314.324 201.642 314.21 201.99 313.982C202.35 313.742 202.53 313.4 202.53 312.956C202.53 312.596 202.41 312.308 202.17 312.092C201.93 311.876 201.534 311.708 200.982 311.588L199.452 311.228C198.696 311.06 198.108 310.76 197.688 310.328C197.28 309.896 197.076 309.38 197.076 308.78C197.076 307.988 197.394 307.346 198.03 306.854C198.666 306.35 199.506 306.098 200.55 306.098C201.186 306.098 201.786 306.2 202.35 306.404C202.914 306.608 203.388 306.902 203.772 307.286L203.286 308.348C202.434 307.64 201.522 307.286 200.55 307.286C199.902 307.286 199.398 307.412 199.038 307.664C198.69 307.904 198.516 308.246 198.516 308.69C198.516 309.062 198.624 309.356 198.84 309.572C199.068 309.788 199.428 309.956 199.92 310.076L201.45 310.454C202.29 310.646 202.914 310.946 203.322 311.354C203.73 311.75 203.934 312.272 203.934 312.92C203.934 313.7 203.616 314.324 202.98 314.792C202.344 315.26 201.48 315.494 200.388 315.494ZM219.851 306.314L216.503 315.368H215.099L212.507 308.294L209.933 315.368H208.529L205.181 306.314H206.711L209.267 313.622L211.913 306.314H213.191L215.801 313.64L218.411 306.314H219.851ZM225.382 315.494C224.53 315.494 223.78 315.302 223.132 314.918C222.484 314.534 221.98 313.988 221.62 313.28C221.272 312.572 221.098 311.744 221.098 310.796C221.098 309.848 221.272 309.02 221.62 308.312C221.98 307.604 222.484 307.058 223.132 306.674C223.78 306.29 224.53 306.098 225.382 306.098C226.234 306.098 226.984 306.29 227.632 306.674C228.28 307.058 228.778 307.604 229.126 308.312C229.486 309.02 229.666 309.848 229.666 310.796C229.666 311.744 229.486 312.572 229.126 313.28C228.778 313.988 228.28 314.534 227.632 314.918C226.984 315.302 226.234 315.494 225.382 315.494ZM225.382 314.288C226.282 314.288 226.972 313.994 227.452 313.406C227.932 312.806 228.172 311.936 228.172 310.796C228.172 309.692 227.926 308.84 227.434 308.24C226.942 307.628 226.258 307.322 225.382 307.322C224.494 307.322 223.804 307.628 223.312 308.24C222.82 308.84 222.574 309.692 222.574 310.796C222.574 311.936 222.814 312.806 223.294 313.406C223.786 313.994 224.482 314.288 225.382 314.288ZM236.151 306.098C236.451 306.098 236.727 306.134 236.979 306.206L236.943 307.538C236.667 307.442 236.349 307.394 235.989 307.394C235.113 307.394 234.459 307.67 234.027 308.222C233.607 308.762 233.397 309.422 233.397 310.202V315.368H231.939V308.852C231.939 307.916 231.891 307.07 231.795 306.314H233.181L233.325 307.988C233.553 307.376 233.919 306.908 234.423 306.584C234.927 306.26 235.503 306.098 236.151 306.098ZM246.259 302.12V315.368H244.819V313.73C244.555 314.294 244.153 314.732 243.613 315.044C243.085 315.344 242.467 315.494 241.759 315.494C240.967 315.494 240.265 315.296 239.653 314.9C239.053 314.504 238.585 313.952 238.249 313.244C237.913 312.524 237.745 311.696 237.745 310.76C237.745 309.824 237.907 309.008 238.231 308.312C238.567 307.604 239.041 307.058 239.653 306.674C240.265 306.29 240.967 306.098 241.759 306.098C242.467 306.098 243.085 306.254 243.613 306.566C244.141 306.866 244.537 307.292 244.801 307.844V302.12H246.259ZM242.047 314.288C242.935 314.288 243.619 313.988 244.099 313.388C244.579 312.776 244.819 311.912 244.819 310.796C244.819 309.692 244.579 308.84 244.099 308.24C243.619 307.628 242.935 307.322 242.047 307.322C241.159 307.322 240.463 307.622 239.959 308.222C239.467 308.822 239.221 309.668 239.221 310.76C239.221 311.876 239.467 312.746 239.959 313.37C240.463 313.982 241.159 314.288 242.047 314.288Z" fill="black"/>
<rect x="30.7205" y="434.317" width="356.474" height="65" rx="12" fill="#00A3FF"/>
<path d="M181.333 474.997C180.24 474.997 179.213 474.851 178.253 474.557C177.306 474.264 176.5 473.844 175.833 473.297L176.713 471.417C177.406 471.937 178.126 472.324 178.873 472.577C179.633 472.817 180.46 472.937 181.353 472.937C182.34 472.937 183.1 472.764 183.633 472.417C184.18 472.071 184.453 471.584 184.453 470.957C184.453 470.424 184.2 470.017 183.693 469.737C183.2 469.444 182.38 469.171 181.233 468.917C179.446 468.531 178.146 468.031 177.333 467.417C176.52 466.804 176.113 465.911 176.113 464.737C176.113 463.897 176.34 463.151 176.793 462.497C177.246 461.844 177.886 461.331 178.713 460.957C179.553 460.584 180.52 460.397 181.613 460.397C182.613 460.397 183.56 460.551 184.453 460.857C185.36 461.151 186.1 461.564 186.673 462.097L185.813 463.977C184.546 462.964 183.146 462.457 181.613 462.457C180.693 462.457 179.966 462.651 179.433 463.037C178.9 463.411 178.633 463.924 178.633 464.577C178.633 465.137 178.866 465.564 179.333 465.857C179.813 466.151 180.626 466.424 181.773 466.677C182.96 466.957 183.926 467.264 184.673 467.597C185.42 467.917 185.993 468.337 186.393 468.857C186.793 469.364 186.993 470.004 186.993 470.777C186.993 471.631 186.766 472.377 186.313 473.017C185.86 473.644 185.206 474.131 184.353 474.477C183.5 474.824 182.493 474.997 181.333 474.997ZM198.404 464.717V474.817H195.964V473.257C195.644 473.817 195.217 474.244 194.684 474.537C194.151 474.831 193.537 474.977 192.844 474.977C190.377 474.977 189.144 473.591 189.144 470.817V464.717H191.624V470.837C191.624 471.571 191.771 472.111 192.064 472.457C192.371 472.804 192.837 472.977 193.464 472.977C194.197 472.977 194.784 472.737 195.224 472.257C195.664 471.777 195.884 471.137 195.884 470.337V464.717H198.404ZM206.878 464.457C207.758 464.457 208.531 464.677 209.198 465.117C209.878 465.544 210.405 466.151 210.778 466.937C211.151 467.724 211.338 468.637 211.338 469.677C211.338 470.717 211.145 471.644 210.758 472.457C210.385 473.257 209.858 473.877 209.178 474.317C208.511 474.757 207.745 474.977 206.878 474.977C206.131 474.977 205.465 474.817 204.878 474.497C204.305 474.177 203.871 473.731 203.578 473.157V474.817H201.118V460.097H203.598V466.237C203.905 465.677 204.345 465.244 204.918 464.937C205.491 464.617 206.145 464.457 206.878 464.457ZM206.218 473.017C207.045 473.017 207.685 472.724 208.138 472.137C208.591 471.551 208.818 470.731 208.818 469.677C208.818 468.637 208.591 467.837 208.138 467.277C207.685 466.704 207.038 466.417 206.198 466.417C205.358 466.417 204.711 466.704 204.258 467.277C203.805 467.851 203.578 468.664 203.578 469.717C203.578 470.784 203.805 471.604 204.258 472.177C204.711 472.737 205.365 473.017 206.218 473.017ZM225.44 464.457C226.587 464.457 227.44 464.804 228 465.497C228.56 466.177 228.84 467.217 228.84 468.617V474.817H226.34V468.697C226.34 467.897 226.207 467.324 225.94 466.977C225.687 466.617 225.26 466.437 224.66 466.437C223.967 466.437 223.42 466.684 223.02 467.177C222.634 467.657 222.44 468.324 222.44 469.177V474.817H219.94V468.697C219.94 467.911 219.8 467.337 219.52 466.977C219.254 466.617 218.827 466.437 218.24 466.437C217.547 466.437 217 466.684 216.6 467.177C216.2 467.657 216 468.324 216 469.177V474.817H213.52V467.577C213.52 466.511 213.467 465.557 213.36 464.717H215.7L215.88 466.317C216.174 465.717 216.594 465.257 217.14 464.937C217.7 464.617 218.34 464.457 219.06 464.457C220.607 464.457 221.614 465.097 222.08 466.377C222.4 465.777 222.854 465.311 223.44 464.977C224.04 464.631 224.707 464.457 225.44 464.457ZM231.509 464.717H233.989V474.817H231.509V464.717ZM234.129 460.137V462.597H231.349V460.137H234.129ZM239.904 466.597V471.117C239.904 472.304 240.457 472.897 241.564 472.897C241.87 472.897 242.204 472.844 242.564 472.737V474.717C242.124 474.877 241.59 474.957 240.964 474.957C239.817 474.957 238.937 474.637 238.324 473.997C237.71 473.357 237.404 472.437 237.404 471.237V466.597H235.464V464.717H237.404V462.257L239.904 461.417V464.717H242.584V466.597H239.904Z" fill="white"/>
<g filter="url(#filter0_d)">
<path fill-rule="evenodd" clip-rule="evenodd" d="M-0.131189 820.381C1.00061 816.759 4.43723 805.76 20.5652 805.76H140.121C149.056 805.76 158.644 809.161 167.61 828.428C171.374 841.953 181.435 858.072 206.845 858.321L206.845 858.321C232.255 858.072 242.316 841.953 246.081 828.428C255.046 809.161 264.634 805.76 273.569 805.76H393.125C409.253 805.76 412.69 816.759 413.821 820.382C413.888 820.595 413.947 820.783 414 820.942V896H206.845L206.845 896H-0.30957V820.942C-0.25671 820.783 -0.19796 820.595 -0.131189 820.381Z" fill="white"/>
</g>
<path fill-rule="evenodd" clip-rule="evenodd" d="M35.8157 861.791V848.384H37.8782V861.791C37.8782 862.064 37.9868 862.326 38.1802 862.52C38.3736 862.713 38.6359 862.822 38.9094 862.822H57.4719C57.7454 862.822 58.0077 862.713 58.2011 862.52C58.3945 862.326 58.5032 862.064 58.5032 861.791V848.384H60.5657V861.791C60.5657 862.611 60.2397 863.398 59.6595 863.978C59.0793 864.558 58.2924 864.884 57.4719 864.884H38.9094C38.0889 864.884 37.302 864.558 36.7218 863.978C36.1416 863.398 35.8157 862.611 35.8157 861.791ZM58.5032 839.103V846.322L54.3782 842.197V839.103C54.3782 838.83 54.4868 838.567 54.6802 838.374C54.8736 838.181 55.1359 838.072 55.4094 838.072H57.4719C57.7454 838.072 58.0077 838.181 58.2011 838.374C58.3945 838.567 58.5032 838.83 58.5032 839.103Z" fill="url(#paint0_linear)"/>
<path fill-rule="evenodd" clip-rule="evenodd" d="M46.7323 837.041C47.1191 836.654 47.6436 836.437 48.1905 836.437C48.7374 836.437 49.2619 836.654 49.6487 837.041L63.3581 850.748C63.5518 850.942 63.6606 851.204 63.6606 851.478C63.6606 851.752 63.5518 852.015 63.3581 852.208C63.1645 852.402 62.9019 852.511 62.628 852.511C62.3542 852.511 62.0915 852.402 61.8979 852.208L48.1905 838.499L34.4831 852.208C34.2895 852.402 34.0269 852.511 33.753 852.511C33.4792 852.511 33.2165 852.402 33.0229 852.208C32.8292 852.015 32.7205 851.752 32.7205 851.478C32.7205 851.204 32.8292 850.942 33.0229 850.748L46.7323 837.041Z" fill="url(#paint1_linear)"/>
<path d="M366.294 834.614C361.929 834.614 358.378 838.165 358.378 842.53C358.378 846.895 361.929 850.447 366.294 850.447C370.66 850.447 374.211 846.895 374.211 842.53C374.211 838.165 370.66 834.614 366.294 834.614ZM366.294 847.28C363.676 847.28 361.544 845.149 361.544 842.53C361.544 839.911 363.676 837.78 366.294 837.78C368.913 837.78 371.044 839.911 371.044 842.53C371.044 845.149 368.913 847.28 366.294 847.28ZM380.544 864.697V863.114C380.544 857.003 375.571 852.03 369.461 852.03H363.128C357.016 852.03 352.044 857.003 352.044 863.114V864.697H355.211V863.114C355.211 858.748 358.763 855.197 363.128 855.197H369.461C373.826 855.197 377.378 858.748 377.378 863.114V864.697H380.544Z" fill="#DFE7ED"/>
<g filter="url(#filter1_d)">
<circle cx="206.845" cy="816.626" r="32.7021" fill="url(#paint2_linear)"/>
</g>
<path d="M206.93 807.381L197.285 817.847M206.93 807.381L216.405 817.847M206.93 807.381V825.871" stroke="white" stroke-width="3" stroke-linecap="round"/>
<path d="M278.325 835.562V858.624H282.7V863.749H308.95V840.687H304.575V835.562H278.325ZM280.513 838.124H302.388V856.062H280.513V838.124ZM282.7 840.687V853.499H300.2V840.687H282.7ZM284.888 843.249H298.013V850.937H284.888V843.249ZM304.575 843.249H306.763V861.187H284.888V858.624H304.575V843.249Z" fill="#DFE7ED"/>
<path d="M121.388 870.717C122.018 870.702 122.622 870.465 123.095 870.048C123.567 869.631 123.876 869.06 123.968 868.437H118.708C118.802 869.077 119.126 869.661 119.619 870.081C120.112 870.5 120.741 870.726 121.388 870.717Z" fill="#DFE7ED"/>
<path d="M135.898 864.267C134.934 863.407 134.089 862.422 133.388 861.337C132.622 859.839 132.163 858.204 132.038 856.527V851.587C132.034 850.987 131.98 850.388 131.878 849.797C131.091 849.639 130.334 849.356 129.638 848.957C129.903 849.812 130.038 850.702 130.038 851.597V856.537C130.161 858.583 130.723 860.578 131.688 862.387C132.378 863.481 133.198 864.488 134.128 865.387H108.518C109.448 864.488 110.268 863.481 110.958 862.387C111.923 860.578 112.485 858.583 112.608 856.537V851.587C112.603 850.429 112.826 849.282 113.264 848.212C113.703 847.141 114.349 846.167 115.164 845.345C115.98 844.524 116.949 843.872 118.017 843.426C119.085 842.98 120.231 842.749 121.388 842.747C123.082 842.748 124.738 843.249 126.148 844.187C125.992 843.616 125.905 843.028 125.888 842.437V841.807C124.844 841.293 123.722 840.955 122.568 840.807V839.547C122.568 839.193 122.427 838.853 122.177 838.603C121.927 838.352 121.587 838.212 121.233 838.212C120.879 838.212 120.539 838.352 120.289 838.603C120.039 838.853 119.898 839.193 119.898 839.547V840.857C117.314 841.221 114.949 842.509 113.239 844.481C111.53 846.453 110.592 848.977 110.598 851.587V856.527C110.473 858.204 110.014 859.839 109.248 861.337C108.559 862.419 107.728 863.405 106.778 864.267C106.671 864.361 106.586 864.476 106.527 864.605C106.469 864.734 106.438 864.875 106.438 865.017V866.377C106.438 866.642 106.543 866.896 106.731 867.084C106.918 867.271 107.173 867.377 107.438 867.377H135.238C135.503 867.377 135.758 867.271 135.945 867.084C136.133 866.896 136.238 866.642 136.238 866.377V865.017C136.238 864.875 136.207 864.734 136.149 864.605C136.09 864.476 136.005 864.361 135.898 864.267Z" fill="#DFE7ED"/>
<path d="M133.388 847.437C136.149 847.437 138.388 845.198 138.388 842.437C138.388 839.675 136.149 837.437 133.388 837.437C130.627 837.437 128.388 839.675 128.388 842.437C128.388 845.198 130.627 847.437 133.388 847.437Z" fill="#DFE7ED"/>
</g>
<defs>
<filter id="filter0_d" x="-15.3096" y="783.76" width="444.309" height="120.24" filterUnits="userSpaceOnUse" color-interpolation-filters="sRGB">
<feFlood flood-opacity="0" result="BackgroundImageFix"/>
<feColorMatrix in="SourceAlpha" type="matrix" values="0 0 0 0 0 0 0 0 0 0 0 0 0 0 0 0 0 0 127 0"/>
<feOffset dy="-7"/>
<feGaussianBlur stdDeviation="7.5"/>
<feColorMatrix type="matrix" values="0 0 0 0 0.895833 0 0 0 0 0.895833 0 0 0 0 0.895833 0 0 0 0.74 0"/>
<feBlend mode="normal" in2="BackgroundImageFix" result="effect1_dropShadow"/>
<feBlend mode="normal" in="SourceGraphic" in2="effect1_dropShadow" result="shape"/>
</filter>
<filter id="filter1_d" x="167.143" y="776.924" width="79.4041" height="79.4041" filterUnits="userSpaceOnUse" color-interpolation-filters="sRGB">
<feFlood flood-opacity="0" result="BackgroundImageFix"/>
<feColorMatrix in="SourceAlpha" type="matrix" values="0 0 0 0 0 0 0 0 0 0 0 0 0 0 0 0 0 0 127 0"/>
<feOffset/>
<feGaussianBlur stdDeviation="3.5"/>
<feColorMatrix type="matrix" values="0 0 0 0 0.517647 0 0 0 0 0.568627 0 0 0 0 0.964706 0 0 0 1 0"/>
<feBlend mode="normal" in2="BackgroundImageFix" result="effect1_dropShadow"/>
<feBlend mode="normal" in="SourceGraphic" in2="effect1_dropShadow" result="shape"/>
</filter>
<linearGradient id="paint0_linear" x1="48.1907" y1="838.072" x2="48.1907" y2="864.884" gradientUnits="userSpaceOnUse">
<stop stop-color="#8491F6"/>
<stop offset="1" stop-color="#50A9DF"/>
</linearGradient>
<linearGradient id="paint1_linear" x1="48.1905" y1="836.437" x2="48.1905" y2="852.511" gradientUnits="userSpaceOnUse">
<stop stop-color="#8491F6"/>
<stop offset="1" stop-color="#50A9DF"/>
</linearGradient>
<linearGradient id="paint2_linear" x1="206.845" y1="783.924" x2="206.845" y2="849.328" gradientUnits="userSpaceOnUse">
<stop stop-color="#8491F6"/>
<stop offset="1" stop-color="#50A9DF"/>
</linearGradient>
<clipPath id="clip0">
<rect width="414" height="896" fill="white"/>
</clipPath>
</defs>
</svg>
