<svg width="29" height="28" viewBox="0 0 29 28" fill="none" xmlns="http://www.w3.org/2000/svg">
<path d="M14.2783 27.229C14.0819 27.2284 13.8912 27.1607 13.7361 27.0365C8.79384 23.0765 5.3894 19.6665 3.00717 16.3024C-0.0328274 12.0032 -0.726161 8.03402 0.94495 4.50485C2.13606 1.98402 5.55828 -0.0784807 9.55828 1.12235C11.4654 1.69045 13.1294 2.90874 14.2783 4.57819C15.4272 2.90874 17.0911 1.69045 18.9983 1.12235C22.9894 -0.0601474 26.4205 1.98402 27.6116 4.50485C29.2827 8.03402 28.5894 12.0032 25.5494 16.3024C23.1672 19.6665 19.7627 23.0765 14.8205 27.0365C14.6654 27.1607 14.4747 27.2284 14.2783 27.229ZM7.28273 2.61652C6.33095 2.57832 5.38706 2.80815 4.55237 3.28133C3.71768 3.75451 3.02371 4.45319 2.54495 5.30235C1.16717 8.21735 1.78939 11.4624 4.44717 15.2115C7.27168 18.9685 10.5791 22.3115 14.2783 25.1482C17.9769 22.3143 21.2843 18.9745 24.1094 15.2207C26.7761 11.4624 27.3894 8.21735 26.0116 5.31152C25.1227 3.47819 22.4561 2.02069 19.4872 2.88235C18.5352 3.17248 17.6527 3.66493 16.8964 4.328C16.1402 4.99108 15.5269 5.8101 15.0961 6.73235C15.0291 6.90048 14.9152 7.04428 14.7688 7.14548C14.6224 7.24668 14.4501 7.30072 14.2738 7.30072C14.0976 7.30072 13.9253 7.24668 13.7789 7.14548C13.6325 7.04428 13.5186 6.90048 13.4516 6.73235C13.024 5.80779 12.4118 4.98686 11.6551 4.32337C10.8983 3.65988 10.0142 3.16881 9.06051 2.88235C8.48271 2.70929 7.8844 2.61982 7.28273 2.61652Z" fill="#6A515E"/>
</svg>
