<svg width="253" height="294" viewBox="0 0 253 294" fill="none" xmlns="http://www.w3.org/2000/svg">
<g filter="url(#filter0_d)">
<path d="M33 35C33 23.9543 41.9543 15 53 15H200C211.046 15 220 23.9543 220 35V223C220 234.046 211.046 243 200 243H53C41.9543 243 33 234.046 33 223V35Z" fill="white"/>
<path d="M60.4788 45.2203H55.3284V50.6431H53.1047V37.8463H61.2346V39.6392H55.3284V43.4449H60.4788V45.2203ZM65.0667 50.6431H62.9309V41.1334H65.0667V50.6431ZM62.7991 38.6636C62.7991 38.3355 62.9016 38.063 63.1067 37.8463C63.3176 37.6295 63.6165 37.5211 64.0032 37.5211C64.3899 37.5211 64.6887 37.6295 64.8997 37.8463C65.1106 38.063 65.2161 38.3355 65.2161 38.6636C65.2161 38.9859 65.1106 39.2554 64.8997 39.4722C64.6887 39.6832 64.3899 39.7886 64.0032 39.7886C63.6165 39.7886 63.3176 39.6832 63.1067 39.4722C62.9016 39.2554 62.7991 38.9859 62.7991 38.6636ZM69.6721 50.6431H67.5364V37.1431H69.6721V50.6431ZM74.6819 38.8218V41.1334H76.3606V42.7154H74.6819V48.024C74.6819 48.3873 74.7522 48.6509 74.8928 48.815C75.0393 48.9732 75.2971 49.0523 75.6663 49.0523C75.9124 49.0523 76.1614 49.023 76.4133 48.9644V50.6168C75.927 50.7515 75.4583 50.8189 75.0071 50.8189C73.3665 50.8189 72.5461 49.9136 72.5461 48.1031V42.7154H70.9817V41.1334H72.5461V38.8218H74.6819ZM82.1877 50.8189C80.8342 50.8189 79.7356 50.3941 78.8918 49.5445C78.054 48.689 77.635 47.5523 77.635 46.1343V45.8707C77.635 44.9214 77.8167 44.0748 78.1799 43.3306C78.5491 42.5806 79.0647 41.9976 79.7268 41.5816C80.3889 41.1656 81.1272 40.9576 81.9417 40.9576C83.2366 40.9576 84.2356 41.3707 84.9387 42.1968C85.6477 43.023 86.0022 44.192 86.0022 45.7037V46.565H79.7883C79.8528 47.3502 80.1135 47.9713 80.5706 48.4283C81.0334 48.8853 81.6135 49.1138 82.3108 49.1138C83.2893 49.1138 84.0862 48.7183 84.7014 47.9273L85.8528 49.0259C85.4719 49.5943 84.9622 50.0367 84.3235 50.3531C83.6907 50.6636 82.9788 50.8189 82.1877 50.8189ZM81.9329 42.6714C81.3469 42.6714 80.8723 42.8765 80.509 43.2867C80.1516 43.6968 79.9231 44.2681 79.8235 45.0005H83.8928V44.8423C83.8459 44.1275 83.6555 43.5884 83.3215 43.2252C82.9875 42.856 82.5247 42.6714 81.9329 42.6714ZM92.6467 43.0845C92.3655 43.0377 92.0754 43.0142 91.7766 43.0142C90.7981 43.0142 90.1389 43.3892 89.7991 44.1392V50.6431H87.6633V41.1334H89.7024L89.7551 42.1968C90.2708 41.3707 90.9856 40.9576 91.8997 40.9576C92.2043 40.9576 92.4563 40.9986 92.6555 41.0806L92.6467 43.0845Z" fill="black"/>
<path d="M53.3313 85.3148V73.2288H56.9006C58.1956 73.2288 59.1778 73.4972 59.8474 74.034C60.517 74.5652 60.8518 75.3511 60.8518 76.3914C60.8518 77.0167 60.6803 77.5618 60.3372 78.0267C59.9996 78.486 59.5347 78.8152 58.9426 79.0145C59.6454 79.1694 60.2099 79.5153 60.636 80.0521C61.0676 80.5888 61.2834 81.2086 61.2834 81.9114C61.2834 82.9795 60.9376 83.8151 60.2458 84.4183C59.5597 85.0159 58.6023 85.3148 57.3738 85.3148H53.3313ZM54.3523 79.5042V84.4515H57.4153C58.2896 84.4515 58.9814 84.2301 59.4905 83.7874C60.0051 83.3392 60.2625 82.7194 60.2625 81.928C60.2625 81.181 60.0162 80.5916 59.5237 80.16C59.0367 79.7228 58.3616 79.5042 57.4983 79.5042H54.3523ZM54.3523 78.6492H57.1414C57.9936 78.6326 58.6521 78.4334 59.1169 78.0516C59.5873 77.6642 59.8225 77.1025 59.8225 76.3665C59.8225 75.5918 59.579 75.0218 59.092 74.6566C58.6106 74.2858 57.8801 74.1004 56.9006 74.1004H54.3523V78.6492ZM66.3718 83.887L68.9949 76.3333H70.0657L66.2307 86.8421L66.0315 87.3069C65.539 88.3971 64.7781 88.9422 63.7488 88.9422C63.5108 88.9422 63.2563 88.9035 62.9851 88.826L62.9768 88.0042L63.4915 88.054C63.9784 88.054 64.3713 87.9323 64.6702 87.6888C64.9745 87.4508 65.2319 87.0386 65.4421 86.452L65.8821 85.2401L62.4954 76.3333H63.5828L66.3718 83.887ZM75.345 80.741C75.345 79.3465 75.6549 78.237 76.2747 77.4124C76.9 76.5823 77.7467 76.1673 78.8147 76.1673C80.0266 76.1673 80.9508 76.646 81.5872 77.6033V72.5648H82.575V85.3148H81.6453L81.6038 84.1194C80.9674 85.027 80.0321 85.4808 78.7981 85.4808C77.7633 85.4808 76.9277 85.0657 76.2913 84.2357C75.6604 83.4 75.345 82.2739 75.345 80.8572V80.741ZM76.3494 80.9153C76.3494 82.0609 76.579 82.9656 77.0383 83.6297C77.4976 84.2882 78.1451 84.6175 78.9807 84.6175C80.2037 84.6175 81.0725 84.0779 81.5872 82.9988V78.782C81.0725 77.6144 80.2092 77.0306 78.9973 77.0306C78.1617 77.0306 77.5115 77.3598 77.0466 78.0184C76.5818 78.6714 76.3494 79.637 76.3494 80.9153ZM90.8591 85.3148C90.7595 85.0325 90.6959 84.6147 90.6682 84.0613C90.3196 84.5151 89.8741 84.8665 89.3318 85.1155C88.795 85.359 88.225 85.4808 87.6218 85.4808C86.7585 85.4808 86.0585 85.2401 85.5217 84.7586C84.9905 84.2772 84.7249 83.6684 84.7249 82.9324C84.7249 82.0581 85.0873 81.3664 85.8123 80.8572C86.5427 80.3481 87.5582 80.0936 88.8586 80.0936H90.6599V79.0726C90.6599 78.4306 90.4607 77.9271 90.0623 77.5618C89.6694 77.1911 89.0938 77.0057 88.3357 77.0057C87.644 77.0057 87.0712 77.1828 86.6174 77.5369C86.1637 77.8911 85.9368 78.3172 85.9368 78.8152L84.9407 78.8069C84.9407 78.0931 85.2727 77.4761 85.9368 76.9559C86.6008 76.4302 87.4171 76.1673 88.3855 76.1673C89.3871 76.1673 90.1757 76.4191 90.7512 76.9227C91.3323 77.4207 91.6311 78.118 91.6477 79.0145V83.2645C91.6477 84.1333 91.739 84.7835 91.9216 85.2151V85.3148H90.8591ZM87.738 84.6009C88.4021 84.6009 88.9942 84.4404 89.5144 84.1194C90.0401 83.7985 90.422 83.3696 90.6599 82.8328V80.8572H88.8835C87.893 80.8683 87.1182 81.0509 86.5593 81.4051C86.0004 81.7537 85.7209 82.2352 85.7209 82.8494C85.7209 83.353 85.9063 83.7708 86.2771 84.1028C86.6534 84.4349 87.1404 84.6009 87.738 84.6009ZM95.8479 74.034V76.3333H97.7073V77.1468H95.8479V83.1317C95.8479 83.6297 95.9364 84.0005 96.1135 84.244C96.2961 84.4874 96.5977 84.6092 97.0183 84.6092C97.1843 84.6092 97.4527 84.5815 97.8235 84.5262L97.865 85.3397C97.6049 85.4337 97.2507 85.4808 96.8025 85.4808C96.1218 85.4808 95.6265 85.2843 95.3167 84.8914C95.0068 84.493 94.8518 83.9092 94.8518 83.14V77.1468H93.2V76.3333H94.8518V74.034H95.8479ZM103.244 85.4808C102.48 85.4808 101.788 85.2926 101.169 84.9163C100.554 84.54 100.076 84.0171 99.7327 83.3475C99.3896 82.6723 99.218 81.917 99.218 81.0814V80.7244C99.218 79.8611 99.384 79.0836 99.7161 78.3919C100.054 77.7002 100.521 77.1579 101.119 76.765C101.717 76.3665 102.364 76.1673 103.061 76.1673C104.151 76.1673 105.015 76.5408 105.651 77.2879C106.293 78.0294 106.614 79.0449 106.614 80.3343V80.8904H100.206V81.0814C100.206 82.0996 100.496 82.949 101.077 83.6297C101.664 84.3048 102.4 84.6424 103.285 84.6424C103.817 84.6424 104.284 84.5456 104.688 84.3519C105.098 84.1582 105.469 83.8483 105.801 83.4222L106.423 83.8953C105.693 84.9523 104.633 85.4808 103.244 85.4808ZM103.061 77.014C102.314 77.014 101.683 77.2879 101.169 77.8358C100.66 78.3836 100.35 79.1196 100.239 80.0438H105.626V79.9359C105.599 79.0726 105.352 78.3698 104.887 77.8275C104.423 77.2851 103.814 77.014 103.061 77.014ZM53.3313 117.315V105.229H56.9006C58.1956 105.229 59.1778 105.497 59.8474 106.034C60.517 106.565 60.8518 107.351 60.8518 108.391C60.8518 109.017 60.6803 109.562 60.3372 110.027C59.9996 110.486 59.5347 110.815 58.9426 111.014C59.6454 111.169 60.2099 111.515 60.636 112.052C61.0676 112.589 61.2834 113.209 61.2834 113.911C61.2834 114.979 60.9376 115.815 60.2458 116.418C59.5597 117.016 58.6023 117.315 57.3738 117.315H53.3313ZM54.3523 111.504V116.451H57.4153C58.2896 116.451 58.9814 116.23 59.4905 115.787C60.0051 115.339 60.2625 114.719 60.2625 113.928C60.2625 113.181 60.0162 112.592 59.5237 112.16C59.0367 111.723 58.3616 111.504 57.4983 111.504H54.3523ZM54.3523 110.649H57.1414C57.9936 110.633 58.6521 110.433 59.1169 110.052C59.5873 109.664 59.8225 109.103 59.8225 108.367C59.8225 107.592 59.579 107.022 59.092 106.657C58.6106 106.286 57.8801 106.1 56.9006 106.1H54.3523V110.649ZM66.3718 115.887L68.9949 108.333H70.0657L66.2307 118.842L66.0315 119.307C65.539 120.397 64.7781 120.942 63.7488 120.942C63.5108 120.942 63.2563 120.903 62.9851 120.826L62.9768 120.004L63.4915 120.054C63.9784 120.054 64.3713 119.932 64.6702 119.689C64.9745 119.451 65.2319 119.039 65.4421 118.452L65.8821 117.24L62.4954 108.333H63.5828L66.3718 115.887ZM77.8933 115.248L78.0427 116.02L78.2419 115.206L80.4001 108.333H81.2468L83.3801 115.148L83.6125 116.095L83.8035 115.223L85.6462 108.333H86.6755L84.0608 117.315H83.2141L80.9065 110.193L80.7986 109.703L80.6907 110.201L78.4246 117.315H77.5779L74.9714 108.333H75.9924L77.8933 115.248ZM92.0378 117.481C91.2742 117.481 90.5824 117.293 89.9626 116.916C89.3484 116.54 88.8697 116.017 88.5266 115.347C88.1835 114.672 88.012 113.917 88.012 113.081V112.724C88.012 111.861 88.178 111.084 88.51 110.392C88.8476 109.7 89.3152 109.158 89.9128 108.765C90.5105 108.367 91.158 108.167 91.8552 108.167C92.9454 108.167 93.8087 108.541 94.4451 109.288C95.087 110.029 95.408 111.045 95.408 112.334V112.89H88.9998V113.081C88.9998 114.1 89.2903 114.949 89.8713 115.63C90.4579 116.305 91.1939 116.642 92.0793 116.642C92.6106 116.642 93.0782 116.546 93.4822 116.352C93.8917 116.158 94.2625 115.848 94.5945 115.422L95.217 115.895C94.4866 116.952 93.4268 117.481 92.0378 117.481ZM91.8552 109.014C91.1082 109.014 90.4773 109.288 89.9626 109.836C89.4535 110.384 89.1436 111.12 89.033 112.044H94.4202V111.936C94.3925 111.073 94.1462 110.37 93.6814 109.827C93.2166 109.285 92.6078 109.014 91.8552 109.014ZM100.82 117.481C100.056 117.481 99.3647 117.293 98.7449 116.916C98.1306 116.54 97.6519 116.017 97.3088 115.347C96.9657 114.672 96.7942 113.917 96.7942 113.081V112.724C96.7942 111.861 96.9602 111.084 97.2922 110.392C97.6298 109.7 98.0974 109.158 98.6951 108.765C99.2927 108.367 99.9402 108.167 100.637 108.167C101.728 108.167 102.591 108.541 103.227 109.288C103.869 110.029 104.19 111.045 104.19 112.334V112.89H97.782V113.081C97.782 114.1 98.0725 114.949 98.6536 115.63C99.2402 116.305 99.9762 116.642 100.862 116.642C101.393 116.642 101.86 116.546 102.264 116.352C102.674 116.158 103.045 115.848 103.377 115.422L103.999 115.895C103.269 116.952 102.209 117.481 100.82 117.481ZM100.637 109.014C99.8904 109.014 99.2595 109.288 98.7449 109.836C98.2358 110.384 97.9259 111.12 97.8152 112.044H103.202V111.936C103.175 111.073 102.928 110.37 102.464 109.827C101.999 109.285 101.39 109.014 100.637 109.014ZM108.258 112.791L107.12 113.887V117.315H106.124V104.565H107.12V112.724L108.058 111.712L111.495 108.333H112.748L108.938 112.118L113.08 117.315H111.893L108.258 112.791Z" fill="black"/>
<path d="M62.1711 151.555C62.1711 150.885 61.936 150.357 61.4656 149.97C60.9952 149.577 60.1347 149.206 58.884 148.857C57.6334 148.503 56.7203 148.119 56.1448 147.703C55.3258 147.117 54.9163 146.348 54.9163 145.396C54.9163 144.472 55.2953 143.722 56.0535 143.146C56.8171 142.565 57.7911 142.275 58.9753 142.275C59.7778 142.275 60.4944 142.43 61.1252 142.74C61.7616 143.05 62.2542 143.481 62.6028 144.035C62.9514 144.588 63.1257 145.205 63.1257 145.886H62.0964C62.0964 145.061 61.8142 144.4 61.2498 143.902C60.6853 143.398 59.9272 143.146 58.9753 143.146C58.0512 143.146 57.3152 143.354 56.7673 143.769C56.2195 144.178 55.9456 144.715 55.9456 145.379C55.9456 145.994 56.1918 146.494 56.6843 146.882C57.1768 147.269 57.9654 147.612 59.05 147.911C60.1347 148.204 60.9565 148.511 61.5154 148.832C62.0743 149.148 62.4949 149.527 62.7771 149.97C63.0593 150.412 63.2004 150.935 63.2004 151.538C63.2004 152.49 62.8186 153.254 62.0549 153.829C61.2968 154.405 60.2952 154.693 59.05 154.693C58.1978 154.693 57.4148 154.541 56.7009 154.236C55.9926 153.932 55.453 153.506 55.0823 152.958C54.717 152.41 54.5344 151.782 54.5344 151.074H55.5554C55.5554 151.926 55.8736 152.598 56.51 153.091C57.1464 153.583 57.9931 153.829 59.05 153.829C59.9908 153.829 60.7462 153.622 61.3162 153.207C61.8861 152.792 62.1711 152.241 62.1711 151.555ZM64.6282 149.903C64.6282 149.04 64.7942 148.262 65.1262 147.571C65.4638 146.879 65.9369 146.342 66.5457 145.96C67.1599 145.573 67.8544 145.379 68.6292 145.379C69.8245 145.379 70.7929 145.8 71.5344 146.641C72.276 147.477 72.6467 148.586 72.6467 149.97V150.177C72.6467 151.046 72.4779 151.829 72.1404 152.526C71.8083 153.218 71.338 153.752 70.7292 154.128C70.1205 154.505 69.426 154.693 68.6458 154.693C67.456 154.693 66.4875 154.275 65.7405 153.439C64.9989 152.598 64.6282 151.486 64.6282 150.102V149.903ZM65.6243 150.177C65.6243 151.251 65.901 152.133 66.4543 152.825C67.0133 153.511 67.7437 153.854 68.6458 153.854C69.5422 153.854 70.2672 153.511 70.8206 152.825C71.3795 152.133 71.6589 151.223 71.6589 150.094V149.903C71.6589 149.217 71.5317 148.589 71.2771 148.019C71.0225 147.449 70.6656 147.009 70.2063 146.699C69.747 146.384 69.2213 146.226 68.6292 146.226C67.7437 146.226 67.0216 146.575 66.4626 147.272C65.9037 147.964 65.6243 148.871 65.6243 149.995V150.177ZM78.8557 146.392C78.6454 146.353 78.4213 146.334 78.1833 146.334C77.5636 146.334 77.0378 146.508 76.6062 146.857C76.1801 147.2 75.8757 147.701 75.6931 148.359V154.527H74.7053V145.545H75.6765L75.6931 146.973C76.2188 145.911 77.0627 145.379 78.2249 145.379C78.5015 145.379 78.7201 145.415 78.8806 145.487L78.8557 146.392ZM82.3918 143.246V145.545H84.2512V146.359H82.3918V152.344C82.3918 152.842 82.4804 153.212 82.6575 153.456C82.8401 153.699 83.1417 153.821 83.5623 153.821C83.7283 153.821 83.9967 153.793 84.3674 153.738L84.4089 154.552C84.1488 154.646 83.7947 154.693 83.3464 154.693C82.6658 154.693 82.1705 154.496 81.8606 154.103C81.5507 153.705 81.3958 153.121 81.3958 152.352V146.359H79.7439V145.545H81.3958V143.246H82.3918ZM97.6736 150.127C97.6736 151.527 97.3637 152.64 96.7439 153.464C96.1241 154.283 95.2913 154.693 94.2454 154.693C92.9947 154.693 92.0484 154.228 91.4065 153.298L91.365 154.527H90.4353V141.777H91.4231V146.849C92.054 145.869 92.9892 145.379 94.2288 145.379C95.2913 145.379 96.1296 145.786 96.7439 146.599C97.3637 147.407 97.6736 148.534 97.6736 149.978V150.127ZM96.6775 149.953C96.6775 148.769 96.4478 147.856 95.9885 147.214C95.5292 146.566 94.8818 146.243 94.0461 146.243C93.4097 146.243 92.8702 146.4 92.4275 146.716C91.9848 147.026 91.65 147.482 91.4231 148.085V152.136C91.9211 153.265 92.801 153.829 94.0627 153.829C94.8818 153.829 95.5209 153.506 95.9802 152.858C96.4451 152.211 96.6775 151.242 96.6775 149.953ZM102.621 153.099L105.244 145.545H106.315L102.48 156.054L102.281 156.519C101.788 157.609 101.027 158.154 99.9978 158.154C99.7598 158.154 99.5053 158.115 99.2341 158.038L99.2258 157.216L99.7405 157.266C100.227 157.266 100.62 157.144 100.919 156.901C101.224 156.663 101.481 156.251 101.691 155.664L102.131 154.452L98.7444 145.545H99.8318L102.621 153.099Z" fill="black"/>
<rect x="45.5731" y="131.027" width="161.564" height="37.4167" rx="4.5" stroke="#DFE7ED"/>
<path d="M180.265 146.387L185.403 151.526L190.541 146.387" stroke="#848484" stroke-width="2" stroke-linecap="round"/>
<rect x="45" y="179.7" width="163" height="39" rx="8" fill="#00A3FF"/>
<path d="M114.642 202.362H109.77L108.762 204.7H106.942L111.45 194.732H112.92L117.442 204.7H115.636L114.642 202.362ZM114.04 200.962L112.206 196.692L110.372 200.962H114.04ZM122.426 197.448C123.033 197.448 123.57 197.606 124.036 197.924C124.512 198.232 124.881 198.67 125.142 199.24C125.413 199.8 125.548 200.444 125.548 201.172C125.548 201.9 125.418 202.539 125.156 203.09C124.895 203.64 124.526 204.065 124.05 204.364C123.584 204.662 123.042 204.812 122.426 204.812C121.913 204.812 121.456 204.704 121.054 204.49C120.653 204.266 120.345 203.958 120.13 203.566V207.724H118.394V199.632C118.394 198.885 118.357 198.218 118.282 197.63H119.92L120.06 198.848C120.247 198.409 120.55 198.068 120.97 197.826C121.39 197.574 121.876 197.448 122.426 197.448ZM121.95 203.44C122.538 203.44 122.991 203.244 123.308 202.852C123.626 202.46 123.784 201.9 123.784 201.172C123.784 200.434 123.626 199.86 123.308 199.45C122.991 199.03 122.543 198.82 121.964 198.82C121.367 198.82 120.91 199.02 120.592 199.422C120.275 199.823 120.116 200.397 120.116 201.144C120.116 201.881 120.275 202.45 120.592 202.852C120.91 203.244 121.362 203.44 121.95 203.44ZM131.108 197.448C131.715 197.448 132.251 197.606 132.718 197.924C133.194 198.232 133.563 198.67 133.824 199.24C134.095 199.8 134.23 200.444 134.23 201.172C134.23 201.9 134.099 202.539 133.838 203.09C133.577 203.64 133.208 204.065 132.732 204.364C132.265 204.662 131.724 204.812 131.108 204.812C130.595 204.812 130.137 204.704 129.736 204.49C129.335 204.266 129.027 203.958 128.812 203.566V207.724H127.076V199.632C127.076 198.885 127.039 198.218 126.964 197.63H128.602L128.742 198.848C128.929 198.409 129.232 198.068 129.652 197.826C130.072 197.574 130.557 197.448 131.108 197.448ZM130.632 203.44C131.22 203.44 131.673 203.244 131.99 202.852C132.307 202.46 132.466 201.9 132.466 201.172C132.466 200.434 132.307 199.86 131.99 199.45C131.673 199.03 131.225 198.82 130.646 198.82C130.049 198.82 129.591 199.02 129.274 199.422C128.957 199.823 128.798 200.397 128.798 201.144C128.798 201.881 128.957 202.45 129.274 202.852C129.591 203.244 130.044 203.44 130.632 203.44ZM135.758 194.396H137.494V204.7H135.758V194.396ZM146.1 197.63L142.81 205.176C142.437 206.053 141.961 206.692 141.382 207.094C140.803 207.495 140.089 207.761 139.24 207.892L138.848 206.548C139.511 206.398 140.005 206.207 140.332 205.974C140.668 205.75 140.939 205.414 141.144 204.966L141.368 204.448L138.428 197.63H140.262L142.292 202.712L144.364 197.63H146.1Z" fill="white"/>
</g>
<defs>
<filter id="filter0_d" x="0" y="0" width="253" height="294" filterUnits="userSpaceOnUse" color-interpolation-filters="sRGB">
<feFlood flood-opacity="0" result="BackgroundImageFix"/>
<feColorMatrix in="SourceAlpha" type="matrix" values="0 0 0 0 0 0 0 0 0 0 0 0 0 0 0 0 0 0 127 0"/>
<feOffset dy="18"/>
<feGaussianBlur stdDeviation="16.5"/>
<feColorMatrix type="matrix" values="0 0 0 0 0 0 0 0 0 0 0 0 0 0 0 0 0 0 0.25 0"/>
<feBlend mode="normal" in2="BackgroundImageFix" result="effect1_dropShadow"/>
<feBlend mode="normal" in="SourceGraphic" in2="effect1_dropShadow" result="shape"/>
</filter>
</defs>
</svg>
