<svg width="445" height="122" viewBox="0 0 445 122" fill="none" xmlns="http://www.w3.org/2000/svg">
<g filter="url(#filter0_d)">
<path fill-rule="evenodd" clip-rule="evenodd" d="M15.1784 37.4572C16.3102 33.8349 19.7468 22.8358 35.8748 22.8358H155.431C164.366 22.8358 173.953 26.2363 182.919 45.5034C186.683 59.0287 196.745 75.148 222.155 75.3971L222.155 75.3972C247.564 75.1481 257.626 59.0289 261.39 45.5035C270.356 26.2364 279.943 22.8359 288.879 22.8359H408.435C424.563 22.8359 427.999 33.835 429.131 37.4573C429.198 37.671 429.257 37.8591 429.309 38.0176V113.076H222.155L222.155 113.076H15V38.0175C15.0529 37.8589 15.1116 37.6709 15.1784 37.4572Z" fill="white"/>
</g>
<defs>
<filter id="filter0_d" x="0" y="0.835815" width="444.309" height="120.24" filterUnits="userSpaceOnUse" color-interpolation-filters="sRGB">
<feFlood flood-opacity="0" result="BackgroundImageFix"/>
<feColorMatrix in="SourceAlpha" type="matrix" values="0 0 0 0 0 0 0 0 0 0 0 0 0 0 0 0 0 0 127 0"/>
<feOffset dy="-7"/>
<feGaussianBlur stdDeviation="7.5"/>
<feColorMatrix type="matrix" values="0 0 0 0 0.895833 0 0 0 0 0.895833 0 0 0 0 0.895833 0 0 0 0.74 0"/>
<feBlend mode="normal" in2="BackgroundImageFix" result="effect1_dropShadow"/>
<feBlend mode="normal" in="SourceGraphic" in2="effect1_dropShadow" result="shape"/>
</filter>
</defs>
</svg>
