<svg width="445" height="128" viewBox="0 0 445 128" fill="none" xmlns="http://www.w3.org/2000/svg">
<g filter="url(#filter0_d)">
<path fill-rule="evenodd" clip-rule="evenodd" d="M15.1784 43.4572C16.3102 39.8349 19.7468 28.8358 35.8748 28.8358H155.431C164.366 28.8358 173.953 32.2363 182.919 51.5034C186.683 65.0287 196.745 81.148 222.155 81.3971L222.155 81.3972C247.564 81.1481 257.626 65.0289 261.39 51.5035C270.356 32.2364 279.943 28.8359 288.879 28.8359H408.435C424.563 28.8359 427.999 39.835 429.131 43.4573C429.198 43.671 429.257 43.8591 429.309 44.0176V119.076H222.155L222.155 119.076H15V44.0175C15.0529 43.8589 15.1116 43.6709 15.1784 43.4572Z" fill="white"/>
</g>
<path fill-rule="evenodd" clip-rule="evenodd" d="M51.1252 84.8665V71.4602H53.1877V84.8665C53.1877 85.14 53.2963 85.4023 53.4897 85.5957C53.6831 85.7891 53.9454 85.8977 54.2189 85.8977H72.7814C73.0549 85.8977 73.3172 85.7891 73.5106 85.5957C73.704 85.4023 73.8127 85.14 73.8127 84.8665V71.4602H75.8752V84.8665C75.8752 85.687 75.5492 86.4739 74.969 87.0541C74.3889 87.6343 73.6019 87.9602 72.7814 87.9602H54.2189C53.3984 87.9602 52.6115 87.6343 52.0313 87.0541C51.4511 86.4739 51.1252 85.687 51.1252 84.8665ZM73.8127 62.179V69.3977L69.6877 65.2727V62.179C69.6877 61.9055 69.7963 61.6431 69.9897 61.4498C70.1831 61.2564 70.4454 61.1477 70.7189 61.1477H72.7814C73.0549 61.1477 73.3172 61.2564 73.5106 61.4498C73.704 61.6431 73.8127 61.9055 73.8127 62.179Z" fill="url(#paint0_linear)"/>
<path fill-rule="evenodd" clip-rule="evenodd" d="M62.0419 60.1164C62.4287 59.7298 62.9532 59.5126 63.5001 59.5126C64.047 59.5126 64.5715 59.7298 64.9583 60.1164L78.6677 73.8238C78.8613 74.0175 78.9701 74.2801 78.9701 74.5539C78.9701 74.8278 78.8613 75.0904 78.6677 75.2841C78.4741 75.4777 78.2114 75.5865 77.9376 75.5865C77.6637 75.5865 77.4011 75.4777 77.2075 75.2841L63.5001 61.5746L49.7927 75.2841C49.5991 75.4777 49.3364 75.5865 49.0626 75.5865C48.7887 75.5865 48.5261 75.4777 48.3325 75.2841C48.1388 75.0904 48.03 74.8278 48.03 74.5539C48.03 74.2801 48.1388 74.0175 48.3325 73.8238L62.0419 60.1164Z" fill="url(#paint1_linear)"/>
<path d="M381.604 57.6894C377.239 57.6894 373.687 61.2408 373.687 65.606C373.687 69.9713 377.239 73.5227 381.604 73.5227C385.969 73.5227 389.521 69.9713 389.521 65.606C389.521 61.2408 385.969 57.6894 381.604 57.6894ZM381.604 70.356C378.985 70.356 376.854 68.2249 376.854 65.606C376.854 62.9872 378.985 60.856 381.604 60.856C384.223 60.856 386.354 62.9872 386.354 65.606C386.354 68.2249 384.223 70.356 381.604 70.356ZM395.854 87.7727V86.1894C395.854 80.0793 390.881 75.106 384.771 75.106H378.437C372.326 75.106 367.354 80.0793 367.354 86.1894V87.7727H370.521V86.1894C370.521 81.8241 374.072 78.2727 378.437 78.2727H384.771C389.136 78.2727 392.687 81.8241 392.687 86.1894V87.7727H395.854Z" fill="#DFE7ED"/>
<g filter="url(#filter1_d)">
<circle cx="222.155" cy="39.7021" r="32.7021" fill="url(#paint2_linear)"/>
</g>
<path d="M222.24 30.4568L212.595 40.9226M222.24 30.4568L231.715 40.9226M222.24 30.4568V48.9472" stroke="white" stroke-width="3" stroke-linecap="round"/>
<path d="M293.635 58.6373V81.6998H298.01V86.8248H324.26V63.7623H319.885V58.6373H293.635ZM295.822 61.1998H317.697V79.1373H295.822V61.1998ZM298.01 63.7623V76.5748H315.51V63.7623H298.01ZM300.197 66.3248H313.322V74.0123H300.197V66.3248ZM319.885 66.3248H322.072V84.2623H300.197V81.6998H319.885V66.3248Z" fill="#DFE7ED"/>
<path d="M136.698 93.7926C137.328 93.7781 137.932 93.5412 138.404 93.124C138.876 92.7067 139.186 92.1359 139.278 91.5126H134.018C134.112 92.1529 134.436 92.7371 134.929 93.1565C135.422 93.5759 136.05 93.8019 136.698 93.7926Z" fill="#DFE7ED"/>
<path d="M151.208 87.3426C150.243 86.4829 149.399 85.4974 148.698 84.4126C147.932 82.9151 147.473 81.2798 147.348 79.6026V74.6626C147.343 74.0625 147.29 73.4638 147.188 72.8726C146.4 72.7152 145.644 72.4316 144.948 72.0326C145.213 72.8874 145.348 73.7774 145.348 74.6726V79.6126C145.47 81.6586 146.033 83.654 146.998 85.4626C147.688 86.5566 148.507 87.5638 149.438 88.4626H123.828C124.758 87.5638 125.577 86.5566 126.268 85.4626C127.232 83.654 127.795 81.6586 127.918 79.6126V74.6626C127.912 73.5053 128.135 72.3583 128.574 71.2873C129.013 70.2163 129.658 69.2424 130.474 68.4212C131.289 67.6001 132.259 66.9479 133.327 66.502C134.395 66.0561 135.54 65.8252 136.698 65.8226C138.391 65.8239 140.047 66.3248 141.458 67.2626C141.302 66.6916 141.215 66.1041 141.198 65.5126V64.8826C140.153 64.3689 139.032 64.0311 137.878 63.8826V62.6226C137.878 62.2685 137.737 61.9289 137.487 61.6786C137.236 61.4282 136.897 61.2876 136.543 61.2876C136.188 61.2876 135.849 61.4282 135.599 61.6786C135.348 61.9289 135.208 62.2685 135.208 62.6226V63.9326C132.623 64.2971 130.258 65.5843 128.549 67.5565C126.839 69.5287 125.901 72.0527 125.908 74.6626V79.6026C125.782 81.2798 125.323 82.9151 124.558 84.4126C123.868 85.4949 123.038 86.4803 122.088 87.3426C121.981 87.4363 121.895 87.5516 121.837 87.6809C121.778 87.8103 121.748 87.9506 121.748 88.0926V89.4526C121.748 89.7178 121.853 89.9721 122.04 90.1597C122.228 90.3472 122.482 90.4526 122.748 90.4526H150.548C150.813 90.4526 151.067 90.3472 151.255 90.1597C151.442 89.9721 151.548 89.7178 151.548 89.4526V88.0926C151.547 87.9506 151.517 87.8103 151.458 87.6809C151.4 87.5516 151.314 87.4363 151.208 87.3426Z" fill="#DFE7ED"/>
<path d="M148.698 70.5126C151.459 70.5126 153.698 68.274 153.698 65.5126C153.698 62.7511 151.459 60.5126 148.698 60.5126C145.936 60.5126 143.698 62.7511 143.698 65.5126C143.698 68.274 145.936 70.5126 148.698 70.5126Z" fill="#DFE7ED"/>
<defs>
<filter id="filter0_d" x="0" y="6.83582" width="444.309" height="120.24" filterUnits="userSpaceOnUse" color-interpolation-filters="sRGB">
<feFlood flood-opacity="0" result="BackgroundImageFix"/>
<feColorMatrix in="SourceAlpha" type="matrix" values="0 0 0 0 0 0 0 0 0 0 0 0 0 0 0 0 0 0 127 0"/>
<feOffset dy="-7"/>
<feGaussianBlur stdDeviation="7.5"/>
<feColorMatrix type="matrix" values="0 0 0 0 0.895833 0 0 0 0 0.895833 0 0 0 0 0.895833 0 0 0 0.74 0"/>
<feBlend mode="normal" in2="BackgroundImageFix" result="effect1_dropShadow"/>
<feBlend mode="normal" in="SourceGraphic" in2="effect1_dropShadow" result="shape"/>
</filter>
<filter id="filter1_d" x="182.453" y="0" width="79.4041" height="79.4041" filterUnits="userSpaceOnUse" color-interpolation-filters="sRGB">
<feFlood flood-opacity="0" result="BackgroundImageFix"/>
<feColorMatrix in="SourceAlpha" type="matrix" values="0 0 0 0 0 0 0 0 0 0 0 0 0 0 0 0 0 0 127 0"/>
<feOffset/>
<feGaussianBlur stdDeviation="3.5"/>
<feColorMatrix type="matrix" values="0 0 0 0 0.517647 0 0 0 0 0.568627 0 0 0 0 0.964706 0 0 0 1 0"/>
<feBlend mode="normal" in2="BackgroundImageFix" result="effect1_dropShadow"/>
<feBlend mode="normal" in="SourceGraphic" in2="effect1_dropShadow" result="shape"/>
</filter>
<linearGradient id="paint0_linear" x1="63.5002" y1="61.1477" x2="63.5002" y2="87.9602" gradientUnits="userSpaceOnUse">
<stop stop-color="#8491F6"/>
<stop offset="1" stop-color="#50A9DF"/>
</linearGradient>
<linearGradient id="paint1_linear" x1="63.5001" y1="59.5126" x2="63.5001" y2="75.5865" gradientUnits="userSpaceOnUse">
<stop stop-color="#8491F6"/>
<stop offset="1" stop-color="#50A9DF"/>
</linearGradient>
<linearGradient id="paint2_linear" x1="222.155" y1="7" x2="222.155" y2="72.4041" gradientUnits="userSpaceOnUse">
<stop stop-color="#8491F6"/>
<stop offset="1" stop-color="#50A9DF"/>
</linearGradient>
</defs>
</svg>
