<svg width="39" height="39" viewBox="0 0 39 39" fill="none" xmlns="http://www.w3.org/2000/svg">
<path d="M19.6041 3.68936C15.2389 3.68936 11.6875 7.24078 11.6875 11.606C11.6875 15.9713 15.2389 19.5227 19.6041 19.5227C23.9694 19.5227 27.5208 15.9713 27.5208 11.606C27.5208 7.24078 23.9694 3.68936 19.6041 3.68936ZM19.6041 16.356C16.9853 16.356 14.8541 14.2249 14.8541 11.606C14.8541 8.9872 16.9853 6.85603 19.6041 6.85603C22.223 6.85603 24.3541 8.9872 24.3541 11.606C24.3541 14.2249 22.223 16.356 19.6041 16.356ZM33.8541 33.7727V32.1894C33.8541 26.0793 28.8809 21.106 22.7708 21.106H16.4375C10.3258 21.106 5.35413 26.0793 5.35413 32.1894V33.7727H8.52079V32.1894C8.52079 27.8241 12.0722 24.2727 16.4375 24.2727H22.7708C27.136 24.2727 30.6875 27.8241 30.6875 32.1894V33.7727H33.8541Z" fill="#DFE7ED"/>
</svg>
