<svg width="33" height="34" viewBox="0 0 33 34" fill="none" xmlns="http://www.w3.org/2000/svg">
<path fill-rule="evenodd" clip-rule="evenodd" d="M4.12518 27.8665V14.4602H6.18768V27.8665C6.18768 28.14 6.29633 28.4023 6.48973 28.5957C6.68313 28.7891 6.94543 28.8977 7.21893 28.8977H25.7814C26.0549 28.8977 26.3172 28.7891 26.5106 28.5957C26.704 28.4023 26.8127 28.14 26.8127 27.8665V14.4602H28.8752V27.8665C28.8752 28.687 28.5492 29.4739 27.969 30.0541C27.3889 30.6343 26.6019 30.9602 25.7814 30.9602H7.21893C6.39842 30.9602 5.61151 30.6343 5.03132 30.0541C4.45113 29.4739 4.12518 28.687 4.12518 27.8665ZM26.8127 5.17896V12.3977L22.6877 8.27271V5.17896C22.6877 4.90545 22.7963 4.64315 22.9897 4.44975C23.1831 4.25635 23.4454 4.14771 23.7189 4.14771H25.7814C26.0549 4.14771 26.3172 4.25635 26.5106 4.44975C26.704 4.64315 26.8127 4.90545 26.8127 5.17896Z" fill="url(#paint0_linear)"/>
<path fill-rule="evenodd" clip-rule="evenodd" d="M15.0419 3.11645C15.4287 2.72979 15.9532 2.51257 16.5001 2.51257C17.047 2.51257 17.5715 2.72979 17.9583 3.11645L31.6677 16.8238C31.8613 17.0175 31.9701 17.2801 31.9701 17.5539C31.9701 17.8278 31.8613 18.0904 31.6677 18.2841C31.4741 18.4777 31.2114 18.5865 30.9376 18.5865C30.6637 18.5865 30.4011 18.4777 30.2075 18.2841L16.5001 4.57463L2.79271 18.2841C2.59907 18.4777 2.33643 18.5865 2.06258 18.5865C1.78873 18.5865 1.5261 18.4777 1.33246 18.2841C1.13882 18.0904 1.03003 17.8278 1.03003 17.5539C1.03003 17.2801 1.13882 17.0175 1.33246 16.8238L15.0419 3.11645Z" fill="url(#paint1_linear)"/>
<defs>
<linearGradient id="paint0_linear" x1="16.5002" y1="4.14771" x2="16.5002" y2="30.9602" gradientUnits="userSpaceOnUse">
<stop stop-color="#8491F6"/>
<stop offset="1" stop-color="#50A9DF"/>
</linearGradient>
<linearGradient id="paint1_linear" x1="16.5001" y1="2.51257" x2="16.5001" y2="18.5865" gradientUnits="userSpaceOnUse">
<stop stop-color="#8491F6"/>
<stop offset="1" stop-color="#50A9DF"/>
</linearGradient>
</defs>
</svg>
