<svg width="37" height="37" viewBox="0 0 37 37" fill="none" xmlns="http://www.w3.org/2000/svg">
<path d="M18.6976 34.7926C19.3275 34.7781 19.932 34.5412 20.4042 34.124C20.8763 33.7067 21.1857 33.1359 21.2776 32.5126H16.0176C16.1121 33.1529 16.4359 33.7371 16.9289 34.1565C17.4219 34.5759 18.0504 34.8019 18.6976 34.7926Z" fill="#DFE7ED"/>
<path d="M33.2076 28.3426C32.2432 27.4829 31.399 26.4974 30.6976 25.4126C29.9318 23.9151 29.4728 22.2798 29.3476 20.6026V15.6626C29.3435 15.0625 29.29 14.4638 29.1876 13.8726C28.4005 13.7152 27.644 13.4316 26.9476 13.0326C27.213 13.8874 27.3479 14.7774 27.3476 15.6726V20.6126C27.4701 22.6586 28.0329 24.654 28.9976 26.4626C29.688 27.5566 30.5072 28.5638 31.4376 29.4626H5.82756C6.75797 28.5638 7.57716 27.5566 8.26756 26.4626C9.23217 24.654 9.79499 22.6586 9.91756 20.6126V15.6626C9.9123 14.5053 10.1354 13.3583 10.574 12.2873C11.0126 11.2163 11.6582 10.2424 12.4738 9.42123C13.2893 8.6001 14.2589 7.9479 15.3268 7.50198C16.3948 7.05606 17.5402 6.82519 18.6976 6.82257C20.3913 6.82392 22.0471 7.32482 23.4576 8.26257C23.3021 7.69155 23.2148 7.10412 23.1976 6.51257V5.88257C22.1534 5.36893 21.0317 5.03106 19.8776 4.88257V3.62257C19.8776 3.2685 19.7369 2.92894 19.4865 2.67858C19.2362 2.42822 18.8966 2.28757 18.5426 2.28757C18.1885 2.28757 17.8489 2.42822 17.5986 2.67858C17.3482 2.92894 17.2076 3.2685 17.2076 3.62257V4.93257C14.6233 5.29712 12.2581 6.58431 10.5488 8.5565C8.83943 10.5287 7.90129 13.0527 7.90756 15.6626V20.6026C7.78231 22.2798 7.32334 23.9151 6.55756 25.4126C5.86844 26.4949 5.03775 27.4803 4.08756 28.3426C3.98089 28.4363 3.8954 28.5516 3.83678 28.6809C3.77815 28.8103 3.74774 28.9506 3.74756 29.0926V30.4526C3.74756 30.7178 3.85292 30.9721 4.04045 31.1597C4.22799 31.3472 4.48234 31.4526 4.74756 31.4526H32.5476C32.8128 31.4526 33.0671 31.3472 33.2547 31.1597C33.4422 30.9721 33.5476 30.7178 33.5476 30.4526V29.0926C33.5474 28.9506 33.517 28.8103 33.4583 28.6809C33.3997 28.5516 33.3142 28.4363 33.2076 28.3426Z" fill="#DFE7ED"/>
<path d="M30.6976 11.5126C33.459 11.5126 35.6976 9.274 35.6976 6.51257C35.6976 3.75115 33.459 1.51257 30.6976 1.51257C27.9361 1.51257 25.6976 3.75115 25.6976 6.51257C25.6976 9.274 27.9361 11.5126 30.6976 11.5126Z" fill="#DFE7ED"/>
</svg>
