<svg width="480" height="320" viewBox="0 0 480 320" fill="none" xmlns="http://www.w3.org/2000/svg">
<g filter="url(#filter0_d)">
<path d="M33 76C33 42.3106 60.3106 15 94 15H386C419.689 15 447 42.3106 447 76V269H33V76Z" fill="white"/>
<path d="M83.9446 80.6115C81.8913 80.6115 80.1366 80.1728 78.6806 79.2955C77.2433 78.3995 76.1513 77.1488 75.4046 75.5435C74.6579 73.9381 74.2846 72.0528 74.2846 69.8875C74.2846 67.7968 74.7233 65.9488 75.6006 64.3435C76.4779 62.7381 77.6819 61.4968 79.2126 60.6195C80.7433 59.7235 82.4606 59.2755 84.3646 59.2755C85.8019 59.2755 87.5286 59.4995 89.5446 59.9475L90.4686 60.1155L90.1886 65.1555H88.3126L87.6126 61.5995C87.3513 61.3755 86.8939 61.1888 86.2406 61.0395C85.6059 60.8715 84.8219 60.7875 83.8886 60.7875C82.6939 60.7875 81.6299 61.1328 80.6966 61.8235C79.7633 62.4955 79.0259 63.4941 78.4846 64.8195C77.9619 66.1448 77.7006 67.7315 77.7006 69.5795C77.7006 71.3341 77.9339 72.9301 78.4006 74.3675C78.8673 75.8048 79.5766 76.9528 80.5286 77.8115C81.4806 78.6515 82.6566 79.0715 84.0566 79.0715C85.0459 79.0715 85.8019 78.9875 86.3246 78.8195C86.8659 78.6515 87.3233 78.4088 87.6966 78.0915L88.8726 75.3475L90.6366 75.5715L89.9646 79.5475C89.5726 79.5661 88.9939 79.6968 88.2286 79.9395C87.5566 80.1448 86.9033 80.3035 86.2686 80.4155C85.6526 80.5461 84.8779 80.6115 83.9446 80.6115ZM94.4256 59.4155L92.0736 59.1075V57.9035L96.6376 57.3715H96.6936L97.3096 57.7915V64.2875L97.1976 66.6675C97.7949 66.1261 98.6162 65.6128 99.6616 65.1275C100.707 64.6421 101.762 64.3995 102.826 64.3995C104.002 64.3995 104.916 64.6235 105.57 65.0715C106.223 65.5195 106.68 66.2101 106.942 67.1435C107.203 68.0581 107.334 69.2995 107.334 70.8675V78.6795L109.294 78.9315V80.3035H102.602V78.9315L104.422 78.6795V70.8395C104.422 69.7381 104.347 68.8795 104.198 68.2635C104.048 67.6288 103.768 67.1621 103.358 66.8635C102.947 66.5461 102.331 66.3875 101.51 66.3875C100.838 66.3875 100.119 66.5555 99.3536 66.8915C98.5882 67.2275 97.9162 67.6195 97.3376 68.0675V78.6795L99.2696 78.9315V80.3035H92.7456V78.9315L94.4256 78.7075V59.4155ZM111.371 72.4915C111.371 70.8115 111.716 69.3555 112.407 68.1235C113.097 66.8915 114.003 65.9581 115.123 65.3235C116.261 64.6701 117.475 64.3435 118.763 64.3435C121.115 64.3435 122.879 65.0901 124.055 66.5835C125.249 68.0768 125.847 70.0368 125.847 72.4635C125.847 74.1621 125.501 75.6275 124.811 76.8595C124.12 78.0915 123.205 79.0248 122.067 79.6595C120.947 80.2941 119.743 80.6115 118.455 80.6115C116.103 80.6115 114.329 79.8648 113.135 78.3715C111.959 76.8781 111.371 74.9181 111.371 72.4915ZM118.623 79.0155C119.911 79.0155 120.9 78.4835 121.591 77.4195C122.281 76.3555 122.627 74.7781 122.627 72.6875C122.627 70.6155 122.309 68.9728 121.675 67.7595C121.04 66.5461 120.023 65.9395 118.623 65.9395C117.335 65.9395 116.336 66.4715 115.627 67.5355C114.936 68.5995 114.591 70.1768 114.591 72.2675C114.591 74.3395 114.917 75.9821 115.571 77.1955C116.224 78.4088 117.241 79.0155 118.623 79.0155ZM128.406 72.4915C128.406 70.8115 128.751 69.3555 129.442 68.1235C130.132 66.8915 131.038 65.9581 132.158 65.3235C133.296 64.6701 134.51 64.3435 135.798 64.3435C138.15 64.3435 139.914 65.0901 141.09 66.5835C142.284 68.0768 142.882 70.0368 142.882 72.4635C142.882 74.1621 142.536 75.6275 141.846 76.8595C141.155 78.0915 140.24 79.0248 139.102 79.6595C137.982 80.2941 136.778 80.6115 135.49 80.6115C133.138 80.6115 131.364 79.8648 130.17 78.3715C128.994 76.8781 128.406 74.9181 128.406 72.4915ZM135.658 79.0155C136.946 79.0155 137.935 78.4835 138.626 77.4195C139.316 76.3555 139.662 74.7781 139.662 72.6875C139.662 70.6155 139.344 68.9728 138.71 67.7595C138.075 66.5461 137.058 65.9395 135.658 65.9395C134.37 65.9395 133.371 66.4715 132.662 67.5355C131.971 68.5995 131.626 70.1768 131.626 72.2675C131.626 74.3395 131.952 75.9821 132.606 77.1955C133.259 78.4088 134.276 79.0155 135.658 79.0155ZM148.045 78.0635C148.232 78.3435 148.624 78.5955 149.221 78.8195C149.837 79.0435 150.481 79.1555 151.153 79.1555C152.217 79.1555 153.001 78.9501 153.505 78.5395C154.009 78.1288 154.261 77.5595 154.261 76.8315C154.261 76.3275 154.102 75.8888 153.785 75.5155C153.468 75.1421 153.02 74.8155 152.441 74.5355C151.881 74.2368 151.069 73.8821 150.005 73.4715C148.568 72.9301 147.513 72.2861 146.841 71.5395C146.188 70.7741 145.861 69.7755 145.861 68.5435C145.861 67.7221 146.104 67.0035 146.589 66.3875C147.093 65.7715 147.774 65.2955 148.633 64.9595C149.51 64.6048 150.481 64.4275 151.545 64.4275C152.404 64.4275 153.15 64.4928 153.785 64.6235C154.438 64.7541 154.961 64.8848 155.353 65.0155C155.745 65.1461 156.006 65.2301 156.137 65.2675V68.7395H154.429L153.869 66.6675C153.757 66.4435 153.458 66.2568 152.973 66.1075C152.488 65.9395 151.946 65.8555 151.349 65.8555C150.509 65.8555 149.828 66.0421 149.305 66.4155C148.801 66.7888 148.549 67.2928 148.549 67.9275C148.549 68.4875 148.68 68.9541 148.941 69.3275C149.221 69.6821 149.566 69.9715 149.977 70.1955C150.388 70.4195 150.948 70.6808 151.657 70.9795L152.217 71.2035C153.262 71.6141 154.112 72.0061 154.765 72.3795C155.418 72.7528 155.96 73.2475 156.389 73.8635C156.837 74.4608 157.061 75.1981 157.061 76.0755C157.061 77.4568 156.52 78.5581 155.437 79.3795C154.373 80.2008 152.908 80.6115 151.041 80.6115C150.126 80.6115 149.165 80.4901 148.157 80.2475C147.168 79.9861 146.356 79.7248 145.721 79.4635V75.8795H147.541L148.045 78.0635ZM166.466 80.6115C164.207 80.6115 162.48 79.8741 161.286 78.3995C160.11 76.9248 159.522 74.9555 159.522 72.4915C159.522 70.8675 159.83 69.4395 160.446 68.2075C161.062 66.9755 161.92 66.0235 163.022 65.3515C164.142 64.6795 165.411 64.3435 166.83 64.3435C168.566 64.3435 169.91 64.8288 170.862 65.7995C171.832 66.7515 172.346 68.1235 172.402 69.9155C172.402 71.0541 172.336 71.9221 172.206 72.5195H162.574C162.611 74.3675 163.04 75.8608 163.862 76.9995C164.683 78.1195 165.85 78.6795 167.362 78.6795C168.108 78.6795 168.883 78.5488 169.686 78.2875C170.507 78.0075 171.142 77.6808 171.59 77.3075L172.122 78.5395C171.58 79.0995 170.778 79.5848 169.714 79.9955C168.65 80.4061 167.567 80.6115 166.466 80.6115ZM169.322 71.0355C169.378 70.6435 169.406 70.2421 169.406 69.8315C169.387 68.6181 169.126 67.6661 168.622 66.9755C168.136 66.2661 167.362 65.9115 166.298 65.9115C165.215 65.9115 164.347 66.3035 163.694 67.0875C163.059 67.8715 162.695 69.1875 162.602 71.0355H169.322ZM188.313 60.9835L183.497 61.1515L182.517 67.0035H180.669L181.145 59.4995H198.589L198.925 67.0035H197.161L196.237 61.1515L191.393 60.9835V78.6515L195.369 78.9315V80.3035H184.673V78.9315L188.313 78.6515V60.9835ZM202.351 59.4155L199.999 59.1075V57.9035L204.563 57.3715H204.619L205.235 57.7915V64.2875L205.123 66.6675C205.721 66.1261 206.542 65.6128 207.587 65.1275C208.633 64.6421 209.687 64.3995 210.751 64.3995C211.927 64.3995 212.842 64.6235 213.495 65.0715C214.149 65.5195 214.606 66.2101 214.867 67.1435C215.129 68.0581 215.259 69.2995 215.259 70.8675V78.6795L217.219 78.9315V80.3035H210.527V78.9315L212.347 78.6795V70.8395C212.347 69.7381 212.273 68.8795 212.123 68.2635C211.974 67.6288 211.694 67.1621 211.283 66.8635C210.873 66.5461 210.257 66.3875 209.435 66.3875C208.763 66.3875 208.045 66.5555 207.279 66.8915C206.514 67.2275 205.842 67.6195 205.263 68.0675V78.6795L207.195 78.9315V80.3035H200.671V78.9315L202.351 78.7075V59.4155ZM226.184 80.6115C223.926 80.6115 222.199 79.8741 221.004 78.3995C219.828 76.9248 219.24 74.9555 219.24 72.4915C219.24 70.8675 219.548 69.4395 220.164 68.2075C220.78 66.9755 221.639 66.0235 222.74 65.3515C223.86 64.6795 225.13 64.3435 226.548 64.3435C228.284 64.3435 229.628 64.8288 230.58 65.7995C231.551 66.7515 232.064 68.1235 232.12 69.9155C232.12 71.0541 232.055 71.9221 231.924 72.5195H222.292C222.33 74.3675 222.759 75.8608 223.58 76.9995C224.402 78.1195 225.568 78.6795 227.08 78.6795C227.827 78.6795 228.602 78.5488 229.404 78.2875C230.226 78.0075 230.86 77.6808 231.308 77.3075L231.84 78.5395C231.299 79.0995 230.496 79.5848 229.432 79.9955C228.368 80.4061 227.286 80.6115 226.184 80.6115ZM229.04 71.0355C229.096 70.6435 229.124 70.2421 229.124 69.8315C229.106 68.6181 228.844 67.6661 228.34 66.9755C227.855 66.2661 227.08 65.9115 226.016 65.9115C224.934 65.9115 224.066 66.3035 223.412 67.0875C222.778 67.8715 222.414 69.1875 222.32 71.0355H229.04ZM234.499 78.9315L236.207 78.6795V66.9195L234.191 66.4155V64.9035L238.195 64.3995L238.699 64.7635L238.867 65.8835L238.839 66.7795C239.492 66.1821 240.379 65.6408 241.499 65.1555C242.638 64.6515 243.655 64.3995 244.551 64.3995C245.559 64.3995 246.371 64.5675 246.987 64.9035C247.603 65.2395 248.07 65.7621 248.387 66.4715C248.984 65.9675 249.815 65.5008 250.879 65.0715C251.962 64.6235 252.97 64.3995 253.903 64.3995C255.06 64.3995 255.966 64.6235 256.619 65.0715C257.272 65.5008 257.73 66.1821 257.991 67.1155C258.271 68.0301 258.411 69.2621 258.411 70.8115V78.6795L260.427 78.9315V80.3035H253.763V78.9315L255.499 78.6795V70.8955C255.499 69.8128 255.415 68.9541 255.247 68.3195C255.098 67.6661 254.799 67.1808 254.351 66.8635C253.922 66.5461 253.296 66.3875 252.475 66.3875C251.859 66.3875 251.206 66.5275 250.515 66.8075C249.824 67.0688 249.236 67.3861 248.751 67.7595C248.919 68.4875 249.003 69.5235 249.003 70.8675V78.6795L250.991 78.9315V80.3035H244.215V78.9315L246.063 78.6795V70.8395C246.063 69.7195 245.988 68.8515 245.839 68.2355C245.708 67.6195 245.447 67.1621 245.055 66.8635C244.663 66.5461 244.066 66.3875 243.263 66.3875C242.591 66.3875 241.872 66.5555 241.107 66.8915C240.36 67.2275 239.707 67.6195 239.147 68.0675V78.6795L241.023 78.9315V80.3035H234.499V78.9315ZM269.278 80.6115C267.019 80.6115 265.293 79.8741 264.098 78.3995C262.922 76.9248 262.334 74.9555 262.334 72.4915C262.334 70.8675 262.642 69.4395 263.258 68.2075C263.874 66.9755 264.733 66.0235 265.834 65.3515C266.954 64.6795 268.223 64.3435 269.642 64.3435C271.378 64.3435 272.722 64.8288 273.674 65.7995C274.645 66.7515 275.158 68.1235 275.214 69.9155C275.214 71.0541 275.149 71.9221 275.018 72.5195H265.386C265.423 74.3675 265.853 75.8608 266.674 76.9995C267.495 78.1195 268.662 78.6795 270.174 78.6795C270.921 78.6795 271.695 78.5488 272.498 78.2875C273.319 78.0075 273.954 77.6808 274.402 77.3075L274.934 78.5395C274.393 79.0995 273.59 79.5848 272.526 79.9955C271.462 80.4061 270.379 80.6115 269.278 80.6115ZM272.134 71.0355C272.19 70.6435 272.218 70.2421 272.218 69.8315C272.199 68.6181 271.938 67.6661 271.434 66.9755C270.949 66.2661 270.174 65.9115 269.11 65.9115C268.027 65.9115 267.159 66.3035 266.506 67.0875C265.871 67.8715 265.507 69.1875 265.414 71.0355H272.134Z" fill="#6A515E"/>
<rect x="73.8606" y="128.71" width="66.1492" height="66.1492" rx="33.0746" fill="url(#paint0_linear)" stroke="url(#paint1_linear)"/>
<rect x="165.298" y="128.71" width="66.1492" height="66.1492" rx="33.0746" fill="#00A3FF" stroke="url(#paint2_linear)"/>
<rect x="256.736" y="128.71" width="66.1492" height="66.1492" rx="33.0746" fill="#DFE7ED" stroke="url(#paint3_linear)"/>
<rect x="348.173" y="128.71" width="66.1492" height="66.1492" rx="33.0746" fill="white" stroke="url(#paint4_linear)"/>
<path d="M97.855 213.724H95.5171V217.75H94.1978V207.797H97.4927C98.6138 207.797 99.4751 208.052 100.077 208.562C100.683 209.073 100.986 209.816 100.986 210.791C100.986 211.411 100.817 211.951 100.48 212.411C100.147 212.871 99.6825 213.215 99.0854 213.443L101.423 217.668V217.75H100.015L97.855 213.724ZM95.5171 212.65H97.5337C98.1854 212.65 98.7026 212.482 99.0854 212.145C99.4728 211.807 99.6665 211.356 99.6665 210.791C99.6665 210.176 99.4819 209.704 99.1128 209.376C98.7482 209.048 98.2196 208.882 97.5269 208.877H95.5171V212.65ZM108.458 213.149H104.144V216.677H109.155V217.75H102.832V207.797H109.086V208.877H104.144V212.076H108.458V213.149ZM110.789 217.75V207.797H113.598C114.464 207.797 115.23 207.988 115.895 208.371C116.56 208.754 117.073 209.299 117.433 210.005C117.798 210.711 117.982 211.522 117.987 212.438V213.074C117.987 214.013 117.805 214.836 117.44 215.542C117.08 216.248 116.563 216.791 115.888 217.169C115.218 217.547 114.437 217.741 113.543 217.75H110.789ZM112.101 208.877V216.677H113.482C114.494 216.677 115.28 216.362 115.84 215.733C116.405 215.104 116.688 214.209 116.688 213.047V212.466C116.688 211.336 116.421 210.458 115.888 209.834C115.36 209.205 114.608 208.886 113.632 208.877H112.101Z" fill="#C4C4C4"/>
<path d="M183.567 217.75V207.797H186.821C187.901 207.797 188.712 208.02 189.254 208.467C189.801 208.913 190.075 209.574 190.075 210.449C190.075 210.914 189.943 211.326 189.678 211.687C189.414 212.042 189.054 212.318 188.598 212.514C189.136 212.664 189.56 212.951 189.87 213.375C190.184 213.794 190.341 214.296 190.341 214.879C190.341 215.772 190.052 216.474 189.473 216.984C188.894 217.495 188.076 217.75 187.019 217.75H183.567ZM184.879 213.095V216.677H187.046C187.657 216.677 188.138 216.52 188.489 216.205C188.844 215.886 189.022 215.449 189.022 214.893C189.022 213.694 188.37 213.095 187.067 213.095H184.879ZM184.879 212.042H186.862C187.436 212.042 187.894 211.898 188.236 211.611C188.582 211.324 188.755 210.935 188.755 210.442C188.755 209.896 188.596 209.499 188.277 209.253C187.958 209.002 187.472 208.877 186.821 208.877H184.879V212.042ZM193.609 216.677H198.326V217.75H192.29V207.797H193.609V216.677ZM206.46 207.797V214.564C206.456 215.503 206.16 216.271 205.572 216.868C204.988 217.465 204.195 217.8 203.193 217.873L202.844 217.887C201.755 217.887 200.887 217.593 200.24 217.005C199.593 216.417 199.264 215.608 199.255 214.578V207.797H200.554V214.537C200.554 215.257 200.752 215.818 201.149 216.219C201.545 216.615 202.111 216.813 202.844 216.813C203.587 216.813 204.154 216.615 204.546 216.219C204.943 215.822 205.141 215.264 205.141 214.544V207.797H206.46ZM214.158 213.149H209.844V216.677H214.855V217.75H208.532V207.797H214.787V208.877H209.844V212.076H214.158V213.149Z" fill="#C4C4C4"/>
<path d="M280.884 216.444C280.547 216.927 280.075 217.29 279.469 217.531C278.868 217.768 278.166 217.887 277.364 217.887C276.553 217.887 275.833 217.698 275.204 217.319C274.575 216.937 274.087 216.394 273.741 215.692C273.399 214.991 273.223 214.177 273.214 213.252V212.384C273.214 210.884 273.563 209.722 274.26 208.897C274.962 208.073 275.946 207.66 277.213 207.66C278.252 207.66 279.089 207.927 279.722 208.46C280.356 208.989 280.743 209.741 280.884 210.716H279.572C279.326 209.399 278.542 208.74 277.22 208.74C276.341 208.74 275.673 209.05 275.217 209.67C274.766 210.285 274.538 211.178 274.534 212.35V213.163C274.534 214.28 274.789 215.168 275.299 215.829C275.81 216.485 276.5 216.813 277.371 216.813C277.863 216.813 278.293 216.759 278.663 216.649C279.032 216.54 279.337 216.355 279.579 216.096V213.86H277.275V212.794H280.884V216.444ZM286.729 213.724H284.391V217.75H283.072V207.797H286.367C287.488 207.797 288.349 208.052 288.951 208.562C289.557 209.073 289.86 209.816 289.86 210.791C289.86 211.411 289.691 211.951 289.354 212.411C289.021 212.871 288.556 213.215 287.959 213.443L290.297 217.668V217.75H288.889L286.729 213.724ZM284.391 212.65H286.408C287.059 212.65 287.577 212.482 287.959 212.145C288.347 211.807 288.541 211.356 288.541 210.791C288.541 210.176 288.356 209.704 287.987 209.376C287.622 209.048 287.094 208.882 286.401 208.877H284.391V212.65ZM297.332 213.149H293.018V216.677H298.029V217.75H291.706V207.797H297.96V208.877H293.018V212.076H297.332V213.149ZM302.698 212.794L305.295 207.797H306.786L303.354 214.038V217.75H302.042V214.038L298.61 207.797H300.114L302.698 212.794Z" fill="#C4C4C4"/>
<path d="M363.561 214.612L363.752 215.925L364.032 214.742L366.001 207.797H367.108L369.029 214.742L369.303 215.945L369.515 214.605L371.06 207.797H372.379L369.966 217.75H368.77L366.719 210.497L366.562 209.738L366.404 210.497L364.278 217.75H363.082L360.676 207.797H361.988L363.561 214.612ZM381.491 217.75H380.172V213.149H375.154V217.75H373.842V207.797H375.154V212.076H380.172V207.797H381.491V217.75ZM385.23 217.75H383.918V207.797H385.23V217.75ZM394.309 208.877H391.109V217.75H389.804V208.877H386.611V207.797H394.309V208.877ZM401.411 213.149H397.098V216.677H402.108V217.75H395.785V207.797H402.04V208.877H397.098V212.076H401.411V213.149Z" fill="#C4C4C4"/>
</g>
<defs>
<filter id="filter0_d" x="0" y="0" width="480" height="320" filterUnits="userSpaceOnUse" color-interpolation-filters="sRGB">
<feFlood flood-opacity="0" result="BackgroundImageFix"/>
<feColorMatrix in="SourceAlpha" type="matrix" values="0 0 0 0 0 0 0 0 0 0 0 0 0 0 0 0 0 0 127 0"/>
<feOffset dy="18"/>
<feGaussianBlur stdDeviation="16.5"/>
<feColorMatrix type="matrix" values="0 0 0 0 0 0 0 0 0 0 0 0 0 0 0 0 0 0 0.25 0"/>
<feBlend mode="normal" in2="BackgroundImageFix" result="effect1_dropShadow"/>
<feBlend mode="normal" in="SourceGraphic" in2="effect1_dropShadow" result="shape"/>
</filter>
<linearGradient id="paint0_linear" x1="106.935" y1="128.21" x2="106.935" y2="195.36" gradientUnits="userSpaceOnUse">
<stop stop-color="#8491F6"/>
<stop offset="1" stop-color="#50A9DF"/>
</linearGradient>
<linearGradient id="paint1_linear" x1="106.935" y1="128.21" x2="106.935" y2="195.36" gradientUnits="userSpaceOnUse">
<stop stop-color="#8491F6"/>
<stop offset="1" stop-color="#50A9DF"/>
</linearGradient>
<linearGradient id="paint2_linear" x1="198.373" y1="128.21" x2="198.373" y2="195.36" gradientUnits="userSpaceOnUse">
<stop stop-color="#8491F6"/>
<stop offset="1" stop-color="#50A9DF"/>
</linearGradient>
<linearGradient id="paint3_linear" x1="289.81" y1="128.21" x2="289.81" y2="195.36" gradientUnits="userSpaceOnUse">
<stop stop-color="#8491F6"/>
<stop offset="1" stop-color="#50A9DF"/>
</linearGradient>
<linearGradient id="paint4_linear" x1="381.248" y1="128.21" x2="381.248" y2="195.36" gradientUnits="userSpaceOnUse">
<stop stop-color="#8491F6"/>
<stop offset="1" stop-color="#50A9DF"/>
</linearGradient>
</defs>
</svg>
