<svg width="29" height="27" viewBox="0 0 29 27" fill="none" xmlns="http://www.w3.org/2000/svg">
<path d="M14.5694 26.7275C14.373 26.7269 14.1823 26.6592 14.0271 26.535C9.08492 22.575 5.68047 19.165 3.29825 15.8008C0.258249 11.5017 -0.435084 7.53249 1.23603 4.00333C2.42714 1.48249 5.84936 -0.580007 9.84936 0.620827C11.7565 1.18892 13.4205 2.40721 14.5694 4.07666C15.7183 2.40721 17.3822 1.18892 19.2894 0.620827C23.2805 -0.561673 26.7116 1.48249 27.9027 4.00333C29.5738 7.53249 28.8805 11.5017 25.8405 15.8008C23.4583 19.165 20.0538 22.575 15.1116 26.535C14.9564 26.6592 14.7658 26.7269 14.5694 26.7275ZM7.57381 2.11499C6.62203 2.07679 5.67814 2.30662 4.84344 2.7798C4.00875 3.25299 3.31478 3.95166 2.83603 4.80083C1.45825 7.71583 2.08047 10.9608 4.73825 14.71C7.56276 18.467 10.8702 21.81 14.5694 24.6467C18.268 21.8128 21.5753 18.473 24.4005 14.7192C27.0671 10.9608 27.6805 7.71583 26.3027 4.80999C25.4138 2.97666 22.7471 1.51916 19.7782 2.38083C18.8263 2.67095 17.9438 3.1634 17.1875 3.82648C16.4312 4.48956 15.818 5.30858 15.3871 6.23083C15.3202 6.39895 15.2062 6.54275 15.0598 6.64395C14.9134 6.74516 14.7412 6.79919 14.5649 6.79919C14.3887 6.79919 14.2164 6.74516 14.07 6.64395C13.9236 6.54275 13.8097 6.39895 13.7427 6.23083C13.3151 5.30627 12.7029 4.48534 11.9462 3.82184C11.1894 3.15835 10.3052 2.66728 9.35158 2.38083C8.77378 2.20776 8.17548 2.1183 7.57381 2.11499Z" fill="#6A515E"/>
</svg>
