<svg width="414" height="896" viewBox="0 0 414 896" fill="none" xmlns="http://www.w3.org/2000/svg">
<rect width="414" height="896" fill="white"/>
<circle cx="198.275" cy="174.472" r="57.2689" fill="url(#paint0_linear)"/>
<circle cx="260.948" cy="105.157" r="12.0458" fill="url(#paint1_linear)"/>
<circle cx="198.275" cy="174.472" r="40.4931" fill="white"/>
<rect x="36.9328" y="318.593" width="340.134" height="59.7302" rx="10" fill="#F5F5F5"/>
<rect x="36.9328" y="404.767" width="340.134" height="59.7302" rx="10" fill="#F5F5F5"/>
<path d="M74.8382 354.958H73.1419L66.6996 345.097V354.958H65.0033V342.161H66.6996L73.1595 352.066V342.161H74.8382V354.958ZM83.4515 354.017C82.8187 354.762 81.89 355.134 80.6654 355.134C79.6517 355.134 78.8783 354.841 78.3451 354.255C77.8177 353.663 77.5511 352.79 77.5453 351.636V345.448H79.1712V351.592C79.1712 353.033 79.7572 353.754 80.929 353.754C82.1712 353.754 82.9974 353.291 83.4076 352.365V345.448H85.0335V354.958H83.4867L83.4515 354.017ZM89.0414 345.448L89.0853 346.503C89.7826 345.682 90.723 345.272 91.9066 345.272C93.2367 345.272 94.1419 345.782 94.6224 346.802C94.9388 346.345 95.349 345.975 95.8529 345.694C96.3626 345.413 96.9632 345.272 97.6546 345.272C99.7406 345.272 100.801 346.377 100.836 348.586V354.958H99.2103V348.682C99.2103 348.003 99.055 347.496 98.7445 347.162C98.4339 346.822 97.9124 346.652 97.18 346.652C96.5765 346.652 96.0755 346.834 95.6771 347.197C95.2787 347.555 95.0472 348.038 94.9828 348.647V354.958H93.348V348.726C93.348 347.344 92.6712 346.652 91.3177 346.652C90.2513 346.652 89.5218 347.106 89.1292 348.014V354.958H87.5033V345.448H89.0414ZM111.348 350.308C111.348 351.762 111.014 352.931 110.346 353.815C109.678 354.694 108.782 355.134 107.657 355.134C106.455 355.134 105.527 354.709 104.87 353.859L104.791 354.958H103.297V341.458H104.923V346.494C105.579 345.68 106.485 345.272 107.639 345.272C108.793 345.272 109.699 345.709 110.355 346.582C111.017 347.455 111.348 348.65 111.348 350.168V350.308ZM109.722 350.124C109.722 349.016 109.508 348.161 109.08 347.557C108.653 346.954 108.037 346.652 107.235 346.652C106.162 346.652 105.392 347.15 104.923 348.146V352.26C105.421 353.256 106.198 353.754 107.252 353.754C108.032 353.754 108.638 353.452 109.072 352.848C109.505 352.245 109.722 351.337 109.722 350.124ZM117.351 355.134C116.062 355.134 115.013 354.712 114.204 353.868C113.396 353.018 112.992 351.885 112.992 350.467V350.168C112.992 349.224 113.17 348.384 113.528 347.645C113.891 346.901 114.395 346.321 115.039 345.905C115.69 345.483 116.393 345.272 117.149 345.272C118.385 345.272 119.346 345.68 120.032 346.494C120.717 347.308 121.06 348.474 121.06 349.992V350.669H114.618C114.641 351.606 114.913 352.365 115.435 352.945C115.962 353.519 116.63 353.806 117.439 353.806C118.013 353.806 118.499 353.689 118.898 353.455C119.296 353.221 119.645 352.91 119.944 352.523L120.937 353.297C120.14 354.521 118.945 355.134 117.351 355.134ZM117.149 346.608C116.493 346.608 115.942 346.848 115.496 347.329C115.051 347.804 114.776 348.472 114.67 349.333H119.434V349.21C119.387 348.384 119.164 347.745 118.766 347.294C118.368 346.837 117.828 346.608 117.149 346.608ZM127.546 346.907C127.3 346.866 127.034 346.846 126.746 346.846C125.68 346.846 124.956 347.3 124.576 348.208V354.958H122.95V345.448H124.532L124.558 346.547C125.091 345.697 125.847 345.272 126.826 345.272C127.142 345.272 127.382 345.313 127.546 345.395V346.907ZM143.613 348.973C143.613 350.226 143.402 351.322 142.98 352.26C142.558 353.191 141.96 353.903 141.187 354.395C140.413 354.888 139.511 355.134 138.48 355.134C137.472 355.134 136.578 354.888 135.799 354.395C135.02 353.897 134.413 353.191 133.98 352.277C133.552 351.357 133.332 350.294 133.321 349.087V348.164C133.321 346.933 133.535 345.847 133.962 344.903C134.39 343.96 134.993 343.239 135.773 342.741C136.558 342.237 137.454 341.985 138.462 341.985C139.488 341.985 140.39 342.234 141.169 342.732C141.954 343.224 142.558 343.942 142.98 344.886C143.402 345.823 143.613 346.916 143.613 348.164V348.973ZM141.934 348.146C141.934 346.629 141.629 345.466 141.02 344.657C140.41 343.843 139.558 343.435 138.462 343.435C137.396 343.435 136.555 343.843 135.94 344.657C135.33 345.466 135.017 346.591 134.999 348.032V348.973C134.999 350.443 135.307 351.6 135.922 352.444C136.543 353.282 137.396 353.701 138.48 353.701C139.57 353.701 140.413 353.306 141.011 352.514C141.609 351.718 141.916 350.578 141.934 349.096V348.146ZM150.837 349.781H147.831V354.958H146.135V342.161H150.371C151.813 342.161 152.92 342.489 153.694 343.145C154.473 343.802 154.863 344.757 154.863 346.011C154.863 346.807 154.646 347.502 154.212 348.094C153.785 348.685 153.187 349.128 152.419 349.421L155.425 354.852V354.958H153.615L150.837 349.781ZM147.831 348.401H150.424C151.262 348.401 151.927 348.184 152.419 347.751C152.917 347.317 153.166 346.737 153.166 346.011C153.166 345.22 152.929 344.613 152.454 344.191C151.986 343.769 151.306 343.556 150.415 343.55H147.831V348.401ZM168.934 349.043H163.388V353.578H169.83V354.958H161.701V342.161H169.743V343.55H163.388V347.663H168.934V349.043ZM173.205 345.448L173.249 346.503C173.947 345.682 174.887 345.272 176.071 345.272C177.401 345.272 178.306 345.782 178.786 346.802C179.103 346.345 179.513 345.975 180.017 345.694C180.527 345.413 181.127 345.272 181.819 345.272C183.905 345.272 184.965 346.377 185 348.586V354.958H183.374V348.682C183.374 348.003 183.219 347.496 182.909 347.162C182.598 346.822 182.077 346.652 181.344 346.652C180.741 346.652 180.24 346.834 179.841 347.197C179.443 347.555 179.211 348.038 179.147 348.647V354.958H177.512V348.726C177.512 347.344 176.835 346.652 175.482 346.652C174.415 346.652 173.686 347.106 173.293 348.014V354.958H171.667V345.448H173.205ZM193.332 354.958C193.239 354.77 193.162 354.436 193.104 353.956C192.348 354.741 191.446 355.134 190.397 355.134C189.459 355.134 188.689 354.87 188.085 354.343C187.488 353.809 187.189 353.136 187.189 352.321C187.189 351.331 187.564 350.563 188.314 350.018C189.07 349.468 190.13 349.192 191.495 349.192H193.077V348.445C193.077 347.877 192.908 347.426 192.568 347.092C192.228 346.752 191.727 346.582 191.065 346.582C190.485 346.582 189.998 346.728 189.606 347.021C189.213 347.314 189.017 347.669 189.017 348.085H187.382C187.382 347.61 187.549 347.153 187.883 346.714C188.223 346.268 188.68 345.917 189.254 345.659C189.834 345.401 190.47 345.272 191.161 345.272C192.257 345.272 193.116 345.548 193.737 346.098C194.358 346.643 194.68 347.396 194.703 348.357V352.734C194.703 353.607 194.815 354.302 195.037 354.817V354.958H193.332ZM190.634 353.719C191.144 353.719 191.627 353.587 192.084 353.323C192.541 353.059 192.872 352.717 193.077 352.295V350.344H191.803C189.811 350.344 188.815 350.927 188.815 352.093C188.815 352.602 188.985 353.001 189.325 353.288C189.664 353.575 190.101 353.719 190.634 353.719ZM199.019 354.958H197.393V345.448H199.019V354.958ZM197.261 342.926C197.261 342.662 197.34 342.439 197.498 342.258C197.662 342.076 197.903 341.985 198.219 341.985C198.535 341.985 198.776 342.076 198.94 342.258C199.104 342.439 199.186 342.662 199.186 342.926C199.186 343.189 199.104 343.409 198.94 343.585C198.776 343.761 198.535 343.848 198.219 343.848C197.903 343.848 197.662 343.761 197.498 343.585C197.34 343.409 197.261 343.189 197.261 342.926ZM203.396 354.958H201.77V341.458H203.396V354.958Z" fill="#848484"/>
<path d="M66.6908 436.122V441.132H65.0033V428.335H69.723C71.1234 428.335 72.2191 428.692 73.0101 429.407C73.807 430.122 74.2054 431.068 74.2054 432.246C74.2054 433.488 73.8158 434.446 73.0365 435.12C72.263 435.788 71.1527 436.122 69.7054 436.122H66.6908ZM66.6908 434.742H69.723C70.6253 434.742 71.3167 434.531 71.7972 434.109C72.2777 433.682 72.5179 433.066 72.5179 432.264C72.5179 431.502 72.2777 430.893 71.7972 430.436C71.3167 429.979 70.6576 429.741 69.8197 429.724H66.6908V434.742ZM81.8695 441.132C81.7757 440.944 81.6996 440.61 81.641 440.13C80.8851 440.915 79.9828 441.308 78.9339 441.308C77.9964 441.308 77.2259 441.044 76.6224 440.517C76.0247 439.983 75.7259 439.31 75.7259 438.495C75.7259 437.505 76.1009 436.737 76.8509 436.192C77.6068 435.642 78.6673 435.366 80.0326 435.366H81.6146V434.619C81.6146 434.051 81.4447 433.6 81.1048 433.266C80.765 432.926 80.264 432.756 79.6019 432.756C79.0218 432.756 78.5355 432.902 78.1429 433.195C77.7503 433.488 77.554 433.843 77.554 434.259H75.9193C75.9193 433.784 76.0863 433.327 76.4203 432.888C76.7601 432.442 77.2171 432.091 77.7914 431.833C78.3714 431.575 79.0072 431.446 79.6986 431.446C80.7943 431.446 81.6527 431.722 82.2738 432.273C82.8949 432.817 83.2171 433.57 83.2406 434.531V438.908C83.2406 439.781 83.3519 440.476 83.5746 440.991V441.132H81.8695ZM79.1712 439.893C79.681 439.893 80.1644 439.761 80.6214 439.497C81.0785 439.233 81.4095 438.891 81.6146 438.469V436.518H80.3402C78.348 436.518 77.3519 437.101 77.3519 438.267C77.3519 438.776 77.5218 439.175 77.8617 439.462C78.2015 439.749 78.638 439.893 79.1712 439.893ZM91.3265 438.609C91.3265 438.17 91.1595 437.83 90.8255 437.59C90.4974 437.344 89.9203 437.133 89.0941 436.957C88.2738 436.781 87.6205 436.57 87.1341 436.324C86.6537 436.078 86.2962 435.785 86.0619 435.445C85.8333 435.106 85.7191 434.701 85.7191 434.233C85.7191 433.453 86.0472 432.794 86.7035 432.255C87.3656 431.716 88.2093 431.446 89.2347 431.446C90.3128 431.446 91.1859 431.725 91.8539 432.281C92.5277 432.838 92.8646 433.55 92.8646 434.417H91.2298C91.2298 433.972 91.0394 433.588 90.6585 433.266C90.2835 432.943 89.8089 432.782 89.2347 432.782C88.6429 432.782 88.18 432.911 87.846 433.169C87.5121 433.427 87.3451 433.764 87.3451 434.18C87.3451 434.572 87.5003 434.868 87.8109 435.067C88.1214 435.267 88.681 435.457 89.4896 435.639C90.304 435.82 90.9632 436.037 91.4671 436.289C91.971 436.541 92.3431 436.846 92.5833 437.203C92.8294 437.555 92.9525 437.985 92.9525 438.495C92.9525 439.345 92.6126 440.027 91.933 440.543C91.2533 441.053 90.3714 441.308 89.2874 441.308C88.5257 441.308 87.8519 441.173 87.266 440.903C86.68 440.634 86.2201 440.259 85.8861 439.778C85.558 439.292 85.3939 438.768 85.3939 438.205H87.0199C87.0492 438.75 87.266 439.184 87.6703 439.506C88.0804 439.822 88.6195 439.981 89.2874 439.981C89.9027 439.981 90.3949 439.858 90.764 439.611C91.139 439.359 91.3265 439.025 91.3265 438.609ZM100.608 438.609C100.608 438.17 100.441 437.83 100.107 437.59C99.7787 437.344 99.2015 437.133 98.3753 436.957C97.555 436.781 96.9017 436.57 96.4154 436.324C95.9349 436.078 95.5775 435.785 95.3431 435.445C95.1146 435.106 95.0003 434.701 95.0003 434.233C95.0003 433.453 95.3285 432.794 95.9847 432.255C96.6468 431.716 97.4906 431.446 98.516 431.446C99.5941 431.446 100.467 431.725 101.135 432.281C101.809 432.838 102.146 433.55 102.146 434.417H100.511C100.511 433.972 100.321 433.588 99.9398 433.266C99.5648 432.943 99.0902 432.782 98.516 432.782C97.9242 432.782 97.4613 432.911 97.1273 433.169C96.7933 433.427 96.6263 433.764 96.6263 434.18C96.6263 434.572 96.7816 434.868 97.0921 435.067C97.4027 435.267 97.9622 435.457 98.7708 435.639C99.5853 435.82 100.244 436.037 100.748 436.289C101.252 436.541 101.624 436.846 101.865 437.203C102.111 437.555 102.234 437.985 102.234 438.495C102.234 439.345 101.894 440.027 101.214 440.543C100.535 441.053 99.6527 441.308 98.5687 441.308C97.807 441.308 97.1331 441.173 96.5472 440.903C95.9613 440.634 95.5013 440.259 95.1673 439.778C94.8392 439.292 94.6751 438.768 94.6751 438.205H96.3011C96.3304 438.75 96.5472 439.184 96.9515 439.506C97.3617 439.822 97.9007 439.981 98.5687 439.981C99.1839 439.981 99.6761 439.858 100.045 439.611C100.42 439.359 100.608 439.025 100.608 438.609ZM112.772 438.891L114.6 431.622H116.226L113.457 441.132H112.139L109.827 433.925L107.577 441.132H106.259L103.499 431.622H105.117L106.989 438.741L109.203 431.622H110.513L112.772 438.891ZM117.456 436.289C117.456 435.358 117.638 434.52 118.001 433.775C118.37 433.031 118.88 432.457 119.531 432.053C120.187 431.649 120.934 431.446 121.772 431.446C123.067 431.446 124.113 431.895 124.91 432.791C125.712 433.688 126.114 434.88 126.114 436.368V436.483C126.114 437.408 125.935 438.24 125.577 438.979C125.226 439.711 124.719 440.282 124.057 440.692C123.401 441.103 122.645 441.308 121.789 441.308C120.5 441.308 119.454 440.859 118.652 439.963C117.855 439.066 117.456 437.88 117.456 436.403V436.289ZM119.091 436.483C119.091 437.537 119.334 438.384 119.821 439.023C120.313 439.661 120.969 439.981 121.789 439.981C122.616 439.981 123.272 439.658 123.758 439.014C124.244 438.363 124.488 437.455 124.488 436.289C124.488 435.246 124.239 434.402 123.741 433.758C123.248 433.108 122.592 432.782 121.772 432.782C120.969 432.782 120.322 433.102 119.829 433.74C119.337 434.379 119.091 435.293 119.091 436.483ZM132.749 433.081C132.503 433.04 132.237 433.02 131.95 433.02C130.883 433.02 130.16 433.474 129.779 434.382V441.132H128.153V431.622H129.735L129.761 432.721C130.294 431.871 131.05 431.446 132.029 431.446C132.345 431.446 132.585 431.487 132.749 431.569V433.081ZM133.681 436.298C133.681 434.839 134.027 433.667 134.718 432.782C135.41 431.892 136.315 431.446 137.434 431.446C138.547 431.446 139.429 431.827 140.079 432.589V427.632H141.705V441.132H140.211L140.132 440.112C139.482 440.909 138.577 441.308 137.416 441.308C136.315 441.308 135.415 440.857 134.718 439.954C134.027 439.052 133.681 437.874 133.681 436.421V436.298ZM135.307 436.483C135.307 437.561 135.53 438.404 135.975 439.014C136.42 439.623 137.035 439.928 137.821 439.928C138.852 439.928 139.605 439.465 140.079 438.539V434.171C139.593 433.275 138.846 432.826 137.838 432.826C137.041 432.826 136.42 433.134 135.975 433.749C135.53 434.364 135.307 435.275 135.307 436.483Z" fill="#848484"/>
<path d="M122.898 624.768C122.74 626.122 122.239 627.168 121.396 627.906C120.558 628.639 119.441 629.005 118.047 629.005C116.535 629.005 115.322 628.463 114.408 627.379C113.5 626.295 113.046 624.845 113.046 623.028V621.798C113.046 620.608 113.257 619.562 113.679 618.66C114.106 617.758 114.71 617.066 115.489 616.586C116.269 616.099 117.171 615.856 118.196 615.856C119.556 615.856 120.646 616.237 121.466 616.999C122.286 617.755 122.764 618.804 122.898 620.145H121.202C121.056 619.126 120.736 618.388 120.244 617.931C119.758 617.474 119.075 617.245 118.196 617.245C117.118 617.245 116.271 617.643 115.656 618.44C115.047 619.237 114.742 620.371 114.742 621.842V623.081C114.742 624.47 115.032 625.574 115.612 626.394C116.192 627.215 117.004 627.625 118.047 627.625C118.984 627.625 119.702 627.414 120.2 626.992C120.704 626.564 121.038 625.823 121.202 624.768H122.898ZM124.524 623.986C124.524 623.055 124.706 622.217 125.069 621.473C125.438 620.728 125.948 620.154 126.599 619.75C127.255 619.346 128.002 619.143 128.84 619.143C130.135 619.143 131.181 619.592 131.978 620.488C132.78 621.385 133.182 622.577 133.182 624.065V624.18C133.182 625.105 133.003 625.937 132.646 626.676C132.294 627.408 131.787 627.979 131.125 628.39C130.469 628.8 129.713 629.005 128.857 629.005C127.568 629.005 126.522 628.557 125.72 627.66C124.923 626.764 124.524 625.577 124.524 624.1V623.986ZM126.159 624.18C126.159 625.234 126.402 626.081 126.889 626.72C127.381 627.358 128.037 627.678 128.857 627.678C129.684 627.678 130.34 627.355 130.826 626.711C131.312 626.06 131.556 625.152 131.556 623.986C131.556 622.943 131.307 622.099 130.809 621.455C130.316 620.805 129.66 620.479 128.84 620.479C128.037 620.479 127.39 620.799 126.897 621.437C126.405 622.076 126.159 622.99 126.159 624.18ZM136.759 619.319L136.812 620.515C137.538 619.6 138.487 619.143 139.659 619.143C141.669 619.143 142.683 620.277 142.7 622.545V628.829H141.074V622.536C141.068 621.85 140.91 621.344 140.6 621.016C140.295 620.687 139.817 620.523 139.167 620.523C138.64 620.523 138.177 620.664 137.778 620.945C137.38 621.226 137.069 621.596 136.847 622.053V628.829H135.221V619.319H136.759ZM147.358 617.016V619.319H149.134V620.576H147.358V626.474C147.358 626.854 147.438 627.141 147.596 627.335C147.754 627.522 148.023 627.616 148.404 627.616C148.592 627.616 148.85 627.581 149.178 627.511V628.829C148.75 628.946 148.334 629.005 147.93 629.005C147.203 629.005 146.655 628.785 146.286 628.346C145.917 627.906 145.732 627.282 145.732 626.474V620.576H144.001V619.319H145.732V617.016H147.358ZM152.808 628.829H151.182V619.319H152.808V628.829ZM151.05 616.797C151.05 616.533 151.129 616.31 151.287 616.129C151.451 615.947 151.691 615.856 152.008 615.856C152.324 615.856 152.564 615.947 152.729 616.129C152.893 616.31 152.975 616.533 152.975 616.797C152.975 617.06 152.893 617.28 152.729 617.456C152.564 617.632 152.324 617.72 152.008 617.72C151.691 617.72 151.451 617.632 151.287 617.456C151.129 617.28 151.05 617.06 151.05 616.797ZM156.956 619.319L157.009 620.515C157.735 619.6 158.685 619.143 159.856 619.143C161.866 619.143 162.88 620.277 162.897 622.545V628.829H161.271V622.536C161.266 621.85 161.107 621.344 160.797 621.016C160.492 620.687 160.015 620.523 159.364 620.523C158.837 620.523 158.374 620.664 157.976 620.945C157.577 621.226 157.267 621.596 157.044 622.053V628.829H155.418V619.319H156.956ZM171.221 627.889C170.588 628.633 169.659 629.005 168.435 629.005C167.421 629.005 166.647 628.712 166.114 628.126C165.587 627.534 165.32 626.661 165.314 625.507V619.319H166.94V625.463C166.94 626.904 167.526 627.625 168.698 627.625C169.94 627.625 170.767 627.162 171.177 626.236V619.319H172.803V628.829H171.256L171.221 627.889ZM179.228 629.005C177.938 629.005 176.89 628.583 176.081 627.739C175.272 626.89 174.868 625.756 174.868 624.338V624.039C174.868 623.096 175.047 622.255 175.404 621.516C175.768 620.772 176.271 620.192 176.916 619.776C177.566 619.354 178.27 619.143 179.025 619.143C180.262 619.143 181.223 619.551 181.908 620.365C182.594 621.18 182.937 622.346 182.937 623.863V624.54H176.494C176.518 625.477 176.79 626.236 177.312 626.816C177.839 627.391 178.507 627.678 179.315 627.678C179.89 627.678 180.376 627.56 180.774 627.326C181.173 627.092 181.521 626.781 181.82 626.394L182.813 627.168C182.017 628.392 180.821 629.005 179.228 629.005ZM179.025 620.479C178.369 620.479 177.818 620.72 177.373 621.2C176.928 621.675 176.652 622.343 176.547 623.204H181.311V623.081C181.264 622.255 181.041 621.616 180.643 621.165C180.244 620.708 179.705 620.479 179.025 620.479ZM197.711 626.588L199.539 619.319H201.165L198.396 628.829H197.078L194.767 621.622L192.517 628.829H191.198L188.438 619.319H190.056L191.928 626.438L194.143 619.319H195.452L197.711 626.588ZM204.593 628.829H202.967V619.319H204.593V628.829ZM202.835 616.797C202.835 616.533 202.914 616.31 203.072 616.129C203.236 615.947 203.477 615.856 203.793 615.856C204.109 615.856 204.35 615.947 204.514 616.129C204.678 616.31 204.76 616.533 204.76 616.797C204.76 617.06 204.678 617.28 204.514 617.456C204.35 617.632 204.109 617.72 203.793 617.72C203.477 617.72 203.236 617.632 203.072 617.456C202.914 617.28 202.835 617.06 202.835 616.797ZM209.409 617.016V619.319H211.185V620.576H209.409V626.474C209.409 626.854 209.488 627.141 209.646 627.335C209.805 627.522 210.074 627.616 210.455 627.616C210.643 627.616 210.9 627.581 211.229 627.511V628.829C210.801 628.946 210.385 629.005 209.98 629.005C209.254 629.005 208.706 628.785 208.337 628.346C207.968 627.906 207.783 627.282 207.783 626.474V620.576H206.052V619.319H207.783V617.016H209.409ZM214.718 620.471C215.438 619.586 216.376 619.143 217.53 619.143C219.54 619.143 220.554 620.277 220.571 622.545V628.829H218.945V622.536C218.939 621.85 218.781 621.344 218.471 621.016C218.166 620.687 217.688 620.523 217.038 620.523C216.511 620.523 216.048 620.664 215.649 620.945C215.251 621.226 214.94 621.596 214.718 622.053V628.829H213.092V615.329H214.718V620.471ZM228.271 628.829V620.576H226.768V619.319H228.271V618.344C228.271 617.324 228.543 616.536 229.088 615.979C229.633 615.423 230.403 615.144 231.399 615.144C231.774 615.144 232.146 615.194 232.516 615.294L232.428 616.612C232.152 616.559 231.859 616.533 231.549 616.533C231.021 616.533 230.614 616.688 230.327 616.999C230.04 617.304 229.896 617.743 229.896 618.317V619.319H231.927V620.576H229.896V628.829H228.271ZM239.6 628.829C239.506 628.641 239.43 628.307 239.371 627.827C238.615 628.612 237.713 629.005 236.664 629.005C235.727 629.005 234.956 628.741 234.353 628.214C233.755 627.681 233.456 627.007 233.456 626.192C233.456 625.202 233.831 624.434 234.581 623.89C235.337 623.339 236.397 623.063 237.763 623.063H239.345V622.316C239.345 621.748 239.175 621.297 238.835 620.963C238.495 620.623 237.994 620.453 237.332 620.453C236.752 620.453 236.266 620.599 235.873 620.892C235.48 621.185 235.284 621.54 235.284 621.956H233.649C233.649 621.481 233.816 621.024 234.15 620.585C234.49 620.14 234.947 619.788 235.521 619.53C236.102 619.272 236.737 619.143 237.429 619.143C238.524 619.143 239.383 619.419 240.004 619.97C240.625 620.515 240.947 621.267 240.971 622.228V626.605C240.971 627.478 241.082 628.173 241.305 628.688V628.829H239.6ZM236.901 627.59C237.411 627.59 237.895 627.458 238.352 627.194C238.809 626.931 239.14 626.588 239.345 626.166V624.215H238.07C236.078 624.215 235.082 624.798 235.082 625.964C235.082 626.474 235.252 626.872 235.592 627.159C235.932 627.446 236.368 627.59 236.901 627.59ZM247.334 627.678C247.914 627.678 248.421 627.502 248.854 627.15C249.288 626.799 249.528 626.359 249.575 625.832H251.113C251.084 626.377 250.896 626.895 250.551 627.388C250.205 627.88 249.742 628.272 249.162 628.565C248.588 628.858 247.979 629.005 247.334 629.005C246.039 629.005 245.008 628.574 244.24 627.713C243.479 626.846 243.098 625.662 243.098 624.162V623.89C243.098 622.964 243.268 622.141 243.607 621.42C243.947 620.699 244.434 620.14 245.066 619.741C245.705 619.343 246.458 619.143 247.325 619.143C248.392 619.143 249.276 619.463 249.979 620.101C250.688 620.74 251.066 621.569 251.113 622.589H249.575C249.528 621.974 249.294 621.47 248.872 621.077C248.456 620.679 247.94 620.479 247.325 620.479C246.499 620.479 245.857 620.778 245.4 621.376C244.949 621.968 244.724 622.826 244.724 623.951V624.259C244.724 625.354 244.949 626.198 245.4 626.79C245.852 627.382 246.496 627.678 247.334 627.678ZM256.888 629.005C255.599 629.005 254.55 628.583 253.741 627.739C252.933 626.89 252.528 625.756 252.528 624.338V624.039C252.528 623.096 252.707 622.255 253.064 621.516C253.428 620.772 253.932 620.192 254.576 619.776C255.227 619.354 255.93 619.143 256.686 619.143C257.922 619.143 258.883 619.551 259.568 620.365C260.254 621.18 260.597 622.346 260.597 623.863V624.54H254.154C254.178 625.477 254.45 626.236 254.972 626.816C255.499 627.391 256.167 627.678 256.976 627.678C257.55 627.678 258.036 627.56 258.435 627.326C258.833 627.092 259.182 626.781 259.48 626.394L260.474 627.168C259.677 628.392 258.481 629.005 256.888 629.005ZM256.686 620.479C256.029 620.479 255.479 620.72 255.033 621.2C254.588 621.675 254.312 622.343 254.207 623.204H258.971V623.081C258.924 622.255 258.701 621.616 258.303 621.165C257.904 620.708 257.365 620.479 256.686 620.479ZM270.537 624.18C270.537 625.633 270.203 626.802 269.535 627.686C268.867 628.565 267.971 629.005 266.846 629.005C265.645 629.005 264.716 628.58 264.06 627.73L263.98 628.829H262.486V615.329H264.112V620.365C264.769 619.551 265.674 619.143 266.828 619.143C267.982 619.143 268.888 619.58 269.544 620.453C270.206 621.326 270.537 622.521 270.537 624.039V624.18ZM268.911 623.995C268.911 622.888 268.697 622.032 268.27 621.429C267.842 620.825 267.227 620.523 266.424 620.523C265.352 620.523 264.581 621.021 264.112 622.017V626.131C264.61 627.127 265.387 627.625 266.441 627.625C267.221 627.625 267.827 627.323 268.261 626.72C268.694 626.116 268.911 625.208 268.911 623.995ZM272.163 623.986C272.163 623.055 272.345 622.217 272.708 621.473C273.077 620.728 273.587 620.154 274.237 619.75C274.894 619.346 275.641 619.143 276.479 619.143C277.773 619.143 278.819 619.592 279.616 620.488C280.419 621.385 280.82 622.577 280.82 624.065V624.18C280.82 625.105 280.642 625.937 280.284 626.676C279.933 627.408 279.426 627.979 278.764 628.39C278.107 628.8 277.352 629.005 276.496 629.005C275.207 629.005 274.161 628.557 273.358 627.66C272.562 626.764 272.163 625.577 272.163 624.1V623.986ZM273.798 624.18C273.798 625.234 274.041 626.081 274.527 626.72C275.02 627.358 275.676 627.678 276.496 627.678C277.322 627.678 277.979 627.355 278.465 626.711C278.951 626.06 279.194 625.152 279.194 623.986C279.194 622.943 278.945 622.099 278.447 621.455C277.955 620.805 277.299 620.479 276.479 620.479C275.676 620.479 275.028 620.799 274.536 621.437C274.044 622.076 273.798 622.99 273.798 624.18ZM282.429 623.986C282.429 623.055 282.61 622.217 282.974 621.473C283.343 620.728 283.853 620.154 284.503 619.75C285.159 619.346 285.906 619.143 286.744 619.143C288.039 619.143 289.085 619.592 289.882 620.488C290.685 621.385 291.086 622.577 291.086 624.065V624.18C291.086 625.105 290.907 625.937 290.55 626.676C290.198 627.408 289.691 627.979 289.029 628.39C288.373 628.8 287.617 629.005 286.762 629.005C285.473 629.005 284.427 628.557 283.624 627.66C282.827 626.764 282.429 625.577 282.429 624.1V623.986ZM284.063 624.18C284.063 625.234 284.307 626.081 284.793 626.72C285.285 627.358 285.941 627.678 286.762 627.678C287.588 627.678 288.244 627.355 288.73 626.711C289.217 626.06 289.46 625.152 289.46 623.986C289.46 622.943 289.211 622.099 288.713 621.455C288.221 620.805 287.564 620.479 286.744 620.479C285.941 620.479 285.294 620.799 284.802 621.437C284.31 622.076 284.063 622.99 284.063 624.18ZM295.779 624.426L294.76 625.489V628.829H293.134V615.329H294.76V623.494L295.63 622.448L298.592 619.319H300.569L296.869 623.292L301 628.829H299.093L295.779 624.426Z" fill="#848484"/>
<path d="M181.582 723.378C180.135 722.962 179.08 722.452 178.418 721.849C177.762 721.239 177.434 720.489 177.434 719.599C177.434 718.591 177.835 717.759 178.638 717.103C179.446 716.44 180.495 716.109 181.784 716.109C182.663 716.109 183.445 716.279 184.131 716.619C184.822 716.959 185.355 717.428 185.73 718.025C186.111 718.623 186.302 719.276 186.302 719.985H184.605C184.605 719.212 184.359 718.605 183.867 718.166C183.375 717.721 182.681 717.498 181.784 717.498C180.952 717.498 180.302 717.683 179.833 718.052C179.37 718.415 179.139 718.922 179.139 719.572C179.139 720.094 179.358 720.536 179.798 720.899C180.243 721.257 180.996 721.585 182.057 721.884C183.123 722.183 183.955 722.514 184.553 722.877C185.156 723.234 185.602 723.653 185.889 724.134C186.182 724.614 186.328 725.18 186.328 725.83C186.328 726.867 185.924 727.699 185.115 728.326C184.307 728.947 183.226 729.258 181.872 729.258C180.993 729.258 180.173 729.091 179.411 728.757C178.649 728.417 178.061 727.954 177.645 727.368C177.234 726.782 177.029 726.117 177.029 725.373H178.726C178.726 726.146 179.01 726.759 179.578 727.21C180.152 727.655 180.917 727.878 181.872 727.878C182.763 727.878 183.445 727.696 183.92 727.333C184.395 726.97 184.632 726.475 184.632 725.848C184.632 725.221 184.412 724.737 183.973 724.397C183.533 724.052 182.736 723.712 181.582 723.378ZM190.011 729.082H188.385V719.572H190.011V729.082ZM188.253 717.05C188.253 716.786 188.332 716.563 188.49 716.382C188.654 716.2 188.895 716.109 189.211 716.109C189.527 716.109 189.768 716.2 189.932 716.382C190.096 716.563 190.178 716.786 190.178 717.05C190.178 717.313 190.096 717.533 189.932 717.709C189.768 717.885 189.527 717.973 189.211 717.973C188.895 717.973 188.654 717.885 188.49 717.709C188.332 717.533 188.253 717.313 188.253 717.05ZM192.234 724.248C192.234 722.766 192.577 721.588 193.263 720.715C193.948 719.836 194.856 719.396 195.987 719.396C197.147 719.396 198.053 719.807 198.703 720.627L198.782 719.572H200.268V728.854C200.268 730.084 199.901 731.054 199.169 731.763C198.442 732.472 197.464 732.826 196.233 732.826C195.548 732.826 194.877 732.68 194.221 732.387C193.564 732.094 193.063 731.692 192.718 731.183L193.562 730.207C194.259 731.068 195.111 731.499 196.119 731.499C196.91 731.499 197.525 731.276 197.965 730.831C198.41 730.386 198.633 729.759 198.633 728.95V728.133C197.982 728.883 197.095 729.258 195.97 729.258C194.856 729.258 193.954 728.81 193.263 727.913C192.577 727.017 192.234 725.795 192.234 724.248ZM193.869 724.433C193.869 725.505 194.089 726.349 194.528 726.964C194.968 727.573 195.583 727.878 196.374 727.878C197.399 727.878 198.152 727.412 198.633 726.48V722.139C198.135 721.23 197.388 720.776 196.392 720.776C195.601 720.776 194.982 721.084 194.537 721.699C194.092 722.314 193.869 723.226 193.869 724.433ZM204.267 719.572L204.319 720.768C205.046 719.854 205.995 719.396 207.167 719.396C209.177 719.396 210.19 720.53 210.208 722.798V729.082H208.582V722.789C208.576 722.104 208.418 721.597 208.107 721.269C207.803 720.94 207.325 720.776 206.675 720.776C206.147 720.776 205.685 720.917 205.286 721.198C204.888 721.479 204.577 721.849 204.354 722.306V729.082H202.729V719.572H204.267ZM226.389 716.285V724.986C226.383 726.193 226.002 727.181 225.246 727.948C224.496 728.716 223.477 729.146 222.188 729.24L221.739 729.258C220.339 729.258 219.223 728.88 218.391 728.124C217.559 727.368 217.137 726.328 217.125 725.004V716.285H218.795V724.951C218.795 725.877 219.05 726.598 219.56 727.113C220.069 727.623 220.796 727.878 221.739 727.878C222.694 727.878 223.424 727.623 223.928 727.113C224.438 726.604 224.692 725.886 224.692 724.96V716.285H226.389ZM236.83 724.433C236.83 725.88 236.499 727.046 235.837 727.931C235.175 728.815 234.278 729.258 233.147 729.258C231.993 729.258 231.085 728.892 230.423 728.159V732.738H228.797V719.572H230.282L230.361 720.627C231.023 719.807 231.943 719.396 233.121 719.396C234.264 719.396 235.166 719.827 235.828 720.688C236.496 721.55 236.83 722.748 236.83 724.283V724.433ZM235.204 724.248C235.204 723.176 234.976 722.329 234.519 721.708C234.062 721.087 233.435 720.776 232.638 720.776C231.653 720.776 230.915 721.213 230.423 722.086V726.63C230.909 727.497 231.653 727.931 232.655 727.931C233.435 727.931 234.053 727.623 234.51 727.008C234.973 726.387 235.204 725.467 235.204 724.248Z" fill="#848484"/>
<path opacity="0.6" d="M207.347 671.323C207.347 672.855 207.089 674.194 206.573 675.34C206.058 676.479 205.327 677.349 204.382 677.951C203.437 678.552 202.334 678.853 201.073 678.853C199.841 678.853 198.749 678.552 197.797 677.951C196.844 677.342 196.103 676.479 195.573 675.362C195.05 674.237 194.782 672.937 194.768 671.462V670.334C194.768 668.83 195.029 667.502 195.552 666.349C196.075 665.196 196.812 664.315 197.765 663.706C198.724 663.09 199.82 662.783 201.052 662.783C202.305 662.783 203.408 663.087 204.36 663.696C205.32 664.297 206.058 665.174 206.573 666.327C207.089 667.473 207.347 668.809 207.347 670.334V671.323ZM205.295 670.313C205.295 668.458 204.923 667.036 204.178 666.048C203.433 665.053 202.391 664.555 201.052 664.555C199.748 664.555 198.721 665.053 197.969 666.048C197.224 667.036 196.841 668.411 196.819 670.173V671.323C196.819 673.12 197.195 674.534 197.947 675.566C198.706 676.59 199.748 677.102 201.073 677.102C202.405 677.102 203.437 676.618 204.167 675.652C204.897 674.678 205.273 673.285 205.295 671.473V670.313ZM216.177 672.311H212.503V678.638H210.43V662.997H215.607C217.369 662.997 218.723 663.398 219.668 664.201C220.62 665.003 221.097 666.17 221.097 667.702C221.097 668.676 220.832 669.525 220.302 670.248C219.779 670.972 219.049 671.512 218.11 671.87L221.784 678.509V678.638H219.571L216.177 672.311ZM212.503 670.624H215.672C216.696 670.624 217.509 670.359 218.11 669.829C218.719 669.299 219.023 668.59 219.023 667.702C219.023 666.736 218.733 665.994 218.153 665.479C217.58 664.963 216.75 664.702 215.661 664.695H212.503V670.624Z" fill="#848484"/>
<rect x="36.9328" y="521.385" width="340" height="59" rx="10" fill="#00A3FF"/>
<path d="M185.435 556.005H191.499V557.385H183.738V544.588H185.435V556.005ZM192.738 552.542C192.738 551.611 192.92 550.773 193.283 550.029C193.652 549.284 194.162 548.71 194.813 548.306C195.469 547.902 196.216 547.699 197.054 547.699C198.349 547.699 199.395 548.148 200.192 549.044C200.994 549.941 201.396 551.133 201.396 552.621V552.736C201.396 553.661 201.217 554.493 200.86 555.232C200.508 555.964 200.001 556.535 199.339 556.946C198.683 557.356 197.927 557.561 197.071 557.561C195.782 557.561 194.736 557.113 193.934 556.216C193.137 555.32 192.738 554.133 192.738 552.656V552.542ZM194.373 552.736C194.373 553.79 194.616 554.637 195.103 555.276C195.595 555.914 196.251 556.234 197.071 556.234C197.898 556.234 198.554 555.911 199.04 555.267C199.527 554.616 199.77 553.708 199.77 552.542C199.77 551.499 199.521 550.656 199.023 550.011C198.53 549.361 197.874 549.035 197.054 549.035C196.251 549.035 195.604 549.355 195.111 549.993C194.619 550.632 194.373 551.546 194.373 552.736ZM203.048 552.551C203.048 551.069 203.391 549.891 204.076 549.018C204.762 548.139 205.67 547.699 206.801 547.699C207.961 547.699 208.866 548.11 209.517 548.93L209.596 547.875H211.081V557.156C211.081 558.387 210.715 559.357 209.983 560.066C209.256 560.775 208.277 561.129 207.047 561.129C206.361 561.129 205.691 560.983 205.034 560.69C204.378 560.397 203.877 559.995 203.531 559.486L204.375 558.51C205.072 559.371 205.925 559.802 206.933 559.802C207.724 559.802 208.339 559.579 208.778 559.134C209.224 558.689 209.446 558.062 209.446 557.253V556.436C208.796 557.186 207.908 557.561 206.783 557.561C205.67 557.561 204.768 557.113 204.076 556.216C203.391 555.32 203.048 554.098 203.048 552.551ZM204.683 552.736C204.683 553.808 204.902 554.652 205.342 555.267C205.781 555.876 206.397 556.181 207.188 556.181C208.213 556.181 208.966 555.715 209.446 554.783V550.442C208.948 549.533 208.201 549.079 207.205 549.079C206.414 549.079 205.796 549.387 205.351 550.002C204.905 550.617 204.683 551.529 204.683 552.736ZM220.072 557.385H218.385V544.588H220.072V557.385ZM224.449 547.875L224.502 549.071C225.229 548.156 226.178 547.699 227.35 547.699C229.36 547.699 230.373 548.833 230.391 551.101V557.385H228.765V551.092C228.759 550.406 228.601 549.9 228.29 549.572C227.986 549.243 227.508 549.079 226.858 549.079C226.33 549.079 225.867 549.22 225.469 549.501C225.07 549.782 224.76 550.152 224.537 550.609V557.385H222.911V547.875H224.449Z" fill="white"/>
<path d="M251.399 488.918H246.626V493.941H245.126V482.566H252.173V483.8H246.626V487.691H251.399V488.918ZM253.188 489.636C253.188 488.808 253.35 488.063 253.673 487.402C254.001 486.74 254.454 486.23 255.032 485.871C255.615 485.511 256.279 485.332 257.024 485.332C258.175 485.332 259.105 485.73 259.813 486.527C260.527 487.324 260.884 488.384 260.884 489.707V489.808C260.884 490.631 260.725 491.371 260.407 492.027C260.095 492.678 259.644 493.186 259.056 493.55C258.472 493.915 257.8 494.097 257.04 494.097C255.894 494.097 254.964 493.699 254.251 492.902C253.542 492.105 253.188 491.05 253.188 489.738V489.636ZM254.641 489.808C254.641 490.746 254.858 491.498 255.29 492.066C255.727 492.634 256.311 492.918 257.04 492.918C257.774 492.918 258.358 492.631 258.79 492.058C259.222 491.48 259.438 490.673 259.438 489.636C259.438 488.709 259.217 487.959 258.774 487.386C258.337 486.808 257.753 486.519 257.024 486.519C256.311 486.519 255.735 486.803 255.298 487.371C254.86 487.938 254.641 488.751 254.641 489.808ZM266.782 486.785C266.563 486.748 266.326 486.73 266.071 486.73C265.123 486.73 264.48 487.134 264.141 487.941V493.941H262.696V485.488H264.102L264.126 486.464C264.6 485.709 265.272 485.332 266.141 485.332C266.423 485.332 266.636 485.368 266.782 485.441V486.785ZM267.618 489.644C267.618 488.326 267.923 487.28 268.532 486.504C269.141 485.722 269.949 485.332 270.954 485.332C271.985 485.332 272.79 485.696 273.368 486.425L273.438 485.488H274.759V493.738C274.759 494.832 274.433 495.694 273.782 496.324C273.136 496.954 272.266 497.269 271.173 497.269C270.563 497.269 269.967 497.139 269.384 496.879C268.8 496.618 268.355 496.261 268.048 495.808L268.798 494.941C269.417 495.707 270.175 496.089 271.071 496.089C271.774 496.089 272.321 495.892 272.712 495.496C273.108 495.1 273.306 494.543 273.306 493.824V493.097C272.727 493.764 271.938 494.097 270.938 494.097C269.949 494.097 269.147 493.699 268.532 492.902C267.923 492.105 267.618 491.019 267.618 489.644ZM269.071 489.808C269.071 490.761 269.266 491.511 269.657 492.058C270.048 492.6 270.595 492.871 271.298 492.871C272.209 492.871 272.878 492.457 273.306 491.629V487.769C272.863 486.962 272.199 486.558 271.313 486.558C270.61 486.558 270.061 486.832 269.665 487.379C269.269 487.925 269.071 488.735 269.071 489.808ZM276.563 489.636C276.563 488.808 276.725 488.063 277.048 487.402C277.376 486.74 277.829 486.23 278.407 485.871C278.99 485.511 279.654 485.332 280.399 485.332C281.55 485.332 282.48 485.73 283.188 486.527C283.902 487.324 284.259 488.384 284.259 489.707V489.808C284.259 490.631 284.1 491.371 283.782 492.027C283.47 492.678 283.019 493.186 282.431 493.55C281.847 493.915 281.175 494.097 280.415 494.097C279.269 494.097 278.339 493.699 277.626 492.902C276.917 492.105 276.563 491.05 276.563 489.738V489.636ZM278.016 489.808C278.016 490.746 278.233 491.498 278.665 492.066C279.102 492.634 279.686 492.918 280.415 492.918C281.149 492.918 281.733 492.631 282.165 492.058C282.597 491.48 282.813 490.673 282.813 489.636C282.813 488.709 282.592 487.959 282.149 487.386C281.712 486.808 281.128 486.519 280.399 486.519C279.686 486.519 279.11 486.803 278.673 487.371C278.235 487.938 278.016 488.751 278.016 489.808ZM288.032 483.441V485.488H289.61V486.605H288.032V491.847C288.032 492.186 288.102 492.441 288.243 492.613C288.384 492.78 288.623 492.863 288.962 492.863C289.128 492.863 289.358 492.832 289.649 492.769V493.941C289.269 494.045 288.899 494.097 288.54 494.097C287.894 494.097 287.407 493.902 287.079 493.511C286.751 493.121 286.587 492.566 286.587 491.847V486.605H285.048V485.488H286.587V483.441H288.032ZM297.001 489.488V493.941H295.501V482.566H299.696C300.941 482.566 301.915 482.884 302.618 483.519C303.326 484.155 303.681 484.996 303.681 486.043C303.681 487.147 303.334 487.998 302.641 488.597C301.954 489.191 300.967 489.488 299.681 489.488H297.001ZM297.001 488.261H299.696C300.498 488.261 301.113 488.074 301.54 487.699C301.967 487.319 302.181 486.772 302.181 486.058C302.181 485.381 301.967 484.839 301.54 484.433C301.113 484.027 300.527 483.816 299.782 483.8H297.001V488.261ZM310.493 493.941C310.41 493.774 310.342 493.477 310.29 493.05C309.618 493.748 308.816 494.097 307.884 494.097C307.05 494.097 306.365 493.863 305.829 493.394C305.298 492.92 305.032 492.321 305.032 491.597C305.032 490.717 305.365 490.035 306.032 489.55C306.704 489.061 307.647 488.816 308.86 488.816H310.266V488.152C310.266 487.647 310.115 487.246 309.813 486.949C309.511 486.647 309.066 486.496 308.477 486.496C307.962 486.496 307.529 486.626 307.181 486.886C306.832 487.147 306.657 487.462 306.657 487.832H305.204C305.204 487.41 305.352 487.004 305.649 486.613C305.951 486.217 306.358 485.905 306.868 485.675C307.384 485.446 307.949 485.332 308.563 485.332C309.537 485.332 310.3 485.576 310.852 486.066C311.404 486.55 311.691 487.22 311.712 488.074V491.964C311.712 492.74 311.811 493.358 312.009 493.816V493.941H310.493ZM308.095 492.839C308.548 492.839 308.977 492.722 309.384 492.488C309.79 492.254 310.084 491.949 310.266 491.574V489.839H309.134C307.363 489.839 306.477 490.358 306.477 491.394C306.477 491.847 306.628 492.201 306.931 492.457C307.233 492.712 307.621 492.839 308.095 492.839ZM318.899 491.699C318.899 491.308 318.751 491.006 318.454 490.793C318.162 490.574 317.649 490.386 316.915 490.23C316.186 490.074 315.605 489.886 315.173 489.668C314.746 489.449 314.428 489.188 314.22 488.886C314.016 488.584 313.915 488.225 313.915 487.808C313.915 487.115 314.207 486.53 314.79 486.05C315.378 485.571 316.128 485.332 317.04 485.332C317.998 485.332 318.774 485.579 319.368 486.074C319.967 486.569 320.266 487.201 320.266 487.972H318.813C318.813 487.576 318.644 487.235 318.306 486.949C317.972 486.662 317.55 486.519 317.04 486.519C316.514 486.519 316.102 486.634 315.806 486.863C315.509 487.092 315.36 487.392 315.36 487.761C315.36 488.11 315.498 488.373 315.774 488.55C316.05 488.727 316.548 488.897 317.266 489.058C317.99 489.22 318.576 489.412 319.024 489.636C319.472 489.86 319.803 490.131 320.016 490.449C320.235 490.761 320.345 491.144 320.345 491.597C320.345 492.352 320.042 492.959 319.438 493.418C318.834 493.871 318.05 494.097 317.087 494.097C316.41 494.097 315.811 493.977 315.29 493.738C314.769 493.498 314.36 493.165 314.063 492.738C313.772 492.306 313.626 491.839 313.626 491.339H315.071C315.097 491.824 315.29 492.209 315.649 492.496C316.014 492.777 316.493 492.918 317.087 492.918C317.634 492.918 318.071 492.808 318.399 492.589C318.733 492.365 318.899 492.069 318.899 491.699ZM327.149 491.699C327.149 491.308 327.001 491.006 326.704 490.793C326.412 490.574 325.899 490.386 325.165 490.23C324.436 490.074 323.855 489.886 323.423 489.668C322.996 489.449 322.678 489.188 322.47 488.886C322.266 488.584 322.165 488.225 322.165 487.808C322.165 487.115 322.457 486.53 323.04 486.05C323.628 485.571 324.378 485.332 325.29 485.332C326.248 485.332 327.024 485.579 327.618 486.074C328.217 486.569 328.516 487.201 328.516 487.972H327.063C327.063 487.576 326.894 487.235 326.556 486.949C326.222 486.662 325.8 486.519 325.29 486.519C324.764 486.519 324.352 486.634 324.056 486.863C323.759 487.092 323.61 487.392 323.61 487.761C323.61 488.11 323.748 488.373 324.024 488.55C324.3 488.727 324.798 488.897 325.516 489.058C326.24 489.22 326.826 489.412 327.274 489.636C327.722 489.86 328.053 490.131 328.266 490.449C328.485 490.761 328.595 491.144 328.595 491.597C328.595 492.352 328.292 492.959 327.688 493.418C327.084 493.871 326.3 494.097 325.337 494.097C324.66 494.097 324.061 493.977 323.54 493.738C323.019 493.498 322.61 493.165 322.313 492.738C322.022 492.306 321.876 491.839 321.876 491.339H323.321C323.347 491.824 323.54 492.209 323.899 492.496C324.264 492.777 324.743 492.918 325.337 492.918C325.884 492.918 326.321 492.808 326.649 492.589C326.983 492.365 327.149 492.069 327.149 491.699ZM337.962 491.949L339.587 485.488H341.032L338.571 493.941H337.399L335.345 487.535L333.345 493.941H332.173L329.72 485.488H331.157L332.821 491.816L334.79 485.488H335.954L337.962 491.949ZM342.126 489.636C342.126 488.808 342.287 488.063 342.61 487.402C342.938 486.74 343.391 486.23 343.97 485.871C344.553 485.511 345.217 485.332 345.962 485.332C347.113 485.332 348.042 485.73 348.751 486.527C349.464 487.324 349.821 488.384 349.821 489.707V489.808C349.821 490.631 349.662 491.371 349.345 492.027C349.032 492.678 348.582 493.186 347.993 493.55C347.41 493.915 346.738 494.097 345.977 494.097C344.832 494.097 343.902 493.699 343.188 492.902C342.48 492.105 342.126 491.05 342.126 489.738V489.636ZM343.579 489.808C343.579 490.746 343.795 491.498 344.227 492.066C344.665 492.634 345.248 492.918 345.977 492.918C346.712 492.918 347.295 492.631 347.727 492.058C348.16 491.48 348.376 490.673 348.376 489.636C348.376 488.709 348.154 487.959 347.712 487.386C347.274 486.808 346.691 486.519 345.962 486.519C345.248 486.519 344.673 486.803 344.235 487.371C343.798 487.938 343.579 488.751 343.579 489.808ZM355.72 486.785C355.501 486.748 355.264 486.73 355.009 486.73C354.061 486.73 353.417 487.134 353.079 487.941V493.941H351.634V485.488H353.04L353.063 486.464C353.537 485.709 354.209 485.332 355.079 485.332C355.36 485.332 355.574 485.368 355.72 485.441V486.785ZM356.548 489.644C356.548 488.347 356.855 487.306 357.47 486.519C358.084 485.727 358.889 485.332 359.884 485.332C360.873 485.332 361.657 485.67 362.235 486.347V481.941H363.681V493.941H362.352L362.282 493.035C361.704 493.743 360.899 494.097 359.868 494.097C358.889 494.097 358.089 493.696 357.47 492.894C356.855 492.092 356.548 491.045 356.548 489.754V489.644ZM357.993 489.808C357.993 490.767 358.191 491.517 358.587 492.058C358.983 492.6 359.529 492.871 360.227 492.871C361.144 492.871 361.813 492.459 362.235 491.636V487.754C361.803 486.957 361.139 486.558 360.243 486.558C359.535 486.558 358.983 486.832 358.587 487.379C358.191 487.925 357.993 488.735 357.993 489.808ZM367.626 490.738C367.636 490.118 367.707 489.629 367.837 489.269C367.967 488.91 368.233 488.511 368.634 488.074L369.657 487.019C370.095 486.524 370.313 485.993 370.313 485.425C370.313 484.879 370.17 484.451 369.884 484.144C369.597 483.832 369.181 483.675 368.634 483.675C368.102 483.675 367.675 483.816 367.352 484.097C367.029 484.379 366.868 484.756 366.868 485.23H365.423C365.433 484.386 365.733 483.707 366.321 483.191C366.915 482.67 367.686 482.41 368.634 482.41C369.618 482.41 370.384 482.675 370.931 483.207C371.483 483.733 371.759 484.457 371.759 485.379C371.759 486.29 371.337 487.188 370.493 488.074L369.641 488.918C369.261 489.339 369.071 489.946 369.071 490.738H367.626ZM367.563 493.214C367.563 492.98 367.634 492.785 367.774 492.629C367.92 492.467 368.134 492.386 368.415 492.386C368.696 492.386 368.91 492.467 369.056 492.629C369.201 492.785 369.274 492.98 369.274 493.214C369.274 493.449 369.201 493.644 369.056 493.8C368.91 493.951 368.696 494.027 368.415 494.027C368.134 494.027 367.92 493.951 367.774 493.8C367.634 493.644 367.563 493.449 367.563 493.214Z" fill="#00A3FF"/>
<defs>
<linearGradient id="paint0_linear" x1="198.275" y1="117.203" x2="198.275" y2="231.741" gradientUnits="userSpaceOnUse">
<stop stop-color="#8491F6"/>
<stop offset="1" stop-color="#50A9DF"/>
</linearGradient>
<linearGradient id="paint1_linear" x1="260.948" y1="93.1115" x2="260.948" y2="117.203" gradientUnits="userSpaceOnUse">
<stop stop-color="#8491F6"/>
<stop offset="1" stop-color="#50A9DF"/>
</linearGradient>
</defs>
</svg>
