<svg width="17" height="15" viewBox="0 0 17 15" fill="none" xmlns="http://www.w3.org/2000/svg">
<path fill-rule="evenodd" clip-rule="evenodd" d="M15.8145 0.444214C15.5492 0.444214 15.2949 0.549571 15.1073 0.737107C14.9198 0.924643 14.8145 1.179 14.8145 1.44421V13.4442C14.8145 13.7094 14.9198 13.9638 15.1073 14.1513C15.2949 14.3389 15.5492 14.4442 15.8145 14.4442C16.0797 14.4442 16.334 14.3389 16.5216 14.1513C16.7091 13.9638 16.8145 13.7094 16.8145 13.4442V1.44421C16.8145 1.179 16.7091 0.924643 16.5216 0.737107C16.334 0.549571 16.0797 0.444214 15.8145 0.444214ZM8.10745 3.73721C7.91998 3.92474 7.81467 4.17905 7.81467 4.44421C7.81467 4.70938 7.91998 4.96369 8.10745 5.15121L9.40045 6.44421H1.81445C1.54924 6.44421 1.29488 6.54957 1.10735 6.73711C0.919809 6.92464 0.814453 7.179 0.814453 7.44421C0.814453 7.70943 0.919809 7.96378 1.10735 8.15132C1.29488 8.33886 1.54924 8.44421 1.81445 8.44421H9.40045L8.10745 9.73721C7.92529 9.92582 7.8245 10.1784 7.82678 10.4406C7.82906 10.7028 7.93423 10.9536 8.11963 11.139C8.30504 11.3244 8.55586 11.4296 8.81805 11.4319C9.08025 11.4342 9.33285 11.3334 9.52145 11.1512L12.5215 8.15121C12.7089 7.96369 12.8142 7.70938 12.8142 7.44421C12.8142 7.17905 12.7089 6.92474 12.5215 6.73721L9.52145 3.73721C9.33393 3.54974 9.07962 3.44443 8.81445 3.44443C8.54929 3.44443 8.29498 3.54974 8.10745 3.73721Z" fill="url(#paint0_linear)"/>
<defs>
<linearGradient id="paint0_linear" x1="8.81445" y1="0.444214" x2="8.81445" y2="14.4442" gradientUnits="userSpaceOnUse">
<stop stop-color="#8491F6"/>
<stop offset="1" stop-color="#50A9DF"/>
</linearGradient>
</defs>
</svg>
