<svg width="332" height="318" viewBox="0 0 332 318" fill="none" xmlns="http://www.w3.org/2000/svg">
<g clip-path="url(#clip0)">
<path d="M315.292 200.622C334.71 118.609 283.787 36.4253 201.552 17.0597C119.317 -2.30587 36.911 48.4799 17.493 130.493C-1.92504 212.506 48.9982 294.689 131.233 314.055C213.468 333.42 295.874 282.635 315.292 200.622Z" fill="#DFE7ED"/>
<path d="M69.6531 35.1613C65.8836 35.1613 62.7792 32.0654 62.7792 28.306C62.7792 24.5466 65.8836 21.4506 69.6531 21.4506C73.4227 21.4506 76.5271 24.5466 76.5271 28.306C76.7488 32.0654 73.6445 35.1613 69.6531 35.1613ZM69.6531 23.662C66.9923 23.662 64.9966 25.8734 64.9966 28.306C64.9966 30.9597 67.214 32.9499 69.6531 32.9499C72.314 32.9499 74.3097 30.7385 74.3097 28.306C74.5314 25.6523 72.314 23.662 69.6531 23.662Z" fill="#CAD7E0"/>
<path d="M53.688 284.829C49.9184 284.829 46.8141 281.733 46.8141 277.974C46.8141 274.214 49.9184 271.118 53.688 271.118C57.4576 271.118 60.5619 274.214 60.5619 277.974C60.5619 281.733 57.4576 284.829 53.688 284.829ZM53.688 273.108C51.0271 273.108 49.0315 275.32 49.0315 277.752C49.0315 280.406 51.2489 282.396 53.688 282.396C56.3489 282.396 58.3445 280.185 58.3445 277.752C58.3445 275.32 56.1271 273.108 53.688 273.108Z" fill="#CAD7E0"/>
<path d="M37.0575 86.4659C34.8401 86.4659 32.8445 84.4757 32.8445 82.2643C32.8445 80.0529 34.8401 78.0626 37.0575 78.0626C39.2749 78.0626 41.2706 80.0529 41.2706 82.2643C41.2706 84.4757 39.2749 86.4659 37.0575 86.4659ZM37.0575 80.274C35.9488 80.274 35.0619 81.1586 35.0619 82.2643C35.0619 83.37 35.9488 84.2545 37.0575 84.2545C38.1662 84.2545 39.0532 83.37 39.0532 82.2643C39.0532 81.1586 38.1662 80.274 37.0575 80.274Z" fill="#CAD7E0"/>
<path d="M237.51 299.866C235.292 299.866 233.297 297.876 233.297 295.665C233.297 293.453 235.292 291.463 237.51 291.463C239.727 291.463 241.723 293.453 241.723 295.665C241.723 297.876 239.727 299.866 237.51 299.866ZM237.51 293.675C236.401 293.675 235.514 294.559 235.514 295.665C235.514 296.77 236.401 297.655 237.51 297.655C238.618 297.655 239.505 296.77 239.505 295.665C239.505 294.559 238.618 293.675 237.51 293.675Z" fill="#CAD7E0"/>
<path d="M252.144 48.8721C249.927 48.8721 247.931 46.8818 247.931 44.6704C247.931 42.459 249.927 40.4687 252.144 40.4687C254.362 40.4687 256.358 42.459 256.358 44.6704C256.358 47.1029 254.584 48.8721 252.144 48.8721ZM252.144 42.6801C251.036 42.6801 250.149 43.5647 250.149 44.6704C250.149 45.7761 251.036 46.6607 252.144 46.6607C253.253 46.6607 254.14 45.7761 254.14 44.6704C254.14 43.5647 253.253 42.6801 252.144 42.6801Z" fill="#CAD7E0"/>
<path d="M268.331 181.335C266.114 181.335 264.118 179.345 264.118 177.133C264.118 174.922 266.114 172.932 268.331 172.932C270.549 172.932 272.544 174.922 272.544 177.133C272.544 179.566 270.771 181.335 268.331 181.335ZM268.331 175.364C267.223 175.364 266.336 176.249 266.336 177.355C266.336 178.46 267.223 179.345 268.331 179.345C269.44 179.345 270.327 178.46 270.327 177.355C270.327 176.249 269.44 175.364 268.331 175.364Z" fill="#CAD7E0"/>
<path d="M296.271 104.378H294.053V116.983H296.271V104.378Z" fill="#CAD7E0"/>
<path d="M301.371 109.686H288.731V111.897H301.371V109.686Z" fill="#CAD7E0"/>
<path d="M23.3097 176.249H21.0923V188.854H23.3097V176.249Z" fill="#CAD7E0"/>
<path d="M28.4097 181.556H15.7706V183.768H28.4097V181.556Z" fill="#CAD7E0"/>
<path d="M179.636 0H177.418V12.605H179.636V0Z" fill="#CAD7E0"/>
<path d="M184.736 5.30737H172.097V7.51878H184.736V5.30737Z" fill="#CAD7E0"/>
<path d="M124.866 270.013H122.649V276.204H124.866V270.013Z" fill="#CAD7E0"/>
<path d="M127.084 272.003H120.875V274.214H127.084V272.003Z" fill="#CAD7E0"/>
</g>
<path d="M42.8227 292.569H289.84C293.61 292.569 296.492 289.694 296.492 285.935C296.492 282.175 293.61 279.3 289.84 279.3H42.8227C39.0531 279.3 36.1705 282.175 36.1705 285.935C36.1705 289.473 39.0531 292.569 42.8227 292.569Z" fill="#CAD7E0"/>
<g clip-path="url(#clip1)">
<path d="M236.692 73.1926H234.339C233.876 73.1926 233.5 73.5691 233.5 74.0335V105.62C233.5 106.084 233.876 106.46 234.339 106.46H236.692C237.155 106.46 237.531 106.084 237.531 105.62V74.0335C237.531 73.5691 237.155 73.1926 236.692 73.1926Z" fill="#3F3D56"/>
<path d="M221.376 10.9346H115.098C107.201 10.9346 100.799 17.3442 100.799 25.2509V271.068C100.799 278.974 107.201 285.384 115.098 285.384H221.376C229.273 285.384 235.675 278.974 235.675 271.068V25.2509C235.675 17.3442 229.273 10.9346 221.376 10.9346Z" fill="#3F3D56"/>
<path d="M216.902 18.0832H201.43V19.9467C201.43 21.1066 201.202 22.2551 200.759 23.3267C200.315 24.3982 199.665 25.3718 198.846 26.1918C198.026 27.0117 197.054 27.662 195.983 28.1054C194.913 28.5489 193.765 28.7768 192.607 28.7762H143.403C142.244 28.7768 141.097 28.5489 140.027 28.1054C138.956 27.662 137.983 27.0117 137.164 26.1918C136.345 25.3718 135.695 24.3982 135.251 23.3267C134.808 22.2551 134.579 21.1066 134.579 19.9467V18.0832H120.093C117.252 18.0832 114.528 19.2132 112.519 21.2245C110.51 23.2358 109.382 25.9637 109.382 28.8081V267.529C109.382 270.374 110.51 273.101 112.519 275.113C114.528 277.124 117.252 278.254 120.093 278.254H216.902C219.743 278.254 222.468 277.124 224.477 275.113C226.485 273.101 227.614 270.374 227.614 267.529V28.8265C227.616 27.4165 227.341 26.0199 226.804 24.7166C226.267 23.4133 225.478 22.2288 224.483 21.231C223.488 20.2331 222.306 19.4415 221.006 18.9014C219.705 18.3612 218.31 18.0832 216.902 18.0832Z" fill="white"/>
<path d="M172.642 19.1308H156.646C155.862 19.1308 155.227 19.767 155.227 20.5518V21.5369C155.227 22.3217 155.862 22.9579 156.646 22.9579H172.642C173.426 22.9579 174.061 22.3217 174.061 21.5369V20.5518C174.061 19.767 173.426 19.1308 172.642 19.1308Z" fill="#E6E8EC"/>
<path d="M179.081 23.2178C180.279 23.2178 181.251 22.2448 181.251 21.0445C181.251 19.8442 180.279 18.8712 179.081 18.8712C177.882 18.8712 176.91 19.8442 176.91 21.0445C176.91 22.2448 177.882 23.2178 179.081 23.2178Z" fill="#E6E8EC"/>
<path d="M169.06 177.074C183.152 177.074 194.575 165.637 194.575 151.529C194.575 137.42 183.152 125.983 169.06 125.983C154.969 125.983 143.546 137.42 143.546 151.529C143.546 165.637 154.969 177.074 169.06 177.074Z" fill="white"/>
<path d="M202.619 147.962C202.619 154.714 200.619 161.315 196.872 166.93C193.124 172.545 187.798 176.921 181.567 179.505C175.336 182.089 168.479 182.765 161.864 181.447C155.249 180.129 149.173 176.877 144.404 172.102C139.635 167.327 136.387 161.243 135.072 154.62C133.756 147.997 134.432 141.132 137.013 134.894C139.594 128.655 143.965 123.323 149.573 119.571C155.181 115.82 161.775 113.817 168.519 113.818C172.997 113.818 177.432 114.701 181.569 116.417C185.706 118.133 189.466 120.648 192.632 123.819C195.799 126.989 198.31 130.753 200.024 134.896C201.738 139.038 202.62 143.478 202.619 147.962ZM164.577 166.034L189.873 140.707C190.078 140.503 190.24 140.26 190.351 139.993C190.462 139.725 190.519 139.439 190.519 139.149C190.519 138.86 190.462 138.573 190.351 138.306C190.24 138.038 190.078 137.795 189.873 137.591L186.761 134.497C186.557 134.293 186.315 134.13 186.048 134.019C185.781 133.908 185.496 133.851 185.207 133.851C184.918 133.851 184.632 133.908 184.365 134.019C184.099 134.13 183.857 134.293 183.653 134.497L163.021 155.155L153.388 145.487C152.974 145.075 152.415 144.844 151.832 144.844C151.248 144.844 150.689 145.075 150.275 145.487L147.163 148.621C146.752 149.035 146.521 149.596 146.521 150.179C146.521 150.763 146.752 151.324 147.163 151.738L161.465 166.052C161.67 166.257 161.912 166.42 162.179 166.531C162.446 166.642 162.733 166.699 163.022 166.699C163.311 166.699 163.597 166.642 163.864 166.531C164.131 166.42 164.374 166.257 164.578 166.052L164.577 166.034Z" fill="url(#paint0_linear)"/>
<path d="M105.022 65.0409H104.669C104.205 65.0409 103.829 65.4174 103.829 65.8818V74.0452C103.829 74.5096 104.205 74.8861 104.669 74.8861H105.022C105.486 74.8861 105.862 74.5096 105.862 74.0452V65.8818C105.862 65.4174 105.486 65.0409 105.022 65.0409Z" fill="#3F3D56"/>
<path d="M105.206 83.0683H104.595C104.131 83.0683 103.755 83.4447 103.755 83.9091V99.3622C103.755 99.8266 104.131 100.203 104.595 100.203H105.206C105.67 100.203 106.046 99.8266 106.046 99.3622V83.9091C106.046 83.4447 105.67 83.0683 105.206 83.0683Z" fill="#3F3D56"/>
<path d="M105.132 106.199H104.632C104.168 106.199 103.792 106.575 103.792 107.04V122.64C103.792 123.104 104.168 123.481 104.632 123.481H105.132C105.596 123.481 105.972 123.104 105.972 122.64V107.04C105.972 106.575 105.596 106.199 105.132 106.199Z" fill="#3F3D56"/>
<path d="M76.7755 151.898C76.8337 151.954 76.9086 151.99 76.9889 152.001C77.0693 152.011 77.1508 151.995 77.2214 151.955C77.0708 151.958 76.9206 151.938 76.7755 151.898Z" fill="url(#paint1_linear)"/>
<path d="M93.6315 158.5L93.1915 160.899L92.8519 162.735L92.2343 166.094L86.2459 170.291C86.2459 170.291 85.7061 169.828 84.8157 169.099C82.3615 167.076 77.2034 162.956 73.4158 160.745C72.4416 160.123 71.3875 159.637 70.2825 159.299L93.6315 158.5Z" fill="#FEB9B9"/>
<path d="M89.2385 160.285C89.2385 160.285 96.2207 161.485 96.6296 158.5C97.0385 155.514 93.0356 153.901 89.6434 153.7C86.2511 153.499 65.8909 154.9 65.8909 154.9C65.8909 154.9 62.2995 159.695 75.2701 160.498L89.2385 160.285Z" fill="#3F3D56"/>
<path d="M104.508 61.7686H67.9813V105.134H104.508V61.7686Z" fill="#2F2E41"/>
<path opacity="0.1" d="M104.508 61.9655H67.9813V105.331H104.508V61.9655Z" fill="black"/>
<path d="M25.1723 136.004C24.5708 136.156 23.8022 136.738 22.9473 137.581C19.2661 141.23 13.9935 149.793 13.9935 149.793C7.25265 141.754 14.712 135.402 17.8915 133.219C18.6646 132.691 19.1839 132.4 19.1839 132.4L25.1723 136.004Z" fill="#FEB9B9"/>
<path d="M93.2307 75.4552C93.2307 75.4552 95.0277 88.0443 101.215 91.0419C107.402 94.0396 93.2307 99.642 93.2307 99.642L73.8713 92.4424C73.8713 92.4424 84.8498 88.844 82.653 78.252L93.2307 75.4552Z" fill="#FEB9B9"/>
<path d="M72.4726 151.193L72.0347 153.585L71.679 155.428L71.0614 158.786L65.073 162.98C65.073 162.98 64.5332 162.521 63.6428 161.792C61.1886 159.769 56.0309 155.65 52.2374 153.438C51.2636 152.815 50.2094 152.329 49.1041 151.992L72.4726 151.193Z" fill="#FEB9B9"/>
<path d="M67.2925 154.143C67.2925 154.143 73.5588 154.187 73.9359 151.193C74.3129 148.199 70.5208 146.595 67.2925 146.394C64.0642 146.193 44.4492 147.687 44.4492 147.687C44.4492 147.687 41.6664 153.341 54.0043 154.143L67.2925 154.143Z" fill="#2F2E41"/>
<path d="M111.228 201.177C110.954 201.042 110.68 200.902 110.41 200.767L109.674 199.838L100.016 187.576V187.789C99.9511 189.837 99.2558 206.063 93.8318 207.562C88.0441 209.159 81.0619 209.56 77.879 198.769C74.6961 187.978 68.8805 164.397 62.9083 162.997L71.7923 155.703C71.7923 155.703 77.6743 162.591 80.0709 169.185C79.9811 168.775 75.9192 149.773 79.2528 146.411H108.399C108.399 146.411 112.898 159.242 115.982 165.597C118.383 170.532 121.987 182.2 124.307 190.096C126.604 197.892 118.533 204.777 111.228 201.177Z" fill="#3F3D56"/>
<path opacity="0.1" d="M110.398 149.993C105.898 152.66 86.1462 151.574 79.7203 151.14L77.9696 151.013C77.7814 151.013 77.9982 150.907 77.9982 150.907L78.1782 149.092L82.9681 136.905L108.614 122.014C108.095 123.583 107.923 125.983 107.964 128.731C108.083 137.56 110.398 149.993 110.398 149.993Z" fill="black"/>
<path d="M110.398 149.392C105.898 152.058 86.1462 150.972 79.7203 150.538L77.9695 150.415L77.6791 150.391L77.9981 150.309L79.5769 149.899L82.9677 136.311L108.614 121.425C108.095 122.993 107.923 125.393 107.964 128.141C108.083 136.962 110.398 149.392 110.398 149.392Z" fill="#EFEFEF"/>
<path opacity="0.1" d="M107.948 128.133C102.732 129.337 91.2551 132.869 86.8455 141.402C83.9047 147.082 81.43 149.518 79.7038 150.538L77.953 150.415C77.9645 150.38 77.974 150.345 77.9816 150.309L79.5604 149.899L82.9512 136.311L108.597 121.425C108.084 122.985 107.907 125.385 107.948 128.133Z" fill="black"/>
<path opacity="0.1" d="M19.1839 132.409L25.1723 136.004C24.5708 136.156 23.8022 136.739 22.9473 137.581C22.4482 136.123 19.3167 134.088 17.8915 133.22C18.6642 132.699 19.1839 132.409 19.1839 132.409Z" fill="black"/>
<path opacity="0.1" d="M76.8858 150.649C76.8202 150.683 76.7455 150.696 76.6722 150.686C76.5989 150.675 76.5307 150.643 76.4769 150.592C76.6097 150.631 76.7475 150.65 76.8858 150.649Z" fill="black"/>
<path d="M90.4373 90.2433C90.4373 90.2433 85.0463 90.8411 81.2547 86.8443C81.2547 86.8443 65.3019 91.4432 59.8992 101.833C54.4965 112.223 17.7687 132.609 17.7687 132.609C17.7687 132.609 24.1579 136.205 23.5564 138.003L47.7098 124.013C47.7098 124.013 56.2994 117.821 58.6842 116.421C61.0691 115.02 74.256 106.428 77.0498 129.808C79.8435 153.188 77.0498 150.391 77.0498 150.391C77.0498 150.391 81.042 151.792 86.8298 140.599C92.6175 129.407 110.578 126.81 110.578 126.81L111.576 115.024C111.576 115.024 115.139 107.21 112.394 103.967C111.563 103.006 111.01 101.836 110.795 100.584C110.341 97.5902 110.795 92.6021 117.151 88.4577C126.931 82.0607 130.723 76.8681 130.723 76.8681C130.723 76.8681 130.923 73.0678 124.935 71.2697C118.947 69.4717 94.5972 59.6801 94.5972 59.6801L93.779 63.0791L112.991 76.6551C112.991 76.6551 103.412 84.436 95.8121 84.2476C95.8118 84.2476 97.2229 90.0424 90.4373 90.2433Z" fill="#E3B943"/>
<path opacity="0.1" d="M94.1347 80.9346C93.6627 79.3327 93.2939 77.7022 93.0305 76.053L82.4529 78.8509C82.9192 80.8726 82.8359 82.9825 82.2115 84.9611C84.3742 85.5388 86.659 85.465 88.7798 84.7488C90.9007 84.0325 92.7634 82.7058 94.1347 80.9346Z" fill="black"/>
<path d="M85.3489 84.7477C91.6313 84.7477 96.7242 79.6487 96.7242 73.3586C96.7242 67.0686 91.6313 61.9695 85.3489 61.9695C79.0665 61.9695 73.9736 67.0686 73.9736 73.3586C73.9736 79.6487 79.0665 84.7477 85.3489 84.7477Z" fill="#FEB9B9"/>
<path opacity="0.1" d="M97.722 165.08C97.722 165.08 104.307 178.071 102.311 182.064L97.722 165.08Z" fill="black"/>
<path d="M91.3982 47.0543C94.5557 47.4149 97.5541 48.7702 100.663 49.5115C101.44 49.7533 102.267 49.7843 103.06 49.6015C104.266 49.2288 105.248 47.9635 106.5 48.0002C107.27 48.0248 107.952 48.5491 108.586 49.0525C109.602 49.8317 110.56 50.6859 111.449 51.6081C113.592 53.9382 114.921 57.0754 116.876 59.6104C118.832 62.1454 121.62 65.118 124.397 63.9556C122.508 71.327 116.615 75.9384 109.919 76.3974C107.248 76.581 104.512 76.0247 101.927 76.8068C101.283 77.0711 100.603 77.2367 99.9096 77.2981C98.4207 77.2981 97.2222 75.9303 96.2937 74.5993C94.1175 71.4706 92.3957 67.92 89.9455 65.0655C89.1274 64.1197 88.1827 63.2227 87.0374 63.0508C85.8921 62.879 84.841 63.4276 83.8226 63.9559C82.1415 64.8283 80.4237 65.729 79.1189 67.2323C77.8141 68.7355 76.9918 70.9547 77.5317 72.9658C77.8221 74.0552 78.4852 75.0381 78.4969 76.1764C78.5215 77.9946 76.9181 79.3216 76.6031 81.0907C76.532 81.8338 76.506 82.5805 76.5254 83.3268C76.3864 85.7502 74.8017 87.7329 73.1514 89.2608C72.5053 89.8505 71.7945 90.4893 71.6053 91.4025C71.4784 92.0289 71.6053 92.6876 71.5235 93.3232C71.2822 94.8958 69.7155 95.6945 68.3289 95.8993C66.7088 96.1395 65.0541 95.9431 63.535 95.3302C65.4739 94.4123 66.6684 91.8002 66.2184 89.4616C65.6008 86.218 62.345 83.8878 62.6244 80.5873C62.7775 79.5746 63.0808 78.5904 63.5244 77.6675C64.2339 75.8839 64.7495 74.029 65.0624 72.1348C65.3078 70.6727 65.4266 69.1207 64.9682 67.7243C64.5593 66.4546 63.7044 65.4434 62.9801 64.3701C61.9986 62.9101 61.2237 61.321 60.6774 59.6482C60.4795 59.152 60.404 58.6153 60.4574 58.0836C60.6214 57.4558 60.9707 56.892 61.4597 56.4659C63.239 54.5932 65.1409 52.649 67.5258 52.1126C68.6636 51.9234 69.8208 51.8794 70.9697 51.9815C72.9679 52.0443 74.968 51.9593 76.9537 51.7274C78.5897 51.535 81.3545 51.5596 82.7415 50.4988C84.0338 49.5075 84.7622 48.2627 86.353 47.6323C87.9642 47.0344 89.696 46.8362 91.4004 47.0547L91.3982 47.0543Z" fill="#2F2E41"/>
<path d="M78.4151 285.935C84.4293 285.935 89.3048 285.109 89.3048 284.091C89.3048 283.073 84.4293 282.247 78.4151 282.247C72.4008 282.247 67.5253 283.073 67.5253 284.091C67.5253 285.109 72.4008 285.935 78.4151 285.935Z" fill="#EFEFEF"/>
<path d="M82.9189 281.076C83.4152 280.669 83.7768 280.122 83.9561 279.506C84.035 279.197 84.0061 278.87 83.8741 278.579C83.7421 278.289 83.515 278.052 83.2303 277.908C82.5639 277.654 81.8517 278.117 81.313 278.584C80.7743 279.05 80.1538 279.584 79.4471 279.484C79.8108 279.155 80.0831 278.736 80.2374 278.27C80.3916 277.804 80.4226 277.306 80.3272 276.824C80.2955 276.624 80.2103 276.437 80.0808 276.282C79.7141 275.886 79.0407 276.054 78.5996 276.369C77.1913 277.36 76.7985 279.275 76.7905 280.997C76.6471 280.376 76.7688 279.728 76.7633 279.099C76.7578 278.47 76.5873 277.744 76.0482 277.41C75.7157 277.232 75.3421 277.144 74.9649 277.155C74.3312 277.131 73.6271 277.196 73.1936 277.66C72.6519 278.235 72.7982 279.2 73.264 279.829C73.7297 280.458 74.4419 280.862 75.0976 281.298C75.6218 281.61 76.0689 282.037 76.4058 282.546C76.4463 282.618 76.4791 282.693 76.5033 282.771H80.46C81.3521 282.319 82.1793 281.748 82.9189 281.074V281.076Z" fill="#EFEFEF"/>
<path d="M16.8291 285.935C22.8434 285.935 27.7189 285.109 27.7189 284.091C27.7189 283.073 22.8434 282.247 16.8291 282.247C10.8149 282.247 5.93939 283.073 5.93939 284.091C5.93939 285.109 10.8149 285.935 16.8291 285.935Z" fill="#EFEFEF"/>
<path d="M21.3329 281.076C21.8292 280.669 22.1908 280.122 22.37 279.506C22.449 279.197 22.4201 278.87 22.2881 278.579C22.1561 278.289 21.929 278.052 21.6443 277.908C20.9779 277.654 20.2657 278.117 19.727 278.584C19.1883 279.05 18.5678 279.584 17.8611 279.484C18.2248 279.155 18.4971 278.736 18.6514 278.27C18.8056 277.804 18.8366 277.306 18.7412 276.824C18.7095 276.624 18.6243 276.437 18.4948 276.282C18.1281 275.886 17.4547 276.054 17.0136 276.369C15.6053 277.36 15.2125 279.275 15.2045 280.997C15.0611 280.376 15.1828 279.728 15.1773 279.099C15.1718 278.47 15.0013 277.744 14.4622 277.41C14.1297 277.232 13.7561 277.144 13.3789 277.155C12.7452 277.131 12.0411 277.196 11.6076 277.66C11.0659 278.235 11.2122 279.2 11.678 279.829C12.1437 280.458 12.8559 280.862 13.5116 281.298C14.0358 281.61 14.4829 282.037 14.8198 282.546C14.8603 282.618 14.8931 282.693 14.9173 282.771H18.874C19.7661 282.319 20.5933 281.748 21.3329 281.074V281.076Z" fill="#EFEFEF"/>
<path d="M315.066 29.4859C315.066 29.4859 280.513 27.3985 284.584 51.6404C284.584 51.6404 283.763 55.9257 287.653 57.8692C287.653 57.8692 287.715 56.0737 291.199 56.6858C292.439 56.8916 293.699 56.9522 294.954 56.8664C296.646 56.755 298.256 56.096 299.542 54.9887C299.542 54.9887 309.255 50.9703 313.031 35.0777C313.031 35.0777 315.825 31.6101 315.714 30.7182L309.883 33.2121C309.883 33.2121 311.878 37.4236 310.294 40.9228C310.294 40.9228 310.105 33.3626 308.985 33.5271C308.759 33.5602 305.956 34.9855 305.956 34.9855C305.956 34.9855 309.383 42.3196 306.797 47.6532C306.797 47.6532 307.778 38.614 304.885 35.5157L300.781 37.9153C300.781 37.9153 304.787 45.492 302.07 51.6756C302.07 51.6756 302.767 42.1925 299.915 38.4987L296.197 41.4034C296.197 41.4034 299.96 48.8689 297.666 53.9977C297.666 53.9977 297.367 42.9614 295.393 42.1275C295.393 42.1275 292.138 45.0036 291.642 46.1786C291.642 46.1786 294.219 51.6022 292.618 54.4618C292.618 54.4618 291.638 47.1072 290.833 47.0661C290.833 47.0661 287.591 51.9389 287.255 55.2835C287.255 55.2835 287.394 50.316 290.049 46.606C290.049 46.606 286.914 47.1443 285.083 49.1762C285.083 49.1762 285.588 45.7332 290.849 45.4292C290.849 45.4292 293.529 41.7313 294.243 41.5096C294.243 41.5096 289.015 41.0689 285.843 42.4793C285.843 42.4793 288.633 39.2294 295.203 40.7084L298.876 37.7049C298.876 37.7049 291.99 36.7638 289.068 37.8036C289.068 37.8036 292.429 34.9275 299.865 37.023L303.863 34.6316C303.863 34.6316 297.99 33.3659 294.494 33.8098C294.494 33.8098 298.187 31.8172 305.036 33.9784L307.909 32.6932C307.909 32.6932 303.608 31.8469 302.348 31.7114C301.088 31.5759 301.023 31.2308 301.023 31.2308C303.747 30.7759 306.545 31.0875 309.103 32.1307C309.103 32.1307 315.169 29.8682 315.066 29.4859Z" fill="#E3B943"/>
<path d="M267.722 16.652C267.722 16.652 252.128 15.7109 253.95 26.6649C253.95 26.6649 253.583 28.6003 255.337 29.4793C255.337 29.4793 255.366 28.6576 256.942 28.9411C257.501 29.0354 258.07 29.063 258.636 29.0233C259.402 28.9726 260.13 28.6724 260.709 28.1685C260.709 28.1685 265.1 26.3525 266.807 19.1705C266.807 19.1705 268.066 17.6052 268.017 17.2024L265.382 18.3281C265.382 18.3281 266.281 20.2305 265.575 21.8123C265.575 21.8123 265.489 18.3975 264.984 18.4761C264.882 18.4761 263.614 19.137 263.614 19.137C263.614 19.137 265.165 22.4527 263.995 24.8606C263.995 24.8606 264.438 20.7765 263.129 19.3753L261.275 20.4769C261.275 20.4769 263.084 23.8993 261.857 26.6936C261.857 26.6936 262.173 22.4082 260.885 20.7401L259.206 22.055C259.206 22.055 260.905 25.4283 259.871 27.7463C259.871 27.7463 259.732 22.7582 258.841 22.3803C258.841 22.3803 257.372 23.6787 257.146 24.2129C257.146 24.2129 258.311 26.6781 257.589 27.9559C257.589 27.9559 257.146 24.6319 256.769 24.6146C256.769 24.6146 255.303 26.8177 255.152 28.3125C255.225 26.918 255.661 25.5669 256.416 24.3928C255.57 24.5532 254.79 24.9574 254.171 25.5557C254.171 25.5557 254.401 23.9985 256.777 23.863C256.777 23.863 258.008 22.1909 258.312 22.0881C258.312 22.0881 255.948 21.8909 254.516 22.5287C254.516 22.5287 255.775 21.0618 258.743 21.7275L260.384 20.3715C260.384 20.3715 257.271 19.9566 255.95 20.4141C255.95 20.4141 257.469 19.1157 260.83 20.0609L262.635 18.9803C262.635 18.9803 259.98 18.4093 258.4 18.6131C258.4 18.6131 260.071 17.7131 263.165 18.6865L264.458 18.1071C264.458 18.1071 262.514 17.7249 261.942 17.6632C261.37 17.6015 261.343 17.4454 261.343 17.4454C262.575 17.2403 263.839 17.3825 264.995 17.8563C264.995 17.8563 267.77 16.8231 267.722 16.652Z" fill="#3F3D56"/>
<path d="M27.2413 183.879C27.2413 183.879 11.6472 182.937 13.4691 193.891C13.4691 193.891 13.1024 195.827 14.8561 196.706C14.8561 196.706 14.8847 195.884 16.4605 196.168C17.0202 196.262 17.589 196.29 18.1552 196.25C18.9207 196.199 19.6485 195.899 20.2276 195.395C20.2276 195.395 24.6185 193.579 26.3256 186.397C26.3256 186.397 27.5853 184.832 27.5358 184.429L24.9012 185.555C24.9012 185.555 25.8001 187.457 25.0941 189.039C25.0941 189.039 25.0079 185.624 24.5033 185.703C24.4006 185.703 23.1325 186.364 23.1325 186.364C23.1325 186.364 24.6838 189.679 23.5143 192.087C23.5143 192.087 23.9573 188.003 22.6484 186.602L20.7935 187.703C20.7935 187.703 22.6033 191.126 21.3762 193.92C21.3762 193.92 21.6923 189.635 20.4036 187.967L18.7251 189.282C18.7251 189.282 20.4242 192.655 19.39 194.973C19.39 194.973 19.2506 189.985 18.3598 189.607C18.3598 189.607 16.8907 190.905 16.6648 191.439C16.6648 191.439 17.8303 193.905 17.1082 195.182C17.1082 195.182 16.6648 191.858 16.2874 191.841C16.2874 191.841 14.8223 194.044 14.6705 195.539C14.7439 194.145 15.1796 192.793 15.9346 191.619C15.0892 191.78 14.309 192.184 13.6899 192.782C13.6899 192.782 13.9198 191.225 16.2959 191.09C16.2959 191.09 17.527 189.417 17.8306 189.315C17.8306 189.315 15.4671 189.117 14.0346 189.755C14.0346 189.755 15.2943 188.288 18.2616 188.954L19.903 187.598C19.903 187.598 16.7895 187.183 15.4693 187.641C15.4693 187.641 16.9875 186.342 20.3486 187.287L22.1544 186.207C22.1544 186.207 19.4993 185.636 17.9194 185.84C17.9194 185.84 19.5895 184.94 22.684 185.913L23.9767 185.334C23.9767 185.334 22.033 184.951 21.4609 184.89C20.8888 184.828 20.8617 184.672 20.8617 184.672C22.0936 184.467 23.3582 184.609 24.514 185.083C24.514 185.083 27.2894 184.05 27.2413 183.879Z" fill="#3F3D56"/>
</g>
<defs>
<linearGradient id="paint0_linear" x1="168.518" y1="113.818" x2="168.518" y2="182.103" gradientUnits="userSpaceOnUse">
<stop stop-color="#8491F6"/>
<stop offset="1" stop-color="#50A9DF"/>
</linearGradient>
<linearGradient id="paint1_linear" x1="77.0007" y1="152.005" x2="77.0007" y2="151.898" gradientUnits="userSpaceOnUse">
<stop stop-color="#808080" stop-opacity="0.251"/>
<stop offset="0.54" stop-color="#808080" stop-opacity="0.122"/>
<stop offset="1" stop-color="#808080" stop-opacity="0.102"/>
</linearGradient>
<clipPath id="clip0">
<rect width="306" height="318" fill="white" transform="translate(13.3314)"/>
</clipPath>
<clipPath id="clip1">
<rect width="331" height="275" fill="white" transform="translate(0.223511 10.9346)"/>
</clipPath>
</defs>
</svg>
