<svg width="352" height="318" viewBox="0 0 352 318" fill="none" xmlns="http://www.w3.org/2000/svg">
<g clip-path="url(#clip0)">
<path d="M302.292 200.622C321.71 118.609 270.787 36.4253 188.552 17.0597C106.317 -2.30587 23.911 48.4799 4.49302 130.493C-14.925 212.506 35.9982 294.689 118.233 314.055C200.468 333.42 282.874 282.635 302.292 200.622Z" fill="#DFE7ED"/>
<path d="M56.6531 35.1613C52.8835 35.1613 49.7792 32.0654 49.7792 28.306C49.7792 24.5466 52.8835 21.4506 56.6531 21.4506C60.4227 21.4506 63.527 24.5466 63.527 28.306C63.7487 32.0654 60.6444 35.1613 56.6531 35.1613ZM56.6531 23.662C53.9922 23.662 51.9966 25.8734 51.9966 28.306C51.9966 30.9597 54.214 32.9499 56.6531 32.9499C59.314 32.9499 61.3096 30.7385 61.3096 28.306C61.5314 25.6523 59.314 23.662 56.6531 23.662Z" fill="#CAD7E0"/>
<path d="M40.6879 284.829C36.9183 284.829 33.814 281.733 33.814 277.974C33.814 274.214 36.9183 271.118 40.6879 271.118C44.4574 271.118 47.5618 274.214 47.5618 277.974C47.5618 281.733 44.4574 284.829 40.6879 284.829ZM40.6879 273.108C38.027 273.108 36.0314 275.32 36.0314 277.752C36.0314 280.406 38.2487 282.396 40.6879 282.396C43.3488 282.396 45.3444 280.185 45.3444 277.752C45.3444 275.32 43.127 273.108 40.6879 273.108Z" fill="#CAD7E0"/>
<path d="M24.0574 86.4659C21.84 86.4659 19.8444 84.4757 19.8444 82.2643C19.8444 80.0529 21.84 78.0626 24.0574 78.0626C26.2748 78.0626 28.2704 80.0529 28.2704 82.2643C28.2704 84.4757 26.2748 86.4659 24.0574 86.4659ZM24.0574 80.274C22.9487 80.274 22.0618 81.1586 22.0618 82.2643C22.0618 83.37 22.9487 84.2545 24.0574 84.2545C25.1661 84.2545 26.0531 83.37 26.0531 82.2643C26.0531 81.1586 25.1661 80.274 24.0574 80.274Z" fill="#CAD7E0"/>
<path d="M224.51 299.866C222.292 299.866 220.297 297.876 220.297 295.665C220.297 293.453 222.292 291.463 224.51 291.463C226.727 291.463 228.723 293.453 228.723 295.665C228.723 297.876 226.727 299.866 224.51 299.866ZM224.51 293.675C223.401 293.675 222.514 294.559 222.514 295.665C222.514 296.77 223.401 297.655 224.51 297.655C225.618 297.655 226.505 296.77 226.505 295.665C226.505 294.559 225.618 293.675 224.51 293.675Z" fill="#CAD7E0"/>
<path d="M239.144 48.8721C236.927 48.8721 234.931 46.8818 234.931 44.6704C234.931 42.459 236.927 40.4687 239.144 40.4687C241.362 40.4687 243.357 42.459 243.357 44.6704C243.357 47.1029 241.584 48.8721 239.144 48.8721ZM239.144 42.6801C238.036 42.6801 237.149 43.5647 237.149 44.6704C237.149 45.7761 238.036 46.6607 239.144 46.6607C240.253 46.6607 241.14 45.7761 241.14 44.6704C241.14 43.5647 240.253 42.6801 239.144 42.6801Z" fill="#CAD7E0"/>
<path d="M255.331 181.335C253.114 181.335 251.118 179.345 251.118 177.133C251.118 174.922 253.114 172.932 255.331 172.932C257.549 172.932 259.544 174.922 259.544 177.133C259.544 179.566 257.77 181.335 255.331 181.335ZM255.331 175.364C254.223 175.364 253.336 176.249 253.336 177.355C253.336 178.46 254.223 179.345 255.331 179.345C256.44 179.345 257.327 178.46 257.327 177.355C257.327 176.249 256.44 175.364 255.331 175.364Z" fill="#CAD7E0"/>
<path d="M283.27 104.378H281.053V116.983H283.27V104.378Z" fill="#CAD7E0"/>
<path d="M288.37 109.686H275.731V111.897H288.37V109.686Z" fill="#CAD7E0"/>
<path d="M10.3097 176.249H8.09229V188.854H10.3097V176.249Z" fill="#CAD7E0"/>
<path d="M15.4096 181.556H2.77051V183.768H15.4096V181.556Z" fill="#CAD7E0"/>
<path d="M166.636 0H164.418V12.605H166.636V0Z" fill="#CAD7E0"/>
<path d="M171.736 5.30737H159.097V7.51878H171.736V5.30737Z" fill="#CAD7E0"/>
<path d="M111.866 270.013H109.649V276.204H111.866V270.013Z" fill="#CAD7E0"/>
<path d="M114.084 272.003H107.875V274.214H114.084V272.003Z" fill="#CAD7E0"/>
</g>
<g clip-path="url(#clip1)">
<path opacity="0.4" d="M288.197 223.612C295.393 223.612 301.227 217.723 301.227 210.458C301.227 203.193 295.393 197.304 288.197 197.304C281.001 197.304 275.167 203.193 275.167 210.458C275.167 217.723 281.001 223.612 288.197 223.612Z" fill="#EFCF64"/>
<path opacity="0.4" d="M264.082 225.968C269.13 225.968 273.222 221.837 273.222 216.741C273.222 211.644 269.13 207.513 264.082 207.513C259.034 207.513 254.942 211.644 254.942 216.741C254.942 221.837 259.034 225.968 264.082 225.968Z" fill="#EFCF64"/>
<path d="M75.2985 213.35L39.9089 192.723L19.4768 228.45L54.8663 249.077L75.2985 213.35Z" fill="#F2F2F2"/>
<path d="M249.207 135.866C247.393 135.866 245.619 135.323 244.111 134.306C242.602 133.288 241.426 131.842 240.732 130.149C240.038 128.457 239.856 126.595 240.21 124.798C240.564 123.002 241.438 121.352 242.721 120.057C244.004 118.761 245.638 117.879 247.418 117.522C249.197 117.165 251.042 117.348 252.718 118.049C254.394 118.75 255.827 119.937 256.835 121.46C257.843 122.983 258.381 124.774 258.381 126.605C258.378 129.061 257.411 131.415 255.691 133.151C253.971 134.887 251.639 135.864 249.207 135.866ZM249.207 118.186C247.558 118.186 245.946 118.68 244.574 119.605C243.203 120.53 242.134 121.845 241.502 123.383C240.871 124.922 240.706 126.615 241.028 128.248C241.35 129.881 242.144 131.381 243.31 132.558C244.477 133.736 245.963 134.538 247.58 134.863C249.198 135.187 250.875 135.021 252.399 134.384C253.923 133.746 255.225 132.667 256.141 131.283C257.058 129.898 257.547 128.27 257.547 126.605C257.544 124.373 256.665 122.233 255.102 120.655C253.538 119.076 251.418 118.189 249.207 118.186Z" fill="url(#paint0_linear)"/>
<path d="M92.0048 109.346C90.1904 109.346 88.4168 108.803 86.9082 107.785C85.3996 106.768 84.2238 105.321 83.5295 103.629C82.8352 101.937 82.6535 100.075 83.0074 98.2781C83.3614 96.4816 84.2351 94.8315 85.5181 93.5363C86.801 92.2411 88.4356 91.3591 90.2151 91.0017C91.9946 90.6444 93.8391 90.8278 95.5154 91.5287C97.1916 92.2297 98.6244 93.4167 99.6324 94.9397C100.64 96.4626 101.178 98.2532 101.178 100.085C101.176 102.54 100.208 104.894 98.4885 106.63C96.7687 108.367 94.4369 109.343 92.0048 109.346ZM92.0048 91.6657C90.3554 91.6657 88.743 92.1595 87.3715 93.0846C86.0001 94.0097 84.9312 95.3246 84.3 96.863C83.6687 98.4014 83.5036 100.094 83.8254 101.727C84.1472 103.361 84.9414 104.861 86.1078 106.038C87.2741 107.216 88.7601 108.017 90.3778 108.342C91.9955 108.667 93.6724 108.5 95.1962 107.863C96.7201 107.226 98.0226 106.147 98.939 104.762C99.8553 103.378 100.344 101.75 100.344 100.085C100.342 97.8527 99.4626 95.7127 97.8991 94.1343C96.3356 92.556 94.2159 91.6682 92.0048 91.6657Z" fill="url(#paint1_linear)"/>
<path d="M55.7273 256.26C53.913 256.26 52.1393 255.717 50.6307 254.7C49.1221 253.682 47.9463 252.236 47.252 250.543C46.5577 248.851 46.376 246.989 46.73 245.193C47.084 243.396 47.9576 241.746 49.2406 240.451C50.5236 239.156 52.1581 238.274 53.9376 237.916C55.7172 237.559 57.5617 237.742 59.2379 238.443C60.9142 239.144 62.3469 240.331 63.3549 241.854C64.3629 243.377 64.901 245.168 64.901 246.999C64.8982 249.455 63.9308 251.809 62.211 253.545C60.4912 255.281 58.1595 256.258 55.7273 256.26ZM55.7273 238.58C54.0779 238.58 52.4655 239.074 51.0941 239.999C49.7226 240.924 48.6537 242.239 48.0225 243.777C47.3913 245.316 47.2261 247.009 47.5479 248.642C47.8697 250.275 48.664 251.775 49.8303 252.953C50.9966 254.13 52.4826 254.932 54.1003 255.257C55.7181 255.582 57.3949 255.415 58.9188 254.778C60.4426 254.14 61.7451 253.061 62.6615 251.677C63.5779 250.292 64.067 248.664 64.067 246.999C64.0645 244.767 63.1851 242.627 61.6216 241.049C60.0582 239.47 57.9384 238.583 55.7273 238.58Z" fill="url(#paint2_linear)"/>
<path d="M140.087 105.623C145.294 99.7204 146.658 92.3655 143.132 89.1958C139.607 86.026 132.527 88.2417 127.32 94.1447C122.112 100.048 120.749 107.403 124.274 110.572C127.8 113.742 134.879 111.526 140.087 105.623Z" fill="#2F2E41"/>
<path d="M160.598 163.87C181.094 163.87 197.71 147.096 197.71 126.404C197.71 105.713 181.094 88.9391 160.598 88.9391C140.102 88.9391 123.487 105.713 123.487 126.404C123.487 147.096 140.102 163.87 160.598 163.87Z" fill="#2F2E41"/>
<path d="M52.1466 109.892L17.6519 112.742C16.2944 112.854 15.0213 113.452 14.0627 114.429C13.1041 115.406 12.5231 116.697 12.4246 118.068L11.1366 136.012C11.0799 136.802 11.1851 137.595 11.4455 138.341C11.7059 139.088 12.116 139.773 12.6501 140.353C13.1843 140.932 13.8311 141.395 14.5501 141.711C15.2692 142.027 16.0451 142.19 16.8294 142.19H32.3762V143.032H38.631V142.19H41.9668V143.032H48.2216V142.19H51.5557C53.0189 142.19 54.4262 141.623 55.487 140.606C56.5478 139.588 57.181 138.199 57.256 136.723L58.3122 115.93C58.3538 115.11 58.2214 114.291 57.9237 113.527C57.626 112.762 57.17 112.071 56.5861 111.499C56.0023 110.928 55.3041 110.489 54.5384 110.211C53.7728 109.934 52.9573 109.825 52.1466 109.892Z" fill="#2F2E41"/>
<path d="M74.0746 166.606L25.2876 143.453L16.531 157.345C16.531 157.345 41.8993 173.694 43.2179 175.025C45.0943 176.919 65.318 190.18 73.2407 188.075C81.1633 185.97 77.4105 168.711 74.0746 166.606Z" fill="#9F616A"/>
<path d="M107.433 272.688L101.178 287H165.928L161.224 271.846L107.433 272.688Z" fill="#2F2E41"/>
<path d="M147.047 156.503C147.047 156.503 149.549 170.395 147.047 172.078C144.545 173.762 163.726 194.389 163.726 194.389L171.649 187.233L174.15 170.816C174.15 170.816 166.645 160.292 169.981 151.03C173.317 141.769 147.047 156.503 147.047 156.503Z" fill="#9F616A"/>
<path d="M154.552 160.713C169.291 160.713 181.239 148.651 181.239 133.771C181.239 118.892 169.291 106.83 154.552 106.83C139.813 106.83 127.865 118.892 127.865 133.771C127.865 148.651 139.813 160.713 154.552 160.713Z" fill="#9F616A"/>
<path d="M161.641 184.707C161.641 184.707 151.216 168.711 145.379 167.448C139.541 166.185 134.12 167.027 130.784 167.448C127.448 167.869 116.19 163.659 109.518 166.606C102.846 169.553 109.518 204.071 109.518 204.071C109.518 204.071 102.012 248.272 105.348 259.638C108.684 271.004 106.182 273.108 104.514 274.371C102.846 275.634 142.46 287 142.46 287H179.988C179.988 287 179.988 274.792 183.741 271.846C187.494 268.899 187.077 206.597 187.077 206.597L199.586 182.181C199.586 182.181 197.501 172.92 188.745 172.499C179.988 172.078 172.172 167.437 172.172 167.437L166.228 184.707H161.641Z" fill="#EFCF64"/>
<path d="M113.271 168.711L109.518 166.606C109.518 166.606 102.429 167.027 101.178 166.606C99.9275 166.185 84.0822 161.133 77.8274 164.08C71.5727 167.027 67.4028 163.238 67.4028 163.238C67.4028 163.238 87.835 180.919 62.816 186.391C62.816 186.391 63.233 188.496 69.4878 189.759C75.7425 191.022 76.9934 192.284 79.4953 194.389C81.9972 196.494 87.001 198.599 90.3369 199.441C93.6728 200.283 104.514 207.439 106.182 205.755C107.85 204.071 110.769 198.178 110.769 198.178L113.271 168.711Z" fill="#E3B943"/>
<path d="M191.664 177.551L199.586 182.181C199.586 182.181 210.011 213.332 208.343 220.91C206.675 228.487 205.007 227.224 207.509 232.275C210.011 237.327 212.513 237.748 210.845 242.378C209.177 247.009 210.011 258.375 207.509 263.005C205.007 267.636 192.915 282.369 182.49 257.533C172.065 232.696 191.664 177.551 191.664 177.551Z" fill="#E3B943"/>
<path d="M206.675 241.957C206.675 241.957 200.837 230.171 199.586 229.329C198.335 228.487 192.498 199.441 192.498 199.441C192.498 199.441 201.671 184.286 193.332 177.551C193.332 177.551 208.76 155.661 203.756 156.082C198.752 156.503 188.745 172.499 188.745 172.499C188.745 172.499 186.451 171.868 187.285 168.5C188.119 165.133 191.247 153.135 188.745 152.714C186.243 152.293 181.239 170.395 181.239 170.395C181.239 170.395 171.023 189.127 174.15 195.652C175.97 199.314 178.061 202.832 180.405 206.176L187.494 258.375C187.494 258.375 201.254 275.213 206.675 241.957Z" fill="#9F616A"/>
<path d="M49.4726 117.775C52.0058 117.775 54.0594 116.832 54.0594 115.67C54.0594 114.508 52.0058 113.565 49.4726 113.565C46.9393 113.565 44.8857 114.508 44.8857 115.67C44.8857 116.832 46.9393 117.775 49.4726 117.775Z" fill="#6C63FF"/>
<path d="M21.5347 157.345H15.697C15.697 157.345 2.77051 153.135 2.77051 143.453C2.77051 133.771 6.52335 113.986 18.1989 114.407C29.8744 114.828 19.0328 140.927 19.0328 140.927L26.1008 143.839L26.1215 152.714L21.5347 157.345Z" fill="#9F616A"/>
<path d="M150.174 128.088C163.301 128.088 173.942 122.623 173.942 115.88C173.942 109.138 163.301 103.673 150.174 103.673C137.047 103.673 126.406 109.138 126.406 115.88C126.406 122.623 137.047 128.088 150.174 128.088Z" fill="#2F2E41"/>
<path d="M182.282 135.666C183.433 135.666 184.366 133.592 184.366 131.035C184.366 128.478 183.433 126.404 182.282 126.404C181.13 126.404 180.197 128.478 180.197 131.035C180.197 133.592 181.13 135.666 182.282 135.666Z" fill="#9F616A"/>
<path d="M200.776 119.494C205.022 117.412 205.692 109.96 202.272 102.85C198.852 95.7391 192.636 91.6627 188.389 93.7446C184.143 95.8266 183.473 103.279 186.893 110.389C190.314 117.5 196.529 121.576 200.776 119.494Z" fill="#2F2E41"/>
</g>
<path d="M29.8227 292.569H276.84C280.61 292.569 283.492 289.694 283.492 285.935C283.492 282.175 280.61 279.3 276.84 279.3H29.8227C26.0531 279.3 23.1705 282.175 23.1705 285.935C23.1705 289.473 26.0531 292.569 29.8227 292.569Z" fill="#CAD7E0"/>
<defs>
<linearGradient id="paint0_linear" x1="249.207" y1="117.344" x2="249.207" y2="135.866" gradientUnits="userSpaceOnUse">
<stop stop-color="#8491F6"/>
<stop offset="1" stop-color="#50A9DF"/>
</linearGradient>
<linearGradient id="paint1_linear" x1="92.0048" y1="90.8238" x2="92.0048" y2="109.346" gradientUnits="userSpaceOnUse">
<stop stop-color="#8491F6"/>
<stop offset="1" stop-color="#50A9DF"/>
</linearGradient>
<linearGradient id="paint2_linear" x1="55.7273" y1="237.738" x2="55.7273" y2="256.26" gradientUnits="userSpaceOnUse">
<stop stop-color="#8491F6"/>
<stop offset="1" stop-color="#50A9DF"/>
</linearGradient>
<clipPath id="clip0">
<rect width="306" height="318" fill="white" transform="translate(0.331421)"/>
</clipPath>
<clipPath id="clip1">
<rect width="349" height="285" fill="white" transform="translate(2.77051 2)"/>
</clipPath>
</defs>
</svg>
