<svg width="414" height="896" viewBox="0 0 414 896" fill="none" xmlns="http://www.w3.org/2000/svg">
<rect width="414" height="896" fill="white"/>
<g clip-path="url(#clip0)">
<path d="M356.292 275.622C375.71 193.609 324.787 111.425 242.552 92.0597C160.317 72.6941 77.911 123.48 58.493 205.493C39.075 287.506 89.9982 369.689 172.233 389.055C254.468 408.42 336.874 357.635 356.292 275.622Z" fill="#DFE7ED"/>
<path d="M110.653 110.161C106.884 110.161 103.779 107.065 103.779 103.306C103.779 99.5466 106.884 96.4506 110.653 96.4506C114.423 96.4506 117.527 99.5466 117.527 103.306C117.749 107.065 114.644 110.161 110.653 110.161ZM110.653 98.662C107.992 98.662 105.997 100.873 105.997 103.306C105.997 105.96 108.214 107.95 110.653 107.95C113.314 107.95 115.31 105.739 115.31 103.306C115.531 100.652 113.314 98.662 110.653 98.662Z" fill="#CAD7E0"/>
<path d="M94.6879 359.829C90.9183 359.829 87.814 356.733 87.814 352.974C87.814 349.214 90.9183 346.118 94.6879 346.118C98.4574 346.118 101.562 349.214 101.562 352.974C101.562 356.733 98.4574 359.829 94.6879 359.829ZM94.6879 348.108C92.027 348.108 90.0314 350.32 90.0314 352.752C90.0314 355.406 92.2487 357.396 94.6879 357.396C97.3488 357.396 99.3444 355.185 99.3444 352.752C99.3444 350.32 97.127 348.108 94.6879 348.108Z" fill="#CAD7E0"/>
<path d="M78.0574 161.466C75.84 161.466 73.8444 159.476 73.8444 157.264C73.8444 155.053 75.84 153.063 78.0574 153.063C80.2748 153.063 82.2704 155.053 82.2704 157.264C82.2704 159.476 80.2748 161.466 78.0574 161.466ZM78.0574 155.274C76.9487 155.274 76.0618 156.159 76.0618 157.264C76.0618 158.37 76.9487 159.255 78.0574 159.255C79.1661 159.255 80.0531 158.37 80.0531 157.264C80.0531 156.159 79.1661 155.274 78.0574 155.274Z" fill="#CAD7E0"/>
<path d="M278.51 374.866C276.292 374.866 274.297 372.876 274.297 370.665C274.297 368.453 276.292 366.463 278.51 366.463C280.727 366.463 282.723 368.453 282.723 370.665C282.723 372.876 280.727 374.866 278.51 374.866ZM278.51 368.675C277.401 368.675 276.514 369.559 276.514 370.665C276.514 371.77 277.401 372.655 278.51 372.655C279.618 372.655 280.505 371.77 280.505 370.665C280.505 369.559 279.618 368.675 278.51 368.675Z" fill="#CAD7E0"/>
<path d="M293.144 123.872C290.927 123.872 288.931 121.882 288.931 119.67C288.931 117.459 290.927 115.469 293.144 115.469C295.362 115.469 297.357 117.459 297.357 119.67C297.357 122.103 295.584 123.872 293.144 123.872ZM293.144 117.68C292.036 117.68 291.149 118.565 291.149 119.67C291.149 120.776 292.036 121.661 293.144 121.661C294.253 121.661 295.14 120.776 295.14 119.67C295.14 118.565 294.253 117.68 293.144 117.68Z" fill="#CAD7E0"/>
<path d="M309.331 256.335C307.114 256.335 305.118 254.345 305.118 252.133C305.118 249.922 307.114 247.932 309.331 247.932C311.549 247.932 313.544 249.922 313.544 252.133C313.544 254.566 311.77 256.335 309.331 256.335ZM309.331 250.364C308.223 250.364 307.336 251.249 307.336 252.355C307.336 253.46 308.223 254.345 309.331 254.345C310.44 254.345 311.327 253.46 311.327 252.355C311.327 251.249 310.44 250.364 309.331 250.364Z" fill="#CAD7E0"/>
<path d="M337.27 179.378H335.053V191.983H337.27V179.378Z" fill="#CAD7E0"/>
<path d="M342.37 184.686H329.731V186.897H342.37V184.686Z" fill="#CAD7E0"/>
<path d="M64.3097 251.249H62.0923V263.854H64.3097V251.249Z" fill="#CAD7E0"/>
<path d="M69.4096 256.556H56.7705V258.768H69.4096V256.556Z" fill="#CAD7E0"/>
<path d="M220.636 75H218.418V87.605H220.636V75Z" fill="#CAD7E0"/>
<path d="M225.736 80.3074H213.097V82.5188H225.736V80.3074Z" fill="#CAD7E0"/>
<path d="M165.866 345.013H163.649V351.204H165.866V345.013Z" fill="#CAD7E0"/>
<path d="M168.084 347.003H161.875V349.214H168.084V347.003Z" fill="#CAD7E0"/>
</g>
<g clip-path="url(#clip1)">
<path opacity="0.4" d="M342.197 298.612C349.393 298.612 355.227 292.723 355.227 285.458C355.227 278.193 349.393 272.304 342.197 272.304C335.001 272.304 329.167 278.193 329.167 285.458C329.167 292.723 335.001 298.612 342.197 298.612Z" fill="#EFCF64"/>
<path opacity="0.4" d="M318.082 300.968C323.13 300.968 327.222 296.837 327.222 291.741C327.222 286.644 323.13 282.513 318.082 282.513C313.034 282.513 308.942 286.644 308.942 291.741C308.942 296.837 313.034 300.968 318.082 300.968Z" fill="#EFCF64"/>
<path d="M129.298 288.35L93.9089 267.723L73.4768 303.45L108.866 324.077L129.298 288.35Z" fill="#F2F2F2"/>
<path d="M303.207 210.866C301.393 210.866 299.619 210.323 298.111 209.306C296.602 208.288 295.426 206.842 294.732 205.149C294.038 203.457 293.856 201.595 294.21 199.798C294.564 198.002 295.438 196.352 296.721 195.057C298.004 193.761 299.638 192.879 301.418 192.522C303.197 192.165 305.042 192.348 306.718 193.049C308.394 193.75 309.827 194.937 310.835 196.46C311.843 197.983 312.381 199.774 312.381 201.605C312.378 204.061 311.411 206.415 309.691 208.151C307.971 209.887 305.639 210.864 303.207 210.866ZM303.207 193.186C301.558 193.186 299.946 193.68 298.574 194.605C297.203 195.53 296.134 196.845 295.502 198.383C294.871 199.922 294.706 201.615 295.028 203.248C295.35 204.881 296.144 206.381 297.31 207.558C298.477 208.736 299.963 209.538 301.58 209.863C303.198 210.187 304.875 210.021 306.399 209.384C307.923 208.746 309.225 207.667 310.141 206.283C311.058 204.898 311.547 203.27 311.547 201.605C311.544 199.373 310.665 197.233 309.102 195.655C307.538 194.076 305.418 193.189 303.207 193.186Z" fill="url(#paint0_linear)"/>
<path d="M146.005 184.346C144.19 184.346 142.417 183.803 140.908 182.785C139.4 181.768 138.224 180.321 137.529 178.629C136.835 176.937 136.653 175.075 137.007 173.278C137.361 171.482 138.235 169.831 139.518 168.536C140.801 167.241 142.436 166.359 144.215 166.002C145.995 165.644 147.839 165.828 149.515 166.529C151.192 167.23 152.624 168.417 153.632 169.94C154.64 171.463 155.178 173.253 155.178 175.085C155.176 177.54 154.208 179.894 152.488 181.63C150.769 183.367 148.437 184.343 146.005 184.346ZM146.005 166.666C144.355 166.666 142.743 167.159 141.372 168.085C140 169.01 138.931 170.325 138.3 171.863C137.669 173.401 137.504 175.094 137.825 176.727C138.147 178.361 138.941 179.861 140.108 181.038C141.274 182.216 142.76 183.017 144.378 183.342C145.996 183.667 147.672 183.5 149.196 182.863C150.72 182.226 152.023 181.147 152.939 179.762C153.855 178.378 154.344 176.75 154.344 175.085C154.342 172.853 153.463 170.713 151.899 169.134C150.336 167.556 148.216 166.668 146.005 166.666Z" fill="url(#paint1_linear)"/>
<path d="M109.727 331.26C107.913 331.26 106.139 330.717 104.631 329.7C103.122 328.682 101.946 327.236 101.252 325.543C100.558 323.851 100.376 321.989 100.73 320.193C101.084 318.396 101.958 316.746 103.241 315.451C104.524 314.156 106.158 313.274 107.938 312.916C109.717 312.559 111.562 312.742 113.238 313.443C114.914 314.144 116.347 315.331 117.355 316.854C118.363 318.377 118.901 320.168 118.901 321.999C118.898 324.455 117.931 326.809 116.211 328.545C114.491 330.281 112.159 331.258 109.727 331.26ZM109.727 313.58C108.078 313.58 106.466 314.074 105.094 314.999C103.723 315.924 102.654 317.239 102.022 318.777C101.391 320.316 101.226 322.009 101.548 323.642C101.87 325.275 102.664 326.775 103.83 327.953C104.997 329.13 106.483 329.932 108.1 330.257C109.718 330.582 111.395 330.415 112.919 329.778C114.443 329.14 115.745 328.061 116.662 326.677C117.578 325.292 118.067 323.664 118.067 321.999C118.065 319.767 117.185 317.627 115.622 316.049C114.058 314.47 111.938 313.583 109.727 313.58Z" fill="url(#paint2_linear)"/>
<path d="M194.087 180.623C199.294 174.72 200.658 167.366 197.132 164.196C193.607 161.026 186.527 163.242 181.32 169.145C176.112 175.048 174.749 182.403 178.274 185.572C181.8 188.742 188.879 186.526 194.087 180.623Z" fill="#2F2E41"/>
<path d="M214.598 238.87C235.094 238.87 251.71 222.096 251.71 201.404C251.71 180.713 235.094 163.939 214.598 163.939C194.102 163.939 177.487 180.713 177.487 201.404C177.487 222.096 194.102 238.87 214.598 238.87Z" fill="#2F2E41"/>
<path d="M106.147 184.892L71.6519 187.742C70.2944 187.854 69.0213 188.452 68.0627 189.429C67.1041 190.406 66.5231 191.697 66.4246 193.068L65.1366 211.012C65.0799 211.802 65.1851 212.595 65.4455 213.341C65.7059 214.088 66.116 214.773 66.6501 215.353C67.1843 215.932 67.8311 216.395 68.5501 216.711C69.2692 217.027 70.0451 217.19 70.8294 217.19H86.3762V218.032H92.631V217.19H95.9668V218.032H102.222V217.19H105.556C107.019 217.19 108.426 216.623 109.487 215.606C110.548 214.588 111.181 213.199 111.256 211.723L112.312 190.93C112.354 190.11 112.221 189.291 111.924 188.527C111.626 187.762 111.17 187.071 110.586 186.499C110.002 185.928 109.304 185.489 108.538 185.211C107.773 184.934 106.957 184.825 106.147 184.892Z" fill="#2F2E41"/>
<path d="M128.075 241.606L79.2876 218.453L70.531 232.345C70.531 232.345 95.8993 248.694 97.2179 250.025C99.0943 251.919 119.318 265.18 127.241 263.075C135.163 260.97 131.41 243.711 128.075 241.606Z" fill="#9F616A"/>
<path d="M161.433 347.688L155.178 362H219.928L215.224 346.846L161.433 347.688Z" fill="#2F2E41"/>
<path d="M201.047 231.503C201.047 231.503 203.549 245.395 201.047 247.078C198.545 248.762 217.726 269.389 217.726 269.389L225.649 262.233L228.15 245.816C228.15 245.816 220.645 235.292 223.981 226.03C227.317 216.769 201.047 231.503 201.047 231.503Z" fill="#9F616A"/>
<path d="M208.552 235.713C223.291 235.713 235.239 223.651 235.239 208.771C235.239 193.892 223.291 181.83 208.552 181.83C193.813 181.83 181.865 193.892 181.865 208.771C181.865 223.651 193.813 235.713 208.552 235.713Z" fill="#9F616A"/>
<path d="M215.641 259.707C215.641 259.707 205.216 243.711 199.379 242.448C193.541 241.185 188.12 242.027 184.784 242.448C181.448 242.869 170.19 238.659 163.518 241.606C156.846 244.553 163.518 279.071 163.518 279.071C163.518 279.071 156.012 323.272 159.348 334.638C162.684 346.004 160.182 348.108 158.514 349.371C156.846 350.634 196.46 362 196.46 362H233.988C233.988 362 233.988 349.792 237.741 346.846C241.494 343.899 241.077 281.597 241.077 281.597L253.586 257.181C253.586 257.181 251.501 247.92 242.745 247.499C233.988 247.078 226.172 242.437 226.172 242.437L220.228 259.707H215.641Z" fill="#EFCF64"/>
<path d="M167.271 243.711L163.518 241.606C163.518 241.606 156.429 242.027 155.178 241.606C153.927 241.185 138.082 236.133 131.827 239.08C125.573 242.027 121.403 238.238 121.403 238.238C121.403 238.238 141.835 255.919 116.816 261.391C116.816 261.391 117.233 263.496 123.488 264.759C129.743 266.022 130.993 267.284 133.495 269.389C135.997 271.494 141.001 273.599 144.337 274.441C147.673 275.283 158.514 282.439 160.182 280.755C161.85 279.071 164.769 273.178 164.769 273.178L167.271 243.711Z" fill="#E3B943"/>
<path d="M245.664 252.551L253.586 257.181C253.586 257.181 264.011 288.332 262.343 295.91C260.675 303.487 259.007 302.224 261.509 307.275C264.011 312.327 266.513 312.748 264.845 317.378C263.177 322.009 264.011 333.375 261.509 338.005C259.007 342.636 246.915 357.369 236.49 332.533C226.065 307.696 245.664 252.551 245.664 252.551Z" fill="#E3B943"/>
<path d="M260.675 316.957C260.675 316.957 254.837 305.171 253.586 304.329C252.335 303.487 246.498 274.441 246.498 274.441C246.498 274.441 255.671 259.286 247.332 252.551C247.332 252.551 262.76 230.661 257.756 231.082C252.752 231.503 242.745 247.499 242.745 247.499C242.745 247.499 240.451 246.868 241.285 243.5C242.119 240.133 245.247 228.135 242.745 227.714C240.243 227.293 235.239 245.395 235.239 245.395C235.239 245.395 225.023 264.127 228.15 270.652C229.97 274.314 232.061 277.832 234.405 281.176L241.494 333.375C241.494 333.375 255.254 350.213 260.675 316.957Z" fill="#9F616A"/>
<path d="M103.473 192.775C106.006 192.775 108.059 191.832 108.059 190.67C108.059 189.508 106.006 188.565 103.473 188.565C100.939 188.565 98.8857 189.508 98.8857 190.67C98.8857 191.832 100.939 192.775 103.473 192.775Z" fill="#6C63FF"/>
<path d="M75.5347 232.345H69.697C69.697 232.345 56.7705 228.135 56.7705 218.453C56.7705 208.771 60.5234 188.986 72.1989 189.407C83.8744 189.828 73.0328 215.927 73.0328 215.927L80.1008 218.839L80.1215 227.714L75.5347 232.345Z" fill="#9F616A"/>
<path d="M204.174 203.088C217.301 203.088 227.942 197.623 227.942 190.88C227.942 184.138 217.301 178.673 204.174 178.673C191.047 178.673 180.406 184.138 180.406 190.88C180.406 197.623 191.047 203.088 204.174 203.088Z" fill="#2F2E41"/>
<path d="M236.282 210.666C237.433 210.666 238.366 208.592 238.366 206.035C238.366 203.478 237.433 201.404 236.282 201.404C235.13 201.404 234.197 203.478 234.197 206.035C234.197 208.592 235.13 210.666 236.282 210.666Z" fill="#9F616A"/>
<path d="M254.776 194.494C259.022 192.412 259.692 184.96 256.272 177.85C252.852 170.739 246.636 166.663 242.389 168.745C238.143 170.827 237.473 178.279 240.893 185.389C244.314 192.5 250.529 196.576 254.776 194.494Z" fill="#2F2E41"/>
</g>
<path d="M83.8227 367.569H330.84C334.61 367.569 337.492 364.694 337.492 360.935C337.492 357.175 334.61 354.3 330.84 354.3H83.8227C80.0531 354.3 77.1705 357.175 77.1705 360.935C77.1705 364.473 80.0531 367.569 83.8227 367.569Z" fill="#CAD7E0"/>
<path d="M79.8789 506.234H77.2402L67.2188 490.894V506.234H64.5801V486.327H67.2188L77.2676 501.736V486.327H79.8789V506.234ZM83.4746 498.7C83.4746 497.251 83.7572 495.948 84.3223 494.79C84.8965 493.633 85.6895 492.74 86.7012 492.111C87.722 491.482 88.8841 491.167 90.1875 491.167C92.2018 491.167 93.8288 491.865 95.0684 493.259C96.3171 494.654 96.9414 496.508 96.9414 498.823V499.001C96.9414 500.441 96.6634 501.736 96.1074 502.884C95.5605 504.023 94.7721 504.912 93.7422 505.55C92.7214 506.188 91.5456 506.507 90.2148 506.507C88.2096 506.507 86.5827 505.81 85.334 504.415C84.0944 503.021 83.4746 501.175 83.4746 498.878V498.7ZM86.0176 499.001C86.0176 500.642 86.3958 501.959 87.1523 502.952C87.918 503.946 88.9388 504.443 90.2148 504.443C91.5 504.443 92.5208 503.941 93.2773 502.939C94.0339 501.927 94.4121 500.514 94.4121 498.7C94.4121 497.078 94.0247 495.766 93.25 494.763C92.4844 493.751 91.4635 493.245 90.1875 493.245C88.9388 493.245 87.9316 493.742 87.166 494.736C86.4004 495.729 86.0176 497.151 86.0176 499.001ZM109.451 491.441L109.533 493.3C110.663 491.878 112.14 491.167 113.963 491.167C117.089 491.167 118.666 492.931 118.693 496.458V506.234H116.164V496.445C116.155 495.378 115.909 494.59 115.426 494.079C114.952 493.569 114.209 493.314 113.197 493.314C112.377 493.314 111.657 493.532 111.037 493.97C110.417 494.407 109.934 494.982 109.588 495.693V506.234H107.059V491.441H109.451ZM128.646 506.507C126.641 506.507 125.01 505.851 123.752 504.538C122.494 503.217 121.865 501.453 121.865 499.247V498.782C121.865 497.315 122.143 496.007 122.699 494.859C123.264 493.701 124.048 492.799 125.051 492.152C126.062 491.495 127.156 491.167 128.332 491.167C130.255 491.167 131.75 491.801 132.816 493.068C133.883 494.335 134.416 496.148 134.416 498.509V499.562H124.395C124.431 501.02 124.855 502.2 125.666 503.103C126.486 503.996 127.525 504.443 128.783 504.443C129.676 504.443 130.433 504.26 131.053 503.896C131.673 503.531 132.215 503.048 132.68 502.447L134.225 503.65C132.985 505.555 131.126 506.507 128.646 506.507ZM128.332 493.245C127.311 493.245 126.454 493.619 125.762 494.366C125.069 495.105 124.641 496.144 124.477 497.484H131.887V497.292C131.814 496.007 131.467 495.014 130.848 494.312C130.228 493.601 129.389 493.245 128.332 493.245ZM143.494 506.507C141.489 506.507 139.857 505.851 138.6 504.538C137.342 503.217 136.713 501.453 136.713 499.247V498.782C136.713 497.315 136.991 496.007 137.547 494.859C138.112 493.701 138.896 492.799 139.898 492.152C140.91 491.495 142.004 491.167 143.18 491.167C145.103 491.167 146.598 491.801 147.664 493.068C148.73 494.335 149.264 496.148 149.264 498.509V499.562H139.242C139.279 501.02 139.702 502.2 140.514 503.103C141.334 503.996 142.373 504.443 143.631 504.443C144.524 504.443 145.281 504.26 145.9 503.896C146.52 503.531 147.062 503.048 147.527 502.447L149.072 503.65C147.833 505.555 145.973 506.507 143.494 506.507ZM143.18 493.245C142.159 493.245 141.302 493.619 140.609 494.366C139.917 495.105 139.488 496.144 139.324 497.484H146.734V497.292C146.661 496.007 146.315 495.014 145.695 494.312C145.076 493.601 144.237 493.245 143.18 493.245ZM151.588 498.714C151.588 496.445 152.126 494.622 153.201 493.245C154.277 491.86 155.685 491.167 157.426 491.167C159.158 491.167 160.529 491.76 161.541 492.945V485.234H164.07V506.234H161.746L161.623 504.648C160.611 505.887 159.203 506.507 157.398 506.507C155.685 506.507 154.286 505.805 153.201 504.402C152.126 502.998 151.588 501.166 151.588 498.906V498.714ZM154.117 499.001C154.117 500.678 154.464 501.991 155.156 502.939C155.849 503.887 156.806 504.361 158.027 504.361C159.632 504.361 160.803 503.641 161.541 502.2V495.406C160.785 494.011 159.622 493.314 158.055 493.314C156.815 493.314 155.849 493.792 155.156 494.749C154.464 495.706 154.117 497.124 154.117 499.001ZM178.385 487.859V491.441H181.146V493.396H178.385V502.57C178.385 503.162 178.508 503.609 178.754 503.909C179 504.201 179.419 504.347 180.012 504.347C180.303 504.347 180.704 504.292 181.215 504.183V506.234C180.549 506.416 179.902 506.507 179.273 506.507C178.143 506.507 177.291 506.165 176.717 505.482C176.143 504.798 175.855 503.827 175.855 502.57V493.396H173.162V491.441H175.855V487.859H178.385ZM183.17 498.7C183.17 497.251 183.452 495.948 184.018 494.79C184.592 493.633 185.385 492.74 186.396 492.111C187.417 491.482 188.579 491.167 189.883 491.167C191.897 491.167 193.524 491.865 194.764 493.259C196.012 494.654 196.637 496.508 196.637 498.823V499.001C196.637 500.441 196.359 501.736 195.803 502.884C195.256 504.023 194.467 504.912 193.438 505.55C192.417 506.188 191.241 506.507 189.91 506.507C187.905 506.507 186.278 505.81 185.029 504.415C183.79 503.021 183.17 501.175 183.17 498.878V498.7ZM185.713 499.001C185.713 500.642 186.091 501.959 186.848 502.952C187.613 503.946 188.634 504.443 189.91 504.443C191.195 504.443 192.216 503.941 192.973 502.939C193.729 501.927 194.107 500.514 194.107 498.7C194.107 497.078 193.72 495.766 192.945 494.763C192.18 493.751 191.159 493.245 189.883 493.245C188.634 493.245 187.627 493.742 186.861 494.736C186.096 495.729 185.713 497.151 185.713 499.001ZM215.887 506.234C215.741 505.942 215.622 505.422 215.531 504.675C214.355 505.896 212.952 506.507 211.32 506.507C209.862 506.507 208.663 506.097 207.725 505.277C206.795 504.447 206.33 503.399 206.33 502.132C206.33 500.592 206.913 499.398 208.08 498.55C209.256 497.693 210.906 497.265 213.029 497.265H215.49V496.103C215.49 495.219 215.226 494.517 214.697 493.997C214.169 493.469 213.389 493.204 212.359 493.204C211.457 493.204 210.701 493.432 210.09 493.888C209.479 494.344 209.174 494.895 209.174 495.542H206.631C206.631 494.804 206.891 494.093 207.41 493.409C207.939 492.717 208.65 492.17 209.543 491.769C210.445 491.368 211.434 491.167 212.51 491.167C214.214 491.167 215.549 491.596 216.516 492.452C217.482 493.3 217.983 494.471 218.02 495.966V502.775C218.02 504.133 218.193 505.213 218.539 506.015V506.234H215.887ZM211.689 504.306C212.482 504.306 213.234 504.101 213.945 503.691C214.656 503.281 215.171 502.747 215.49 502.091V499.056H213.508C210.409 499.056 208.859 499.963 208.859 501.777C208.859 502.57 209.124 503.189 209.652 503.636C210.181 504.083 210.86 504.306 211.689 504.306ZM230.598 502.31C230.598 501.626 230.338 501.098 229.818 500.724C229.308 500.341 228.41 500.013 227.125 499.74C225.849 499.466 224.833 499.138 224.076 498.755C223.329 498.372 222.773 497.917 222.408 497.388C222.053 496.859 221.875 496.23 221.875 495.501C221.875 494.289 222.385 493.264 223.406 492.425C224.436 491.587 225.749 491.167 227.344 491.167C229.021 491.167 230.379 491.6 231.418 492.466C232.466 493.332 232.99 494.439 232.99 495.788H230.447C230.447 495.096 230.151 494.499 229.559 493.997C228.975 493.496 228.237 493.245 227.344 493.245C226.423 493.245 225.703 493.446 225.184 493.847C224.664 494.248 224.404 494.772 224.404 495.419C224.404 496.03 224.646 496.49 225.129 496.8C225.612 497.11 226.482 497.406 227.74 497.689C229.007 497.971 230.033 498.309 230.816 498.7C231.6 499.092 232.179 499.566 232.553 500.122C232.936 500.669 233.127 501.339 233.127 502.132C233.127 503.454 232.598 504.516 231.541 505.318C230.484 506.111 229.112 506.507 227.426 506.507C226.241 506.507 225.193 506.297 224.281 505.878C223.37 505.459 222.654 504.876 222.135 504.128C221.624 503.372 221.369 502.556 221.369 501.681H223.898C223.944 502.529 224.281 503.203 224.91 503.704C225.548 504.197 226.387 504.443 227.426 504.443C228.383 504.443 229.148 504.251 229.723 503.868C230.306 503.476 230.598 502.957 230.598 502.31ZM240.551 499.384L238.965 501.038V506.234H236.436V485.234H238.965V497.935L240.318 496.308L244.926 491.441H248.002L242.246 497.62L248.672 506.234H245.705L240.551 499.384ZM258.803 506.234V493.396H256.465V491.441H258.803V489.923C258.803 488.337 259.227 487.111 260.074 486.245C260.922 485.379 262.12 484.947 263.67 484.947C264.253 484.947 264.832 485.024 265.406 485.179L265.27 487.23C264.841 487.148 264.385 487.107 263.902 487.107C263.082 487.107 262.449 487.348 262.002 487.831C261.555 488.305 261.332 488.989 261.332 489.882V491.441H264.49V493.396H261.332V506.234H258.803ZM266.623 498.7C266.623 497.251 266.906 495.948 267.471 494.79C268.045 493.633 268.838 492.74 269.85 492.111C270.87 491.482 272.033 491.167 273.336 491.167C275.35 491.167 276.977 491.865 278.217 493.259C279.465 494.654 280.09 496.508 280.09 498.823V499.001C280.09 500.441 279.812 501.736 279.256 502.884C278.709 504.023 277.921 504.912 276.891 505.55C275.87 506.188 274.694 506.507 273.363 506.507C271.358 506.507 269.731 505.81 268.482 504.415C267.243 503.021 266.623 501.175 266.623 498.878V498.7ZM269.166 499.001C269.166 500.642 269.544 501.959 270.301 502.952C271.066 503.946 272.087 504.443 273.363 504.443C274.648 504.443 275.669 503.941 276.426 502.939C277.182 501.927 277.561 500.514 277.561 498.7C277.561 497.078 277.173 495.766 276.398 494.763C275.633 493.751 274.612 493.245 273.336 493.245C272.087 493.245 271.08 493.742 270.314 494.736C269.549 495.729 269.166 497.151 269.166 499.001ZM290.412 493.71C290.029 493.646 289.615 493.615 289.168 493.615C287.509 493.615 286.383 494.321 285.791 495.734V506.234H283.262V491.441H285.723L285.764 493.15C286.593 491.828 287.769 491.167 289.291 491.167C289.783 491.167 290.157 491.231 290.412 491.359V493.71ZM304.535 502.529L307.98 491.441H310.688L304.74 508.517C303.82 510.978 302.357 512.208 300.352 512.208L299.873 512.167L298.93 511.99V509.939L299.613 509.993C300.47 509.993 301.135 509.82 301.609 509.474C302.092 509.128 302.489 508.494 302.799 507.573L303.359 506.07L298.082 491.441H300.844L304.535 502.529ZM312.068 498.7C312.068 497.251 312.351 495.948 312.916 494.79C313.49 493.633 314.283 492.74 315.295 492.111C316.316 491.482 317.478 491.167 318.781 491.167C320.796 491.167 322.423 491.865 323.662 493.259C324.911 494.654 325.535 496.508 325.535 498.823V499.001C325.535 500.441 325.257 501.736 324.701 502.884C324.154 504.023 323.366 504.912 322.336 505.55C321.315 506.188 320.139 506.507 318.809 506.507C316.803 506.507 315.176 505.81 313.928 504.415C312.688 503.021 312.068 501.175 312.068 498.878V498.7ZM314.611 499.001C314.611 500.642 314.99 501.959 315.746 502.952C316.512 503.946 317.533 504.443 318.809 504.443C320.094 504.443 321.115 503.941 321.871 502.939C322.628 501.927 323.006 500.514 323.006 498.7C323.006 497.078 322.618 495.766 321.844 494.763C321.078 493.751 320.057 493.245 318.781 493.245C317.533 493.245 316.525 493.742 315.76 494.736C314.994 495.729 314.611 497.151 314.611 499.001ZM337.84 504.771C336.855 505.928 335.411 506.507 333.506 506.507C331.929 506.507 330.726 506.051 329.896 505.14C329.076 504.219 328.661 502.861 328.652 501.066V491.441H331.182V500.997C331.182 503.24 332.093 504.361 333.916 504.361C335.848 504.361 337.133 503.641 337.771 502.2V491.441H340.301V506.234H337.895L337.84 504.771ZM351.307 493.71C350.924 493.646 350.509 493.615 350.062 493.615C348.404 493.615 347.278 494.321 346.686 495.734V506.234H344.156V491.441H346.617L346.658 493.15C347.488 491.828 348.663 491.167 350.186 491.167C350.678 491.167 351.051 491.231 351.307 491.359V493.71ZM110.053 541.001C110.053 543.253 109.538 545.066 108.508 546.443C107.478 547.819 106.083 548.507 104.324 548.507C102.529 548.507 101.116 547.937 100.086 546.798V553.921H97.5566V533.441H99.8672L99.9902 535.081C101.02 533.805 102.451 533.167 104.283 533.167C106.061 533.167 107.464 533.837 108.494 535.177C109.533 536.517 110.053 538.381 110.053 540.769V541.001ZM107.523 540.714C107.523 539.046 107.168 537.729 106.457 536.763C105.746 535.797 104.771 535.314 103.531 535.314C102 535.314 100.852 535.993 100.086 537.351V544.419C100.842 545.768 102 546.443 103.559 546.443C104.771 546.443 105.732 545.964 106.443 545.007C107.163 544.041 107.523 542.61 107.523 540.714ZM116.027 548.234H113.498V533.441H116.027V548.234ZM113.293 529.517C113.293 529.107 113.416 528.76 113.662 528.478C113.917 528.195 114.291 528.054 114.783 528.054C115.275 528.054 115.649 528.195 115.904 528.478C116.16 528.76 116.287 529.107 116.287 529.517C116.287 529.927 116.16 530.269 115.904 530.542C115.649 530.816 115.275 530.952 114.783 530.952C114.291 530.952 113.917 530.816 113.662 530.542C113.416 530.269 113.293 529.927 113.293 529.517ZM126.021 546.443C126.924 546.443 127.712 546.169 128.387 545.622C129.061 545.075 129.435 544.392 129.508 543.572H131.9C131.855 544.419 131.563 545.226 131.025 545.991C130.488 546.757 129.768 547.368 128.865 547.823C127.972 548.279 127.024 548.507 126.021 548.507C124.007 548.507 122.403 547.837 121.209 546.497C120.024 545.148 119.432 543.307 119.432 540.974V540.55C119.432 539.11 119.696 537.829 120.225 536.708C120.753 535.587 121.51 534.717 122.494 534.097C123.488 533.477 124.659 533.167 126.008 533.167C127.667 533.167 129.043 533.664 130.137 534.657C131.24 535.651 131.827 536.941 131.9 538.527H129.508C129.435 537.57 129.07 536.786 128.414 536.175C127.767 535.555 126.965 535.245 126.008 535.245C124.723 535.245 123.725 535.71 123.014 536.64C122.312 537.56 121.961 538.896 121.961 540.646V541.124C121.961 542.829 122.312 544.141 123.014 545.062C123.715 545.982 124.718 546.443 126.021 546.443ZM138.176 529.859V533.441H140.938V535.396H138.176V544.57C138.176 545.162 138.299 545.609 138.545 545.909C138.791 546.201 139.21 546.347 139.803 546.347C140.094 546.347 140.495 546.292 141.006 546.183V548.234C140.34 548.416 139.693 548.507 139.064 548.507C137.934 548.507 137.082 548.165 136.508 547.482C135.934 546.798 135.646 545.827 135.646 544.57V535.396H132.953V533.441H135.646V529.859H138.176ZM153.037 546.771C152.053 547.928 150.608 548.507 148.703 548.507C147.126 548.507 145.923 548.051 145.094 547.14C144.273 546.219 143.859 544.861 143.85 543.066V533.441H146.379V542.997C146.379 545.24 147.29 546.361 149.113 546.361C151.046 546.361 152.331 545.641 152.969 544.2V533.441H155.498V548.234H153.092L153.037 546.771ZM166.504 535.71C166.121 535.646 165.706 535.615 165.26 535.615C163.601 535.615 162.475 536.321 161.883 537.734V548.234H159.354V533.441H161.814L161.855 535.15C162.685 533.828 163.861 533.167 165.383 533.167C165.875 533.167 166.249 533.231 166.504 533.359V535.71ZM174.707 548.507C172.702 548.507 171.07 547.851 169.812 546.538C168.555 545.217 167.926 543.453 167.926 541.247V540.782C167.926 539.315 168.204 538.007 168.76 536.859C169.325 535.701 170.109 534.799 171.111 534.152C172.123 533.495 173.217 533.167 174.393 533.167C176.316 533.167 177.811 533.801 178.877 535.068C179.943 536.335 180.477 538.148 180.477 540.509V541.562H170.455C170.492 543.02 170.915 544.2 171.727 545.103C172.547 545.996 173.586 546.443 174.844 546.443C175.737 546.443 176.493 546.26 177.113 545.896C177.733 545.531 178.275 545.048 178.74 544.447L180.285 545.65C179.046 547.555 177.186 548.507 174.707 548.507ZM174.393 535.245C173.372 535.245 172.515 535.619 171.822 536.366C171.13 537.105 170.701 538.144 170.537 539.484H177.947V539.292C177.874 538.007 177.528 537.014 176.908 536.312C176.288 535.601 175.45 535.245 174.393 535.245ZM192.029 544.31C192.029 543.626 191.77 543.098 191.25 542.724C190.74 542.341 189.842 542.013 188.557 541.74C187.281 541.466 186.264 541.138 185.508 540.755C184.76 540.372 184.204 539.917 183.84 539.388C183.484 538.859 183.307 538.23 183.307 537.501C183.307 536.289 183.817 535.264 184.838 534.425C185.868 533.587 187.18 533.167 188.775 533.167C190.452 533.167 191.811 533.6 192.85 534.466C193.898 535.332 194.422 536.439 194.422 537.788H191.879C191.879 537.096 191.583 536.499 190.99 535.997C190.407 535.496 189.669 535.245 188.775 535.245C187.855 535.245 187.135 535.446 186.615 535.847C186.096 536.248 185.836 536.772 185.836 537.419C185.836 538.03 186.077 538.49 186.561 538.8C187.044 539.11 187.914 539.406 189.172 539.689C190.439 539.971 191.464 540.309 192.248 540.7C193.032 541.092 193.611 541.566 193.984 542.122C194.367 542.669 194.559 543.339 194.559 544.132C194.559 545.454 194.03 546.516 192.973 547.318C191.915 548.111 190.544 548.507 188.857 548.507C187.673 548.507 186.624 548.297 185.713 547.878C184.801 547.459 184.086 546.876 183.566 546.128C183.056 545.372 182.801 544.556 182.801 543.681H185.33C185.376 544.529 185.713 545.203 186.342 545.704C186.98 546.197 187.818 546.443 188.857 546.443C189.814 546.443 190.58 546.251 191.154 545.868C191.738 545.476 192.029 544.957 192.029 544.31ZM213.932 548.234C213.786 547.942 213.667 547.422 213.576 546.675C212.4 547.896 210.997 548.507 209.365 548.507C207.907 548.507 206.708 548.097 205.77 547.277C204.84 546.447 204.375 545.399 204.375 544.132C204.375 542.592 204.958 541.398 206.125 540.55C207.301 539.693 208.951 539.265 211.074 539.265H213.535V538.103C213.535 537.219 213.271 536.517 212.742 535.997C212.214 535.469 211.434 535.204 210.404 535.204C209.502 535.204 208.745 535.432 208.135 535.888C207.524 536.344 207.219 536.895 207.219 537.542H204.676C204.676 536.804 204.936 536.093 205.455 535.409C205.984 534.717 206.695 534.17 207.588 533.769C208.49 533.368 209.479 533.167 210.555 533.167C212.259 533.167 213.594 533.596 214.561 534.452C215.527 535.3 216.028 536.471 216.064 537.966V544.775C216.064 546.133 216.238 547.213 216.584 548.015V548.234H213.932ZM209.734 546.306C210.527 546.306 211.279 546.101 211.99 545.691C212.701 545.281 213.216 544.747 213.535 544.091V541.056H211.553C208.454 541.056 206.904 541.963 206.904 543.777C206.904 544.57 207.169 545.189 207.697 545.636C208.226 546.083 208.905 546.306 209.734 546.306ZM222.422 533.441L222.504 535.3C223.634 533.878 225.111 533.167 226.934 533.167C230.06 533.167 231.637 534.931 231.664 538.458V548.234H229.135V538.445C229.126 537.378 228.88 536.59 228.396 536.079C227.923 535.569 227.18 535.314 226.168 535.314C225.348 535.314 224.628 535.532 224.008 535.97C223.388 536.407 222.905 536.982 222.559 537.693V548.234H220.029V533.441H222.422ZM240.318 544.529L243.764 533.441H246.471L240.523 550.517C239.603 552.978 238.14 554.208 236.135 554.208L235.656 554.167L234.713 553.99V551.939L235.396 551.993C236.253 551.993 236.919 551.82 237.393 551.474C237.876 551.128 238.272 550.494 238.582 549.573L239.143 548.07L233.865 533.441H236.627L240.318 544.529ZM251.119 533.441L251.188 535.081C252.272 533.805 253.735 533.167 255.576 533.167C257.645 533.167 259.053 533.96 259.801 535.546C260.293 534.835 260.931 534.261 261.715 533.823C262.508 533.386 263.442 533.167 264.518 533.167C267.762 533.167 269.412 534.885 269.467 538.322V548.234H266.938V538.472C266.938 537.415 266.696 536.626 266.213 536.107C265.73 535.578 264.919 535.314 263.779 535.314C262.84 535.314 262.061 535.596 261.441 536.161C260.822 536.717 260.462 537.469 260.361 538.417V548.234H257.818V538.54C257.818 536.389 256.766 535.314 254.66 535.314C253.001 535.314 251.867 536.02 251.256 537.433V548.234H248.727V533.441H251.119ZM272.625 540.7C272.625 539.251 272.908 537.948 273.473 536.79C274.047 535.633 274.84 534.74 275.852 534.111C276.872 533.482 278.035 533.167 279.338 533.167C281.352 533.167 282.979 533.865 284.219 535.259C285.467 536.654 286.092 538.508 286.092 540.823V541.001C286.092 542.441 285.814 543.736 285.258 544.884C284.711 546.023 283.923 546.912 282.893 547.55C281.872 548.188 280.696 548.507 279.365 548.507C277.36 548.507 275.733 547.81 274.484 546.415C273.245 545.021 272.625 543.175 272.625 540.878V540.7ZM275.168 541.001C275.168 542.642 275.546 543.959 276.303 544.952C277.068 545.946 278.089 546.443 279.365 546.443C280.65 546.443 281.671 545.941 282.428 544.939C283.184 543.927 283.562 542.514 283.562 540.7C283.562 539.078 283.175 537.766 282.4 536.763C281.635 535.751 280.614 535.245 279.338 535.245C278.089 535.245 277.082 535.742 276.316 536.736C275.551 537.729 275.168 539.151 275.168 541.001ZM296.414 535.71C296.031 535.646 295.617 535.615 295.17 535.615C293.511 535.615 292.385 536.321 291.793 537.734V548.234H289.264V533.441H291.725L291.766 535.15C292.595 533.828 293.771 533.167 295.293 533.167C295.785 533.167 296.159 533.231 296.414 533.359V535.71ZM304.617 548.507C302.612 548.507 300.98 547.851 299.723 546.538C298.465 545.217 297.836 543.453 297.836 541.247V540.782C297.836 539.315 298.114 538.007 298.67 536.859C299.235 535.701 300.019 534.799 301.021 534.152C302.033 533.495 303.127 533.167 304.303 533.167C306.226 533.167 307.721 533.801 308.787 535.068C309.854 536.335 310.387 538.148 310.387 540.509V541.562H300.365C300.402 543.02 300.826 544.2 301.637 545.103C302.457 545.996 303.496 546.443 304.754 546.443C305.647 546.443 306.404 546.26 307.023 545.896C307.643 545.531 308.186 545.048 308.65 544.447L310.195 545.65C308.956 547.555 307.096 548.507 304.617 548.507ZM304.303 535.245C303.282 535.245 302.425 535.619 301.732 536.366C301.04 537.105 300.611 538.144 300.447 539.484H307.857V539.292C307.785 538.007 307.438 537.014 306.818 536.312C306.199 535.601 305.36 535.245 304.303 535.245Z" fill="#251F22"/>
<circle cx="182.725" cy="649.336" r="7.64782" fill="url(#paint3_linear)"/>
<circle cx="210.952" cy="649.336" r="7.64782" fill="#C4C4C4"/>
<circle cx="239.178" cy="649.336" r="7.64782" fill="#C4C4C4"/>
<rect x="91.1327" y="698.076" width="231.734" height="52.111" rx="26.0555" stroke="#C4C4C4"/>
<path d="M197.023 729.631H195.516L189.789 720.866V729.631H188.281V718.256H189.789L195.531 727.061V718.256H197.023V729.631ZM206.117 724.373H201.188V728.405H206.914V729.631H199.688V718.256H206.836V719.491H201.188V723.147H206.117V724.373ZM212.492 722.616L215.219 718.256H216.984L213.391 723.897L217.07 729.631H215.289L212.492 725.194L209.68 729.631H207.906L211.594 723.897L207.992 718.256H209.75L212.492 722.616ZM226.672 719.491H223.016V729.631H221.523V719.491H217.875V718.256H226.672V719.491Z" fill="#C4C4C4"/>
<path d="M194.18 797.302C192.893 796.932 191.956 796.479 191.367 795.942C190.784 795.401 190.492 794.734 190.492 793.942C190.492 793.046 190.849 792.307 191.562 791.724C192.281 791.135 193.214 790.841 194.359 790.841C195.141 790.841 195.836 790.992 196.445 791.294C197.06 791.596 197.534 792.013 197.867 792.544C198.206 793.075 198.375 793.656 198.375 794.286H196.867C196.867 793.599 196.648 793.06 196.211 792.669C195.773 792.273 195.156 792.075 194.359 792.075C193.62 792.075 193.042 792.239 192.625 792.567C192.214 792.89 192.008 793.341 192.008 793.919C192.008 794.382 192.203 794.776 192.594 795.099C192.99 795.416 193.659 795.708 194.602 795.974C195.549 796.239 196.289 796.533 196.82 796.856C197.357 797.174 197.753 797.546 198.008 797.974C198.268 798.401 198.398 798.903 198.398 799.481C198.398 800.403 198.039 801.143 197.32 801.7C196.602 802.252 195.641 802.528 194.438 802.528C193.656 802.528 192.927 802.38 192.25 802.083C191.573 801.781 191.049 801.369 190.68 800.849C190.315 800.328 190.133 799.737 190.133 799.075H191.641C191.641 799.763 191.893 800.307 192.398 800.708C192.909 801.104 193.589 801.302 194.438 801.302C195.229 801.302 195.836 801.14 196.258 800.817C196.68 800.494 196.891 800.054 196.891 799.497C196.891 798.94 196.695 798.51 196.305 798.208C195.914 797.901 195.206 797.599 194.18 797.302ZM203.219 797.083L201.828 798.528V802.372H200.328V790.997H201.828V796.622L206.883 790.997H208.695L204.219 796.02L209.047 802.372H207.25L203.219 797.083ZM211.969 802.372H210.469V790.997H211.969V802.372ZM216.219 797.919V802.372H214.719V790.997H218.914C220.159 790.997 221.133 791.315 221.836 791.95C222.544 792.586 222.898 793.427 222.898 794.474C222.898 795.578 222.552 796.429 221.859 797.028C221.172 797.622 220.185 797.919 218.898 797.919H216.219ZM216.219 796.692H218.914C219.716 796.692 220.331 796.505 220.758 796.13C221.185 795.75 221.398 795.203 221.398 794.489C221.398 793.812 221.185 793.27 220.758 792.864C220.331 792.458 219.745 792.247 219 792.231H216.219V796.692Z" fill="#DFE7ED"/>
<defs>
<linearGradient id="paint0_linear" x1="303.207" y1="192.344" x2="303.207" y2="210.866" gradientUnits="userSpaceOnUse">
<stop stop-color="#8491F6"/>
<stop offset="1" stop-color="#50A9DF"/>
</linearGradient>
<linearGradient id="paint1_linear" x1="146.005" y1="165.824" x2="146.005" y2="184.346" gradientUnits="userSpaceOnUse">
<stop stop-color="#8491F6"/>
<stop offset="1" stop-color="#50A9DF"/>
</linearGradient>
<linearGradient id="paint2_linear" x1="109.727" y1="312.738" x2="109.727" y2="331.26" gradientUnits="userSpaceOnUse">
<stop stop-color="#8491F6"/>
<stop offset="1" stop-color="#50A9DF"/>
</linearGradient>
<linearGradient id="paint3_linear" x1="182.725" y1="641.688" x2="182.725" y2="656.983" gradientUnits="userSpaceOnUse">
<stop stop-color="#8491F6"/>
<stop offset="1" stop-color="#50A9DF"/>
</linearGradient>
<clipPath id="clip0">
<rect width="306" height="318" fill="white" transform="translate(54.3314 75)"/>
</clipPath>
<clipPath id="clip1">
<rect width="349" height="285" fill="white" transform="translate(56.7705 77)"/>
</clipPath>
</defs>
</svg>
