<svg width="414" height="1053" viewBox="0 0 414 1053" fill="none" xmlns="http://www.w3.org/2000/svg">
<rect width="414" height="1053" fill="white"/>
<path d="M39.1775 121.936C38.2068 121.936 37.3388 121.852 36.5735 121.684C35.8082 121.516 34.9682 121.292 34.0535 121.012C33.4935 120.806 33.0735 120.694 32.7935 120.676L33.0175 115.608H34.8095L35.2855 119.248C35.6028 119.546 36.1162 119.817 36.8255 120.06C37.5535 120.284 38.3468 120.396 39.2055 120.396C40.6242 120.396 41.6975 120.078 42.4255 119.444C43.1722 118.809 43.5455 117.932 43.5455 116.812C43.5455 116.084 43.3402 115.458 42.9295 114.936C42.5375 114.413 42.0055 113.965 41.3335 113.592C40.6802 113.218 39.7748 112.78 38.6175 112.276C37.5722 111.809 36.6575 111.333 35.8735 110.848C35.1082 110.362 34.4362 109.718 33.8575 108.916C33.2975 108.094 33.0175 107.114 33.0175 105.976C33.0175 104.949 33.2882 104.034 33.8295 103.232C34.3895 102.41 35.1828 101.766 36.2095 101.3C37.2548 100.833 38.4682 100.6 39.8495 100.6C40.7082 100.6 41.4642 100.665 42.1175 100.796C42.7895 100.926 43.5455 101.104 44.3855 101.328C44.7588 101.458 45.0762 101.542 45.3375 101.58L45.1695 106.284H43.4615L42.9015 102.84C42.7148 102.653 42.3228 102.476 41.7255 102.308C41.1468 102.14 40.5122 102.056 39.8215 102.056C38.5335 102.056 37.5535 102.326 36.8815 102.868C36.2282 103.409 35.9015 104.193 35.9015 105.22C35.9015 105.966 36.0975 106.592 36.4895 107.096C36.9002 107.6 37.4042 108.029 38.0015 108.384C38.5988 108.738 39.5508 109.224 40.8575 109.84C42.0708 110.418 43.0602 110.941 43.8255 111.408C44.5908 111.874 45.2442 112.49 45.7855 113.256C46.3455 114.002 46.6255 114.898 46.6255 115.944C46.6255 116.933 46.3455 117.885 45.7855 118.8C45.2442 119.714 44.4042 120.47 43.2655 121.068C42.1455 121.646 40.7828 121.936 39.1775 121.936ZM55.8305 121.936C53.5718 121.936 51.8452 121.198 50.6505 119.724C49.4745 118.249 48.8865 116.28 48.8865 113.816C48.8865 112.192 49.1945 110.764 49.8105 109.532C50.4265 108.3 51.2852 107.348 52.3865 106.676C53.5065 106.004 54.7758 105.668 56.1945 105.668C57.9305 105.668 59.2745 106.153 60.2265 107.124C61.1972 108.076 61.7105 109.448 61.7665 111.24C61.7665 112.378 61.7012 113.246 61.5705 113.844H51.9385C51.9758 115.692 52.4052 117.185 53.2265 118.324C54.0478 119.444 55.2145 120.004 56.7265 120.004C57.4732 120.004 58.2478 119.873 59.0505 119.612C59.8718 119.332 60.5065 119.005 60.9545 118.632L61.4865 119.864C60.9452 120.424 60.1425 120.909 59.0785 121.32C58.0145 121.73 56.9318 121.936 55.8305 121.936ZM58.6865 112.36C58.7425 111.968 58.7705 111.566 58.7705 111.156C58.7518 109.942 58.4905 108.99 57.9865 108.3C57.5012 107.59 56.7265 107.236 55.6625 107.236C54.5798 107.236 53.7118 107.628 53.0585 108.412C52.4238 109.196 52.0598 110.512 51.9665 112.36H58.6865ZM64.173 117.428C64.173 115.673 65.0503 114.385 66.805 113.564C68.5596 112.724 70.781 112.276 73.469 112.22V111.436C73.469 110.558 73.3756 109.868 73.189 109.364C73.0023 108.86 72.6756 108.496 72.209 108.272C71.761 108.029 71.117 107.908 70.277 107.908C69.325 107.908 68.4663 108.048 67.701 108.328C66.9543 108.589 66.2076 108.916 65.461 109.308L64.761 107.852C65.0036 107.646 65.4516 107.376 66.105 107.04C66.7583 106.704 67.5143 106.405 68.373 106.144C69.2316 105.882 70.0903 105.752 70.949 105.752C72.2743 105.752 73.3196 105.938 74.085 106.312C74.869 106.666 75.429 107.245 75.765 108.048C76.101 108.85 76.269 109.924 76.269 111.268V120.256H77.921V121.488C77.5476 121.581 77.0716 121.674 76.493 121.768C75.933 121.861 75.4383 121.908 75.009 121.908C74.4863 121.908 74.1316 121.824 73.945 121.656C73.7583 121.506 73.665 121.161 73.665 120.62V119.696C73.105 120.256 72.4143 120.769 71.593 121.236C70.7903 121.702 69.8756 121.936 68.849 121.936C67.505 121.936 66.385 121.553 65.489 120.788C64.6116 120.004 64.173 118.884 64.173 117.428ZM70.053 120.032C70.5383 120.032 71.0983 119.882 71.733 119.584C72.3676 119.285 72.9463 118.93 73.469 118.52V113.704C71.4343 113.704 69.8943 114.021 68.849 114.656C67.8223 115.272 67.309 116.084 67.309 117.092C67.309 118.1 67.5516 118.846 68.037 119.332C68.541 119.798 69.213 120.032 70.053 120.032ZM79.9243 120.256L82.0243 120.088V108.244L80.0083 107.74V106.228L83.8723 105.724H83.9283L84.5443 106.228V106.732L84.4603 108.916H84.5443C84.7309 108.598 85.0669 108.188 85.5523 107.684C86.0376 107.18 86.6629 106.722 87.4283 106.312C88.1936 105.882 89.0243 105.668 89.9203 105.668C90.2936 105.668 90.6016 105.714 90.8443 105.808V108.944C90.7136 108.85 90.4989 108.766 90.2003 108.692C89.9203 108.598 89.6029 108.552 89.2483 108.552C87.6989 108.552 86.2616 109.028 84.9363 109.98V120.06L88.4923 120.284V121.628H79.9243V120.256ZM92.3565 113.956C92.3565 112.406 92.6552 111.006 93.2525 109.756C93.8685 108.505 94.7645 107.516 95.9405 106.788C97.1352 106.041 98.5632 105.668 100.224 105.668C101.027 105.668 101.718 105.742 102.296 105.892C102.875 106.041 103.566 106.246 104.368 106.508L104.256 110.82H102.436L101.82 107.964C101.708 107.441 100.999 107.18 99.6925 107.18C98.3858 107.18 97.3498 107.712 96.5845 108.776C95.8378 109.821 95.4645 111.314 95.4645 113.256C95.4645 115.458 95.8845 117.138 96.7245 118.296C97.5832 119.434 98.6938 120.004 100.056 120.004C100.84 120.004 101.578 119.882 102.268 119.64C102.978 119.397 103.584 119.108 104.088 118.772L104.62 119.892C104.116 120.414 103.37 120.89 102.38 121.32C101.41 121.73 100.42 121.936 99.4125 121.936C97.8818 121.936 96.5845 121.59 95.5205 120.9C94.4752 120.209 93.6818 119.266 93.1405 118.072C92.6178 116.858 92.3565 115.486 92.3565 113.956ZM108.56 100.74L106.208 100.432V99.2277L110.772 98.6957H110.828L111.444 99.1157V105.612L111.332 107.992C111.929 107.45 112.751 106.937 113.796 106.452C114.841 105.966 115.896 105.724 116.96 105.724C118.136 105.724 119.051 105.948 119.704 106.396C120.357 106.844 120.815 107.534 121.076 108.468C121.337 109.382 121.468 110.624 121.468 112.192V120.004L123.428 120.256V121.628H116.736V120.256L118.556 120.004V112.164C118.556 111.062 118.481 110.204 118.332 109.588C118.183 108.953 117.903 108.486 117.492 108.188C117.081 107.87 116.465 107.712 115.644 107.712C114.972 107.712 114.253 107.88 113.488 108.216C112.723 108.552 112.051 108.944 111.472 109.392V120.004L113.404 120.256V121.628H106.88V120.256L108.56 120.032V100.74ZM134.558 102.56L132.29 102.224V100.824H140.326V102.224L137.554 102.56V119.976L144.778 119.724L146.43 115.02L148.138 115.272L147.158 121.628H132.234V120.256L134.558 119.976V102.56ZM153.2 103.288C152.602 103.288 152.154 103.12 151.856 102.784C151.557 102.448 151.408 102.018 151.408 101.496C151.408 100.898 151.585 100.404 151.94 100.012C152.313 99.6197 152.817 99.4237 153.452 99.4237C154.086 99.4237 154.553 99.5917 154.852 99.9277C155.15 100.264 155.3 100.693 155.3 101.216C155.3 101.85 155.113 102.354 154.74 102.728C154.385 103.101 153.881 103.288 153.228 103.288H153.2ZM152.08 108.244L149.952 107.74V106.256L154.292 105.724H154.348L154.992 106.228V120.032L157.232 120.256V121.628H149.812V120.256L152.08 120.004V108.244ZM161.824 119.388C162.011 119.668 162.403 119.92 163 120.144C163.616 120.368 164.26 120.48 164.932 120.48C165.996 120.48 166.78 120.274 167.284 119.864C167.788 119.453 168.04 118.884 168.04 118.156C168.04 117.652 167.881 117.213 167.564 116.84C167.247 116.466 166.799 116.14 166.22 115.86C165.66 115.561 164.848 115.206 163.784 114.796C162.347 114.254 161.292 113.61 160.62 112.864C159.967 112.098 159.64 111.1 159.64 109.868C159.64 109.046 159.883 108.328 160.368 107.712C160.872 107.096 161.553 106.62 162.412 106.284C163.289 105.929 164.26 105.752 165.324 105.752C166.183 105.752 166.929 105.817 167.564 105.948C168.217 106.078 168.74 106.209 169.132 106.34C169.524 106.47 169.785 106.554 169.916 106.592V110.064H168.208L167.648 107.992C167.536 107.768 167.237 107.581 166.752 107.432C166.267 107.264 165.725 107.18 165.128 107.18C164.288 107.18 163.607 107.366 163.084 107.74C162.58 108.113 162.328 108.617 162.328 109.252C162.328 109.812 162.459 110.278 162.72 110.652C163 111.006 163.345 111.296 163.756 111.52C164.167 111.744 164.727 112.005 165.436 112.304L165.996 112.528C167.041 112.938 167.891 113.33 168.544 113.704C169.197 114.077 169.739 114.572 170.168 115.188C170.616 115.785 170.84 116.522 170.84 117.4C170.84 118.781 170.299 119.882 169.216 120.704C168.152 121.525 166.687 121.936 164.82 121.936C163.905 121.936 162.944 121.814 161.936 121.572C160.947 121.31 160.135 121.049 159.5 120.788V117.204H161.32L161.824 119.388ZM178.145 121.908C177.081 121.908 176.287 121.665 175.765 121.18C175.242 120.694 174.981 119.864 174.981 118.688V107.936H172.965V106.676C173.058 106.657 173.319 106.592 173.749 106.48C174.178 106.368 174.467 106.265 174.617 106.172C174.915 106.004 175.149 105.668 175.317 105.164C175.466 104.809 175.643 104.24 175.849 103.456C176.054 102.672 176.175 102.205 176.213 102.056H177.865L177.921 106.088H182.597V107.936H177.921V116.532C177.921 117.596 177.949 118.342 178.005 118.772C178.079 119.201 178.219 119.481 178.425 119.612C178.649 119.742 179.022 119.808 179.545 119.808C180.049 119.808 180.599 119.742 181.197 119.612C181.813 119.481 182.289 119.341 182.625 119.192L183.045 120.452C182.597 120.788 181.869 121.114 180.861 121.432C179.871 121.749 178.966 121.908 178.145 121.908Z" fill="#6A515E"/>
<path fill-rule="evenodd" clip-rule="evenodd" d="M53.9584 43.9454H39.6215L44.0114 38.9441C44.4391 38.4577 44.369 37.7339 43.8567 37.329C43.3432 36.9229 42.5819 36.9895 42.1554 37.4758L36.1137 44.3584C36.0666 44.4123 36.0424 44.4754 36.0074 44.535C35.9784 44.5832 35.9433 44.6245 35.9216 44.6773C35.8672 44.8092 35.8346 44.948 35.8346 45.0879C35.8346 45.0891 35.8334 45.0914 35.8334 45.0925C35.8334 45.0937 35.8346 45.096 35.8346 45.0971C35.8346 45.2371 35.8672 45.3758 35.9216 45.5078C35.9433 45.5605 35.9784 45.6018 36.0074 45.65C36.0424 45.7097 36.0666 45.7727 36.1137 45.8267L42.1554 52.7092C42.3946 52.9811 42.7378 53.1221 43.0834 53.1221C43.3565 53.1221 43.6307 53.035 43.8567 52.856C44.369 52.4511 44.4391 51.7273 44.0114 51.2409L39.6215 46.2396H53.9584C54.6254 46.2396 55.1667 45.7257 55.1667 45.0925C55.1667 44.4593 54.6254 43.9454 53.9584 43.9454Z" fill="#6A515E"/>
<mask id="mask0" mask-type="alpha" maskUnits="userSpaceOnUse" x="66" y="39" width="25" height="17">
<path fill-rule="evenodd" clip-rule="evenodd" d="M89.4497 46.8073H71.5286L77.0159 41.806C77.5506 41.3196 77.463 40.5958 76.8226 40.1909C76.1807 39.7848 75.2291 39.8513 74.6959 40.3377L67.1439 47.2203C67.085 47.2742 67.0548 47.3373 67.011 47.3969C66.9747 47.4451 66.9309 47.4864 66.9037 47.5391C66.8357 47.6711 66.795 47.8099 66.795 47.9498C66.795 47.951 66.7935 47.9532 66.7935 47.9544C66.7935 47.9555 66.795 47.9578 66.795 47.959C66.795 48.0989 66.8357 48.2377 66.9037 48.3696C66.9309 48.4224 66.9747 48.4637 67.011 48.5119C67.0548 48.5715 67.085 48.6346 67.1439 48.6885L74.6959 55.5711C74.995 55.8429 75.424 55.984 75.8559 55.984C76.1973 55.984 76.5402 55.8968 76.8226 55.7179C77.463 55.313 77.5506 54.5892 77.0159 54.1028L71.5286 49.1015H89.4497C90.2834 49.1015 90.9601 48.5876 90.9601 47.9544C90.9601 47.3212 90.2834 46.8073 89.4497 46.8073Z" fill="white"/>
</mask>
<g mask="url(#mask0)">
</g>
</svg>
