<svg width="49" height="49" viewBox="0 0 49 49" fill="none" xmlns="http://www.w3.org/2000/svg">
<rect x="0.0576172" y="0.465576" width="48.5113" height="48.5113" rx="16" fill="url(#paint0_linear)"/>
<g clip-path="url(#clip0)">
<path d="M12.1563 18.8022L19.7618 15.2212C20.5469 16.2528 22.2852 16.9728 24.3126 16.9728C26.3399 16.9728 28.0782 16.2528 28.8634 15.2212L36.4688 18.8022C36.7774 18.9507 36.9024 19.3069 36.7501 19.6001L34.5157 23.8491C34.3595 24.1423 33.9845 24.261 33.6759 24.1163L31.4649 23.0884C31.0509 22.8954 30.5665 23.1812 30.5665 23.6228V33.0337C30.5665 33.6905 30.0079 34.2212 29.3165 34.2212H19.3165C18.6251 34.2212 18.0665 33.6905 18.0665 33.0337V23.619C18.0665 23.1812 17.5821 22.8917 17.168 23.0847L14.9571 24.1126C14.6485 24.261 14.2735 24.1423 14.1172 23.8454L11.879 19.6001C11.7227 19.3069 11.8477 18.947 12.1563 18.8022Z" fill="white"/>
</g>
<defs>
<linearGradient id="paint0_linear" x1="24.3132" y1="0.465576" x2="24.3132" y2="48.9768" gradientUnits="userSpaceOnUse">
<stop stop-color="#FFD079"/>
<stop offset="1" stop-color="#FFB634"/>
</linearGradient>
<clipPath id="clip0">
<rect width="25" height="19" fill="white" transform="matrix(-1 0 0 1 36.813 15.2212)"/>
</clipPath>
</defs>
</svg>
