<svg width="414" height="896" viewBox="0 0 414 896" fill="none" xmlns="http://www.w3.org/2000/svg">
<g clip-path="url(#clip0)">
<rect width="414" height="896" fill="white"/>
<path d="M39.1776 121.936C38.207 121.936 37.339 121.852 36.5736 121.684C35.8083 121.516 34.9683 121.292 34.0536 121.012C33.4936 120.806 33.0736 120.694 32.7936 120.676L33.0176 115.608H34.8096L35.2856 119.248C35.603 119.546 36.1163 119.817 36.8256 120.06C37.5536 120.284 38.347 120.396 39.2056 120.396C40.6243 120.396 41.6976 120.078 42.4256 119.444C43.1723 118.809 43.5456 117.932 43.5456 116.812C43.5456 116.084 43.3403 115.458 42.9296 114.936C42.5376 114.413 42.0056 113.965 41.3336 113.592C40.6803 113.218 39.775 112.78 38.6176 112.276C37.5723 111.809 36.6576 111.333 35.8736 110.848C35.1083 110.362 34.4363 109.718 33.8576 108.916C33.2976 108.094 33.0176 107.114 33.0176 105.976C33.0176 104.949 33.2883 104.034 33.8296 103.232C34.3896 102.41 35.183 101.766 36.2096 101.3C37.255 100.833 38.4683 100.6 39.8496 100.6C40.7083 100.6 41.4643 100.665 42.1176 100.796C42.7896 100.926 43.5456 101.104 44.3856 101.328C44.759 101.458 45.0763 101.542 45.3376 101.58L45.1696 106.284H43.4616L42.9016 102.84C42.715 102.653 42.323 102.476 41.7256 102.308C41.147 102.14 40.5123 102.056 39.8216 102.056C38.5336 102.056 37.5536 102.326 36.8816 102.868C36.2283 103.409 35.9016 104.193 35.9016 105.22C35.9016 105.966 36.0976 106.592 36.4896 107.096C36.9003 107.6 37.4043 108.029 38.0016 108.384C38.599 108.738 39.551 109.224 40.8576 109.84C42.071 110.418 43.0603 110.941 43.8256 111.408C44.591 111.874 45.2443 112.49 45.7856 113.256C46.3456 114.002 46.6256 114.898 46.6256 115.944C46.6256 116.933 46.3456 117.885 45.7856 118.8C45.2443 119.714 44.4043 120.47 43.2656 121.068C42.1456 121.646 40.783 121.936 39.1776 121.936ZM55.8306 121.936C53.572 121.936 51.8453 121.198 50.6506 119.724C49.4746 118.249 48.8866 116.28 48.8866 113.816C48.8866 112.192 49.1946 110.764 49.8106 109.532C50.4266 108.3 51.2853 107.348 52.3866 106.676C53.5066 106.004 54.776 105.668 56.1946 105.668C57.9306 105.668 59.2746 106.153 60.2266 107.124C61.1973 108.076 61.7106 109.448 61.7666 111.24C61.7666 112.378 61.7013 113.246 61.5706 113.844H51.9386C51.976 115.692 52.4053 117.185 53.2266 118.324C54.048 119.444 55.2146 120.004 56.7266 120.004C57.4733 120.004 58.248 119.873 59.0506 119.612C59.872 119.332 60.5066 119.005 60.9546 118.632L61.4866 119.864C60.9453 120.424 60.1426 120.909 59.0786 121.32C58.0146 121.73 56.932 121.936 55.8306 121.936ZM58.6866 112.36C58.7426 111.968 58.7706 111.566 58.7706 111.156C58.752 109.942 58.4906 108.99 57.9866 108.3C57.5013 107.59 56.7266 107.236 55.6626 107.236C54.58 107.236 53.712 107.628 53.0586 108.412C52.424 109.196 52.06 110.512 51.9666 112.36H58.6866ZM68.9611 121.908C67.8971 121.908 67.1038 121.665 66.5811 121.18C66.0584 120.694 65.7971 119.864 65.7971 118.688V107.936H63.7811V106.676C63.8744 106.657 64.1358 106.592 64.5651 106.48C64.9944 106.368 65.2838 106.265 65.4331 106.172C65.7318 106.004 65.9651 105.668 66.1331 105.164C66.2824 104.809 66.4598 104.24 66.6651 103.456C66.8704 102.672 66.9918 102.205 67.0291 102.056H68.6811L68.7371 106.088H73.4131V107.936H68.7371V116.532C68.7371 117.596 68.7651 118.342 68.8211 118.772C68.8958 119.201 69.0358 119.481 69.2411 119.612C69.4651 119.742 69.8384 119.808 70.3611 119.808C70.8651 119.808 71.4158 119.742 72.0131 119.612C72.6291 119.481 73.1051 119.341 73.4411 119.192L73.8611 120.452C73.4131 120.788 72.6851 121.114 71.6771 121.432C70.6878 121.749 69.7824 121.908 68.9611 121.908ZM80.3634 121.908C79.2994 121.908 78.5061 121.665 77.9834 121.18C77.4608 120.694 77.1994 119.864 77.1994 118.688V107.936H75.1834V106.676C75.2768 106.657 75.5381 106.592 75.9674 106.48C76.3968 106.368 76.6861 106.265 76.8354 106.172C77.1341 106.004 77.3674 105.668 77.5354 105.164C77.6848 104.809 77.8621 104.24 78.0674 103.456C78.2728 102.672 78.3941 102.205 78.4314 102.056H80.0834L80.1394 106.088H84.8154V107.936H80.1394V116.532C80.1394 117.596 80.1674 118.342 80.2234 118.772C80.2981 119.201 80.4381 119.481 80.6434 119.612C80.8674 119.742 81.2408 119.808 81.7634 119.808C82.2674 119.808 82.8181 119.742 83.4154 119.612C84.0314 119.481 84.5074 119.341 84.8434 119.192L85.2634 120.452C84.8154 120.788 84.0874 121.114 83.0794 121.432C82.0901 121.749 81.1848 121.908 80.3634 121.908ZM90.2818 103.288C89.6844 103.288 89.2364 103.12 88.9378 102.784C88.6391 102.448 88.4898 102.018 88.4898 101.496C88.4898 100.898 88.6671 100.404 89.0218 100.012C89.3951 99.6198 89.8991 99.4238 90.5338 99.4238C91.1684 99.4238 91.6351 99.5918 91.9338 99.9278C92.2324 100.264 92.3818 100.693 92.3818 101.216C92.3818 101.85 92.1951 102.354 91.8218 102.728C91.4671 103.101 90.9631 103.288 90.3098 103.288H90.2818ZM89.1618 108.244L87.0338 107.74V106.256L91.3738 105.724H91.4298L92.0738 106.228V120.032L94.3138 120.256V121.628H86.8938V120.256L89.1618 120.004V108.244ZM97.982 108.244L95.966 107.74V106.228L99.97 105.724H100.054L100.642 106.228V107.404L100.614 108.076C101.286 107.478 102.173 106.937 103.274 106.452C104.375 105.966 105.43 105.724 106.438 105.724C107.614 105.724 108.519 105.948 109.154 106.396C109.807 106.844 110.265 107.534 110.526 108.468C110.787 109.382 110.918 110.624 110.918 112.192V120.032L112.878 120.228V121.628H106.242V120.256L107.978 120.032V112.164C107.978 111.062 107.903 110.204 107.754 109.588C107.605 108.953 107.325 108.486 106.914 108.188C106.503 107.87 105.906 107.712 105.122 107.712C104.45 107.712 103.731 107.88 102.966 108.216C102.201 108.552 101.519 108.944 100.922 109.392V120.004L102.826 120.256V121.628H96.218V120.256L97.982 120.004V108.244ZM121.588 129.188C119.198 129.188 117.462 128.805 116.38 128.04C115.316 127.293 114.784 126.257 114.784 124.932C114.784 124.11 115.036 123.354 115.54 122.664C116.062 121.973 116.678 121.45 117.388 121.096C116.529 120.61 116.1 119.826 116.1 118.744C116.1 118.072 116.296 117.437 116.688 116.84C117.08 116.242 117.593 115.785 118.228 115.468C117.294 115.057 116.576 114.469 116.072 113.704C115.586 112.938 115.344 112.033 115.344 110.988C115.344 109.905 115.642 108.962 116.24 108.16C116.856 107.357 117.658 106.741 118.648 106.312C119.656 105.882 120.72 105.668 121.84 105.668C123.725 105.668 125.2 106.06 126.264 106.844C126.544 106.564 126.973 106.293 127.552 106.032C128.13 105.77 128.746 105.64 129.4 105.64H130.352V108.104H127.272C127.72 108.794 127.944 109.597 127.944 110.512C127.944 111.613 127.664 112.593 127.104 113.452C126.562 114.292 125.797 114.945 124.808 115.412C123.837 115.878 122.736 116.112 121.504 116.112C120.701 116.112 119.982 116.028 119.348 115.86C119.086 116.121 118.872 116.41 118.704 116.728C118.536 117.045 118.452 117.353 118.452 117.652C118.452 118.324 118.676 118.79 119.124 119.052C119.572 119.294 120.374 119.416 121.532 119.416H124.696C126.506 119.416 127.85 119.761 128.728 120.452C129.605 121.142 130.044 122.122 130.044 123.392C130.044 124.456 129.661 125.426 128.896 126.304C128.13 127.2 127.094 127.9 125.788 128.404C124.5 128.926 123.1 129.188 121.588 129.188ZM121.784 114.572C123.912 114.572 124.976 113.312 124.976 110.792C124.976 109.541 124.696 108.626 124.136 108.048C123.594 107.45 122.773 107.152 121.672 107.152C120.645 107.152 119.833 107.441 119.236 108.02C118.638 108.58 118.34 109.485 118.34 110.736C118.34 111.912 118.62 112.845 119.18 113.536C119.758 114.226 120.626 114.572 121.784 114.572ZM121.84 127.564C122.754 127.564 123.613 127.424 124.416 127.144C125.237 126.882 125.9 126.481 126.404 125.94C126.908 125.417 127.16 124.801 127.16 124.092C127.16 123.252 126.936 122.636 126.488 122.244C126.04 121.87 125.172 121.684 123.884 121.684H120.58C119.833 121.684 119.245 121.637 118.816 121.544C118.05 122.384 117.668 123.326 117.668 124.372C117.668 125.417 117.985 126.21 118.62 126.752C119.254 127.293 120.328 127.564 121.84 127.564Z" fill="#6A515E"/>
<path fill-rule="evenodd" clip-rule="evenodd" d="M53.9583 43.9454H39.6214L44.0113 38.9441C44.439 38.4577 44.3689 37.7339 43.8566 37.329C43.343 36.9229 42.5818 36.9895 42.1553 37.4758L36.1136 44.3584C36.0665 44.4123 36.0423 44.4754 36.0073 44.535C35.9783 44.5832 35.9432 44.6245 35.9215 44.6773C35.8671 44.8092 35.8345 44.948 35.8345 45.0879C35.8345 45.0891 35.8333 45.0914 35.8333 45.0925C35.8333 45.0937 35.8345 45.096 35.8345 45.0971C35.8345 45.2371 35.8671 45.3758 35.9215 45.5078C35.9432 45.5605 35.9783 45.6018 36.0073 45.65C36.0423 45.7097 36.0665 45.7727 36.1136 45.8267L42.1553 52.7092C42.3945 52.9811 42.7377 53.1221 43.0833 53.1221C43.3563 53.1221 43.6306 53.035 43.8566 52.856C44.3689 52.4511 44.439 51.7273 44.0113 51.2409L39.6214 46.2396H53.9583C54.6252 46.2396 55.1666 45.7257 55.1666 45.0925C55.1666 44.4593 54.6252 43.9454 53.9583 43.9454Z" fill="#6A515E"/>
<mask id="mask0" mask-type="alpha" maskUnits="userSpaceOnUse" x="35" y="37" width="25" height="17">
<path fill-rule="evenodd" clip-rule="evenodd" d="M58.4895 43.9454H40.5684L46.0557 38.9441C46.5904 38.4577 46.5028 37.7339 45.8624 37.329C45.2205 36.9229 44.2689 36.9895 43.7357 37.4758L36.1837 44.3584C36.1248 44.4123 36.0946 44.4754 36.0508 44.535C36.0145 44.5832 35.9707 44.6245 35.9435 44.6773C35.8755 44.8092 35.8348 44.948 35.8348 45.0879C35.8348 45.0891 35.8333 45.0914 35.8333 45.0925C35.8333 45.0937 35.8348 45.096 35.8348 45.0971C35.8348 45.2371 35.8755 45.3758 35.9435 45.5078C35.9707 45.5605 36.0145 45.6018 36.0508 45.65C36.0946 45.7097 36.1248 45.7727 36.1837 45.8267L43.7357 52.7092C44.0348 52.9811 44.4638 53.1221 44.8957 53.1221C45.2371 53.1221 45.58 53.035 45.8624 52.856C46.5028 52.4511 46.5904 51.7273 46.0557 51.2409L40.5684 46.2396H58.4895C59.3232 46.2396 59.9999 45.7257 59.9999 45.0925C59.9999 44.4593 59.3232 43.9454 58.4895 43.9454Z" fill="white"/>
</mask>
<g mask="url(#mask0)">
</g>
<path d="M374.093 296.006C375.451 296.006 376.551 294.906 376.551 293.548C376.551 292.19 375.451 291.09 374.093 291.09C372.735 291.09 371.635 292.19 371.635 293.548C371.635 294.906 372.735 296.006 374.093 296.006Z" fill="#F05B1D"/>
<path d="M313.451 501.888C314.808 501.888 315.909 500.787 315.909 499.43C315.909 498.072 314.808 496.971 313.451 496.971C312.093 496.971 310.992 498.072 310.992 499.43C310.992 500.787 312.093 501.888 313.451 501.888Z" fill="#F05B1D"/>
<path d="M374.093 276.34H359.343C354.779 276.34 350.402 278.153 347.175 281.38C343.948 284.607 342.135 288.984 342.135 293.548C342.135 298.112 343.948 302.489 347.175 305.716C350.402 308.943 354.779 310.756 359.343 310.756H374.093C378.657 310.756 383.034 308.943 386.261 305.716C389.488 302.489 391.301 298.112 391.301 293.548C391.301 288.984 389.488 284.607 386.261 281.38C383.034 278.153 378.657 276.34 374.093 276.34ZM374.093 300.923C372.634 300.923 371.209 300.491 369.996 299.68C368.783 298.87 367.838 297.718 367.279 296.37C366.721 295.023 366.575 293.54 366.86 292.109C367.144 290.679 367.847 289.365 368.878 288.333C369.91 287.302 371.224 286.599 372.654 286.315C374.085 286.03 375.568 286.176 376.915 286.734C378.263 287.293 379.415 288.238 380.225 289.451C381.036 290.664 381.468 292.089 381.468 293.548C381.468 295.504 380.691 297.38 379.308 298.763C377.925 300.146 376.049 300.923 374.093 300.923Z" fill="#E5493B"/>
<path d="M313.451 482.221H298.701C294.137 482.221 289.76 484.034 286.532 487.261C283.305 490.489 281.492 494.866 281.492 499.43C281.492 503.993 283.305 508.37 286.532 511.598C289.76 514.825 294.137 516.638 298.701 516.638H313.451C318.014 516.638 322.391 514.825 325.619 511.598C328.846 508.37 330.659 503.993 330.659 499.43C330.659 494.866 328.846 490.489 325.619 487.261C322.391 484.034 318.014 482.221 313.451 482.221ZM313.451 506.805C311.992 506.805 310.566 506.372 309.353 505.562C308.14 504.751 307.195 503.599 306.637 502.252C306.079 500.904 305.933 499.421 306.217 497.991C306.502 496.56 307.204 495.246 308.236 494.215C309.267 493.183 310.581 492.481 312.012 492.196C313.442 491.912 314.925 492.058 316.273 492.616C317.62 493.174 318.772 494.119 319.583 495.332C320.393 496.545 320.826 497.971 320.826 499.43C320.826 501.385 320.049 503.261 318.665 504.644C317.282 506.028 315.406 506.805 313.451 506.805Z" fill="#E5493B"/>
<path d="M106.085 182.374H101.515V195.05H99.6494V182.374H95.0889V180.831H106.085V182.374ZM109.718 185.763C110.519 184.78 111.56 184.288 112.843 184.288C115.076 184.288 116.202 185.548 116.222 188.068V195.05H114.415V188.058C114.409 187.296 114.233 186.733 113.888 186.368C113.549 186.004 113.019 185.821 112.296 185.821C111.71 185.821 111.196 185.978 110.753 186.29C110.31 186.603 109.965 187.013 109.718 187.521V195.05H107.911V180.05H109.718V185.763ZM123.312 195.245C121.879 195.245 120.714 194.776 119.815 193.839C118.917 192.895 118.468 191.635 118.468 190.06V189.728C118.468 188.679 118.666 187.745 119.063 186.925C119.467 186.098 120.027 185.454 120.743 184.991C121.466 184.523 122.247 184.288 123.087 184.288C124.461 184.288 125.528 184.741 126.29 185.646C127.052 186.551 127.433 187.846 127.433 189.532V190.284H120.274C120.3 191.326 120.603 192.169 121.183 192.814C121.769 193.452 122.511 193.771 123.409 193.771C124.047 193.771 124.588 193.64 125.03 193.38C125.473 193.12 125.86 192.775 126.192 192.345L127.296 193.204C126.41 194.565 125.082 195.245 123.312 195.245ZM123.087 185.773C122.358 185.773 121.746 186.04 121.251 186.573C120.756 187.101 120.45 187.843 120.333 188.8H125.626V188.663C125.574 187.745 125.326 187.036 124.884 186.534C124.441 186.026 123.842 185.773 123.087 185.773ZM131.231 184.484L131.28 185.655C132.055 184.744 133.1 184.288 134.415 184.288C135.893 184.288 136.899 184.855 137.433 185.987C137.784 185.48 138.24 185.069 138.8 184.757C139.366 184.444 140.034 184.288 140.802 184.288C143.119 184.288 144.298 185.515 144.337 187.97V195.05H142.53V188.077C142.53 187.322 142.358 186.759 142.013 186.388C141.668 186.01 141.088 185.821 140.274 185.821C139.604 185.821 139.047 186.023 138.604 186.427C138.162 186.824 137.905 187.361 137.833 188.038V195.05H136.017V188.126C136.017 186.59 135.265 185.821 133.761 185.821C132.576 185.821 131.765 186.326 131.329 187.335V195.05H129.522V184.484H131.231ZM151.456 195.245C150.024 195.245 148.858 194.776 147.96 193.839C147.062 192.895 146.612 191.635 146.612 190.06V189.728C146.612 188.679 146.811 187.745 147.208 186.925C147.612 186.098 148.172 185.454 148.888 184.991C149.61 184.523 150.392 184.288 151.231 184.288C152.605 184.288 153.673 184.741 154.435 185.646C155.196 186.551 155.577 187.846 155.577 189.532V190.284H148.419C148.445 191.326 148.748 192.169 149.327 192.814C149.913 193.452 150.655 193.771 151.554 193.771C152.192 193.771 152.732 193.64 153.175 193.38C153.618 193.12 154.005 192.775 154.337 192.345L155.44 193.204C154.555 194.565 153.227 195.245 151.456 195.245ZM151.231 185.773C150.502 185.773 149.89 186.04 149.396 186.573C148.901 187.101 148.595 187.843 148.478 188.8H153.771V188.663C153.718 187.745 153.471 187.036 153.028 186.534C152.586 186.026 151.987 185.773 151.231 185.773Z" fill="#6A515E"/>
<path d="M311.264 191.568L311.537 193.443L311.938 191.753L314.75 181.831H316.332L319.076 191.753L319.467 193.472L319.77 191.558L321.977 181.831H323.861L320.414 196.05H318.705L315.775 185.689L315.551 184.605L315.326 185.689L312.289 196.05H310.58L307.143 181.831H309.018L311.264 191.568ZM327.475 186.763C328.275 185.78 329.317 185.288 330.6 185.288C332.833 185.288 333.959 186.548 333.979 189.068V196.05H332.172V189.058C332.165 188.296 331.99 187.733 331.645 187.368C331.306 187.004 330.775 186.821 330.053 186.821C329.467 186.821 328.952 186.978 328.51 187.29C328.067 187.603 327.722 188.013 327.475 188.521V196.05H325.668V181.05H327.475V186.763ZM338.646 196.05H336.84V185.484H338.646V196.05ZM336.693 182.681C336.693 182.388 336.781 182.14 336.957 181.939C337.139 181.737 337.406 181.636 337.758 181.636C338.109 181.636 338.376 181.737 338.559 181.939C338.741 182.14 338.832 182.388 338.832 182.681C338.832 182.974 338.741 183.218 338.559 183.413C338.376 183.609 338.109 183.706 337.758 183.706C337.406 183.706 337.139 183.609 336.957 183.413C336.781 183.218 336.693 182.974 336.693 182.681ZM343.998 182.925V185.484H345.971V186.88H343.998V193.433C343.998 193.856 344.086 194.175 344.262 194.39C344.438 194.598 344.737 194.702 345.16 194.702C345.368 194.702 345.655 194.663 346.02 194.585V196.05C345.544 196.18 345.082 196.245 344.633 196.245C343.826 196.245 343.217 196.001 342.807 195.513C342.396 195.025 342.191 194.331 342.191 193.433V186.88H340.268V185.484H342.191V182.925H343.998ZM352.475 196.245C351.042 196.245 349.877 195.776 348.979 194.839C348.08 193.895 347.631 192.635 347.631 191.06V190.728C347.631 189.679 347.829 188.745 348.227 187.925C348.63 187.098 349.19 186.454 349.906 185.991C350.629 185.523 351.41 185.288 352.25 185.288C353.624 185.288 354.691 185.741 355.453 186.646C356.215 187.551 356.596 188.846 356.596 190.532V191.284H349.438C349.464 192.326 349.766 193.169 350.346 193.814C350.932 194.452 351.674 194.771 352.572 194.771C353.21 194.771 353.751 194.64 354.193 194.38C354.636 194.12 355.023 193.775 355.355 193.345L356.459 194.204C355.574 195.565 354.245 196.245 352.475 196.245ZM352.25 186.773C351.521 186.773 350.909 187.04 350.414 187.573C349.919 188.101 349.613 188.843 349.496 189.8H354.789V189.663C354.737 188.745 354.49 188.036 354.047 187.534C353.604 187.026 353.005 186.773 352.25 186.773Z" fill="#DFE7ED"/>
<path d="M376.299 181.667L385.255 190.623L376.299 199.58" stroke="#DFE7ED" stroke-width="2" stroke-linecap="round"/>
<line opacity="0.1" x1="31.0597" y1="240.413" x2="385.258" y2="241.885" stroke="black"/>
<rect x="31.0576" y="162.294" width="48.5113" height="48.5113" rx="16" fill="url(#paint0_linear)"/>
<g clip-path="url(#clip1)">
<path d="M43.1563 180.631L50.7618 177.05C51.5469 178.082 53.2852 178.801 55.3126 178.801C57.3399 178.801 59.0782 178.082 59.8634 177.05L67.4688 180.631C67.7774 180.779 67.9024 181.136 67.7501 181.429L65.5157 185.678C65.3595 185.971 64.9845 186.09 64.6759 185.945L62.4649 184.917C62.0509 184.724 61.5665 185.01 61.5665 185.451V194.862C61.5665 195.519 61.0079 196.05 60.3165 196.05H50.3165C49.6251 196.05 49.0665 195.519 49.0665 194.862V185.448C49.0665 185.01 48.5821 184.72 48.168 184.913L45.9571 185.941C45.6485 186.09 45.2735 185.971 45.1172 185.674L42.879 181.429C42.7227 181.136 42.8477 180.776 43.1563 180.631Z" fill="white"/>
</g>
<path d="M107.188 297.774H105.304L98.1455 286.817V297.774H96.2607V283.555H98.1455L105.323 294.561V283.555H107.188V297.774ZM109.757 292.393C109.757 291.358 109.959 290.427 110.362 289.6C110.772 288.773 111.339 288.135 112.062 287.686C112.791 287.237 113.621 287.012 114.552 287.012C115.991 287.012 117.153 287.51 118.038 288.506C118.93 289.502 119.376 290.827 119.376 292.481V292.608C119.376 293.636 119.177 294.561 118.78 295.381C118.39 296.195 117.826 296.83 117.091 297.285C116.362 297.741 115.522 297.969 114.571 297.969C113.139 297.969 111.977 297.471 111.085 296.475C110.2 295.479 109.757 294.16 109.757 292.52V292.393ZM111.573 292.608C111.573 293.78 111.843 294.72 112.384 295.43C112.931 296.14 113.66 296.494 114.571 296.494C115.489 296.494 116.218 296.136 116.759 295.42C117.299 294.698 117.569 293.688 117.569 292.393C117.569 291.234 117.293 290.296 116.739 289.58C116.192 288.858 115.463 288.496 114.552 288.496C113.66 288.496 112.94 288.851 112.394 289.561C111.847 290.27 111.573 291.286 111.573 292.608ZM124.093 284.649V287.207H126.065V288.604H124.093V295.156C124.093 295.58 124.181 295.899 124.356 296.114C124.532 296.322 124.832 296.426 125.255 296.426C125.463 296.426 125.75 296.387 126.114 296.309V297.774C125.639 297.904 125.177 297.969 124.728 297.969C123.92 297.969 123.312 297.725 122.901 297.237C122.491 296.748 122.286 296.055 122.286 295.156V288.604H120.362V287.207H122.286V284.649H124.093ZM130.147 297.774H128.341V287.207H130.147V297.774ZM128.194 284.405C128.194 284.112 128.282 283.864 128.458 283.662C128.64 283.461 128.907 283.36 129.259 283.36C129.61 283.36 129.877 283.461 130.06 283.662C130.242 283.864 130.333 284.112 130.333 284.405C130.333 284.698 130.242 284.942 130.06 285.137C129.877 285.332 129.61 285.43 129.259 285.43C128.907 285.43 128.64 285.332 128.458 285.137C128.282 284.942 128.194 284.698 128.194 284.405ZM133.653 297.774V288.604H131.983V287.207H133.653V286.309C133.653 285.13 133.989 284.212 134.659 283.555C135.336 282.897 136.29 282.569 137.521 282.569C138.25 282.569 139.171 282.767 140.284 283.164L139.981 284.688C139.168 284.362 138.393 284.199 137.657 284.199C136.882 284.199 136.323 284.375 135.978 284.727C135.639 285.072 135.47 285.593 135.47 286.289V287.207H137.628V288.604H135.47V297.774H133.653ZM141.183 297.774H139.366V287.207H141.183V297.774ZM148.36 296.494C149.005 296.494 149.568 296.299 150.05 295.908C150.532 295.518 150.799 295.03 150.851 294.444H152.56C152.527 295.049 152.319 295.625 151.935 296.172C151.55 296.719 151.036 297.155 150.392 297.481C149.754 297.806 149.076 297.969 148.36 297.969C146.922 297.969 145.776 297.49 144.923 296.533C144.076 295.57 143.653 294.255 143.653 292.588V292.285C143.653 291.257 143.842 290.342 144.22 289.541C144.597 288.74 145.138 288.119 145.841 287.676C146.55 287.233 147.387 287.012 148.351 287.012C149.535 287.012 150.519 287.367 151.3 288.076C152.088 288.786 152.507 289.707 152.56 290.84H150.851C150.799 290.156 150.538 289.597 150.069 289.16C149.607 288.718 149.034 288.496 148.351 288.496C147.433 288.496 146.72 288.828 146.212 289.492C145.711 290.15 145.46 291.104 145.46 292.354V292.696C145.46 293.913 145.711 294.851 146.212 295.508C146.713 296.166 147.429 296.494 148.36 296.494ZM161.114 297.774C161.01 297.565 160.925 297.194 160.86 296.66C160.021 297.533 159.018 297.969 157.853 297.969C156.811 297.969 155.955 297.676 155.284 297.09C154.62 296.498 154.288 295.749 154.288 294.844C154.288 293.744 154.705 292.891 155.538 292.285C156.378 291.673 157.556 291.367 159.073 291.367H160.831V290.537C160.831 289.906 160.642 289.405 160.265 289.033C159.887 288.656 159.33 288.467 158.595 288.467C157.95 288.467 157.41 288.63 156.974 288.955C156.537 289.281 156.319 289.675 156.319 290.137H154.503C154.503 289.61 154.688 289.102 155.06 288.614C155.437 288.119 155.945 287.728 156.583 287.442C157.228 287.155 157.934 287.012 158.702 287.012C159.92 287.012 160.873 287.318 161.563 287.93C162.254 288.535 162.612 289.372 162.638 290.44V295.303C162.638 296.273 162.761 297.045 163.009 297.617V297.774H161.114ZM158.116 296.397C158.683 296.397 159.22 296.25 159.728 295.957C160.235 295.664 160.603 295.283 160.831 294.815V292.647H159.415C157.201 292.647 156.095 293.295 156.095 294.59C156.095 295.156 156.284 295.599 156.661 295.918C157.039 296.237 157.524 296.397 158.116 296.397ZM167.921 284.649V287.207H169.894V288.604H167.921V295.156C167.921 295.58 168.009 295.899 168.185 296.114C168.36 296.322 168.66 296.426 169.083 296.426C169.291 296.426 169.578 296.387 169.942 296.309V297.774C169.467 297.904 169.005 297.969 168.556 297.969C167.748 297.969 167.14 297.725 166.729 297.237C166.319 296.748 166.114 296.055 166.114 295.156V288.604H164.19V287.207H166.114V284.649H167.921ZM173.976 297.774H172.169V287.207H173.976V297.774ZM172.022 284.405C172.022 284.112 172.11 283.864 172.286 283.662C172.468 283.461 172.735 283.36 173.087 283.36C173.438 283.36 173.705 283.461 173.888 283.662C174.07 283.864 174.161 284.112 174.161 284.405C174.161 284.698 174.07 284.942 173.888 285.137C173.705 285.332 173.438 285.43 173.087 285.43C172.735 285.43 172.468 285.332 172.286 285.137C172.11 284.942 172.022 284.698 172.022 284.405ZM176.397 292.393C176.397 291.358 176.599 290.427 177.003 289.6C177.413 288.773 177.979 288.135 178.702 287.686C179.431 287.237 180.261 287.012 181.192 287.012C182.631 287.012 183.793 287.51 184.679 288.506C185.571 289.502 186.017 290.827 186.017 292.481V292.608C186.017 293.636 185.818 294.561 185.421 295.381C185.03 296.195 184.467 296.83 183.731 297.285C183.002 297.741 182.162 297.969 181.212 297.969C179.78 297.969 178.618 297.471 177.726 296.475C176.84 295.479 176.397 294.16 176.397 292.52V292.393ZM178.214 292.608C178.214 293.78 178.484 294.72 179.024 295.43C179.571 296.14 180.3 296.494 181.212 296.494C182.13 296.494 182.859 296.136 183.399 295.42C183.94 294.698 184.21 293.688 184.21 292.393C184.21 291.234 183.933 290.296 183.38 289.58C182.833 288.858 182.104 288.496 181.192 288.496C180.3 288.496 179.581 288.851 179.034 289.561C178.487 290.27 178.214 291.286 178.214 292.608ZM189.991 287.207L190.05 288.535C190.857 287.52 191.912 287.012 193.214 287.012C195.447 287.012 196.573 288.272 196.593 290.791V297.774H194.786V290.781C194.78 290.02 194.604 289.457 194.259 289.092C193.92 288.727 193.39 288.545 192.667 288.545C192.081 288.545 191.567 288.701 191.124 289.014C190.681 289.326 190.336 289.737 190.089 290.244V297.774H188.282V287.207H189.991ZM205.47 294.971C205.47 294.483 205.284 294.105 204.913 293.838C204.549 293.565 203.907 293.33 202.989 293.135C202.078 292.94 201.352 292.705 200.812 292.432C200.278 292.158 199.881 291.833 199.62 291.455C199.366 291.078 199.239 290.628 199.239 290.108C199.239 289.242 199.604 288.509 200.333 287.91C201.069 287.311 202.006 287.012 203.146 287.012C204.343 287.012 205.313 287.321 206.056 287.94C206.804 288.558 207.179 289.349 207.179 290.313H205.362C205.362 289.818 205.151 289.392 204.728 289.033C204.311 288.675 203.784 288.496 203.146 288.496C202.488 288.496 201.974 288.64 201.603 288.926C201.231 289.212 201.046 289.587 201.046 290.049C201.046 290.485 201.218 290.814 201.563 291.035C201.909 291.257 202.53 291.468 203.429 291.67C204.334 291.872 205.066 292.113 205.626 292.393C206.186 292.673 206.599 293.011 206.866 293.408C207.14 293.799 207.276 294.278 207.276 294.844C207.276 295.788 206.899 296.546 206.144 297.119C205.388 297.686 204.409 297.969 203.204 297.969C202.358 297.969 201.609 297.819 200.958 297.52C200.307 297.22 199.796 296.804 199.425 296.27C199.06 295.729 198.878 295.147 198.878 294.522H200.685C200.717 295.127 200.958 295.609 201.407 295.967C201.863 296.319 202.462 296.494 203.204 296.494C203.888 296.494 204.435 296.358 204.845 296.084C205.261 295.804 205.47 295.433 205.47 294.971Z" fill="#6A515E"/>
<line opacity="0.1" x1="31.0597" y1="343.137" x2="385.258" y2="344.609" stroke="black"/>
<rect x="31.0576" y="265.018" width="48.5113" height="48.5113" rx="16" fill="url(#paint1_linear)"/>
<path d="M48.7108 287.065C48.7102 285.693 49.137 284.355 49.9317 283.237C50.7264 282.119 51.8497 281.276 53.1454 280.826C53.0953 280.511 53.1139 280.19 53.2 279.883C53.2862 279.577 53.4378 279.293 53.6444 279.05C53.851 278.808 54.1077 278.614 54.3967 278.48C54.6858 278.347 55.0004 278.278 55.3187 278.278C55.6371 278.278 55.9516 278.347 56.2407 278.48C56.5298 278.614 56.7865 278.808 56.9931 279.05C57.1997 279.293 57.3513 279.577 57.4374 279.883C57.5235 280.19 57.5422 280.511 57.492 280.826C58.7857 281.278 59.9066 282.121 60.6992 283.239C61.4919 284.357 61.917 285.694 61.9156 287.065V293.667L65.2168 295.868V296.968H45.4097V295.868L48.7108 293.667V287.065ZM57.514 298.069C57.514 298.652 57.2821 299.212 56.8694 299.625C56.4567 300.038 55.8969 300.269 55.3132 300.269C54.7295 300.269 54.1697 300.038 53.757 299.625C53.3443 299.212 53.1124 298.652 53.1124 298.069H57.514Z" fill="white"/>
<rect x="31.0576" y="367.742" width="48.5113" height="48.5113" rx="16" fill="url(#paint2_linear)"/>
<path fill-rule="evenodd" clip-rule="evenodd" d="M51.2253 381.861C52.741 381.46 54.3497 381.098 55.3132 381.098C56.2752 381.098 57.8854 381.46 59.4011 381.861C60.753 382.224 62.0962 382.619 63.4294 383.046C64.1967 383.29 64.7751 383.951 64.887 384.766C65.7197 390.865 63.7884 395.385 61.4472 398.376C60.4496 399.659 59.2651 400.786 57.9334 401.718C57.4703 402.042 56.9808 402.327 56.47 402.57C56.0776 402.75 55.6591 402.897 55.3132 402.897C54.9673 402.897 54.5488 402.75 54.1564 402.57C53.6455 402.327 53.156 402.043 52.6931 401.718C51.3618 400.786 50.1779 399.659 49.1806 398.376C46.8366 395.385 44.9067 390.865 45.7394 384.766C45.7951 384.371 45.9615 384 46.2195 383.695C46.4774 383.391 46.8163 383.165 47.197 383.046C48.5302 382.619 49.8734 382.224 51.2253 381.861ZM56.0616 391.865C56.5408 391.69 56.9432 391.352 57.1989 390.91C57.4546 390.469 57.5473 389.952 57.4609 389.449C57.3745 388.946 57.1144 388.489 56.726 388.159C56.3376 387.828 55.8454 387.644 55.3352 387.638C54.825 387.633 54.3291 387.807 53.9339 388.13C53.5387 388.452 53.2692 388.903 53.1724 389.404C53.0755 389.905 53.1575 390.424 53.404 390.871C53.6504 391.318 54.0458 391.664 54.5212 391.849C54.4905 391.912 54.469 391.978 54.4573 392.047L53.9733 394.953C53.956 395.057 53.9616 395.164 53.9896 395.266C54.0177 395.367 54.0675 395.462 54.1357 395.542C54.2039 395.623 54.2887 395.687 54.3844 395.732C54.4801 395.776 54.5843 395.799 54.6898 395.799H55.9032C56.0091 395.799 56.1138 395.776 56.2098 395.731C56.3059 395.687 56.391 395.622 56.4592 395.541C56.5275 395.46 56.5772 395.365 56.6049 395.263C56.6326 395.16 56.6377 395.053 56.6197 394.949L56.1154 392.042C56.1051 391.981 56.087 391.922 56.0616 391.865Z" fill="white"/>
<path d="M106.72 395.986C106.544 397.49 105.987 398.652 105.05 399.472C104.119 400.286 102.879 400.693 101.329 400.693C99.6494 400.693 98.3018 400.091 97.2861 398.886C96.277 397.682 95.7725 396.07 95.7725 394.052V392.685C95.7725 391.363 96.0068 390.201 96.4756 389.199C96.9508 388.196 97.6214 387.428 98.4873 386.894C99.3532 386.354 100.356 386.083 101.495 386.083C103.006 386.083 104.216 386.507 105.128 387.353C106.039 388.193 106.57 389.358 106.72 390.849H104.835C104.672 389.716 104.317 388.896 103.771 388.388C103.23 387.88 102.472 387.626 101.495 387.626C100.297 387.626 99.3564 388.069 98.6729 388.954C97.9958 389.84 97.6572 391.1 97.6572 392.734V394.111C97.6572 395.654 97.9795 396.881 98.624 397.792C99.2686 398.704 100.17 399.16 101.329 399.16C102.371 399.16 103.168 398.925 103.722 398.456C104.282 397.981 104.653 397.158 104.835 395.986H106.72ZM110.812 391.21C111.612 390.227 112.654 389.736 113.937 389.736C116.17 389.736 117.296 390.995 117.315 393.515V400.497H115.509V393.505C115.502 392.744 115.326 392.18 114.981 391.816C114.643 391.451 114.112 391.269 113.39 391.269C112.804 391.269 112.289 391.425 111.847 391.738C111.404 392.05 111.059 392.46 110.812 392.968V400.497H109.005V385.497H110.812V391.21ZM126.544 400.497C126.44 400.289 126.355 399.918 126.29 399.384C125.45 400.257 124.448 400.693 123.282 400.693C122.241 400.693 121.384 400.4 120.714 399.814C120.05 399.221 119.718 398.473 119.718 397.568C119.718 396.467 120.134 395.615 120.968 395.009C121.808 394.397 122.986 394.091 124.503 394.091H126.261V393.261C126.261 392.63 126.072 392.128 125.694 391.757C125.317 391.38 124.76 391.191 124.024 391.191C123.38 391.191 122.84 391.354 122.403 391.679C121.967 392.005 121.749 392.398 121.749 392.861H119.933C119.933 392.333 120.118 391.826 120.489 391.337C120.867 390.842 121.375 390.452 122.013 390.165C122.657 389.879 123.364 389.736 124.132 389.736C125.349 389.736 126.303 390.042 126.993 390.654C127.683 391.259 128.041 392.096 128.067 393.163V398.027C128.067 398.997 128.191 399.768 128.438 400.341V400.497H126.544ZM123.546 399.12C124.112 399.12 124.649 398.974 125.157 398.681C125.665 398.388 126.033 398.007 126.261 397.538V395.37H124.845C122.631 395.37 121.524 396.018 121.524 397.314C121.524 397.88 121.713 398.323 122.091 398.642C122.468 398.961 122.953 399.12 123.546 399.12ZM132.608 389.931L132.667 391.259C133.474 390.244 134.529 389.736 135.831 389.736C138.064 389.736 139.19 390.995 139.21 393.515V400.497H137.403V393.505C137.397 392.744 137.221 392.18 136.876 391.816C136.537 391.451 136.007 391.269 135.284 391.269C134.698 391.269 134.184 391.425 133.741 391.738C133.299 392.05 132.953 392.46 132.706 392.968V400.497H130.899V389.931H132.608ZM141.505 395.126C141.505 393.479 141.886 392.171 142.647 391.201C143.409 390.224 144.418 389.736 145.675 389.736C146.964 389.736 147.97 390.191 148.692 391.103L148.78 389.931H150.431V400.244C150.431 401.611 150.024 402.688 149.21 403.476C148.403 404.264 147.315 404.658 145.948 404.658C145.187 404.658 144.441 404.495 143.712 404.169C142.983 403.844 142.426 403.398 142.042 402.831L142.979 401.747C143.754 402.704 144.701 403.183 145.821 403.183C146.7 403.183 147.384 402.936 147.872 402.441C148.367 401.946 148.614 401.249 148.614 400.351V399.443C147.892 400.276 146.905 400.693 145.655 400.693C144.418 400.693 143.416 400.195 142.647 399.199C141.886 398.203 141.505 396.845 141.505 395.126ZM143.321 395.331C143.321 396.523 143.565 397.46 144.054 398.144C144.542 398.821 145.226 399.16 146.104 399.16C147.244 399.16 148.08 398.642 148.614 397.607V392.783C148.061 391.773 147.231 391.269 146.124 391.269C145.245 391.269 144.558 391.611 144.063 392.294C143.569 392.978 143.321 393.99 143.321 395.331ZM157.55 400.693C156.118 400.693 154.952 400.224 154.054 399.286C153.155 398.342 152.706 397.083 152.706 395.507V395.175C152.706 394.127 152.905 393.193 153.302 392.372C153.705 391.546 154.265 390.901 154.981 390.439C155.704 389.97 156.485 389.736 157.325 389.736C158.699 389.736 159.767 390.188 160.528 391.093C161.29 391.998 161.671 393.294 161.671 394.98V395.732H154.513C154.539 396.773 154.841 397.617 155.421 398.261C156.007 398.899 156.749 399.218 157.647 399.218C158.285 399.218 158.826 399.088 159.269 398.828C159.711 398.567 160.099 398.222 160.431 397.792L161.534 398.652C160.649 400.012 159.321 400.693 157.55 400.693ZM157.325 391.22C156.596 391.22 155.984 391.487 155.489 392.021C154.994 392.548 154.688 393.29 154.571 394.247H159.864V394.111C159.812 393.193 159.565 392.483 159.122 391.982C158.679 391.474 158.08 391.22 157.325 391.22ZM170.89 394.931V400.497H169.015V386.279H174.259C175.815 386.279 177.032 386.676 177.911 387.47C178.797 388.264 179.239 389.316 179.239 390.624C179.239 392.005 178.806 393.069 177.94 393.818C177.081 394.56 175.847 394.931 174.239 394.931H170.89ZM170.89 393.398H174.259C175.261 393.398 176.03 393.163 176.563 392.695C177.097 392.219 177.364 391.536 177.364 390.644C177.364 389.798 177.097 389.12 176.563 388.613C176.03 388.105 175.297 387.841 174.366 387.822H170.89V393.398ZM187.755 400.497C187.651 400.289 187.566 399.918 187.501 399.384C186.661 400.257 185.659 400.693 184.493 400.693C183.451 400.693 182.595 400.4 181.925 399.814C181.261 399.221 180.929 398.473 180.929 397.568C180.929 396.467 181.345 395.615 182.179 395.009C183.019 394.397 184.197 394.091 185.714 394.091H187.472V393.261C187.472 392.63 187.283 392.128 186.905 391.757C186.528 391.38 185.971 391.191 185.235 391.191C184.591 391.191 184.05 391.354 183.614 391.679C183.178 392.005 182.96 392.398 182.96 392.861H181.144C181.144 392.333 181.329 391.826 181.7 391.337C182.078 390.842 182.586 390.452 183.224 390.165C183.868 389.879 184.575 389.736 185.343 389.736C186.56 389.736 187.514 390.042 188.204 390.654C188.894 391.259 189.252 392.096 189.278 393.163V398.027C189.278 398.997 189.402 399.768 189.649 400.341V400.497H187.755ZM184.757 399.12C185.323 399.12 185.86 398.974 186.368 398.681C186.876 398.388 187.244 398.007 187.472 397.538V395.37H186.056C183.842 395.37 182.735 396.018 182.735 397.314C182.735 397.88 182.924 398.323 183.302 398.642C183.679 398.961 184.164 399.12 184.757 399.12ZM198.263 397.695C198.263 397.206 198.077 396.829 197.706 396.562C197.341 396.288 196.7 396.054 195.782 395.859C194.871 395.663 194.145 395.429 193.604 395.156C193.071 394.882 192.674 394.557 192.413 394.179C192.159 393.801 192.032 393.352 192.032 392.831C192.032 391.966 192.397 391.233 193.126 390.634C193.862 390.035 194.799 389.736 195.938 389.736C197.136 389.736 198.106 390.045 198.849 390.663C199.597 391.282 199.972 392.073 199.972 393.036H198.155C198.155 392.542 197.944 392.115 197.521 391.757C197.104 391.399 196.576 391.22 195.938 391.22C195.281 391.22 194.767 391.363 194.396 391.65C194.024 391.936 193.839 392.311 193.839 392.773C193.839 393.209 194.011 393.538 194.356 393.759C194.701 393.981 195.323 394.192 196.222 394.394C197.127 394.596 197.859 394.837 198.419 395.117C198.979 395.397 199.392 395.735 199.659 396.132C199.933 396.523 200.069 397.001 200.069 397.568C200.069 398.512 199.692 399.27 198.937 399.843C198.181 400.41 197.201 400.693 195.997 400.693C195.151 400.693 194.402 400.543 193.751 400.244C193.1 399.944 192.589 399.527 192.218 398.994C191.853 398.453 191.671 397.87 191.671 397.245H193.478C193.51 397.851 193.751 398.333 194.2 398.691C194.656 399.042 195.255 399.218 195.997 399.218C196.681 399.218 197.228 399.081 197.638 398.808C198.054 398.528 198.263 398.157 198.263 397.695ZM208.575 397.695C208.575 397.206 208.39 396.829 208.019 396.562C207.654 396.288 207.013 396.054 206.095 395.859C205.183 395.663 204.457 395.429 203.917 395.156C203.383 394.882 202.986 394.557 202.726 394.179C202.472 393.801 202.345 393.352 202.345 392.831C202.345 391.966 202.709 391.233 203.438 390.634C204.174 390.035 205.112 389.736 206.251 389.736C207.449 389.736 208.419 390.045 209.161 390.663C209.91 391.282 210.284 392.073 210.284 393.036H208.468C208.468 392.542 208.256 392.115 207.833 391.757C207.416 391.399 206.889 391.22 206.251 391.22C205.593 391.22 205.079 391.363 204.708 391.65C204.337 391.936 204.151 392.311 204.151 392.773C204.151 393.209 204.324 393.538 204.669 393.759C205.014 393.981 205.636 394.192 206.534 394.394C207.439 394.596 208.172 394.837 208.731 395.117C209.291 395.397 209.705 395.735 209.972 396.132C210.245 396.523 210.382 397.001 210.382 397.568C210.382 398.512 210.004 399.27 209.249 399.843C208.494 400.41 207.514 400.693 206.31 400.693C205.463 400.693 204.715 400.543 204.063 400.244C203.412 399.944 202.901 399.527 202.53 398.994C202.166 398.453 201.983 397.87 201.983 397.245H203.79C203.823 397.851 204.063 398.333 204.513 398.691C204.968 399.042 205.567 399.218 206.31 399.218C206.993 399.218 207.54 399.081 207.95 398.808C208.367 398.528 208.575 398.157 208.575 397.695ZM222.091 398.007L224.122 389.931H225.929L222.853 400.497H221.388L218.819 392.49L216.319 400.497H214.854L211.788 389.931H213.585L215.665 397.841L218.126 389.931H219.581L222.091 398.007ZM227.296 395.117C227.296 394.081 227.498 393.15 227.901 392.324C228.312 391.497 228.878 390.859 229.601 390.41C230.33 389.96 231.16 389.736 232.091 389.736C233.53 389.736 234.692 390.234 235.577 391.23C236.469 392.226 236.915 393.551 236.915 395.204V395.331C236.915 396.36 236.716 397.285 236.319 398.105C235.929 398.919 235.366 399.553 234.63 400.009C233.901 400.465 233.061 400.693 232.11 400.693C230.678 400.693 229.516 400.195 228.624 399.199C227.739 398.203 227.296 396.884 227.296 395.244V395.117ZM229.112 395.331C229.112 396.503 229.382 397.444 229.923 398.154C230.47 398.863 231.199 399.218 232.11 399.218C233.028 399.218 233.757 398.86 234.298 398.144C234.838 397.421 235.108 396.412 235.108 395.117C235.108 393.958 234.832 393.02 234.278 392.304C233.731 391.581 233.002 391.22 232.091 391.22C231.199 391.22 230.479 391.575 229.933 392.285C229.386 392.994 229.112 394.01 229.112 395.331ZM244.288 391.552C244.015 391.507 243.718 391.484 243.399 391.484C242.215 391.484 241.41 391.988 240.987 392.997V400.497H239.181V389.931H240.938L240.968 391.152C241.56 390.208 242.4 389.736 243.487 389.736C243.839 389.736 244.106 389.781 244.288 389.872V391.552ZM245.323 395.126C245.323 393.505 245.707 392.203 246.476 391.22C247.244 390.231 248.25 389.736 249.493 389.736C250.73 389.736 251.71 390.159 252.433 391.005V385.497H254.239V400.497H252.579L252.491 399.365C251.769 400.25 250.763 400.693 249.474 400.693C248.25 400.693 247.25 400.191 246.476 399.189C245.707 398.186 245.323 396.878 245.323 395.263V395.126ZM247.13 395.331C247.13 396.529 247.377 397.467 247.872 398.144C248.367 398.821 249.05 399.16 249.923 399.16C251.069 399.16 251.905 398.645 252.433 397.617V392.763C251.892 391.767 251.062 391.269 249.942 391.269C249.057 391.269 248.367 391.611 247.872 392.294C247.377 392.978 247.13 393.99 247.13 395.331Z" fill="#6A515E"/>
<line opacity="0.1" x1="31.0597" y1="445.861" x2="385.258" y2="447.333" stroke="black"/>
<path d="M98.6826 489.002L103.331 500.604L107.979 489.002H110.411V503.221H108.536V497.684L108.712 491.708L104.044 503.221H102.608L97.9502 491.737L98.1357 497.684V503.221H96.2607V489.002H98.6826ZM112.96 497.84C112.96 496.805 113.162 495.874 113.565 495.047C113.976 494.221 114.542 493.583 115.265 493.133C115.994 492.684 116.824 492.459 117.755 492.459C119.194 492.459 120.356 492.958 121.241 493.954C122.133 494.95 122.579 496.275 122.579 497.928V498.055C122.579 499.084 122.381 500.008 121.983 500.829C121.593 501.642 121.03 502.277 120.294 502.733C119.565 503.189 118.725 503.417 117.774 503.417C116.342 503.417 115.18 502.918 114.288 501.922C113.403 500.926 112.96 499.608 112.96 497.967V497.84ZM114.776 498.055C114.776 499.227 115.047 500.168 115.587 500.877C116.134 501.587 116.863 501.942 117.774 501.942C118.692 501.942 119.422 501.584 119.962 500.868C120.502 500.145 120.772 499.136 120.772 497.84C120.772 496.681 120.496 495.744 119.942 495.028C119.396 494.305 118.666 493.944 117.755 493.944C116.863 493.944 116.144 494.299 115.597 495.008C115.05 495.718 114.776 496.734 114.776 498.055ZM124.405 497.85C124.405 496.229 124.789 494.927 125.558 493.944C126.326 492.954 127.332 492.459 128.575 492.459C129.812 492.459 130.792 492.883 131.515 493.729V488.221H133.321V503.221H131.661L131.573 502.088C130.851 502.974 129.845 503.417 128.556 503.417C127.332 503.417 126.332 502.915 125.558 501.913C124.789 500.91 124.405 499.601 124.405 497.987V497.85ZM126.212 498.055C126.212 499.253 126.459 500.191 126.954 500.868C127.449 501.545 128.132 501.883 129.005 501.883C130.151 501.883 130.987 501.369 131.515 500.34V495.487C130.974 494.491 130.144 493.993 129.024 493.993C128.139 493.993 127.449 494.334 126.954 495.018C126.459 495.702 126.212 496.714 126.212 498.055ZM140.519 503.417C139.086 503.417 137.921 502.948 137.022 502.01C136.124 501.066 135.675 499.806 135.675 498.231V497.899C135.675 496.851 135.873 495.917 136.271 495.096C136.674 494.269 137.234 493.625 137.95 493.163C138.673 492.694 139.454 492.459 140.294 492.459C141.668 492.459 142.735 492.912 143.497 493.817C144.259 494.722 144.64 496.017 144.64 497.704V498.456H137.481C137.507 499.497 137.81 500.34 138.39 500.985C138.976 501.623 139.718 501.942 140.616 501.942C141.254 501.942 141.795 501.812 142.237 501.551C142.68 501.291 143.067 500.946 143.399 500.516L144.503 501.375C143.618 502.736 142.289 503.417 140.519 503.417ZM140.294 493.944C139.565 493.944 138.953 494.211 138.458 494.745C137.963 495.272 137.657 496.014 137.54 496.971H142.833V496.834C142.781 495.917 142.534 495.207 142.091 494.706C141.648 494.198 141.049 493.944 140.294 493.944Z" fill="#6A515E"/>
<path d="M234.772 504.221V490.002H238.786C240.023 490.002 241.116 490.276 242.067 490.823C243.017 491.37 243.75 492.148 244.264 493.157C244.785 494.166 245.049 495.325 245.055 496.633V497.542C245.055 498.883 244.795 500.058 244.274 501.067C243.76 502.076 243.021 502.851 242.057 503.391C241.1 503.931 239.984 504.208 238.708 504.221H234.772ZM236.647 491.545V502.688H238.62C240.065 502.688 241.188 502.239 241.989 501.34C242.796 500.442 243.2 499.163 243.2 497.502V496.672C243.2 495.058 242.819 493.805 242.057 492.913C241.302 492.014 240.228 491.558 238.834 491.545H236.647ZM254.137 504.221C254.033 504.013 253.948 503.642 253.883 503.108C253.043 503.98 252.041 504.417 250.875 504.417C249.834 504.417 248.978 504.124 248.307 503.538C247.643 502.945 247.311 502.196 247.311 501.292C247.311 500.191 247.728 499.338 248.561 498.733C249.401 498.121 250.579 497.815 252.096 497.815H253.854V496.985C253.854 496.353 253.665 495.852 253.288 495.481C252.91 495.103 252.353 494.915 251.618 494.915C250.973 494.915 250.433 495.077 249.997 495.403C249.56 495.728 249.342 496.122 249.342 496.584H247.526C247.526 496.057 247.711 495.549 248.083 495.061C248.46 494.566 248.968 494.176 249.606 493.889C250.25 493.603 250.957 493.459 251.725 493.459C252.943 493.459 253.896 493.765 254.586 494.377C255.277 494.983 255.635 495.819 255.661 496.887V501.75C255.661 502.721 255.784 503.492 256.032 504.065V504.221H254.137ZM251.139 502.844C251.706 502.844 252.243 502.698 252.75 502.405C253.258 502.112 253.626 501.731 253.854 501.262V499.094H252.438C250.224 499.094 249.118 499.742 249.118 501.038C249.118 501.604 249.306 502.047 249.684 502.366C250.062 502.685 250.547 502.844 251.139 502.844ZM261.793 501.575L264.254 493.655H266.188L261.94 505.852C261.282 507.61 260.237 508.489 258.805 508.489L258.463 508.459L257.79 508.333V506.868L258.278 506.907C258.89 506.907 259.365 506.783 259.704 506.536C260.049 506.288 260.332 505.836 260.553 505.178L260.954 504.104L257.184 493.655H259.157L261.793 501.575Z" fill="#DFE7ED"/>
<path d="M352.868 504.221H350.983L343.825 493.264V504.221H341.94V490.002H343.825L351.002 501.008V490.002H352.868V504.221ZM357.877 504.221H356.071V493.655H357.877V504.221ZM355.924 490.852C355.924 490.559 356.012 490.312 356.188 490.11C356.37 489.908 356.637 489.807 356.989 489.807C357.34 489.807 357.607 489.908 357.79 490.11C357.972 490.312 358.063 490.559 358.063 490.852C358.063 491.145 357.972 491.389 357.79 491.584C357.607 491.78 357.34 491.877 356.989 491.877C356.637 491.877 356.37 491.78 356.188 491.584C356.012 491.389 355.924 491.145 355.924 490.852ZM360.348 498.85C360.348 497.203 360.729 495.894 361.491 494.924C362.252 493.948 363.262 493.459 364.518 493.459C365.807 493.459 366.813 493.915 367.536 494.827L367.624 493.655H369.274V503.967C369.274 505.334 368.867 506.412 368.053 507.2C367.246 507.987 366.159 508.381 364.792 508.381C364.03 508.381 363.284 508.219 362.555 507.893C361.826 507.568 361.269 507.122 360.885 506.555L361.823 505.471C362.597 506.428 363.545 506.907 364.665 506.907C365.543 506.907 366.227 506.659 366.715 506.165C367.21 505.67 367.458 504.973 367.458 504.075V503.167C366.735 504 365.749 504.417 364.499 504.417C363.262 504.417 362.259 503.918 361.491 502.922C360.729 501.926 360.348 500.569 360.348 498.85ZM362.165 499.055C362.165 500.247 362.409 501.184 362.897 501.868C363.385 502.545 364.069 502.883 364.948 502.883C366.087 502.883 366.924 502.366 367.458 501.331V496.506C366.904 495.497 366.074 494.993 364.967 494.993C364.088 494.993 363.402 495.334 362.907 496.018C362.412 496.702 362.165 497.714 362.165 499.055ZM373.815 494.934C374.616 493.951 375.657 493.459 376.94 493.459C379.173 493.459 380.299 494.719 380.319 497.239V504.221H378.512V497.229C378.506 496.467 378.33 495.904 377.985 495.54C377.646 495.175 377.116 494.993 376.393 494.993C375.807 494.993 375.293 495.149 374.85 495.461C374.407 495.774 374.062 496.184 373.815 496.692V504.221H372.008V489.221H373.815V494.934ZM385.475 491.096V493.655H387.448V495.051H385.475V501.604C385.475 502.027 385.563 502.346 385.739 502.561C385.915 502.769 386.214 502.874 386.637 502.874C386.846 502.874 387.132 502.834 387.497 502.756V504.221C387.021 504.351 386.559 504.417 386.11 504.417C385.303 504.417 384.694 504.172 384.284 503.684C383.874 503.196 383.668 502.502 383.668 501.604V495.051H381.745V493.655H383.668V491.096H385.475Z" fill="#DFE7ED"/>
<line opacity="0.1" x1="31.0597" y1="548.584" x2="385.258" y2="550.056" stroke="black"/>
<rect x="31.0576" y="470.466" width="48.5113" height="48.5113" rx="16" fill="url(#paint3_linear)"/>
<g clip-path="url(#clip2)">
<path d="M43.1563 488.802L50.7618 485.221C51.5469 486.253 53.2852 486.973 55.3126 486.973C57.3399 486.973 59.0782 486.253 59.8634 485.221L67.4688 488.802C67.7774 488.951 67.9024 489.307 67.7501 489.6L65.5157 493.849C65.3595 494.142 64.9845 494.261 64.6759 494.116L62.4649 493.088C62.0509 492.895 61.5665 493.181 61.5665 493.623V503.034C61.5665 503.691 61.0079 504.221 60.3165 504.221H50.3165C49.6251 504.221 49.0665 503.691 49.0665 503.034V493.619C49.0665 493.181 48.5821 492.892 48.168 493.085L45.9571 494.113C45.6485 494.261 45.2735 494.142 45.1172 493.845L42.879 489.6C42.7227 489.307 42.8477 488.947 43.1563 488.802Z" fill="white"/>
</g>
<g filter="url(#filter0_d)">
<path fill-rule="evenodd" clip-rule="evenodd" d="M-0.131189 820.381C1.00061 816.759 4.43723 805.76 20.5652 805.76H140.121C149.056 805.76 158.644 809.161 167.61 828.428C171.374 841.953 181.435 858.072 206.845 858.321L206.845 858.321C232.255 858.072 242.316 841.953 246.081 828.428C255.046 809.161 264.634 805.76 273.569 805.76H393.125C409.253 805.76 412.69 816.759 413.821 820.382C413.888 820.595 413.947 820.783 414 820.942V896H206.845L206.845 896H-0.30957V820.942C-0.25671 820.783 -0.19796 820.595 -0.131189 820.381Z" fill="white"/>
</g>
<path fill-rule="evenodd" clip-rule="evenodd" d="M35.8157 861.791V848.384H37.8782V861.791C37.8782 862.064 37.9868 862.326 38.1802 862.52C38.3736 862.713 38.6359 862.822 38.9094 862.822H57.4719C57.7454 862.822 58.0077 862.713 58.2011 862.52C58.3945 862.326 58.5032 862.064 58.5032 861.791V848.384H60.5657V861.791C60.5657 862.611 60.2397 863.398 59.6595 863.978C59.0793 864.558 58.2924 864.884 57.4719 864.884H38.9094C38.0889 864.884 37.302 864.558 36.7218 863.978C36.1416 863.398 35.8157 862.611 35.8157 861.791ZM58.5032 839.103V846.322L54.3782 842.197V839.103C54.3782 838.83 54.4868 838.567 54.6802 838.374C54.8736 838.181 55.1359 838.072 55.4094 838.072H57.4719C57.7454 838.072 58.0077 838.181 58.2011 838.374C58.3945 838.567 58.5032 838.83 58.5032 839.103Z" fill="url(#paint4_linear)"/>
<path fill-rule="evenodd" clip-rule="evenodd" d="M46.7323 837.041C47.1191 836.654 47.6436 836.437 48.1905 836.437C48.7374 836.437 49.2619 836.654 49.6487 837.041L63.3581 850.748C63.5518 850.942 63.6606 851.204 63.6606 851.478C63.6606 851.752 63.5518 852.015 63.3581 852.208C63.1645 852.402 62.9019 852.511 62.628 852.511C62.3542 852.511 62.0915 852.402 61.8979 852.208L48.1905 838.499L34.4831 852.208C34.2895 852.402 34.0269 852.511 33.753 852.511C33.4792 852.511 33.2165 852.402 33.0229 852.208C32.8292 852.015 32.7205 851.752 32.7205 851.478C32.7205 851.204 32.8292 850.942 33.0229 850.748L46.7323 837.041Z" fill="url(#paint5_linear)"/>
<path d="M366.294 834.614C361.929 834.614 358.378 838.165 358.378 842.53C358.378 846.895 361.929 850.447 366.294 850.447C370.66 850.447 374.211 846.895 374.211 842.53C374.211 838.165 370.66 834.614 366.294 834.614ZM366.294 847.28C363.676 847.28 361.544 845.149 361.544 842.53C361.544 839.911 363.676 837.78 366.294 837.78C368.913 837.78 371.044 839.911 371.044 842.53C371.044 845.149 368.913 847.28 366.294 847.28ZM380.544 864.697V863.114C380.544 857.003 375.571 852.03 369.461 852.03H363.128C357.016 852.03 352.044 857.003 352.044 863.114V864.697H355.211V863.114C355.211 858.748 358.763 855.197 363.128 855.197H369.461C373.826 855.197 377.378 858.748 377.378 863.114V864.697H380.544Z" fill="#DFE7ED"/>
<g filter="url(#filter1_d)">
<circle cx="206.845" cy="816.626" r="32.7021" fill="url(#paint6_linear)"/>
</g>
<path d="M206.93 807.381L197.285 817.847M206.93 807.381L216.405 817.847M206.93 807.381V825.871" stroke="white" stroke-width="3" stroke-linecap="round"/>
<path d="M278.325 835.562V858.624H282.7V863.749H308.95V840.687H304.575V835.562H278.325ZM280.513 838.124H302.388V856.062H280.513V838.124ZM282.7 840.687V853.499H300.2V840.687H282.7ZM284.888 843.249H298.013V850.937H284.888V843.249ZM304.575 843.249H306.763V861.187H284.888V858.624H304.575V843.249Z" fill="#DFE7ED"/>
<path d="M121.388 870.717C122.018 870.702 122.622 870.465 123.095 870.048C123.567 869.631 123.876 869.06 123.968 868.437H118.708C118.802 869.077 119.126 869.661 119.619 870.081C120.112 870.5 120.741 870.726 121.388 870.717Z" fill="#DFE7ED"/>
<path d="M135.898 864.267C134.934 863.407 134.089 862.422 133.388 861.337C132.622 859.839 132.163 858.204 132.038 856.527V851.587C132.034 850.987 131.98 850.388 131.878 849.797C131.091 849.639 130.334 849.356 129.638 848.957C129.903 849.812 130.038 850.702 130.038 851.597V856.537C130.161 858.583 130.723 860.578 131.688 862.387C132.378 863.481 133.198 864.488 134.128 865.387H108.518C109.448 864.488 110.268 863.481 110.958 862.387C111.923 860.578 112.485 858.583 112.608 856.537V851.587C112.603 850.429 112.826 849.282 113.264 848.212C113.703 847.141 114.349 846.167 115.164 845.345C115.98 844.524 116.949 843.872 118.017 843.426C119.085 842.98 120.231 842.749 121.388 842.747C123.082 842.748 124.738 843.249 126.148 844.187C125.992 843.616 125.905 843.028 125.888 842.437V841.807C124.844 841.293 123.722 840.955 122.568 840.807V839.547C122.568 839.193 122.427 838.853 122.177 838.603C121.927 838.352 121.587 838.212 121.233 838.212C120.879 838.212 120.539 838.352 120.289 838.603C120.039 838.853 119.898 839.193 119.898 839.547V840.857C117.314 841.221 114.949 842.509 113.239 844.481C111.53 846.453 110.592 848.977 110.598 851.587V856.527C110.473 858.204 110.014 859.839 109.248 861.337C108.559 862.419 107.728 863.405 106.778 864.267C106.671 864.361 106.586 864.476 106.527 864.605C106.469 864.734 106.438 864.875 106.438 865.017V866.377C106.438 866.642 106.543 866.896 106.731 867.084C106.918 867.271 107.173 867.377 107.438 867.377H135.238C135.503 867.377 135.758 867.271 135.945 867.084C136.133 866.896 136.238 866.642 136.238 866.377V865.017C136.238 864.875 136.207 864.734 136.149 864.605C136.09 864.476 136.005 864.361 135.898 864.267Z" fill="#DFE7ED"/>
<path d="M133.388 847.437C136.149 847.437 138.388 845.198 138.388 842.437C138.388 839.675 136.149 837.437 133.388 837.437C130.627 837.437 128.388 839.675 128.388 842.437C128.388 845.198 130.627 847.437 133.388 847.437Z" fill="#DFE7ED"/>
</g>
<defs>
<filter id="filter0_d" x="-15.3096" y="783.76" width="444.309" height="120.24" filterUnits="userSpaceOnUse" color-interpolation-filters="sRGB">
<feFlood flood-opacity="0" result="BackgroundImageFix"/>
<feColorMatrix in="SourceAlpha" type="matrix" values="0 0 0 0 0 0 0 0 0 0 0 0 0 0 0 0 0 0 127 0"/>
<feOffset dy="-7"/>
<feGaussianBlur stdDeviation="7.5"/>
<feColorMatrix type="matrix" values="0 0 0 0 0.895833 0 0 0 0 0.895833 0 0 0 0 0.895833 0 0 0 0.74 0"/>
<feBlend mode="normal" in2="BackgroundImageFix" result="effect1_dropShadow"/>
<feBlend mode="normal" in="SourceGraphic" in2="effect1_dropShadow" result="shape"/>
</filter>
<filter id="filter1_d" x="167.143" y="776.924" width="79.4041" height="79.4041" filterUnits="userSpaceOnUse" color-interpolation-filters="sRGB">
<feFlood flood-opacity="0" result="BackgroundImageFix"/>
<feColorMatrix in="SourceAlpha" type="matrix" values="0 0 0 0 0 0 0 0 0 0 0 0 0 0 0 0 0 0 127 0"/>
<feOffset/>
<feGaussianBlur stdDeviation="3.5"/>
<feColorMatrix type="matrix" values="0 0 0 0 0.517647 0 0 0 0 0.568627 0 0 0 0 0.964706 0 0 0 1 0"/>
<feBlend mode="normal" in2="BackgroundImageFix" result="effect1_dropShadow"/>
<feBlend mode="normal" in="SourceGraphic" in2="effect1_dropShadow" result="shape"/>
</filter>
<linearGradient id="paint0_linear" x1="55.3132" y1="162.294" x2="55.3132" y2="210.806" gradientUnits="userSpaceOnUse">
<stop stop-color="#8491F6"/>
<stop offset="1" stop-color="#50A9DF"/>
</linearGradient>
<linearGradient id="paint1_linear" x1="55.3132" y1="265.018" x2="55.3132" y2="313.529" gradientUnits="userSpaceOnUse">
<stop stop-color="#A5E6FF"/>
<stop offset="0.505208" stop-color="#5AC6FF"/>
<stop offset="1" stop-color="#379FD5"/>
</linearGradient>
<linearGradient id="paint2_linear" x1="55.3132" y1="367.742" x2="55.3132" y2="416.253" gradientUnits="userSpaceOnUse">
<stop stop-color="#FFADC0"/>
<stop offset="1" stop-color="#FF95BE"/>
</linearGradient>
<linearGradient id="paint3_linear" x1="55.3132" y1="470.466" x2="55.3132" y2="518.977" gradientUnits="userSpaceOnUse">
<stop stop-color="#FFD079"/>
<stop offset="1" stop-color="#FFB634"/>
</linearGradient>
<linearGradient id="paint4_linear" x1="48.1907" y1="838.072" x2="48.1907" y2="864.884" gradientUnits="userSpaceOnUse">
<stop stop-color="#8491F6"/>
<stop offset="1" stop-color="#50A9DF"/>
</linearGradient>
<linearGradient id="paint5_linear" x1="48.1905" y1="836.437" x2="48.1905" y2="852.511" gradientUnits="userSpaceOnUse">
<stop stop-color="#8491F6"/>
<stop offset="1" stop-color="#50A9DF"/>
</linearGradient>
<linearGradient id="paint6_linear" x1="206.845" y1="783.924" x2="206.845" y2="849.328" gradientUnits="userSpaceOnUse">
<stop stop-color="#8491F6"/>
<stop offset="1" stop-color="#50A9DF"/>
</linearGradient>
<clipPath id="clip0">
<rect width="414" height="896" fill="white"/>
</clipPath>
<clipPath id="clip1">
<rect width="25" height="19" fill="white" transform="matrix(-1 0 0 1 67.813 177.05)"/>
</clipPath>
<clipPath id="clip2">
<rect width="25" height="19" fill="white" transform="matrix(-1 0 0 1 67.813 485.221)"/>
</clipPath>
</defs>
</svg>
