<svg width="49" height="50" viewBox="0 0 49 50" fill="none" xmlns="http://www.w3.org/2000/svg">
<rect x="0.0576172" y="0.741821" width="48.5113" height="48.5113" rx="16" fill="url(#paint0_linear)"/>
<path fill-rule="evenodd" clip-rule="evenodd" d="M20.2253 14.8612C21.741 14.4601 23.3497 14.0983 24.3132 14.0983C25.2752 14.0983 26.8854 14.4601 28.4011 14.8612C29.753 15.2242 31.0962 15.6191 32.4294 16.0456C33.1967 16.2897 33.7751 16.9509 33.887 17.7662C34.7197 23.8653 32.7884 28.3849 30.4472 31.3756C29.4496 32.6591 28.2651 33.7857 26.9334 34.718C26.4703 35.0424 25.9808 35.3272 25.47 35.5696C25.0776 35.7498 24.6591 35.8965 24.3132 35.8965C23.9673 35.8965 23.5488 35.7498 23.1564 35.5696C22.6455 35.3274 22.156 35.0425 21.6931 34.718C20.3618 33.7856 19.1779 32.659 18.1806 31.3756C15.8366 28.3849 13.9067 23.8653 14.7394 17.7662C14.7951 17.371 14.9615 16.9997 15.2195 16.6952C15.4774 16.3907 15.8163 16.1655 16.197 16.0456C17.5302 15.6191 18.8734 15.2242 20.2253 14.8612ZM25.0616 24.8652C25.5408 24.6898 25.9432 24.352 26.1989 23.9105C26.4546 23.4689 26.5473 22.9517 26.4609 22.4489C26.3745 21.946 26.1144 21.4894 25.726 21.1586C25.3376 20.8277 24.8454 20.6437 24.3352 20.6384C23.825 20.6331 23.3291 20.8069 22.9339 21.1296C22.5387 21.4523 22.2692 21.9034 22.1724 22.4044C22.0755 22.9053 22.1575 23.4243 22.404 23.8711C22.6504 24.3178 23.0458 24.6639 23.5212 24.8492C23.4905 24.9117 23.469 24.9782 23.4573 25.0468L22.9733 27.9533C22.956 28.0573 22.9616 28.1639 22.9896 28.2655C23.0177 28.3672 23.0675 28.4616 23.1357 28.5421C23.2039 28.6225 23.2887 28.6872 23.3844 28.7316C23.4801 28.776 23.5843 28.799 23.6898 28.799H24.9032C25.0091 28.7991 25.1138 28.776 25.2098 28.7314C25.3059 28.6867 25.391 28.6216 25.4592 28.5407C25.5275 28.4597 25.5772 28.3647 25.6049 28.2625C25.6326 28.1603 25.6377 28.0533 25.6197 27.9489L25.1154 25.0425C25.1051 24.9813 25.087 24.9217 25.0616 24.8652Z" fill="white"/>
<defs>
<linearGradient id="paint0_linear" x1="24.3132" y1="0.741821" x2="24.3132" y2="49.2531" gradientUnits="userSpaceOnUse">
<stop stop-color="#FFADC0"/>
<stop offset="1" stop-color="#FF95BE"/>
</linearGradient>
</defs>
</svg>
