<svg width="49" height="49" viewBox="0 0 49 49" fill="none" xmlns="http://www.w3.org/2000/svg">
<rect x="0.0576172" y="0.0180664" width="48.5113" height="48.5113" rx="16" fill="url(#paint0_linear)"/>
<path d="M17.7108 22.0647C17.7102 20.6929 18.137 19.355 18.9317 18.2369C19.7264 17.1187 20.8497 16.2759 22.1454 15.8255C22.0953 15.5111 22.1139 15.1896 22.2 14.8831C22.2862 14.5767 22.4378 14.2925 22.6444 14.0503C22.851 13.8081 23.1077 13.6136 23.3967 13.4803C23.6858 13.3469 24.0004 13.2778 24.3187 13.2778C24.6371 13.2778 24.9516 13.3469 25.2407 13.4803C25.5298 13.6136 25.7865 13.8081 25.9931 14.0503C26.1997 14.2925 26.3513 14.5767 26.4374 14.8831C26.5235 15.1896 26.5422 15.5111 26.492 15.8255C27.7857 16.2778 28.9066 17.1214 29.6992 18.2394C30.4919 19.3573 30.917 20.6943 30.9156 22.0647V28.6671L34.2168 30.8679V31.9683H14.4097V30.8679L17.7108 28.6671V22.0647ZM26.514 33.0687C26.514 33.6524 26.2821 34.2121 25.8694 34.6249C25.4567 35.0376 24.8969 35.2695 24.3132 35.2695C23.7295 35.2695 23.1697 35.0376 22.757 34.6249C22.3443 34.2121 22.1124 33.6524 22.1124 33.0687H26.514Z" fill="white"/>
<defs>
<linearGradient id="paint0_linear" x1="24.3132" y1="0.0180664" x2="24.3132" y2="48.5293" gradientUnits="userSpaceOnUse">
<stop stop-color="#A5E6FF"/>
<stop offset="0.505208" stop-color="#5AC6FF"/>
<stop offset="1" stop-color="#379FD5"/>
</linearGradient>
</defs>
</svg>
