<svg width="49" height="49" viewBox="0 0 49 49" fill="none" xmlns="http://www.w3.org/2000/svg">
<rect x="0.0576172" y="0.294312" width="48.5113" height="48.5113" rx="16" fill="url(#paint0_linear)"/>
<g clip-path="url(#clip0)">
<path d="M12.1563 18.631L19.7618 15.0499C20.5469 16.0816 22.2852 16.8015 24.3126 16.8015C26.3399 16.8015 28.0782 16.0816 28.8634 15.0499L36.4688 18.631C36.7774 18.7794 36.9024 19.1357 36.7501 19.4288L34.5157 23.6779C34.3595 23.971 33.9845 24.0898 33.6759 23.945L31.4649 22.9171C31.0509 22.7241 30.5665 23.0099 30.5665 23.4515V32.8624C30.5665 33.5193 30.0079 34.0499 29.3165 34.0499H19.3165C18.6251 34.0499 18.0665 33.5193 18.0665 32.8624V23.4478C18.0665 23.0099 17.5821 22.7204 17.168 22.9134L14.9571 23.9413C14.6485 24.0898 14.2735 23.971 14.1172 23.6741L11.879 19.4288C11.7227 19.1357 11.8477 18.7757 12.1563 18.631Z" fill="white"/>
</g>
<defs>
<linearGradient id="paint0_linear" x1="24.3132" y1="0.294312" x2="24.3132" y2="48.8056" gradientUnits="userSpaceOnUse">
<stop stop-color="#8491F6"/>
<stop offset="1" stop-color="#50A9DF"/>
</linearGradient>
<clipPath id="clip0">
<rect width="25" height="19" fill="white" transform="matrix(-1 0 0 1 36.813 15.0499)"/>
</clipPath>
</defs>
</svg>
