<svg width="33" height="33" viewBox="0 0 33 33" fill="none" xmlns="http://www.w3.org/2000/svg">
<path d="M16.5107 9.00635C12.6107 9.00635 9.51074 12.1063 9.51074 16.0063C9.51074 19.9063 12.6107 23.0063 16.5107 23.0063C20.4107 23.0063 23.5107 19.9063 23.5107 16.0063C23.5107 12.1063 20.4107 9.00635 16.5107 9.00635ZM16.5107 21.0063C13.7107 21.0063 11.5107 18.8063 11.5107 16.0063C11.5107 13.2063 13.7107 11.0063 16.5107 11.0063C19.3107 11.0063 21.5107 13.2063 21.5107 16.0063C21.5107 18.8063 19.3107 21.0063 16.5107 21.0063Z" fill="#C4C4C4"/>
<path d="M31.2106 12.7063L28.4106 11.8063L27.8106 10.3063L29.2106 7.70635C29.5106 7.10635 29.4106 6.30635 28.9106 5.80635L26.5106 3.40635C26.0106 2.90635 25.2106 2.80635 24.6106 3.10635L22.0106 4.50635L20.5106 3.90635L19.6106 1.10635C19.4106 0.506348 18.8106 0.00634766 18.1106 0.00634766H14.7106C14.0106 0.00634766 13.4106 0.506348 13.3106 1.20635L12.4106 4.00635C11.8106 4.10635 11.3106 4.30635 10.8106 4.60635L8.21064 3.20635C7.61064 2.90635 6.81064 3.00635 6.31064 3.50635L3.91064 5.90635C3.41064 6.40635 3.31064 7.20635 3.61064 7.80635L4.91064 10.3063C4.71064 10.8063 4.51064 11.4063 4.31064 11.9063L1.51064 12.8063C0.910644 13.0063 0.410645 13.6063 0.410645 14.3063V17.7063C0.410645 18.4063 0.910645 19.0063 1.61064 19.2063L4.41064 20.1063L5.01064 21.6063L3.61064 24.2063C3.31064 24.8063 3.41064 25.6063 3.91064 26.1063L6.31064 28.5063C6.81064 29.0063 7.61064 29.1063 8.21064 28.8063L10.8106 27.4063L12.3106 28.0063L13.2106 30.9063C13.4106 31.5063 14.0106 32.0063 14.7106 32.0063H18.1106C18.8106 32.0063 19.4106 31.5063 19.6106 30.9063L20.5106 28.0063L22.0106 27.4063L24.6106 28.8063C25.2106 29.1063 26.0106 29.0063 26.5106 28.5063L28.9106 26.1063C29.4106 25.6063 29.5106 24.8063 29.2106 24.2063L27.8106 21.6063L28.4106 20.1063L31.3106 19.2063C31.9106 19.0063 32.4106 18.4063 32.4106 17.7063V14.3063C32.4106 13.6063 31.9106 12.9063 31.2106 12.7063ZM30.4106 17.4063L26.8106 18.5063L26.7106 19.0063L25.8106 21.1063L25.5106 21.6063L27.3106 24.9063L25.3106 26.9063L22.0106 25.1063L21.5106 25.4063C20.8106 25.8063 20.1106 26.1063 19.4106 26.3063L18.9106 26.4063L17.8106 30.0063H15.0106L13.9106 26.4063L13.4106 26.3063L11.3106 25.4063L10.8106 25.1063L7.51064 26.9063L5.51064 24.9063L7.31064 21.6063L7.01064 21.1063C6.61064 20.4063 6.31064 19.7063 6.11064 19.0063L6.01064 18.5063L2.41064 17.4063V14.6063L5.81064 13.6063L6.01064 13.1063C6.21064 12.3063 6.51064 11.6063 6.91064 10.9063L7.21064 10.4063L5.51064 7.10635L7.51064 5.10635L10.7106 6.90635L11.2106 6.60635C11.9106 6.20635 12.6106 5.90635 13.4106 5.70635L13.9106 5.50635L15.0106 2.00635H17.8106L18.9106 5.50635L19.4106 5.70635C20.1106 5.90635 20.8106 6.20635 21.5106 6.60635L22.0106 6.90635L25.3106 5.10635L27.3106 7.10635L25.5106 10.4063L25.8106 10.9063C26.2106 11.6063 26.5106 12.3063 26.7106 13.0063L26.8106 13.5063L30.4106 14.6063V17.4063Z" fill="#C4C4C4"/>
</svg>
