<svg width="414" height="896" viewBox="0 0 414 896" fill="none" xmlns="http://www.w3.org/2000/svg">
<rect width="414" height="896" fill="white"/>
<circle cx="198.275" cy="128.692" r="57.2689" fill="url(#paint0_linear)"/>
<circle cx="260.948" cy="59.3773" r="12.0458" fill="url(#paint1_linear)"/>
<circle cx="198.275" cy="128.692" r="40.4931" fill="white"/>
<rect x="36.9328" y="232.813" width="340.134" height="59.7302" rx="10" fill="#F5F5F5"/>
<rect x="36.9328" y="318.987" width="340.134" height="59.7302" rx="10" fill="#F5F5F5"/>
<path d="M74.8382 269.178H73.1419L66.6996 259.317V269.178H65.0033V256.381H66.6996L73.1595 266.286V256.381H74.8382V269.178ZM83.4515 269.178C83.3578 268.99 83.2816 268.656 83.223 268.176C82.4671 268.961 81.5648 269.354 80.516 269.354C79.5785 269.354 78.808 269.09 78.2044 268.563C77.6068 268.029 77.308 267.356 77.308 266.541C77.308 265.551 77.683 264.783 78.433 264.238C79.1888 263.688 80.2494 263.412 81.6146 263.412H83.1966V262.665C83.1966 262.097 83.0267 261.646 82.6869 261.312C82.347 260.972 81.846 260.802 81.1839 260.802C80.6039 260.802 80.1175 260.948 79.7249 261.241C79.3324 261.534 79.1361 261.889 79.1361 262.305H77.5013C77.5013 261.83 77.6683 261.373 78.0023 260.934C78.3421 260.488 78.7992 260.137 79.3734 259.879C79.9535 259.621 80.5892 259.492 81.2806 259.492C82.3763 259.492 83.2347 259.768 83.8558 260.318C84.4769 260.863 84.7992 261.616 84.8226 262.577V266.954C84.8226 267.827 84.9339 268.522 85.1566 269.037V269.178H83.4515ZM80.7533 267.939C81.263 267.939 81.7464 267.807 82.2035 267.543C82.6605 267.279 82.9915 266.937 83.1966 266.515V264.564H81.9222C79.93 264.564 78.9339 265.147 78.9339 266.313C78.9339 266.822 79.1039 267.221 79.4437 267.508C79.7835 267.795 80.2201 267.939 80.7533 267.939ZM88.9007 259.668L88.9447 260.723C89.6419 259.902 90.5824 259.492 91.766 259.492C93.096 259.492 94.0013 260.002 94.4818 261.022C94.7982 260.565 95.2083 260.195 95.7122 259.914C96.222 259.633 96.8226 259.492 97.514 259.492C99.5999 259.492 100.66 260.597 100.696 262.806V269.178H99.0697V262.902C99.0697 262.223 98.9144 261.716 98.6039 261.382C98.2933 261.042 97.7718 260.872 97.0394 260.872C96.4359 260.872 95.9349 261.054 95.5365 261.417C95.138 261.775 94.9066 262.258 94.8421 262.867V269.178H93.2074V262.946C93.2074 261.564 92.5306 260.872 91.1771 260.872C90.1107 260.872 89.3812 261.326 88.9886 262.234V269.178H87.3626V259.668H88.9007ZM107.103 269.354C105.814 269.354 104.765 268.932 103.956 268.088C103.148 267.238 102.743 266.105 102.743 264.687V264.388C102.743 263.444 102.922 262.604 103.28 261.865C103.643 261.121 104.147 260.541 104.791 260.125C105.442 259.703 106.145 259.492 106.901 259.492C108.137 259.492 109.098 259.9 109.784 260.714C110.469 261.528 110.812 262.694 110.812 264.212V264.889H104.369C104.393 265.826 104.665 266.585 105.187 267.165C105.714 267.739 106.382 268.026 107.191 268.026C107.765 268.026 108.251 267.909 108.65 267.675C109.048 267.441 109.397 267.13 109.696 266.743L110.689 267.517C109.892 268.741 108.697 269.354 107.103 269.354ZM106.901 260.828C106.244 260.828 105.694 261.068 105.248 261.549C104.803 262.024 104.528 262.692 104.422 263.553H109.186V263.43C109.139 262.604 108.916 261.965 108.518 261.514C108.119 261.057 107.58 260.828 106.901 260.828Z" fill="#848484"/>
<path d="M72.2367 349.437H66.6908V353.972H73.1331V355.352H65.0033V342.555H73.0453V343.944H66.6908V348.057H72.2367V349.437ZM76.5081 345.842L76.5521 346.897C77.2494 346.077 78.1898 345.666 79.3734 345.666C80.7035 345.666 81.6087 346.176 82.0892 347.196C82.4056 346.739 82.8158 346.37 83.3197 346.088C83.8294 345.807 84.43 345.666 85.1214 345.666C87.2074 345.666 88.2679 346.771 88.3031 348.98V355.352H86.6771V349.077C86.6771 348.397 86.5218 347.89 86.2113 347.556C85.9007 347.216 85.3792 347.046 84.6468 347.046C84.0433 347.046 83.5423 347.228 83.1439 347.591C82.7455 347.949 82.514 348.432 82.4496 349.041V355.352H80.8148V349.12C80.8148 347.738 80.138 347.046 78.7845 347.046C77.7181 347.046 76.9886 347.5 76.596 348.409V355.352H74.9701V345.842H76.5081ZM96.6351 355.352C96.5414 355.164 96.4652 354.83 96.4066 354.35C95.6507 355.135 94.7484 355.528 93.6996 355.528C92.7621 355.528 91.9915 355.264 91.388 354.737C90.7904 354.203 90.4915 353.53 90.4915 352.715C90.4915 351.725 90.8665 350.957 91.6165 350.412C92.3724 349.862 93.433 349.586 94.7982 349.586H96.3802V348.839C96.3802 348.271 96.2103 347.82 95.8705 347.486C95.5306 347.146 95.0296 346.976 94.3675 346.976C93.7874 346.976 93.3011 347.122 92.9085 347.415C92.516 347.708 92.3197 348.063 92.3197 348.479H90.6849C90.6849 348.004 90.8519 347.547 91.1859 347.108C91.5257 346.662 91.9828 346.311 92.557 346.053C93.1371 345.795 93.7728 345.666 94.4642 345.666C95.5599 345.666 96.4183 345.942 97.0394 346.493C97.6605 347.037 97.9828 347.79 98.0062 348.751V353.128C98.0062 354.001 98.1175 354.696 98.3402 355.211V355.352H96.6351ZM93.9369 354.113C94.4466 354.113 94.93 353.981 95.3871 353.717C95.8441 353.453 96.1751 353.111 96.3802 352.689V350.738H95.1058C93.1136 350.738 92.1175 351.321 92.1175 352.487C92.1175 352.996 92.2874 353.395 92.6273 353.682C92.9671 353.969 93.4037 354.113 93.9369 354.113ZM102.322 355.352H100.696V345.842H102.322V355.352ZM100.564 343.32C100.564 343.056 100.643 342.833 100.801 342.652C100.965 342.47 101.205 342.379 101.522 342.379C101.838 342.379 102.078 342.47 102.243 342.652C102.407 342.833 102.489 343.056 102.489 343.32C102.489 343.583 102.407 343.803 102.243 343.979C102.078 344.155 101.838 344.243 101.522 344.243C101.205 344.243 100.965 344.155 100.801 343.979C100.643 343.803 100.564 343.583 100.564 343.32ZM106.699 355.352H105.073V341.852H106.699V355.352Z" fill="#848484"/>
<rect x="36.9328" y="402.572" width="340.134" height="59.7302" rx="10" fill="#F5F5F5"/>
<rect x="36.9328" y="488.746" width="340.134" height="59.7302" rx="10" fill="#F5F5F5"/>
<rect x="36.9328" y="574.921" width="340.134" height="59.7302" rx="10" fill="#F5F5F5"/>
<path d="M72.0697 435.598H66.7083L65.5042 438.938H63.764L68.6507 426.141H70.1273L75.0228 438.938H73.2914L72.0697 435.598ZM67.2181 434.209H71.5687L69.389 428.224L67.2181 434.209ZM76.1039 434.104C76.1039 432.621 76.4466 431.443 77.1322 430.57C77.8177 429.691 78.7259 429.252 79.8568 429.252C81.0169 429.252 81.9222 429.662 82.5726 430.482L82.6517 429.428H84.1371V438.709C84.1371 439.939 83.7708 440.909 83.0384 441.618C82.3119 442.327 81.3333 442.682 80.1029 442.682C79.4173 442.682 78.7464 442.535 78.0902 442.242C77.4339 441.949 76.933 441.548 76.5872 441.038L77.431 440.062C78.1283 440.924 78.9808 441.354 79.9886 441.354C80.7796 441.354 81.3949 441.132 81.8343 440.687C82.2796 440.241 82.5023 439.614 82.5023 438.806V437.988C81.8519 438.738 80.9642 439.113 79.8392 439.113C78.7259 439.113 77.8236 438.665 77.1322 437.769C76.4466 436.872 76.1039 435.65 76.1039 434.104ZM77.7386 434.288C77.7386 435.36 77.9583 436.204 78.3978 436.819C78.8372 437.429 79.4525 437.733 80.2435 437.733C81.2689 437.733 82.0218 437.268 82.5023 436.336V431.994C82.0042 431.086 81.2572 430.632 80.2611 430.632C79.4701 430.632 78.8519 430.939 78.4066 431.555C77.9613 432.17 77.7386 433.081 77.7386 434.288ZM90.5443 439.113C89.2552 439.113 88.2064 438.691 87.3978 437.848C86.5892 436.998 86.1849 435.864 86.1849 434.446V434.147C86.1849 433.204 86.3636 432.363 86.721 431.625C87.0843 430.881 87.5882 430.301 88.2328 429.885C88.8831 429.463 89.5863 429.252 90.3421 429.252C91.5785 429.252 92.5394 429.659 93.2249 430.474C93.9105 431.288 94.2533 432.454 94.2533 433.972V434.648H87.8109C87.8343 435.586 88.1068 436.345 88.6283 436.925C89.1556 437.499 89.8236 437.786 90.6322 437.786C91.2064 437.786 91.6927 437.669 92.0912 437.435C92.4896 437.2 92.8382 436.89 93.1371 436.503L94.1302 437.276C93.3333 438.501 92.138 439.113 90.5443 439.113ZM90.3421 430.588C89.6859 430.588 89.1351 430.828 88.6898 431.309C88.2445 431.783 87.9691 432.451 87.8636 433.312H92.6273V433.189C92.5804 432.363 92.3578 431.725 91.9593 431.273C91.5609 430.816 91.0218 430.588 90.3421 430.588Z" fill="#848484"/>
<path d="M66.6908 520.102V525.112H65.0033V512.315H69.723C71.1234 512.315 72.2191 512.672 73.0101 513.387C73.807 514.102 74.2054 515.048 74.2054 516.226C74.2054 517.468 73.8158 518.426 73.0365 519.1C72.263 519.768 71.1527 520.102 69.7054 520.102H66.6908ZM66.6908 518.722H69.723C70.6253 518.722 71.3167 518.511 71.7972 518.089C72.2777 517.661 72.5179 517.046 72.5179 516.243C72.5179 515.482 72.2777 514.872 71.7972 514.415C71.3167 513.958 70.6576 513.721 69.8197 513.703H66.6908V518.722ZM81.8695 525.112C81.7757 524.924 81.6996 524.59 81.641 524.11C80.8851 524.895 79.9828 525.287 78.9339 525.287C77.9964 525.287 77.2259 525.024 76.6224 524.496C76.0247 523.963 75.7259 523.289 75.7259 522.475C75.7259 521.485 76.1009 520.717 76.8509 520.172C77.6068 519.621 78.6673 519.346 80.0326 519.346H81.6146V518.599C81.6146 518.031 81.4447 517.579 81.1048 517.245C80.765 516.906 80.264 516.736 79.6019 516.736C79.0218 516.736 78.5355 516.882 78.1429 517.175C77.7503 517.468 77.554 517.823 77.554 518.239H75.9193C75.9193 517.764 76.0863 517.307 76.4203 516.867C76.7601 516.422 77.2171 516.071 77.7914 515.813C78.3714 515.555 79.0072 515.426 79.6986 515.426C80.7943 515.426 81.6527 515.701 82.2738 516.252C82.8949 516.797 83.2171 517.55 83.2406 518.511V522.888C83.2406 523.761 83.3519 524.455 83.5746 524.971V525.112H81.8695ZM79.1712 523.872C79.681 523.872 80.1644 523.74 80.6214 523.477C81.0785 523.213 81.4095 522.87 81.6146 522.448V520.497H80.3402C78.348 520.497 77.3519 521.08 77.3519 522.246C77.3519 522.756 77.5218 523.155 77.8617 523.442C78.2015 523.729 78.638 523.872 79.1712 523.872ZM91.3265 522.589C91.3265 522.15 91.1595 521.81 90.8255 521.57C90.4974 521.323 89.9203 521.113 89.0941 520.937C88.2738 520.761 87.6205 520.55 87.1341 520.304C86.6537 520.058 86.2962 519.765 86.0619 519.425C85.8333 519.085 85.7191 518.681 85.7191 518.212C85.7191 517.433 86.0472 516.774 86.7035 516.235C87.3656 515.696 88.2093 515.426 89.2347 515.426C90.3128 515.426 91.1859 515.704 91.8539 516.261C92.5277 516.818 92.8646 517.53 92.8646 518.397H91.2298C91.2298 517.951 91.0394 517.568 90.6585 517.245C90.2835 516.923 89.8089 516.762 89.2347 516.762C88.6429 516.762 88.18 516.891 87.846 517.149C87.5121 517.406 87.3451 517.743 87.3451 518.159C87.3451 518.552 87.5003 518.848 87.8109 519.047C88.1214 519.246 88.681 519.437 89.4896 519.618C90.304 519.8 90.9632 520.017 91.4671 520.269C91.971 520.521 92.3431 520.825 92.5833 521.183C92.8294 521.534 92.9525 521.965 92.9525 522.475C92.9525 523.324 92.6126 524.007 91.933 524.523C91.2533 525.032 90.3714 525.287 89.2874 525.287C88.5257 525.287 87.8519 525.153 87.266 524.883C86.68 524.614 86.2201 524.239 85.8861 523.758C85.558 523.272 85.3939 522.747 85.3939 522.185H87.0199C87.0492 522.73 87.266 523.163 87.6703 523.486C88.0804 523.802 88.6195 523.96 89.2874 523.96C89.9027 523.96 90.3949 523.837 90.764 523.591C91.139 523.339 91.3265 523.005 91.3265 522.589ZM100.608 522.589C100.608 522.15 100.441 521.81 100.107 521.57C99.7787 521.323 99.2015 521.113 98.3753 520.937C97.555 520.761 96.9017 520.55 96.4154 520.304C95.9349 520.058 95.5775 519.765 95.3431 519.425C95.1146 519.085 95.0003 518.681 95.0003 518.212C95.0003 517.433 95.3285 516.774 95.9847 516.235C96.6468 515.696 97.4906 515.426 98.516 515.426C99.5941 515.426 100.467 515.704 101.135 516.261C101.809 516.818 102.146 517.53 102.146 518.397H100.511C100.511 517.951 100.321 517.568 99.9398 517.245C99.5648 516.923 99.0902 516.762 98.516 516.762C97.9242 516.762 97.4613 516.891 97.1273 517.149C96.7933 517.406 96.6263 517.743 96.6263 518.159C96.6263 518.552 96.7816 518.848 97.0921 519.047C97.4027 519.246 97.9622 519.437 98.7708 519.618C99.5853 519.8 100.244 520.017 100.748 520.269C101.252 520.521 101.624 520.825 101.865 521.183C102.111 521.534 102.234 521.965 102.234 522.475C102.234 523.324 101.894 524.007 101.214 524.523C100.535 525.032 99.6527 525.287 98.5687 525.287C97.807 525.287 97.1331 525.153 96.5472 524.883C95.9613 524.614 95.5013 524.239 95.1673 523.758C94.8392 523.272 94.6751 522.747 94.6751 522.185H96.3011C96.3304 522.73 96.5472 523.163 96.9515 523.486C97.3617 523.802 97.9007 523.96 98.5687 523.96C99.1839 523.96 99.6761 523.837 100.045 523.591C100.42 523.339 100.608 523.005 100.608 522.589ZM112.772 522.87L114.6 515.602H116.226L113.457 525.112H112.139L109.827 517.905L107.577 525.112H106.259L103.499 515.602H105.117L106.989 522.721L109.203 515.602H110.513L112.772 522.87ZM117.456 520.269C117.456 519.337 117.638 518.499 118.001 517.755C118.37 517.011 118.88 516.437 119.531 516.032C120.187 515.628 120.934 515.426 121.772 515.426C123.067 515.426 124.113 515.874 124.91 516.771C125.712 517.667 126.114 518.86 126.114 520.348V520.462C126.114 521.388 125.935 522.22 125.577 522.958C125.226 523.691 124.719 524.262 124.057 524.672C123.401 525.082 122.645 525.287 121.789 525.287C120.5 525.287 119.454 524.839 118.652 523.943C117.855 523.046 117.456 521.86 117.456 520.383V520.269ZM119.091 520.462C119.091 521.517 119.334 522.364 119.821 523.002C120.313 523.641 120.969 523.96 121.789 523.96C122.616 523.96 123.272 523.638 123.758 522.993C124.244 522.343 124.488 521.435 124.488 520.269C124.488 519.226 124.239 518.382 123.741 517.738C123.248 517.087 122.592 516.762 121.772 516.762C120.969 516.762 120.322 517.081 119.829 517.72C119.337 518.359 119.091 519.273 119.091 520.462ZM132.749 517.061C132.503 517.02 132.237 516.999 131.95 516.999C130.883 516.999 130.16 517.453 129.779 518.362V525.112H128.153V515.602H129.735L129.761 516.7C130.294 515.851 131.05 515.426 132.029 515.426C132.345 515.426 132.585 515.467 132.749 515.549V517.061ZM133.681 520.278C133.681 518.819 134.027 517.647 134.718 516.762C135.41 515.871 136.315 515.426 137.434 515.426C138.547 515.426 139.429 515.807 140.079 516.569V511.612H141.705V525.112H140.211L140.132 524.092C139.482 524.889 138.577 525.287 137.416 525.287C136.315 525.287 135.415 524.836 134.718 523.934C134.027 523.031 133.681 521.854 133.681 520.401V520.278ZM135.307 520.462C135.307 521.54 135.53 522.384 135.975 522.993C136.42 523.603 137.035 523.907 137.821 523.907C138.852 523.907 139.605 523.445 140.079 522.519V518.151C139.593 517.254 138.846 516.806 137.838 516.806C137.041 516.806 136.42 517.114 135.975 517.729C135.53 518.344 135.307 519.255 135.307 520.462Z" fill="#848484"/>
<path d="M69.6966 606.109H66.6908V611.286H64.9945V598.489H69.2308C70.6722 598.489 71.7796 598.817 72.5531 599.473C73.3324 600.129 73.722 601.084 73.722 602.338C73.722 603.135 73.5052 603.83 73.0716 604.421C72.6439 605.013 72.0462 605.456 71.2787 605.749L74.2845 611.18V611.286H72.474L69.6966 606.109ZM66.6908 604.729H69.2835C70.1214 604.729 70.7865 604.512 71.2787 604.079C71.7767 603.645 72.0257 603.065 72.0257 602.338C72.0257 601.547 71.7884 600.941 71.3138 600.519C70.8451 600.097 70.1654 599.883 69.2747 599.877H66.6908V604.729ZM79.7865 611.461C78.4974 611.461 77.4486 611.04 76.64 610.196C75.8314 609.346 75.4271 608.212 75.4271 606.794V606.496C75.4271 605.552 75.6058 604.711 75.9632 603.973C76.3265 603.229 76.8304 602.649 77.4749 602.233C78.1253 601.811 78.8285 601.6 79.5843 601.6C80.8206 601.6 81.7816 602.007 82.4671 602.822C83.1527 603.636 83.4955 604.802 83.4955 606.32V606.997H77.0531C77.0765 607.934 77.349 608.693 77.8705 609.273C78.3978 609.847 79.0658 610.134 79.8744 610.134C80.4486 610.134 80.9349 610.017 81.3333 609.783C81.7318 609.548 82.0804 609.238 82.3792 608.851L83.3724 609.625C82.5755 610.849 81.3802 611.461 79.7865 611.461ZM79.5843 602.936C78.9281 602.936 78.3773 603.176 77.932 603.657C77.4867 604.131 77.2113 604.799 77.1058 605.661H81.8695V605.538C81.8226 604.711 81.5999 604.073 81.2015 603.622C80.8031 603.165 80.264 602.936 79.5843 602.936ZM88.7689 606.513H84.4798V605.186H88.7689V606.513ZM94.306 611.461C93.0169 611.461 91.9681 611.04 91.1595 610.196C90.3509 609.346 89.9466 608.212 89.9466 606.794V606.496C89.9466 605.552 90.1253 604.711 90.4828 603.973C90.846 603.229 91.3499 602.649 91.9945 602.233C92.6449 601.811 93.348 601.6 94.1039 601.6C95.3402 601.6 96.3011 602.007 96.9867 602.822C97.6722 603.636 98.015 604.802 98.015 606.32V606.997H91.5726C91.596 607.934 91.8685 608.693 92.39 609.273C92.9173 609.847 93.5853 610.134 94.3939 610.134C94.9681 610.134 95.4544 610.017 95.8529 609.783C96.2513 609.548 96.5999 609.238 96.8988 608.851L97.8919 609.625C97.0951 610.849 95.8997 611.461 94.306 611.461ZM94.1039 602.936C93.4476 602.936 92.8968 603.176 92.4515 603.657C92.0062 604.131 91.7308 604.799 91.6253 605.661H96.389V605.538C96.3421 604.711 96.1195 604.073 95.721 603.622C95.3226 603.165 94.7835 602.936 94.1039 602.936ZM101.443 601.776L101.495 602.971C102.222 602.057 103.171 601.6 104.343 601.6C106.353 601.6 107.367 602.734 107.384 605.001V611.286H105.758V604.993C105.752 604.307 105.594 603.8 105.284 603.472C104.979 603.144 104.501 602.98 103.851 602.98C103.324 602.98 102.861 603.121 102.462 603.402C102.064 603.683 101.753 604.052 101.531 604.509V611.286H99.9046V601.776H101.443ZM112.042 599.473V601.776H113.818V603.033H112.042V608.93C112.042 609.311 112.121 609.598 112.28 609.792C112.438 609.979 112.707 610.073 113.088 610.073C113.276 610.073 113.534 610.038 113.862 609.967V611.286C113.434 611.403 113.018 611.461 112.614 611.461C111.887 611.461 111.339 611.242 110.97 610.802C110.601 610.363 110.416 609.739 110.416 608.93V603.033H108.685V601.776H110.416V599.473H112.042ZM119.671 611.461C118.382 611.461 117.333 611.04 116.525 610.196C115.716 609.346 115.312 608.212 115.312 606.794V606.496C115.312 605.552 115.491 604.711 115.848 603.973C116.211 603.229 116.715 602.649 117.36 602.233C118.01 601.811 118.713 601.6 119.469 601.6C120.705 601.6 121.666 602.007 122.352 602.822C123.037 603.636 123.38 604.802 123.38 606.32V606.997H116.938C116.961 607.934 117.234 608.693 117.755 609.273C118.283 609.847 118.951 610.134 119.759 610.134C120.333 610.134 120.82 610.017 121.218 609.783C121.617 609.548 121.965 609.238 122.264 608.851L123.257 609.625C122.46 610.849 121.265 611.461 119.671 611.461ZM119.469 602.936C118.813 602.936 118.262 603.176 117.817 603.657C117.371 604.131 117.096 604.799 116.991 605.661H121.754V605.538C121.707 604.711 121.485 604.073 121.086 603.622C120.688 603.165 120.149 602.936 119.469 602.936ZM129.867 603.235C129.62 603.194 129.354 603.173 129.067 603.173C128 603.173 127.277 603.627 126.896 604.536V611.286H125.27V601.776H126.852L126.878 602.875C127.411 602.025 128.167 601.6 129.146 601.6C129.462 601.6 129.702 601.641 129.867 601.723V603.235ZM137.777 606.276V611.286H136.089V598.489H140.809C142.209 598.489 143.305 598.846 144.096 599.561C144.893 600.276 145.291 601.222 145.291 602.4C145.291 603.642 144.902 604.6 144.122 605.274C143.349 605.942 142.239 606.276 140.791 606.276H137.777ZM137.777 604.896H140.809C141.711 604.896 142.403 604.685 142.883 604.263C143.364 603.835 143.604 603.22 143.604 602.417C143.604 601.656 143.364 601.046 142.883 600.589C142.403 600.132 141.743 599.895 140.906 599.877H137.777V604.896ZM152.955 611.286C152.862 611.098 152.785 610.764 152.727 610.284C151.971 611.069 151.069 611.461 150.02 611.461C149.082 611.461 148.312 611.198 147.708 610.67C147.111 610.137 146.812 609.463 146.812 608.649C146.812 607.659 147.187 606.891 147.937 606.346C148.693 605.795 149.753 605.52 151.118 605.52H152.701V604.773C152.701 604.205 152.531 603.753 152.191 603.419C151.851 603.08 151.35 602.91 150.688 602.91C150.108 602.91 149.621 603.056 149.229 603.349C148.836 603.642 148.64 603.997 148.64 604.413H147.005C147.005 603.938 147.172 603.481 147.506 603.042C147.846 602.596 148.303 602.245 148.877 601.987C149.457 601.729 150.093 601.6 150.785 601.6C151.88 601.6 152.739 601.875 153.36 602.426C153.981 602.971 154.303 603.724 154.327 604.685V609.062C154.327 609.935 154.438 610.629 154.66 611.145V611.286H152.955ZM150.257 610.046C150.767 610.046 151.25 609.915 151.707 609.651C152.164 609.387 152.495 609.044 152.701 608.623V606.671H151.426C149.434 606.671 148.438 607.254 148.438 608.42C148.438 608.93 148.608 609.329 148.948 609.616C149.287 609.903 149.724 610.046 150.257 610.046ZM162.412 608.763C162.412 608.324 162.245 607.984 161.911 607.744C161.583 607.498 161.006 607.287 160.18 607.111C159.36 606.935 158.706 606.724 158.22 606.478C157.74 606.232 157.382 605.939 157.148 605.599C156.919 605.259 156.805 604.855 156.805 604.386C156.805 603.607 157.133 602.948 157.789 602.409C158.452 601.87 159.295 601.6 160.321 601.6C161.399 601.6 162.272 601.878 162.94 602.435C163.614 602.992 163.951 603.704 163.951 604.571H162.316C162.316 604.125 162.125 603.742 161.744 603.419C161.369 603.097 160.895 602.936 160.321 602.936C159.729 602.936 159.266 603.065 158.932 603.323C158.598 603.581 158.431 603.917 158.431 604.333C158.431 604.726 158.586 605.022 158.897 605.221C159.207 605.42 159.767 605.611 160.576 605.792C161.39 605.974 162.049 606.191 162.553 606.443C163.057 606.695 163.429 607 163.669 607.357C163.915 607.708 164.038 608.139 164.038 608.649C164.038 609.499 163.699 610.181 163.019 610.697C162.339 611.207 161.457 611.461 160.373 611.461C159.612 611.461 158.938 611.327 158.352 611.057C157.766 610.788 157.306 610.413 156.972 609.932C156.644 609.446 156.48 608.921 156.48 608.359H158.106C158.135 608.904 158.352 609.337 158.756 609.66C159.166 609.976 159.705 610.134 160.373 610.134C160.989 610.134 161.481 610.011 161.85 609.765C162.225 609.513 162.412 609.179 162.412 608.763ZM171.694 608.763C171.694 608.324 171.527 607.984 171.193 607.744C170.865 607.498 170.287 607.287 169.461 607.111C168.641 606.935 167.988 606.724 167.501 606.478C167.021 606.232 166.663 605.939 166.429 605.599C166.201 605.259 166.086 604.855 166.086 604.386C166.086 603.607 166.414 602.948 167.071 602.409C167.733 601.87 168.577 601.6 169.602 601.6C170.68 601.6 171.553 601.878 172.221 602.435C172.895 602.992 173.232 603.704 173.232 604.571H171.597C171.597 604.125 171.407 603.742 171.026 603.419C170.651 603.097 170.176 602.936 169.602 602.936C169.01 602.936 168.547 603.065 168.213 603.323C167.879 603.581 167.712 603.917 167.712 604.333C167.712 604.726 167.868 605.022 168.178 605.221C168.489 605.42 169.048 605.611 169.857 605.792C170.671 605.974 171.33 606.191 171.834 606.443C172.338 606.695 172.71 607 172.951 607.357C173.197 607.708 173.32 608.139 173.32 608.649C173.32 609.499 172.98 610.181 172.3 610.697C171.62 611.207 170.739 611.461 169.655 611.461C168.893 611.461 168.219 611.327 167.633 611.057C167.047 610.788 166.587 610.413 166.253 609.932C165.925 609.446 165.761 608.921 165.761 608.359H167.387C167.416 608.904 167.633 609.337 168.037 609.66C168.448 609.976 168.987 610.134 169.655 610.134C170.27 610.134 170.762 610.011 171.131 609.765C171.506 609.513 171.694 609.179 171.694 608.763ZM183.858 609.044L185.686 601.776H187.312L184.543 611.286H183.225L180.913 604.079L178.663 611.286H177.345L174.585 601.776H176.202L178.075 608.895L180.289 601.776H181.599L183.858 609.044ZM188.542 606.443C188.542 605.511 188.724 604.673 189.087 603.929C189.456 603.185 189.966 602.611 190.617 602.207C191.273 601.802 192.02 601.6 192.858 601.6C194.153 601.6 195.199 602.048 195.995 602.945C196.798 603.841 197.2 605.034 197.2 606.522V606.636C197.2 607.562 197.021 608.394 196.663 609.132C196.312 609.865 195.805 610.436 195.143 610.846C194.487 611.256 193.731 611.461 192.875 611.461C191.586 611.461 190.54 611.013 189.738 610.117C188.941 609.22 188.542 608.034 188.542 606.557V606.443ZM190.177 606.636C190.177 607.691 190.42 608.538 190.907 609.176C191.399 609.815 192.055 610.134 192.875 610.134C193.702 610.134 194.358 609.812 194.844 609.167C195.33 608.517 195.574 607.609 195.574 606.443C195.574 605.4 195.325 604.556 194.827 603.912C194.334 603.261 193.678 602.936 192.858 602.936C192.055 602.936 191.408 603.255 190.915 603.894C190.423 604.533 190.177 605.447 190.177 606.636ZM203.835 603.235C203.589 603.194 203.323 603.173 203.035 603.173C201.969 603.173 201.245 603.627 200.865 604.536V611.286H199.239V601.776H200.821L200.847 602.875C201.38 602.025 202.136 601.6 203.115 601.6C203.431 601.6 203.671 601.641 203.835 601.723V603.235ZM204.767 606.452C204.767 604.993 205.113 603.821 205.804 602.936C206.495 602.045 207.401 601.6 208.52 601.6C209.633 601.6 210.515 601.981 211.165 602.743V597.786H212.791V611.286H211.297L211.218 610.266C210.568 611.063 209.662 611.461 208.502 611.461C207.401 611.461 206.501 611.01 205.804 610.108C205.113 609.206 204.767 608.028 204.767 606.575V606.452ZM206.393 606.636C206.393 607.714 206.616 608.558 207.061 609.167C207.506 609.777 208.121 610.082 208.907 610.082C209.938 610.082 210.691 609.619 211.165 608.693V604.325C210.679 603.428 209.932 602.98 208.924 602.98C208.127 602.98 207.506 603.288 207.061 603.903C206.616 604.518 206.393 605.429 206.393 606.636Z" fill="#848484"/>
<rect x="91.1342" y="717.138" width="231.732" height="62.4718" rx="31.2359" stroke="url(#paint2_linear)"/>
<path d="M142.071 741.605C142.071 742.795 141.861 743.838 141.44 744.735C141.02 745.631 140.417 746.323 139.631 746.81C138.851 747.297 137.954 747.54 136.941 747.54C135.94 747.54 135.046 747.3 134.26 746.818C133.474 746.337 132.866 745.651 132.434 744.76C132.002 743.863 131.784 742.834 131.778 741.672V741.074C131.778 739.884 131.991 738.838 132.417 737.936C132.849 737.029 133.455 736.334 134.235 735.853C135.021 735.366 135.918 735.122 136.925 735.122C137.932 735.122 138.826 735.366 139.606 735.853C140.392 736.334 140.998 737.029 141.424 737.936C141.855 738.838 142.071 739.882 142.071 741.066V741.605ZM139.548 741.058C139.548 739.79 139.321 738.827 138.867 738.169C138.413 737.51 137.766 737.181 136.925 737.181C136.089 737.181 135.444 737.508 134.991 738.161C134.537 738.808 134.307 739.76 134.302 741.016V741.605C134.302 742.839 134.529 743.797 134.982 744.477C135.436 745.158 136.089 745.498 136.941 745.498C137.777 745.498 138.419 745.172 138.867 744.519C139.315 743.86 139.542 742.903 139.548 741.647V741.058ZM151.808 742.967C151.808 744.35 151.493 745.46 150.862 746.295C150.236 747.125 149.39 747.54 148.322 747.54C147.414 747.54 146.681 747.225 146.122 746.594V750.828H143.723V738.393H145.948L146.031 739.273C146.612 738.576 147.37 738.227 148.305 738.227C149.412 738.227 150.272 738.636 150.887 739.456C151.501 740.275 151.808 741.403 151.808 742.842V742.967ZM149.409 742.792C149.409 741.957 149.26 741.312 148.961 740.858C148.668 740.405 148.239 740.178 147.674 740.178C146.922 740.178 146.404 740.465 146.122 741.041V744.718C146.415 745.31 146.938 745.606 147.691 745.606C148.836 745.606 149.409 744.668 149.409 742.792ZM157.436 747.54C156.119 747.54 155.045 747.136 154.215 746.329C153.391 745.521 152.978 744.444 152.978 743.1V742.867C152.978 741.965 153.153 741.16 153.501 740.452C153.85 739.738 154.343 739.19 154.979 738.808C155.621 738.421 156.351 738.227 157.17 738.227C158.399 738.227 159.365 738.614 160.067 739.389C160.776 740.164 161.13 741.262 161.13 742.685V743.664H155.411C155.488 744.251 155.721 744.721 156.108 745.075C156.501 745.429 156.996 745.606 157.594 745.606C158.518 745.606 159.24 745.272 159.76 744.602L160.939 745.922C160.579 746.431 160.092 746.829 159.478 747.117C158.864 747.399 158.183 747.54 157.436 747.54ZM157.162 740.169C156.686 740.169 156.299 740.33 156 740.651C155.707 740.972 155.519 741.431 155.436 742.029H158.772V741.838C158.761 741.307 158.617 740.897 158.341 740.609C158.064 740.316 157.671 740.169 157.162 740.169ZM164.707 738.393L164.782 739.431C165.424 738.628 166.285 738.227 167.364 738.227C168.316 738.227 169.024 738.506 169.489 739.065C169.954 739.624 170.192 740.46 170.203 741.572V747.374H167.804V741.63C167.804 741.121 167.693 740.753 167.472 740.526C167.25 740.294 166.882 740.178 166.368 740.178C165.693 740.178 165.186 740.465 164.849 741.041V747.374H162.45V738.393H164.707ZM183.691 742.435H178.91V747.374H176.42V735.289H184.289V737.306H178.91V740.427H183.691V742.435ZM190.407 740.643C190.08 740.598 189.792 740.576 189.543 740.576C188.636 740.576 188.041 740.883 187.759 741.497V747.374H185.36V738.393H187.626L187.692 739.464C188.174 738.639 188.841 738.227 189.693 738.227C189.958 738.227 190.207 738.263 190.44 738.335L190.407 740.643ZM190.896 742.801C190.896 741.91 191.068 741.116 191.411 740.418C191.754 739.721 192.247 739.182 192.889 738.8C193.536 738.418 194.286 738.227 195.138 738.227C196.35 738.227 197.338 738.598 198.102 739.339C198.871 740.081 199.3 741.088 199.388 742.361L199.405 742.975C199.405 744.353 199.02 745.46 198.251 746.295C197.482 747.125 196.45 747.54 195.155 747.54C193.86 747.54 192.825 747.125 192.05 746.295C191.281 745.465 190.896 744.336 190.896 742.909V742.801ZM193.295 742.975C193.295 743.827 193.456 744.48 193.777 744.934C194.098 745.382 194.557 745.606 195.155 745.606C195.736 745.606 196.19 745.385 196.516 744.942C196.843 744.494 197.006 743.78 197.006 742.801C197.006 741.965 196.843 741.318 196.516 740.858C196.19 740.399 195.73 740.169 195.138 740.169C194.552 740.169 194.098 740.399 193.777 740.858C193.456 741.312 193.295 742.018 193.295 742.975ZM203.09 738.393L203.165 739.431C203.807 738.628 204.667 738.227 205.747 738.227C206.698 738.227 207.407 738.506 207.872 739.065C208.336 739.624 208.574 740.46 208.585 741.572V747.374H206.186V741.63C206.186 741.121 206.076 740.753 205.854 740.526C205.633 740.294 205.265 740.178 204.75 740.178C204.075 740.178 203.569 740.465 203.231 741.041V747.374H200.832V738.393H203.09ZM213.284 736.185V738.393H214.819V740.153H213.284V744.635C213.284 744.967 213.347 745.205 213.475 745.349C213.602 745.493 213.845 745.565 214.205 745.565C214.471 745.565 214.706 745.546 214.911 745.507V747.325C214.44 747.469 213.956 747.54 213.458 747.54C211.776 747.54 210.918 746.691 210.885 744.992V740.153H209.573V738.393H210.885V736.185H213.284ZM230.035 743.349C229.941 744.649 229.459 745.673 228.59 746.42C227.727 747.167 226.587 747.54 225.17 747.54C223.621 747.54 222.401 747.02 221.51 745.98C220.624 744.934 220.182 743.501 220.182 741.68V740.941C220.182 739.779 220.386 738.755 220.796 737.87C221.205 736.985 221.789 736.307 222.547 735.836C223.311 735.36 224.196 735.122 225.204 735.122C226.598 735.122 227.721 735.496 228.574 736.243C229.426 736.99 229.918 738.039 230.051 739.389H227.561C227.5 738.609 227.282 738.044 226.905 737.696C226.534 737.342 225.967 737.164 225.204 737.164C224.374 737.164 223.751 737.463 223.336 738.061C222.926 738.653 222.716 739.574 222.705 740.825V741.738C222.705 743.044 222.901 743.999 223.294 744.602C223.693 745.205 224.318 745.507 225.17 745.507C225.94 745.507 226.512 745.332 226.889 744.984C227.27 744.63 227.489 744.085 227.544 743.349H230.035ZM236.717 747.374C236.606 747.159 236.526 746.89 236.476 746.569C235.895 747.217 235.14 747.54 234.21 747.54C233.33 747.54 232.6 747.286 232.019 746.777C231.443 746.268 231.155 745.626 231.155 744.851C231.155 743.899 231.507 743.169 232.209 742.66C232.918 742.15 233.939 741.893 235.272 741.888H236.376V741.373C236.376 740.958 236.269 740.626 236.053 740.377C235.842 740.128 235.508 740.003 235.048 740.003C234.644 740.003 234.326 740.1 234.094 740.294C233.867 740.488 233.753 740.753 233.753 741.091H231.354C231.354 740.571 231.515 740.089 231.836 739.646C232.157 739.204 232.611 738.858 233.197 738.609C233.784 738.354 234.442 738.227 235.173 738.227C236.28 738.227 237.157 738.506 237.804 739.065C238.457 739.619 238.784 740.399 238.784 741.406V745.299C238.789 746.151 238.908 746.796 239.141 747.233V747.374H236.717ZM234.733 745.706C235.087 745.706 235.414 745.629 235.712 745.474C236.011 745.313 236.233 745.1 236.376 744.834V743.29H235.48C234.279 743.29 233.64 743.706 233.562 744.536L233.554 744.677C233.554 744.976 233.659 745.222 233.87 745.415C234.08 745.609 234.368 745.706 234.733 745.706ZM242.876 738.393L242.951 739.397C243.587 738.617 244.448 738.227 245.532 738.227C246.689 738.227 247.483 738.684 247.915 739.597C248.545 738.684 249.445 738.227 250.612 738.227C251.586 738.227 252.311 738.512 252.787 739.082C253.263 739.646 253.501 740.499 253.501 741.639V747.374H251.094V741.647C251.094 741.138 250.994 740.767 250.795 740.535C250.596 740.297 250.244 740.178 249.741 740.178C249.021 740.178 248.523 740.521 248.247 741.207L248.255 747.374H245.856V741.655C245.856 741.135 245.754 740.759 245.549 740.526C245.344 740.294 244.995 740.178 244.503 740.178C243.822 740.178 243.33 740.46 243.025 741.024V747.374H240.626V738.393H242.876ZM259.486 747.54C258.169 747.54 257.095 747.136 256.265 746.329C255.441 745.521 255.028 744.444 255.028 743.1V742.867C255.028 741.965 255.203 741.16 255.551 740.452C255.9 739.738 256.392 739.19 257.029 738.808C257.671 738.421 258.401 738.227 259.22 738.227C260.449 738.227 261.414 738.614 262.117 739.389C262.825 740.164 263.18 741.262 263.18 742.685V743.664H257.46C257.538 744.251 257.77 744.721 258.158 745.075C258.551 745.429 259.046 745.606 259.644 745.606C260.568 745.606 261.29 745.272 261.81 744.602L262.989 745.922C262.629 746.431 262.142 746.829 261.528 747.117C260.914 747.399 260.233 747.54 259.486 747.54ZM259.212 740.169C258.736 740.169 258.349 740.33 258.05 740.651C257.756 740.972 257.568 741.431 257.485 742.029H260.822V741.838C260.811 741.307 260.667 740.897 260.391 740.609C260.114 740.316 259.721 740.169 259.212 740.169ZM269.596 740.643C269.27 740.598 268.982 740.576 268.733 740.576C267.825 740.576 267.23 740.883 266.948 741.497V747.374H264.549V738.393H266.815L266.882 739.464C267.363 738.639 268.03 738.227 268.882 738.227C269.148 738.227 269.397 738.263 269.629 738.335L269.596 740.643ZM275.714 747.374C275.603 747.159 275.523 746.89 275.473 746.569C274.892 747.217 274.137 747.54 273.207 747.54C272.327 747.54 271.597 747.286 271.016 746.777C270.44 746.268 270.152 745.626 270.152 744.851C270.152 743.899 270.504 743.169 271.207 742.66C271.915 742.15 272.936 741.893 274.27 741.888H275.374V741.373C275.374 740.958 275.266 740.626 275.05 740.377C274.839 740.128 274.505 740.003 274.045 740.003C273.641 740.003 273.323 740.1 273.091 740.294C272.864 740.488 272.75 740.753 272.75 741.091H270.352C270.352 740.571 270.512 740.089 270.833 739.646C271.154 739.204 271.608 738.858 272.194 738.609C272.781 738.354 273.439 738.227 274.17 738.227C275.277 738.227 276.154 738.506 276.801 739.065C277.454 739.619 277.781 740.399 277.781 741.406V745.299C277.786 746.151 277.905 746.796 278.138 747.233V747.374H275.714ZM273.73 745.706C274.084 745.706 274.411 745.629 274.709 745.474C275.008 745.313 275.23 745.1 275.374 744.834V743.29H274.477C273.276 743.29 272.637 743.706 272.56 744.536L272.551 744.677C272.551 744.976 272.656 745.222 272.867 745.415C273.077 745.609 273.365 745.706 273.73 745.706ZM151.915 762.374V756.414H150.83V755.506H151.915V754.802C151.915 754.065 152.112 753.496 152.505 753.094C152.899 752.692 153.455 752.491 154.175 752.491C154.446 752.491 154.714 752.527 154.981 752.599L154.917 753.551C154.719 753.513 154.507 753.494 154.283 753.494C153.902 753.494 153.608 753.606 153.4 753.831C153.193 754.051 153.089 754.368 153.089 754.783V755.506H154.556V756.414H153.089V762.374H151.915ZM155.546 758.877C155.546 758.204 155.677 757.599 155.939 757.061C156.206 756.524 156.574 756.109 157.044 755.817C157.518 755.525 158.057 755.379 158.663 755.379C159.598 755.379 160.353 755.703 160.929 756.351C161.508 756.998 161.798 757.859 161.798 758.934V759.017C161.798 759.685 161.669 760.286 161.411 760.819C161.157 761.348 160.791 761.761 160.313 762.057C159.839 762.353 159.293 762.501 158.675 762.501C157.744 762.501 156.989 762.178 156.409 761.53C155.834 760.883 155.546 760.026 155.546 758.959V758.877ZM156.727 759.017C156.727 759.778 156.902 760.39 157.253 760.851C157.609 761.312 158.083 761.543 158.675 761.543C159.272 761.543 159.746 761.31 160.097 760.845C160.448 760.375 160.624 759.719 160.624 758.877C160.624 758.124 160.444 757.514 160.084 757.049C159.729 756.579 159.255 756.344 158.663 756.344C158.083 756.344 157.615 756.575 157.26 757.036C156.904 757.497 156.727 758.157 156.727 759.017ZM166.591 756.56C166.413 756.53 166.221 756.516 166.013 756.516C165.243 756.516 164.72 756.844 164.445 757.499V762.374H163.271V755.506H164.414L164.433 756.3C164.818 755.686 165.364 755.379 166.07 755.379C166.299 755.379 166.472 755.409 166.591 755.468V756.56ZM171.478 762.374V756.414H170.393V755.506H171.478V754.802C171.478 754.065 171.675 753.496 172.069 753.094C172.462 752.692 173.019 752.491 173.738 752.491C174.009 752.491 174.278 752.527 174.544 752.599L174.481 753.551C174.282 753.513 174.07 753.494 173.846 753.494C173.465 753.494 173.171 753.606 172.964 753.831C172.756 754.051 172.653 754.368 172.653 754.783V755.506H174.119V756.414H172.653V762.374H171.478ZM179.661 762.374C179.593 762.239 179.538 761.998 179.496 761.651C178.95 762.218 178.298 762.501 177.54 762.501C176.863 762.501 176.307 762.311 175.871 761.93C175.439 761.545 175.224 761.058 175.224 760.47C175.224 759.755 175.494 759.201 176.036 758.807C176.582 758.409 177.348 758.21 178.334 758.21H179.477V757.671C179.477 757.26 179.354 756.935 179.108 756.693C178.863 756.448 178.501 756.325 178.023 756.325C177.604 756.325 177.253 756.431 176.969 756.643C176.686 756.854 176.544 757.11 176.544 757.411H175.363C175.363 757.068 175.484 756.738 175.725 756.42C175.971 756.099 176.301 755.845 176.715 755.659C177.134 755.472 177.593 755.379 178.093 755.379C178.884 755.379 179.504 755.578 179.953 755.976C180.401 756.37 180.634 756.913 180.651 757.607V760.768C180.651 761.399 180.731 761.9 180.892 762.273V762.374H179.661ZM177.712 761.479C178.08 761.479 178.429 761.384 178.759 761.194C179.089 761.003 179.328 760.756 179.477 760.451V759.042H178.556C177.117 759.042 176.398 759.463 176.398 760.305C176.398 760.673 176.521 760.961 176.766 761.168C177.012 761.376 177.327 761.479 177.712 761.479ZM185.247 761.543C185.665 761.543 186.032 761.416 186.345 761.162C186.658 760.908 186.831 760.591 186.865 760.21H187.976C187.955 760.603 187.819 760.978 187.57 761.333C187.32 761.689 186.986 761.972 186.567 762.184C186.152 762.396 185.712 762.501 185.247 762.501C184.311 762.501 183.567 762.19 183.012 761.568C182.462 760.942 182.187 760.087 182.187 759.004V758.807C182.187 758.138 182.31 757.544 182.555 757.023C182.801 756.503 183.152 756.099 183.609 755.811C184.07 755.523 184.614 755.379 185.24 755.379C186.01 755.379 186.649 755.61 187.157 756.071C187.669 756.532 187.942 757.131 187.976 757.868H186.865C186.831 757.423 186.662 757.059 186.357 756.776C186.057 756.488 185.685 756.344 185.24 756.344C184.644 756.344 184.18 756.56 183.85 756.992C183.524 757.419 183.361 758.039 183.361 758.852V759.074C183.361 759.865 183.524 760.474 183.85 760.902C184.176 761.329 184.641 761.543 185.247 761.543ZM192.146 762.501C191.215 762.501 190.458 762.197 189.874 761.587C189.29 760.974 188.998 760.155 188.998 759.131V758.915C188.998 758.234 189.127 757.626 189.385 757.093C189.648 756.556 190.012 756.137 190.477 755.836C190.947 755.532 191.455 755.379 192 755.379C192.893 755.379 193.587 755.673 194.082 756.262C194.578 756.85 194.825 757.692 194.825 758.788V759.277H190.172C190.189 759.954 190.386 760.502 190.763 760.921C191.144 761.336 191.626 761.543 192.21 761.543C192.625 761.543 192.976 761.458 193.264 761.289C193.551 761.12 193.803 760.895 194.019 760.616L194.736 761.175C194.161 762.059 193.297 762.501 192.146 762.501ZM192 756.344C191.526 756.344 191.129 756.518 190.807 756.865C190.485 757.207 190.287 757.69 190.21 758.312H193.651V758.223C193.617 757.626 193.456 757.165 193.168 756.839C192.881 756.509 192.491 756.344 192 756.344ZM202.734 756.56C202.557 756.53 202.364 756.516 202.157 756.516C201.387 756.516 200.864 756.844 200.589 757.499V762.374H199.415V755.506H200.557L200.576 756.3C200.961 755.686 201.507 755.379 202.214 755.379C202.442 755.379 202.616 755.409 202.734 755.468V756.56ZM206.543 762.501C205.612 762.501 204.854 762.197 204.27 761.587C203.686 760.974 203.395 760.155 203.395 759.131V758.915C203.395 758.234 203.524 757.626 203.782 757.093C204.044 756.556 204.408 756.137 204.874 755.836C205.343 755.532 205.851 755.379 206.397 755.379C207.29 755.379 207.984 755.673 208.479 756.262C208.974 756.85 209.222 757.692 209.222 758.788V759.277H204.569C204.586 759.954 204.783 760.502 205.159 760.921C205.54 761.336 206.022 761.543 206.606 761.543C207.021 761.543 207.372 761.458 207.66 761.289C207.948 761.12 208.2 760.895 208.415 760.616L209.133 761.175C208.557 762.059 207.694 762.501 206.543 762.501ZM206.397 756.344C205.923 756.344 205.525 756.518 205.204 756.865C204.882 757.207 204.683 757.69 204.607 758.312H208.047V758.223C208.013 757.626 207.853 757.165 207.565 756.839C207.277 756.509 206.888 756.344 206.397 756.344ZM213.341 761.543C213.76 761.543 214.126 761.416 214.439 761.162C214.753 760.908 214.926 760.591 214.96 760.21H216.071C216.05 760.603 215.914 760.978 215.665 761.333C215.415 761.689 215.081 761.972 214.662 762.184C214.247 762.396 213.807 762.501 213.341 762.501C212.406 762.501 211.661 762.19 211.107 761.568C210.557 760.942 210.282 760.087 210.282 759.004V758.807C210.282 758.138 210.404 757.544 210.65 757.023C210.895 756.503 211.247 756.099 211.704 755.811C212.165 755.523 212.709 755.379 213.335 755.379C214.105 755.379 214.744 755.61 215.252 756.071C215.764 756.532 216.037 757.131 216.071 757.868H214.96C214.926 757.423 214.757 757.059 214.452 756.776C214.152 756.488 213.779 756.344 213.335 756.344C212.738 756.344 212.275 756.56 211.945 756.992C211.619 757.419 211.456 758.039 211.456 758.852V759.074C211.456 759.865 211.619 760.474 211.945 760.902C212.271 761.329 212.736 761.543 213.341 761.543ZM217.08 758.877C217.08 758.204 217.211 757.599 217.474 757.061C217.74 756.524 218.108 756.109 218.578 755.817C219.052 755.525 219.592 755.379 220.197 755.379C221.132 755.379 221.887 755.703 222.463 756.351C223.043 756.998 223.332 757.859 223.332 758.934V759.017C223.332 759.685 223.203 760.286 222.945 760.819C222.691 761.348 222.325 761.761 221.847 762.057C221.373 762.353 220.827 762.501 220.209 762.501C219.278 762.501 218.523 762.178 217.943 761.53C217.368 760.883 217.08 760.026 217.08 758.959V758.877ZM218.261 759.017C218.261 759.778 218.436 760.39 218.788 760.851C219.143 761.312 219.617 761.543 220.209 761.543C220.806 761.543 221.28 761.31 221.631 760.845C221.983 760.375 222.158 759.719 222.158 758.877C222.158 758.124 221.978 757.514 221.619 757.049C221.263 756.579 220.789 756.344 220.197 756.344C219.617 756.344 219.149 756.575 218.794 757.036C218.438 757.497 218.261 758.157 218.261 759.017ZM224.526 758.883C224.526 757.813 224.773 756.962 225.269 756.331C225.764 755.697 226.42 755.379 227.236 755.379C228.074 755.379 228.728 755.676 229.198 756.268L229.255 755.506H230.328V762.209C230.328 763.098 230.063 763.798 229.534 764.31C229.009 764.823 228.303 765.079 227.414 765.079C226.919 765.079 226.434 764.973 225.96 764.761C225.486 764.55 225.125 764.26 224.875 763.892L225.484 763.187C225.988 763.809 226.604 764.12 227.332 764.12C227.903 764.12 228.347 763.959 228.665 763.638C228.986 763.316 229.147 762.863 229.147 762.279V761.689C228.677 762.231 228.036 762.501 227.224 762.501C226.42 762.501 225.768 762.178 225.269 761.53C224.773 760.883 224.526 760 224.526 758.883ZM225.707 759.017C225.707 759.791 225.865 760.4 226.183 760.845C226.5 761.285 226.944 761.505 227.516 761.505C228.256 761.505 228.8 761.168 229.147 760.496V757.36C228.787 756.704 228.248 756.376 227.528 756.376C226.957 756.376 226.511 756.598 226.189 757.042C225.867 757.487 225.707 758.145 225.707 759.017ZM233.216 755.506L233.254 756.37C233.779 755.709 234.464 755.379 235.311 755.379C236.762 755.379 237.494 756.198 237.507 757.836V762.374H236.332V757.83C236.328 757.334 236.214 756.968 235.99 756.731C235.77 756.494 235.425 756.376 234.955 756.376C234.574 756.376 234.24 756.477 233.952 756.681C233.664 756.884 233.44 757.15 233.279 757.48V762.374H232.105V755.506H233.216ZM240.554 762.374H239.379V755.506H240.554V762.374ZM239.284 753.685C239.284 753.494 239.341 753.333 239.456 753.202C239.574 753.071 239.748 753.005 239.976 753.005C240.205 753.005 240.378 753.071 240.497 753.202C240.615 753.333 240.674 753.494 240.674 753.685C240.674 753.875 240.615 754.034 240.497 754.161C240.378 754.288 240.205 754.351 239.976 754.351C239.748 754.351 239.574 754.288 239.456 754.161C239.341 754.034 239.284 753.875 239.284 753.685ZM244.032 753.843V755.506H245.314V756.414H244.032V760.673C244.032 760.948 244.089 761.156 244.204 761.295C244.318 761.431 244.513 761.498 244.788 761.498C244.923 761.498 245.109 761.473 245.346 761.422V762.374C245.037 762.459 244.737 762.501 244.445 762.501C243.92 762.501 243.524 762.343 243.258 762.025C242.991 761.708 242.858 761.257 242.858 760.673V756.414H241.607V755.506H242.858V753.843H244.032ZM247.968 762.374H246.793V755.506H247.968V762.374ZM246.698 753.685C246.698 753.494 246.755 753.333 246.87 753.202C246.988 753.071 247.162 753.005 247.39 753.005C247.619 753.005 247.792 753.071 247.911 753.202C248.029 753.333 248.088 753.494 248.088 753.685C248.088 753.875 248.029 754.034 247.911 754.161C247.792 754.288 247.619 754.351 247.39 754.351C247.162 754.351 246.988 754.288 246.87 754.161C246.755 754.034 246.698 753.875 246.698 753.685ZM249.542 758.877C249.542 758.204 249.673 757.599 249.936 757.061C250.202 756.524 250.57 756.109 251.04 755.817C251.514 755.525 252.054 755.379 252.659 755.379C253.594 755.379 254.349 755.703 254.925 756.351C255.505 756.998 255.794 757.859 255.794 758.934V759.017C255.794 759.685 255.665 760.286 255.407 760.819C255.153 761.348 254.787 761.761 254.309 762.057C253.835 762.353 253.289 762.501 252.671 762.501C251.74 762.501 250.985 762.178 250.405 761.53C249.83 760.883 249.542 760.026 249.542 758.959V758.877ZM250.723 759.017C250.723 759.778 250.898 760.39 251.249 760.851C251.605 761.312 252.079 761.543 252.671 761.543C253.268 761.543 253.742 761.31 254.093 760.845C254.444 760.375 254.62 759.719 254.62 758.877C254.62 758.124 254.44 757.514 254.081 757.049C253.725 756.579 253.251 756.344 252.659 756.344C252.079 756.344 251.611 756.575 251.256 757.036C250.9 757.497 250.723 758.157 250.723 759.017ZM258.378 755.506L258.416 756.37C258.941 755.709 259.626 755.379 260.473 755.379C261.924 755.379 262.656 756.198 262.669 757.836V762.374H261.495V757.83C261.49 757.334 261.376 756.968 261.152 756.731C260.932 756.494 260.587 756.376 260.117 756.376C259.736 756.376 259.402 756.477 259.114 756.681C258.826 756.884 258.602 757.15 258.441 757.48V762.374H257.267V755.506H258.378Z" fill="#E5493B"/>
<defs>
<linearGradient id="paint0_linear" x1="198.275" y1="71.4231" x2="198.275" y2="185.961" gradientUnits="userSpaceOnUse">
<stop stop-color="#8491F6"/>
<stop offset="1" stop-color="#50A9DF"/>
</linearGradient>
<linearGradient id="paint1_linear" x1="260.948" y1="47.3315" x2="260.948" y2="71.4231" gradientUnits="userSpaceOnUse">
<stop stop-color="#8491F6"/>
<stop offset="1" stop-color="#50A9DF"/>
</linearGradient>
<linearGradient id="paint2_linear" x1="207" y1="716.638" x2="207" y2="780.11" gradientUnits="userSpaceOnUse">
<stop stop-color="#8491F6"/>
<stop offset="1" stop-color="#50A9DF"/>
</linearGradient>
</defs>
</svg>
