<svg width="414" height="896" viewBox="0 0 414 896" fill="none" xmlns="http://www.w3.org/2000/svg">
<rect width="414" height="896" fill="white"/>
<g clip-path="url(#clip0)">
<path d="M356.292 275.622C375.71 193.609 324.787 111.425 242.552 92.0597C160.317 72.6941 77.911 123.48 58.493 205.493C39.075 287.506 89.9982 369.689 172.233 389.055C254.468 408.42 336.874 357.635 356.292 275.622Z" fill="#DFE7ED"/>
<path d="M110.653 110.161C106.884 110.161 103.779 107.065 103.779 103.306C103.779 99.5466 106.884 96.4506 110.653 96.4506C114.423 96.4506 117.527 99.5466 117.527 103.306C117.749 107.065 114.644 110.161 110.653 110.161ZM110.653 98.662C107.992 98.662 105.997 100.873 105.997 103.306C105.997 105.96 108.214 107.95 110.653 107.95C113.314 107.95 115.31 105.739 115.31 103.306C115.531 100.652 113.314 98.662 110.653 98.662Z" fill="#CAD7E0"/>
<path d="M94.688 359.829C90.9184 359.829 87.8141 356.733 87.8141 352.974C87.8141 349.214 90.9184 346.118 94.688 346.118C98.4576 346.118 101.562 349.214 101.562 352.974C101.562 356.733 98.4576 359.829 94.688 359.829ZM94.688 348.108C92.0271 348.108 90.0315 350.32 90.0315 352.752C90.0315 355.406 92.2489 357.396 94.688 357.396C97.3489 357.396 99.3445 355.185 99.3445 352.752C99.3445 350.32 97.1271 348.108 94.688 348.108Z" fill="#CAD7E0"/>
<path d="M78.0575 161.466C75.8401 161.466 73.8445 159.476 73.8445 157.264C73.8445 155.053 75.8401 153.063 78.0575 153.063C80.2749 153.063 82.2706 155.053 82.2706 157.264C82.2706 159.476 80.2749 161.466 78.0575 161.466ZM78.0575 155.274C76.9488 155.274 76.0619 156.159 76.0619 157.264C76.0619 158.37 76.9488 159.255 78.0575 159.255C79.1662 159.255 80.0532 158.37 80.0532 157.264C80.0532 156.159 79.1662 155.274 78.0575 155.274Z" fill="#CAD7E0"/>
<path d="M278.51 374.866C276.292 374.866 274.297 372.876 274.297 370.665C274.297 368.453 276.292 366.463 278.51 366.463C280.727 366.463 282.723 368.453 282.723 370.665C282.723 372.876 280.727 374.866 278.51 374.866ZM278.51 368.675C277.401 368.675 276.514 369.559 276.514 370.665C276.514 371.77 277.401 372.655 278.51 372.655C279.618 372.655 280.505 371.77 280.505 370.665C280.505 369.559 279.618 368.675 278.51 368.675Z" fill="#CAD7E0"/>
<path d="M293.144 123.872C290.927 123.872 288.931 121.882 288.931 119.67C288.931 117.459 290.927 115.469 293.144 115.469C295.362 115.469 297.358 117.459 297.358 119.67C297.358 122.103 295.584 123.872 293.144 123.872ZM293.144 117.68C292.036 117.68 291.149 118.565 291.149 119.67C291.149 120.776 292.036 121.661 293.144 121.661C294.253 121.661 295.14 120.776 295.14 119.67C295.14 118.565 294.253 117.68 293.144 117.68Z" fill="#CAD7E0"/>
<path d="M309.331 256.335C307.114 256.335 305.118 254.345 305.118 252.133C305.118 249.922 307.114 247.932 309.331 247.932C311.549 247.932 313.544 249.922 313.544 252.133C313.544 254.566 311.771 256.335 309.331 256.335ZM309.331 250.364C308.223 250.364 307.336 251.249 307.336 252.355C307.336 253.46 308.223 254.345 309.331 254.345C310.44 254.345 311.327 253.46 311.327 252.355C311.327 251.249 310.44 250.364 309.331 250.364Z" fill="#CAD7E0"/>
<path d="M337.271 179.378H335.053V191.983H337.271V179.378Z" fill="#CAD7E0"/>
<path d="M342.371 184.686H329.731V186.897H342.371V184.686Z" fill="#CAD7E0"/>
<path d="M64.3097 251.249H62.0923V263.854H64.3097V251.249Z" fill="#CAD7E0"/>
<path d="M69.4097 256.556H56.7706V258.768H69.4097V256.556Z" fill="#CAD7E0"/>
<path d="M220.636 75H218.418V87.605H220.636V75Z" fill="#CAD7E0"/>
<path d="M225.736 80.3074H213.097V82.5188H225.736V80.3074Z" fill="#CAD7E0"/>
<path d="M165.866 345.013H163.649V351.204H165.866V345.013Z" fill="#CAD7E0"/>
<path d="M168.084 347.003H161.875V349.214H168.084V347.003Z" fill="#CAD7E0"/>
</g>
<path d="M83.8227 367.569H330.84C334.61 367.569 337.492 364.694 337.492 360.935C337.492 357.175 334.61 354.3 330.84 354.3H83.8227C80.0531 354.3 77.1705 357.175 77.1705 360.935C77.1705 364.473 80.0531 367.569 83.8227 367.569Z" fill="#CAD7E0"/>
<g clip-path="url(#clip1)">
<path d="M277.692 148.193H275.339C274.876 148.193 274.5 148.569 274.5 149.033V180.62C274.5 181.084 274.876 181.46 275.339 181.46H277.692C278.155 181.46 278.531 181.084 278.531 180.62V149.033C278.531 148.569 278.155 148.193 277.692 148.193Z" fill="#3F3D56"/>
<path d="M262.376 85.9346H156.098C148.201 85.9346 141.799 92.3442 141.799 100.251V346.068C141.799 353.974 148.201 360.384 156.098 360.384H262.376C270.273 360.384 276.675 353.974 276.675 346.068V100.251C276.675 92.3442 270.273 85.9346 262.376 85.9346Z" fill="#3F3D56"/>
<path d="M257.902 93.0832H242.43V94.9467C242.43 96.1066 242.202 97.2551 241.759 98.3267C241.315 99.3982 240.665 100.372 239.846 101.192C239.026 102.012 238.054 102.662 236.983 103.105C235.913 103.549 234.765 103.777 233.607 103.776H184.403C183.244 103.777 182.097 103.549 181.027 103.105C179.956 102.662 178.983 102.012 178.164 101.192C177.345 100.372 176.695 99.3982 176.251 98.3267C175.808 97.2551 175.579 96.1066 175.579 94.9467V93.0832H161.093C158.252 93.0832 155.528 94.2132 153.519 96.2245C151.51 98.2358 150.382 100.964 150.382 103.808V342.529C150.382 345.374 151.51 348.101 153.519 350.113C155.528 352.124 158.252 353.254 161.093 353.254H257.902C260.743 353.254 263.468 352.124 265.477 350.113C267.485 348.101 268.614 345.374 268.614 342.529V103.826C268.616 102.417 268.341 101.02 267.804 99.7166C267.267 98.4133 266.478 97.2288 265.483 96.231C264.488 95.2331 263.306 94.4415 262.006 93.9014C260.705 93.3612 259.31 93.0832 257.902 93.0832Z" fill="white"/>
<path d="M213.642 94.1308H197.646C196.862 94.1308 196.227 94.767 196.227 95.5518V96.5369C196.227 97.3217 196.862 97.9579 197.646 97.9579H213.642C214.426 97.9579 215.061 97.3217 215.061 96.5369V95.5518C215.061 94.767 214.426 94.1308 213.642 94.1308Z" fill="#E6E8EC"/>
<path d="M220.081 98.2178C221.279 98.2178 222.251 97.2448 222.251 96.0445C222.251 94.8442 221.279 93.8712 220.081 93.8712C218.882 93.8712 217.91 94.8442 217.91 96.0445C217.91 97.2448 218.882 98.2178 220.081 98.2178Z" fill="#E6E8EC"/>
<path d="M210.06 252.074C224.152 252.074 235.575 240.637 235.575 226.529C235.575 212.42 224.152 200.983 210.06 200.983C195.969 200.983 184.546 212.42 184.546 226.529C184.546 240.637 195.969 252.074 210.06 252.074Z" fill="white"/>
<path d="M243.619 222.962C243.619 229.714 241.619 236.315 237.872 241.93C234.124 247.545 228.798 251.921 222.567 254.505C216.336 257.089 209.479 257.765 202.864 256.447C196.249 255.129 190.173 251.877 185.404 247.102C180.635 242.327 177.387 236.243 176.072 229.62C174.756 222.997 175.432 216.132 178.013 209.894C180.594 203.655 184.965 198.323 190.573 194.571C196.181 190.82 202.775 188.817 209.519 188.818C213.997 188.818 218.432 189.701 222.569 191.417C226.706 193.133 230.466 195.648 233.632 198.819C236.799 201.989 239.31 205.753 241.024 209.896C242.738 214.038 243.62 218.478 243.619 222.962ZM205.577 241.034L230.873 215.707C231.078 215.503 231.24 215.26 231.351 214.993C231.462 214.725 231.519 214.439 231.519 214.149C231.519 213.86 231.462 213.573 231.351 213.306C231.24 213.038 231.078 212.795 230.873 212.591L227.761 209.497C227.557 209.293 227.315 209.13 227.048 209.019C226.781 208.908 226.496 208.851 226.207 208.851C225.918 208.851 225.632 208.908 225.365 209.019C225.099 209.13 224.857 209.293 224.653 209.497L204.021 230.155L194.388 220.487C193.974 220.075 193.415 219.844 192.832 219.844C192.248 219.844 191.689 220.075 191.275 220.487L188.163 223.621C187.752 224.035 187.521 224.596 187.521 225.179C187.521 225.763 187.752 226.324 188.163 226.738L202.465 241.052C202.67 241.257 202.912 241.42 203.179 241.531C203.446 241.642 203.733 241.699 204.022 241.699C204.311 241.699 204.597 241.642 204.864 241.531C205.131 241.42 205.374 241.257 205.578 241.052L205.577 241.034Z" fill="url(#paint0_linear)"/>
<path d="M146.022 140.041H145.669C145.205 140.041 144.829 140.417 144.829 140.882V149.045C144.829 149.51 145.205 149.886 145.669 149.886H146.022C146.486 149.886 146.862 149.51 146.862 149.045V140.882C146.862 140.417 146.486 140.041 146.022 140.041Z" fill="#3F3D56"/>
<path d="M146.206 158.068H145.595C145.131 158.068 144.755 158.445 144.755 158.909V174.362C144.755 174.827 145.131 175.203 145.595 175.203H146.206C146.67 175.203 147.046 174.827 147.046 174.362V158.909C147.046 158.445 146.67 158.068 146.206 158.068Z" fill="#3F3D56"/>
<path d="M146.132 181.199H145.632C145.168 181.199 144.792 181.575 144.792 182.04V197.64C144.792 198.104 145.168 198.481 145.632 198.481H146.132C146.596 198.481 146.972 198.104 146.972 197.64V182.04C146.972 181.575 146.596 181.199 146.132 181.199Z" fill="#3F3D56"/>
<path d="M117.775 226.898C117.834 226.954 117.909 226.99 117.989 227.001C118.069 227.011 118.151 226.995 118.221 226.955C118.071 226.958 117.921 226.938 117.775 226.898Z" fill="url(#paint1_linear)"/>
<path d="M134.632 233.5L134.191 235.899L133.852 237.735L133.234 241.094L127.246 245.291C127.246 245.291 126.706 244.828 125.816 244.099C123.362 242.076 118.203 237.956 114.416 235.745C113.442 235.123 112.387 234.637 111.282 234.299L134.632 233.5Z" fill="#FEB9B9"/>
<path d="M130.238 235.285C130.238 235.285 137.221 236.485 137.63 233.5C138.039 230.514 134.036 228.901 130.643 228.7C127.251 228.499 106.891 229.9 106.891 229.9C106.891 229.9 103.299 234.695 116.27 235.498L130.238 235.285Z" fill="#3F3D56"/>
<path d="M145.508 136.769H108.981V180.134H145.508V136.769Z" fill="#2F2E41"/>
<path opacity="0.1" d="M145.508 136.965H108.981V180.331H145.508V136.965Z" fill="black"/>
<path d="M66.1723 211.004C65.5708 211.156 64.8022 211.738 63.9473 212.581C60.2661 216.23 54.9935 224.793 54.9935 224.793C48.2527 216.754 55.712 210.402 58.8915 208.219C59.6646 207.691 60.1839 207.4 60.1839 207.4L66.1723 211.004Z" fill="#FEB9B9"/>
<path d="M134.231 150.455C134.231 150.455 136.028 163.044 142.215 166.042C148.402 169.04 134.231 174.642 134.231 174.642L114.871 167.442C114.871 167.442 125.85 163.844 123.653 153.252L134.231 150.455Z" fill="#FEB9B9"/>
<path d="M113.473 226.193L113.035 228.585L112.679 230.428L112.061 233.786L106.073 237.98C106.073 237.98 105.533 237.521 104.643 236.792C102.189 234.769 97.0309 230.65 93.2374 228.438C92.2636 227.815 91.2094 227.329 90.1041 226.992L113.473 226.193Z" fill="#FEB9B9"/>
<path d="M108.293 229.143C108.293 229.143 114.559 229.187 114.936 226.193C115.313 223.199 111.521 221.595 108.293 221.394C105.064 221.193 85.4492 222.687 85.4492 222.687C85.4492 222.687 82.6664 228.341 95.0043 229.143L108.293 229.143Z" fill="#2F2E41"/>
<path d="M152.228 276.177C151.954 276.042 151.68 275.902 151.41 275.767L150.674 274.838L141.016 262.576V262.789C140.951 264.837 140.256 281.063 134.832 282.562C129.044 284.159 122.062 284.56 118.879 273.769C115.696 262.978 109.88 239.397 103.908 237.997L112.792 230.703C112.792 230.703 118.674 237.591 121.071 244.185C120.981 243.775 116.919 224.773 120.253 221.411H149.399C149.399 221.411 153.898 234.242 156.982 240.597C159.383 245.532 162.987 257.2 165.307 265.096C167.604 272.892 159.533 279.777 152.228 276.177Z" fill="#3F3D56"/>
<path opacity="0.1" d="M151.398 224.993C146.898 227.66 127.146 226.574 120.72 226.14L118.97 226.013C118.781 226.013 118.998 225.907 118.998 225.907L119.178 224.092L123.968 211.905L149.614 197.014C149.095 198.583 148.923 200.983 148.964 203.731C149.083 212.56 151.398 224.993 151.398 224.993Z" fill="black"/>
<path d="M151.398 224.392C146.898 227.058 127.146 225.972 120.72 225.538L118.97 225.415L118.679 225.391L118.998 225.309L120.577 224.899L123.968 211.311L149.614 196.425C149.095 197.993 148.923 200.393 148.964 203.141C149.083 211.962 151.398 224.392 151.398 224.392Z" fill="#EFEFEF"/>
<path opacity="0.1" d="M148.948 203.133C143.732 204.337 132.255 207.869 127.846 216.402C124.905 222.082 122.43 224.518 120.704 225.538L118.953 225.415C118.964 225.38 118.974 225.345 118.982 225.309L120.56 224.899L123.951 211.311L149.597 196.425C149.084 197.985 148.907 200.385 148.948 203.133Z" fill="black"/>
<path opacity="0.1" d="M60.1839 207.409L66.1723 211.004C65.5708 211.156 64.8022 211.739 63.9473 212.581C63.4482 211.123 60.3167 209.088 58.8915 208.22C59.6642 207.699 60.1839 207.409 60.1839 207.409Z" fill="black"/>
<path opacity="0.1" d="M117.886 225.649C117.82 225.683 117.746 225.696 117.672 225.686C117.599 225.675 117.531 225.643 117.477 225.592C117.61 225.631 117.747 225.65 117.886 225.649Z" fill="black"/>
<path d="M131.437 165.243C131.437 165.243 126.046 165.841 122.255 161.844C122.255 161.844 106.302 166.443 100.899 176.833C95.4965 187.223 58.7687 207.609 58.7687 207.609C58.7687 207.609 65.1579 211.205 64.5564 213.003L88.7098 199.013C88.7098 199.013 97.2994 192.821 99.6842 191.421C102.069 190.02 115.256 181.428 118.05 204.808C120.844 228.188 118.05 225.391 118.05 225.391C118.05 225.391 122.042 226.792 127.83 215.599C133.618 204.407 151.578 201.81 151.578 201.81L152.576 190.024C152.576 190.024 156.139 182.21 153.394 178.967C152.563 178.006 152.01 176.836 151.795 175.584C151.341 172.59 151.795 167.602 158.151 163.458C167.931 157.061 171.723 151.868 171.723 151.868C171.723 151.868 171.923 148.068 165.935 146.27C159.947 144.472 135.597 134.68 135.597 134.68L134.779 138.079L153.991 151.655C153.991 151.655 144.412 159.436 136.812 159.248C136.812 159.248 138.223 165.042 131.437 165.243Z" fill="#E3B943"/>
<path opacity="0.1" d="M135.135 155.935C134.663 154.333 134.294 152.702 134.031 151.053L123.453 153.851C123.919 155.873 123.836 157.983 123.212 159.961C125.374 160.539 127.659 160.465 129.78 159.749C131.901 159.033 133.763 157.706 135.135 155.935Z" fill="black"/>
<path d="M126.349 159.748C132.631 159.748 137.724 154.649 137.724 148.359C137.724 142.069 132.631 136.969 126.349 136.969C120.067 136.969 114.974 142.069 114.974 148.359C114.974 154.649 120.067 159.748 126.349 159.748Z" fill="#FEB9B9"/>
<path opacity="0.1" d="M138.722 240.08C138.722 240.08 145.307 253.071 143.311 257.064L138.722 240.08Z" fill="black"/>
<path d="M132.398 122.054C135.556 122.415 138.554 123.77 141.663 124.511C142.44 124.753 143.267 124.784 144.06 124.601C145.266 124.229 146.248 122.963 147.5 123C148.27 123.025 148.952 123.549 149.586 124.053C150.602 124.832 151.56 125.686 152.449 126.608C154.592 128.938 155.921 132.075 157.876 134.61C159.832 137.145 162.62 140.118 165.397 138.956C163.508 146.327 157.615 150.938 150.919 151.397C148.248 151.581 145.512 151.025 142.927 151.807C142.283 152.071 141.603 152.237 140.91 152.298C139.421 152.298 138.222 150.93 137.294 149.599C135.117 146.471 133.396 142.92 130.946 140.066C130.127 139.12 129.183 138.223 128.037 138.051C126.892 137.879 125.841 138.428 124.823 138.956C123.141 139.828 121.424 140.729 120.119 142.232C118.814 143.735 117.992 145.955 118.532 147.966C118.822 149.055 119.485 150.038 119.497 151.176C119.521 152.995 117.918 154.322 117.603 156.091C117.532 156.834 117.506 157.581 117.525 158.327C117.386 160.75 115.802 162.733 114.151 164.261C113.505 164.85 112.795 165.489 112.605 166.403C112.478 167.029 112.605 167.688 112.524 168.323C112.282 169.896 110.716 170.694 109.329 170.899C107.709 171.14 106.054 170.943 104.535 170.33C106.474 169.412 107.668 166.8 107.218 164.462C106.601 161.218 103.345 158.888 103.624 155.587C103.777 154.575 104.081 153.59 104.524 152.667C105.234 150.884 105.75 149.029 106.062 147.135C106.308 145.673 106.427 144.121 105.968 142.724C105.559 141.455 104.704 140.443 103.98 139.37C102.999 137.91 102.224 136.321 101.677 134.648C101.479 134.152 101.404 133.615 101.457 133.084C101.621 132.456 101.971 131.892 102.46 131.466C104.239 129.593 106.141 127.649 108.526 127.113C109.664 126.923 110.821 126.879 111.97 126.982C113.968 127.044 115.968 126.959 117.954 126.727C119.59 126.535 122.354 126.56 123.741 125.499C125.034 124.507 125.762 123.263 127.353 122.632C128.964 122.034 130.696 121.836 132.4 122.055L132.398 122.054Z" fill="#2F2E41"/>
<path d="M119.415 360.935C125.429 360.935 130.305 360.109 130.305 359.091C130.305 358.073 125.429 357.247 119.415 357.247C113.401 357.247 108.525 358.073 108.525 359.091C108.525 360.109 113.401 360.935 119.415 360.935Z" fill="#EFEFEF"/>
<path d="M123.919 356.076C124.415 355.669 124.777 355.122 124.956 354.506C125.035 354.197 125.006 353.87 124.874 353.579C124.742 353.289 124.515 353.052 124.23 352.908C123.564 352.654 122.852 353.117 122.313 353.584C121.774 354.05 121.154 354.584 120.447 354.484C120.811 354.155 121.083 353.736 121.237 353.27C121.392 352.804 121.423 352.306 121.327 351.824C121.296 351.624 121.21 351.437 121.081 351.282C120.714 350.886 120.041 351.054 119.6 351.369C118.191 352.36 117.799 354.275 117.79 355.997C117.647 355.376 117.769 354.728 117.763 354.099C117.758 353.47 117.587 352.744 117.048 352.41C116.716 352.232 116.342 352.144 115.965 352.155C115.331 352.131 114.627 352.196 114.194 352.66C113.652 353.235 113.798 354.2 114.264 354.829C114.73 355.458 115.442 355.862 116.098 356.298C116.622 356.61 117.069 357.037 117.406 357.546C117.446 357.618 117.479 357.693 117.503 357.771H121.46C122.352 357.319 123.179 356.748 123.919 356.074V356.076Z" fill="#EFEFEF"/>
<path d="M57.8291 360.935C63.8434 360.935 68.7189 360.109 68.7189 359.091C68.7189 358.073 63.8434 357.247 57.8291 357.247C51.8149 357.247 46.9394 358.073 46.9394 359.091C46.9394 360.109 51.8149 360.935 57.8291 360.935Z" fill="#EFEFEF"/>
<path d="M62.3329 356.076C62.8292 355.669 63.1908 355.122 63.37 354.506C63.449 354.197 63.4201 353.87 63.2881 353.579C63.1561 353.289 62.929 353.052 62.6443 352.908C61.9779 352.654 61.2657 353.117 60.727 353.584C60.1883 354.05 59.5678 354.584 58.8611 354.484C59.2248 354.155 59.4971 353.736 59.6514 353.27C59.8056 352.804 59.8366 352.306 59.7412 351.824C59.7095 351.624 59.6243 351.437 59.4948 351.282C59.1281 350.886 58.4547 351.054 58.0136 351.369C56.6053 352.36 56.2125 354.275 56.2045 355.997C56.0611 355.376 56.1828 354.728 56.1773 354.099C56.1718 353.47 56.0013 352.744 55.4622 352.41C55.1297 352.232 54.7561 352.144 54.3789 352.155C53.7452 352.131 53.0411 352.196 52.6076 352.66C52.0659 353.235 52.2122 354.2 52.678 354.829C53.1437 355.458 53.8559 355.862 54.5116 356.298C55.0358 356.61 55.4829 357.037 55.8198 357.546C55.8603 357.618 55.8931 357.693 55.9173 357.771H59.874C60.7661 357.319 61.5933 356.748 62.3329 356.074V356.076Z" fill="#EFEFEF"/>
<path d="M356.066 104.486C356.066 104.486 321.513 102.399 325.584 126.64C325.584 126.64 324.763 130.926 328.653 132.869C328.653 132.869 328.715 131.074 332.199 131.686C333.439 131.892 334.699 131.952 335.954 131.866C337.646 131.755 339.256 131.096 340.542 129.989C340.542 129.989 350.255 125.97 354.031 110.078C354.031 110.078 356.825 106.61 356.714 105.718L350.883 108.212C350.883 108.212 352.878 112.424 351.294 115.923C351.294 115.923 351.105 108.363 349.985 108.527C349.759 108.56 346.956 109.986 346.956 109.986C346.956 109.986 350.383 117.32 347.797 122.653C347.797 122.653 348.778 113.614 345.885 110.516L341.781 112.915C341.781 112.915 345.787 120.492 343.07 126.676C343.07 126.676 343.767 117.193 340.915 113.499L337.197 116.403C337.197 116.403 340.96 123.869 338.666 128.998C338.666 128.998 338.367 117.961 336.393 117.128C336.393 117.128 333.138 120.004 332.642 121.179C332.642 121.179 335.219 126.602 333.618 129.462C333.618 129.462 332.638 122.107 331.833 122.066C331.833 122.066 328.591 126.939 328.255 130.284C328.255 130.284 328.394 125.316 331.049 121.606C331.049 121.606 327.914 122.144 326.083 124.176C326.083 124.176 326.588 120.733 331.849 120.429C331.849 120.429 334.529 116.731 335.243 116.51C335.243 116.51 330.015 116.069 326.843 117.479C326.843 117.479 329.633 114.229 336.203 115.708L339.876 112.705C339.876 112.705 332.99 111.764 330.068 112.804C330.068 112.804 333.429 109.928 340.865 112.023L344.863 109.632C344.863 109.632 338.99 108.366 335.494 108.81C335.494 108.81 339.187 106.817 346.036 108.978L348.909 107.693C348.909 107.693 344.608 106.847 343.348 106.711C342.088 106.576 342.023 106.231 342.023 106.231C344.747 105.776 347.545 106.087 350.103 107.131C350.103 107.131 356.169 104.868 356.066 104.486Z" fill="#E3B943"/>
<path d="M308.722 91.652C308.722 91.652 293.128 90.7109 294.95 101.665C294.95 101.665 294.583 103.6 296.337 104.479C296.337 104.479 296.366 103.658 297.942 103.941C298.501 104.035 299.07 104.063 299.636 104.023C300.402 103.973 301.13 103.672 301.709 103.169C301.709 103.169 306.1 101.352 307.807 94.1705C307.807 94.1705 309.066 92.6052 309.017 92.2024L306.382 93.3281C306.382 93.3281 307.281 95.2305 306.575 96.8123C306.575 96.8123 306.489 93.3975 305.984 93.4761C305.882 93.4761 304.614 94.137 304.614 94.137C304.614 94.137 306.165 97.4527 304.995 99.8606C304.995 99.8606 305.438 95.7765 304.129 94.3753L302.275 95.4769C302.275 95.4769 304.084 98.8993 302.857 101.694C302.857 101.694 303.173 97.4082 301.885 95.7401L300.206 97.055C300.206 97.055 301.905 100.428 300.871 102.746C300.871 102.746 300.732 97.7582 299.841 97.3803C299.841 97.3803 298.372 98.6787 298.146 99.2129C298.146 99.2129 299.311 101.678 298.589 102.956C298.589 102.956 298.146 99.6319 297.769 99.6146C297.769 99.6146 296.303 101.818 296.152 103.312C296.225 101.918 296.661 100.567 297.416 99.3928C296.57 99.5532 295.79 99.9574 295.171 100.556C295.171 100.556 295.401 98.9985 297.777 98.863C297.777 98.863 299.008 97.1909 299.312 97.0881C299.312 97.0881 296.948 96.8909 295.516 97.5287C295.516 97.5287 296.775 96.0618 299.743 96.7275L301.384 95.3715C301.384 95.3715 298.271 94.9566 296.95 95.4141C296.95 95.4141 298.469 94.1157 301.83 95.0609L303.635 93.9803C303.635 93.9803 300.98 93.4093 299.4 93.6131C299.4 93.6131 301.071 92.7131 304.165 93.6865L305.458 93.1071C305.458 93.1071 303.514 92.7249 302.942 92.6632C302.37 92.6015 302.343 92.4454 302.343 92.4454C303.575 92.2403 304.839 92.3825 305.995 92.8563C305.995 92.8563 308.77 91.8231 308.722 91.652Z" fill="#3F3D56"/>
<path d="M68.2413 258.879C68.2413 258.879 52.6472 257.937 54.4691 268.891C54.4691 268.891 54.1024 270.827 55.8561 271.706C55.8561 271.706 55.8847 270.884 57.4605 271.168C58.0202 271.262 58.589 271.29 59.1552 271.25C59.9207 271.199 60.6485 270.899 61.2276 270.395C61.2276 270.395 65.6185 268.579 67.3256 261.397C67.3256 261.397 68.5853 259.832 68.5358 259.429L65.9012 260.555C65.9012 260.555 66.8001 262.457 66.0941 264.039C66.0941 264.039 66.0079 260.624 65.5033 260.703C65.4006 260.703 64.1325 261.364 64.1325 261.364C64.1325 261.364 65.6838 264.679 64.5143 267.087C64.5143 267.087 64.9573 263.003 63.6484 261.602L61.7935 262.703C61.7935 262.703 63.6033 266.126 62.3762 268.92C62.3762 268.92 62.6923 264.635 61.4036 262.967L59.7251 264.282C59.7251 264.282 61.4242 267.655 60.39 269.973C60.39 269.973 60.2506 264.985 59.3598 264.607C59.3598 264.607 57.8907 265.905 57.6648 266.439C57.6648 266.439 58.8303 268.905 58.1082 270.182C58.1082 270.182 57.6648 266.858 57.2874 266.841C57.2874 266.841 55.8223 269.044 55.6705 270.539C55.7439 269.145 56.1796 267.793 56.9346 266.619C56.0892 266.78 55.309 267.184 54.6899 267.782C54.6899 267.782 54.9198 266.225 57.2959 266.09C57.2959 266.09 58.527 264.417 58.8306 264.315C58.8306 264.315 56.4671 264.117 55.0346 264.755C55.0346 264.755 56.2943 263.288 59.2616 263.954L60.903 262.598C60.903 262.598 57.7895 262.183 56.4693 262.641C56.4693 262.641 57.9875 261.342 61.3486 262.287L63.1544 261.207C63.1544 261.207 60.4993 260.636 58.9194 260.84C58.9194 260.84 60.5895 259.94 63.684 260.913L64.9767 260.334C64.9767 260.334 63.033 259.951 62.4609 259.89C61.8888 259.828 61.8617 259.672 61.8617 259.672C63.0936 259.467 64.3582 259.609 65.514 260.083C65.514 260.083 68.2894 259.05 68.2413 258.879Z" fill="#3F3D56"/>
</g>
<circle cx="182.725" cy="649.336" r="7.64782" fill="#C4C4C4"/>
<circle cx="210.952" cy="649.336" r="7.64782" fill="#C4C4C4"/>
<circle cx="239.178" cy="649.336" r="7.64782" fill="url(#paint2_linear)"/>
<rect x="91.1327" y="698.076" width="231.734" height="52.111" rx="26.0555" stroke="#C4C4C4"/>
<path d="M186.82 729.631V718.256H190.031C191.021 718.256 191.896 718.475 192.656 718.912C193.417 719.35 194.003 719.972 194.414 720.78C194.831 721.587 195.042 722.514 195.047 723.561V724.287C195.047 725.36 194.839 726.3 194.422 727.108C194.01 727.915 193.419 728.535 192.648 728.967C191.883 729.399 190.99 729.621 189.969 729.631H186.82ZM188.32 719.491V728.405H189.898C191.055 728.405 191.953 728.045 192.594 727.327C193.24 726.608 193.562 725.584 193.562 724.256V723.592C193.562 722.3 193.258 721.298 192.648 720.584C192.044 719.866 191.185 719.501 190.07 719.491H188.32ZM206.07 724.311C206.07 725.425 205.883 726.399 205.508 727.233C205.133 728.061 204.602 728.694 203.914 729.131C203.227 729.569 202.424 729.787 201.508 729.787C200.612 729.787 199.818 729.569 199.125 729.131C198.432 728.689 197.893 728.061 197.508 727.248C197.128 726.431 196.932 725.485 196.922 724.412V723.592C196.922 722.498 197.112 721.532 197.492 720.694C197.872 719.855 198.409 719.215 199.102 718.772C199.799 718.324 200.596 718.1 201.492 718.1C202.404 718.1 203.206 718.321 203.898 718.764C204.596 719.202 205.133 719.84 205.508 720.678C205.883 721.511 206.07 722.483 206.07 723.592V724.311ZM204.578 723.577C204.578 722.228 204.307 721.194 203.766 720.475C203.224 719.751 202.466 719.389 201.492 719.389C200.544 719.389 199.797 719.751 199.25 720.475C198.708 721.194 198.43 722.194 198.414 723.475V724.311C198.414 725.618 198.688 726.647 199.234 727.397C199.786 728.142 200.544 728.514 201.508 728.514C202.477 728.514 203.227 728.162 203.758 727.459C204.289 726.751 204.562 725.738 204.578 724.42V723.577ZM217.062 729.631H215.555L209.828 720.866V729.631H208.32V718.256H209.828L215.57 727.061V718.256H217.062V729.631ZM226.156 724.373H221.227V728.405H226.953V729.631H219.727V718.256H226.875V719.491H221.227V723.147H226.156V724.373Z" fill="#C4C4C4"/>
<path d="M194.18 797.302C192.893 796.932 191.956 796.479 191.367 795.942C190.784 795.401 190.492 794.734 190.492 793.942C190.492 793.046 190.849 792.307 191.562 791.724C192.281 791.135 193.214 790.841 194.359 790.841C195.141 790.841 195.836 790.992 196.445 791.294C197.06 791.596 197.534 792.013 197.867 792.544C198.206 793.075 198.375 793.656 198.375 794.286H196.867C196.867 793.599 196.648 793.06 196.211 792.669C195.773 792.273 195.156 792.075 194.359 792.075C193.62 792.075 193.042 792.239 192.625 792.567C192.214 792.89 192.008 793.341 192.008 793.919C192.008 794.382 192.203 794.776 192.594 795.099C192.99 795.416 193.659 795.708 194.602 795.974C195.549 796.239 196.289 796.533 196.82 796.856C197.357 797.174 197.753 797.546 198.008 797.974C198.268 798.401 198.398 798.903 198.398 799.481C198.398 800.403 198.039 801.143 197.32 801.7C196.602 802.252 195.641 802.528 194.438 802.528C193.656 802.528 192.927 802.38 192.25 802.083C191.573 801.781 191.049 801.369 190.68 800.849C190.315 800.328 190.133 799.737 190.133 799.075H191.641C191.641 799.763 191.893 800.307 192.398 800.708C192.909 801.104 193.589 801.302 194.438 801.302C195.229 801.302 195.836 801.14 196.258 800.817C196.68 800.494 196.891 800.054 196.891 799.497C196.891 798.94 196.695 798.51 196.305 798.208C195.914 797.901 195.206 797.599 194.18 797.302ZM203.219 797.083L201.828 798.528V802.372H200.328V790.997H201.828V796.622L206.883 790.997H208.695L204.219 796.02L209.047 802.372H207.25L203.219 797.083ZM211.969 802.372H210.469V790.997H211.969V802.372ZM216.219 797.919V802.372H214.719V790.997H218.914C220.159 790.997 221.133 791.315 221.836 791.95C222.544 792.586 222.898 793.427 222.898 794.474C222.898 795.578 222.552 796.429 221.859 797.028C221.172 797.622 220.185 797.919 218.898 797.919H216.219ZM216.219 796.692H218.914C219.716 796.692 220.331 796.505 220.758 796.13C221.185 795.75 221.398 795.203 221.398 794.489C221.398 793.812 221.185 793.27 220.758 792.864C220.331 792.458 219.745 792.247 219 792.231H216.219V796.692Z" fill="#DFE7ED"/>
<path d="M58.6328 474.361C56.3815 473.713 54.7409 472.92 53.7109 471.982C52.6901 471.034 52.1797 469.867 52.1797 468.482C52.1797 466.914 52.804 465.62 54.0527 464.599C55.3105 463.569 56.9421 463.054 58.9473 463.054C60.3145 463.054 61.5312 463.318 62.5977 463.847C63.6732 464.376 64.5026 465.105 65.0859 466.034C65.6784 466.964 65.9746 467.98 65.9746 469.083H63.3359C63.3359 467.88 62.9531 466.937 62.1875 466.253C61.4219 465.56 60.3418 465.214 58.9473 465.214C57.653 465.214 56.6413 465.501 55.9121 466.075C55.1921 466.641 54.832 467.429 54.832 468.441C54.832 469.252 55.1738 469.94 55.8574 470.505C56.5501 471.061 57.7214 471.572 59.3711 472.036C61.0299 472.501 62.3242 473.016 63.2539 473.581C64.1927 474.137 64.8854 474.789 65.332 475.536C65.7878 476.284 66.0156 477.163 66.0156 478.175C66.0156 479.788 65.3867 481.083 64.1289 482.058C62.8711 483.024 61.1895 483.507 59.084 483.507C57.7168 483.507 56.4408 483.247 55.2559 482.728C54.071 482.199 53.1549 481.479 52.5078 480.568C51.8698 479.656 51.5508 478.622 51.5508 477.464H54.1895C54.1895 478.667 54.6315 479.62 55.5156 480.322C56.4089 481.014 57.5983 481.361 59.084 481.361C60.4694 481.361 61.5312 481.078 62.2695 480.513C63.0078 479.948 63.377 479.178 63.377 478.202C63.377 477.227 63.0352 476.475 62.3516 475.947C61.668 475.409 60.4284 474.88 58.6328 474.361ZM71.5254 470.232C72.6465 468.855 74.1048 468.167 75.9004 468.167C79.0267 468.167 80.6035 469.931 80.6309 473.458V483.234H78.1016V473.445C78.0924 472.378 77.8464 471.59 77.3633 471.079C76.8893 470.569 76.1465 470.314 75.1348 470.314C74.3145 470.314 73.5944 470.532 72.9746 470.97C72.3548 471.407 71.8717 471.982 71.5254 472.693V483.234H68.9961V462.234H71.5254V470.232ZM93.5508 483.234C93.4049 482.942 93.2865 482.422 93.1953 481.675C92.0195 482.896 90.6159 483.507 88.9844 483.507C87.526 483.507 86.3275 483.097 85.3887 482.277C84.459 481.447 83.9941 480.399 83.9941 479.132C83.9941 477.592 84.5775 476.398 85.7441 475.55C86.9199 474.693 88.5697 474.265 90.6934 474.265H93.1543V473.103C93.1543 472.219 92.89 471.517 92.3613 470.997C91.8327 470.469 91.0534 470.204 90.0234 470.204C89.1211 470.204 88.3646 470.432 87.7539 470.888C87.1432 471.344 86.8379 471.895 86.8379 472.542H84.2949C84.2949 471.804 84.5547 471.093 85.0742 470.409C85.6029 469.717 86.3138 469.17 87.207 468.769C88.1094 468.368 89.0983 468.167 90.1738 468.167C91.8783 468.167 93.2135 468.596 94.1797 469.452C95.1458 470.3 95.6471 471.471 95.6836 472.966V479.775C95.6836 481.133 95.8568 482.213 96.2031 483.015V483.234H93.5508ZM89.3535 481.306C90.1465 481.306 90.8984 481.101 91.6094 480.691C92.3203 480.281 92.8353 479.747 93.1543 479.091V476.056H91.1719C88.0729 476.056 86.5234 476.963 86.5234 478.777C86.5234 479.57 86.7878 480.189 87.3164 480.636C87.8451 481.083 88.5241 481.306 89.3535 481.306ZM106.799 470.71C106.416 470.646 106.001 470.615 105.555 470.615C103.896 470.615 102.77 471.321 102.178 472.734V483.234H99.6484V468.441H102.109L102.15 470.15C102.98 468.828 104.156 468.167 105.678 468.167C106.17 468.167 106.544 468.231 106.799 468.359V470.71ZM111.885 483.234H109.355V468.441H111.885V483.234ZM109.15 464.517C109.15 464.107 109.273 463.76 109.52 463.478C109.775 463.195 110.148 463.054 110.641 463.054C111.133 463.054 111.507 463.195 111.762 463.478C112.017 463.76 112.145 464.107 112.145 464.517C112.145 464.927 112.017 465.269 111.762 465.542C111.507 465.816 111.133 465.952 110.641 465.952C110.148 465.952 109.775 465.816 109.52 465.542C109.273 465.269 109.15 464.927 109.15 464.517ZM118.338 468.441L118.42 470.3C119.55 468.878 121.027 468.167 122.85 468.167C125.976 468.167 127.553 469.931 127.58 473.458V483.234H125.051V473.445C125.042 472.378 124.796 471.59 124.312 471.079C123.839 470.569 123.096 470.314 122.084 470.314C121.264 470.314 120.544 470.532 119.924 470.97C119.304 471.407 118.821 471.982 118.475 472.693V483.234H115.945V468.441H118.338ZM130.793 475.714C130.793 473.408 131.326 471.576 132.393 470.218C133.459 468.851 134.872 468.167 136.631 468.167C138.436 468.167 139.844 468.805 140.855 470.081L140.979 468.441H143.289V482.878C143.289 484.792 142.719 486.301 141.58 487.404C140.45 488.506 138.928 489.058 137.014 489.058C135.947 489.058 134.904 488.83 133.883 488.374C132.862 487.919 132.083 487.294 131.545 486.501L132.857 484.984C133.942 486.323 135.268 486.993 136.836 486.993C138.066 486.993 139.023 486.647 139.707 485.954C140.4 485.262 140.746 484.286 140.746 483.029V481.757C139.734 482.924 138.354 483.507 136.604 483.507C134.872 483.507 133.468 482.81 132.393 481.415C131.326 480.021 130.793 478.12 130.793 475.714ZM133.336 476.001C133.336 477.669 133.678 478.982 134.361 479.939C135.045 480.887 136.002 481.361 137.232 481.361C138.827 481.361 139.999 480.636 140.746 479.187V472.433C139.971 471.02 138.809 470.314 137.26 470.314C136.029 470.314 135.068 470.792 134.375 471.749C133.682 472.706 133.336 474.124 133.336 476.001ZM166.559 476.001C166.559 478.253 166.044 480.066 165.014 481.443C163.984 482.819 162.589 483.507 160.83 483.507C159.035 483.507 157.622 482.937 156.592 481.798V488.921H154.062V468.441H156.373L156.496 470.081C157.526 468.805 158.957 468.167 160.789 468.167C162.566 468.167 163.97 468.837 165 470.177C166.039 471.517 166.559 473.381 166.559 475.769V476.001ZM164.029 475.714C164.029 474.046 163.674 472.729 162.963 471.763C162.252 470.797 161.277 470.314 160.037 470.314C158.506 470.314 157.357 470.993 156.592 472.351V479.419C157.348 480.768 158.506 481.443 160.064 481.443C161.277 481.443 162.238 480.964 162.949 480.007C163.669 479.041 164.029 477.61 164.029 475.714ZM172.533 483.234H170.004V468.441H172.533V483.234ZM169.799 464.517C169.799 464.107 169.922 463.76 170.168 463.478C170.423 463.195 170.797 463.054 171.289 463.054C171.781 463.054 172.155 463.195 172.41 463.478C172.665 463.76 172.793 464.107 172.793 464.517C172.793 464.927 172.665 465.269 172.41 465.542C172.155 465.816 171.781 465.952 171.289 465.952C170.797 465.952 170.423 465.816 170.168 465.542C169.922 465.269 169.799 464.927 169.799 464.517ZM182.527 481.443C183.43 481.443 184.218 481.169 184.893 480.622C185.567 480.075 185.941 479.392 186.014 478.572H188.406C188.361 479.419 188.069 480.226 187.531 480.991C186.993 481.757 186.273 482.368 185.371 482.823C184.478 483.279 183.53 483.507 182.527 483.507C180.513 483.507 178.909 482.837 177.715 481.497C176.53 480.148 175.938 478.307 175.938 475.974V475.55C175.938 474.11 176.202 472.829 176.73 471.708C177.259 470.587 178.016 469.717 179 469.097C179.993 468.477 181.165 468.167 182.514 468.167C184.173 468.167 185.549 468.664 186.643 469.657C187.745 470.651 188.333 471.941 188.406 473.527H186.014C185.941 472.57 185.576 471.786 184.92 471.175C184.273 470.555 183.471 470.245 182.514 470.245C181.229 470.245 180.23 470.71 179.52 471.64C178.818 472.56 178.467 473.896 178.467 475.646V476.124C178.467 477.829 178.818 479.141 179.52 480.062C180.221 480.982 181.224 481.443 182.527 481.443ZM194.682 464.859V468.441H197.443V470.396H194.682V479.57C194.682 480.162 194.805 480.609 195.051 480.909C195.297 481.201 195.716 481.347 196.309 481.347C196.6 481.347 197.001 481.292 197.512 481.183V483.234C196.846 483.416 196.199 483.507 195.57 483.507C194.44 483.507 193.588 483.165 193.014 482.482C192.439 481.798 192.152 480.827 192.152 479.57V470.396H189.459V468.441H192.152V464.859H194.682ZM209.543 481.771C208.559 482.928 207.114 483.507 205.209 483.507C203.632 483.507 202.429 483.051 201.6 482.14C200.779 481.219 200.365 479.861 200.355 478.066V468.441H202.885V477.997C202.885 480.24 203.796 481.361 205.619 481.361C207.551 481.361 208.837 480.641 209.475 479.2V468.441H212.004V483.234H209.598L209.543 481.771ZM223.01 470.71C222.627 470.646 222.212 470.615 221.766 470.615C220.107 470.615 218.981 471.321 218.389 472.734V483.234H215.859V468.441H218.32L218.361 470.15C219.191 468.828 220.367 468.167 221.889 468.167C222.381 468.167 222.755 468.231 223.01 468.359V470.71ZM231.213 483.507C229.208 483.507 227.576 482.851 226.318 481.538C225.061 480.217 224.432 478.453 224.432 476.247V475.782C224.432 474.315 224.71 473.007 225.266 471.859C225.831 470.701 226.615 469.799 227.617 469.152C228.629 468.495 229.723 468.167 230.898 468.167C232.822 468.167 234.316 468.801 235.383 470.068C236.449 471.335 236.982 473.148 236.982 475.509V476.562H226.961C226.997 478.02 227.421 479.2 228.232 480.103C229.053 480.996 230.092 481.443 231.35 481.443C232.243 481.443 232.999 481.26 233.619 480.896C234.239 480.531 234.781 480.048 235.246 479.447L236.791 480.65C235.551 482.555 233.692 483.507 231.213 483.507ZM230.898 470.245C229.878 470.245 229.021 470.619 228.328 471.366C227.635 472.105 227.207 473.144 227.043 474.484H234.453V474.292C234.38 473.007 234.034 472.014 233.414 471.312C232.794 470.601 231.956 470.245 230.898 470.245ZM248.535 479.31C248.535 478.626 248.275 478.098 247.756 477.724C247.245 477.341 246.348 477.013 245.062 476.74C243.786 476.466 242.77 476.138 242.014 475.755C241.266 475.372 240.71 474.917 240.346 474.388C239.99 473.859 239.812 473.23 239.812 472.501C239.812 471.289 240.323 470.264 241.344 469.425C242.374 468.587 243.686 468.167 245.281 468.167C246.958 468.167 248.316 468.6 249.355 469.466C250.404 470.332 250.928 471.439 250.928 472.788H248.385C248.385 472.096 248.089 471.499 247.496 470.997C246.913 470.496 246.174 470.245 245.281 470.245C244.361 470.245 243.641 470.446 243.121 470.847C242.602 471.248 242.342 471.772 242.342 472.419C242.342 473.03 242.583 473.49 243.066 473.8C243.549 474.11 244.42 474.406 245.678 474.689C246.945 474.971 247.97 475.309 248.754 475.7C249.538 476.092 250.117 476.566 250.49 477.122C250.873 477.669 251.064 478.339 251.064 479.132C251.064 480.454 250.536 481.516 249.479 482.318C248.421 483.111 247.049 483.507 245.363 483.507C244.178 483.507 243.13 483.297 242.219 482.878C241.307 482.459 240.592 481.876 240.072 481.128C239.562 480.372 239.307 479.556 239.307 478.681H241.836C241.882 479.529 242.219 480.203 242.848 480.704C243.486 481.197 244.324 481.443 245.363 481.443C246.32 481.443 247.086 481.251 247.66 480.868C248.243 480.476 248.535 479.957 248.535 479.31ZM264.736 464.859V468.441H267.498V470.396H264.736V479.57C264.736 480.162 264.859 480.609 265.105 480.909C265.352 481.201 265.771 481.347 266.363 481.347C266.655 481.347 267.056 481.292 267.566 481.183V483.234C266.901 483.416 266.254 483.507 265.625 483.507C264.495 483.507 263.643 483.165 263.068 482.482C262.494 481.798 262.207 480.827 262.207 479.57V470.396H259.514V468.441H262.207V464.859H264.736ZM272.994 470.232C274.115 468.855 275.574 468.167 277.369 468.167C280.495 468.167 282.072 469.931 282.1 473.458V483.234H279.57V473.445C279.561 472.378 279.315 471.59 278.832 471.079C278.358 470.569 277.615 470.314 276.604 470.314C275.783 470.314 275.063 470.532 274.443 470.97C273.824 471.407 273.34 471.982 272.994 472.693V483.234H270.465V462.234H272.994V470.232ZM292.025 483.507C290.02 483.507 288.389 482.851 287.131 481.538C285.873 480.217 285.244 478.453 285.244 476.247V475.782C285.244 474.315 285.522 473.007 286.078 471.859C286.643 470.701 287.427 469.799 288.43 469.152C289.441 468.495 290.535 468.167 291.711 468.167C293.634 468.167 295.129 468.801 296.195 470.068C297.262 471.335 297.795 473.148 297.795 475.509V476.562H287.773C287.81 478.02 288.234 479.2 289.045 480.103C289.865 480.996 290.904 481.443 292.162 481.443C293.055 481.443 293.812 481.26 294.432 480.896C295.051 480.531 295.594 480.048 296.059 479.447L297.604 480.65C296.364 482.555 294.505 483.507 292.025 483.507ZM291.711 470.245C290.69 470.245 289.833 470.619 289.141 471.366C288.448 472.105 288.02 473.144 287.855 474.484H295.266V474.292C295.193 473.007 294.846 472.014 294.227 471.312C293.607 470.601 292.768 470.245 291.711 470.245ZM313.818 483.507C311.813 483.507 310.182 482.851 308.924 481.538C307.666 480.217 307.037 478.453 307.037 476.247V475.782C307.037 474.315 307.315 473.007 307.871 471.859C308.436 470.701 309.22 469.799 310.223 469.152C311.234 468.495 312.328 468.167 313.504 468.167C315.427 468.167 316.922 468.801 317.988 470.068C319.055 471.335 319.588 473.148 319.588 475.509V476.562H309.566C309.603 478.02 310.027 479.2 310.838 480.103C311.658 480.996 312.697 481.443 313.955 481.443C314.848 481.443 315.605 481.26 316.225 480.896C316.844 480.531 317.387 480.048 317.852 479.447L319.396 480.65C318.157 482.555 316.298 483.507 313.818 483.507ZM313.504 470.245C312.483 470.245 311.626 470.619 310.934 471.366C310.241 472.105 309.812 473.144 309.648 474.484H317.059V474.292C316.986 473.007 316.639 472.014 316.02 471.312C315.4 470.601 314.561 470.245 313.504 470.245ZM331.66 483.234C331.514 482.942 331.396 482.422 331.305 481.675C330.129 482.896 328.725 483.507 327.094 483.507C325.635 483.507 324.437 483.097 323.498 482.277C322.568 481.447 322.104 480.399 322.104 479.132C322.104 477.592 322.687 476.398 323.854 475.55C325.029 474.693 326.679 474.265 328.803 474.265H331.264V473.103C331.264 472.219 330.999 471.517 330.471 470.997C329.942 470.469 329.163 470.204 328.133 470.204C327.23 470.204 326.474 470.432 325.863 470.888C325.253 471.344 324.947 471.895 324.947 472.542H322.404C322.404 471.804 322.664 471.093 323.184 470.409C323.712 469.717 324.423 469.17 325.316 468.769C326.219 468.368 327.208 468.167 328.283 468.167C329.988 468.167 331.323 468.596 332.289 469.452C333.255 470.3 333.757 471.471 333.793 472.966V479.775C333.793 481.133 333.966 482.213 334.312 483.015V483.234H331.66ZM327.463 481.306C328.256 481.306 329.008 481.101 329.719 480.691C330.43 480.281 330.945 479.747 331.264 479.091V476.056H329.281C326.182 476.056 324.633 476.963 324.633 478.777C324.633 479.57 324.897 480.189 325.426 480.636C325.954 481.083 326.633 481.306 327.463 481.306ZM346.371 479.31C346.371 478.626 346.111 478.098 345.592 477.724C345.081 477.341 344.184 477.013 342.898 476.74C341.622 476.466 340.606 476.138 339.85 475.755C339.102 475.372 338.546 474.917 338.182 474.388C337.826 473.859 337.648 473.23 337.648 472.501C337.648 471.289 338.159 470.264 339.18 469.425C340.21 468.587 341.522 468.167 343.117 468.167C344.794 468.167 346.152 468.6 347.191 469.466C348.24 470.332 348.764 471.439 348.764 472.788H346.221C346.221 472.096 345.924 471.499 345.332 470.997C344.749 470.496 344.01 470.245 343.117 470.245C342.197 470.245 341.477 470.446 340.957 470.847C340.438 471.248 340.178 471.772 340.178 472.419C340.178 473.03 340.419 473.49 340.902 473.8C341.385 474.11 342.256 474.406 343.514 474.689C344.781 474.971 345.806 475.309 346.59 475.7C347.374 476.092 347.952 476.566 348.326 477.122C348.709 477.669 348.9 478.339 348.9 479.132C348.9 480.454 348.372 481.516 347.314 482.318C346.257 483.111 344.885 483.507 343.199 483.507C342.014 483.507 340.966 483.297 340.055 482.878C339.143 482.459 338.428 481.876 337.908 481.128C337.398 480.372 337.143 479.556 337.143 478.681H339.672C339.717 479.529 340.055 480.203 340.684 480.704C341.322 481.197 342.16 481.443 343.199 481.443C344.156 481.443 344.922 481.251 345.496 480.868C346.079 480.476 346.371 479.957 346.371 479.31ZM357.035 479.529L360.48 468.441H363.188L357.24 485.517C356.32 487.978 354.857 489.208 352.852 489.208L352.373 489.167L351.43 488.99V486.939L352.113 486.993C352.97 486.993 353.635 486.82 354.109 486.474C354.592 486.128 354.989 485.494 355.299 484.573L355.859 483.07L350.582 468.441H353.344L357.035 479.529ZM126.596 521.747L129.439 510.441H131.969L127.662 525.234H125.611L122.016 514.023L118.516 525.234H116.465L112.172 510.441H114.688L117.6 521.515L121.045 510.441H123.082L126.596 521.747ZM143.686 525.234C143.54 524.942 143.421 524.422 143.33 523.675C142.154 524.896 140.751 525.507 139.119 525.507C137.661 525.507 136.462 525.097 135.523 524.277C134.594 523.447 134.129 522.399 134.129 521.132C134.129 519.592 134.712 518.398 135.879 517.55C137.055 516.693 138.704 516.265 140.828 516.265H143.289V515.103C143.289 514.219 143.025 513.517 142.496 512.997C141.967 512.469 141.188 512.204 140.158 512.204C139.256 512.204 138.499 512.432 137.889 512.888C137.278 513.344 136.973 513.895 136.973 514.542H134.43C134.43 513.804 134.689 513.093 135.209 512.409C135.738 511.717 136.449 511.17 137.342 510.769C138.244 510.368 139.233 510.167 140.309 510.167C142.013 510.167 143.348 510.596 144.314 511.452C145.281 512.3 145.782 513.471 145.818 514.966V521.775C145.818 523.133 145.992 524.213 146.338 525.015V525.234H143.686ZM139.488 523.306C140.281 523.306 141.033 523.101 141.744 522.691C142.455 522.281 142.97 521.747 143.289 521.091V518.056H141.307C138.208 518.056 136.658 518.963 136.658 520.777C136.658 521.57 136.923 522.189 137.451 522.636C137.98 523.083 138.659 523.306 139.488 523.306ZM154.404 521.529L157.85 510.441H160.557L154.609 527.517C153.689 529.978 152.226 531.208 150.221 531.208L149.742 531.167L148.799 530.99V528.939L149.482 528.993C150.339 528.993 151.005 528.82 151.479 528.474C151.962 528.128 152.358 527.494 152.668 526.573L153.229 525.07L147.951 510.441H150.713L154.404 521.529ZM178.904 523.771C177.92 524.928 176.475 525.507 174.57 525.507C172.993 525.507 171.79 525.051 170.961 524.14C170.141 523.219 169.726 521.861 169.717 520.066V510.441H172.246V519.997C172.246 522.24 173.158 523.361 174.98 523.361C176.913 523.361 178.198 522.641 178.836 521.2V510.441H181.365V525.234H178.959L178.904 523.771ZM193.834 521.31C193.834 520.626 193.574 520.098 193.055 519.724C192.544 519.341 191.646 519.013 190.361 518.74C189.085 518.466 188.069 518.138 187.312 517.755C186.565 517.372 186.009 516.917 185.645 516.388C185.289 515.859 185.111 515.23 185.111 514.501C185.111 513.289 185.622 512.264 186.643 511.425C187.673 510.587 188.985 510.167 190.58 510.167C192.257 510.167 193.615 510.6 194.654 511.466C195.702 512.332 196.227 513.439 196.227 514.788H193.684C193.684 514.096 193.387 513.499 192.795 512.997C192.212 512.496 191.473 512.245 190.58 512.245C189.66 512.245 188.939 512.446 188.42 512.847C187.9 513.248 187.641 513.772 187.641 514.419C187.641 515.03 187.882 515.49 188.365 515.8C188.848 516.11 189.719 516.406 190.977 516.689C192.243 516.971 193.269 517.309 194.053 517.7C194.837 518.092 195.415 518.566 195.789 519.122C196.172 519.669 196.363 520.339 196.363 521.132C196.363 522.454 195.835 523.516 194.777 524.318C193.72 525.111 192.348 525.507 190.662 525.507C189.477 525.507 188.429 525.297 187.518 524.878C186.606 524.459 185.891 523.876 185.371 523.128C184.861 522.372 184.605 521.556 184.605 520.681H187.135C187.18 521.529 187.518 522.203 188.146 522.704C188.785 523.197 189.623 523.443 190.662 523.443C191.619 523.443 192.385 523.251 192.959 522.868C193.542 522.476 193.834 521.957 193.834 521.31ZM202.406 525.234H199.877V510.441H202.406V525.234ZM199.672 506.517C199.672 506.107 199.795 505.76 200.041 505.478C200.296 505.195 200.67 505.054 201.162 505.054C201.654 505.054 202.028 505.195 202.283 505.478C202.538 505.76 202.666 506.107 202.666 506.517C202.666 506.927 202.538 507.269 202.283 507.542C202.028 507.816 201.654 507.952 201.162 507.952C200.67 507.952 200.296 507.816 200.041 507.542C199.795 507.269 199.672 506.927 199.672 506.517ZM208.859 510.441L208.941 512.3C210.072 510.878 211.548 510.167 213.371 510.167C216.497 510.167 218.074 511.931 218.102 515.458V525.234H215.572V515.445C215.563 514.378 215.317 513.59 214.834 513.079C214.36 512.569 213.617 512.314 212.605 512.314C211.785 512.314 211.065 512.532 210.445 512.97C209.826 513.407 209.342 513.982 208.996 514.693V525.234H206.467V510.441H208.859ZM221.314 517.714C221.314 515.408 221.848 513.576 222.914 512.218C223.98 510.851 225.393 510.167 227.152 510.167C228.957 510.167 230.365 510.805 231.377 512.081L231.5 510.441H233.811V524.878C233.811 526.792 233.241 528.301 232.102 529.404C230.971 530.506 229.449 531.058 227.535 531.058C226.469 531.058 225.425 530.83 224.404 530.374C223.383 529.919 222.604 529.294 222.066 528.501L223.379 526.984C224.464 528.323 225.79 528.993 227.357 528.993C228.588 528.993 229.545 528.647 230.229 527.954C230.921 527.262 231.268 526.286 231.268 525.029V523.757C230.256 524.924 228.875 525.507 227.125 525.507C225.393 525.507 223.99 524.81 222.914 523.415C221.848 522.021 221.314 520.12 221.314 517.714ZM223.857 518.001C223.857 519.669 224.199 520.982 224.883 521.939C225.566 522.887 226.523 523.361 227.754 523.361C229.349 523.361 230.52 522.636 231.268 521.187V514.433C230.493 513.02 229.331 512.314 227.781 512.314C226.551 512.314 225.589 512.792 224.896 513.749C224.204 514.706 223.857 516.124 223.857 518.001ZM255.959 516.443H247.605V525.234H244.98V505.327H257.312V507.488H247.605V514.296H255.959V516.443ZM268.729 525.234C268.583 524.942 268.464 524.422 268.373 523.675C267.197 524.896 265.794 525.507 264.162 525.507C262.704 525.507 261.505 525.097 260.566 524.277C259.637 523.447 259.172 522.399 259.172 521.132C259.172 519.592 259.755 518.398 260.922 517.55C262.098 516.693 263.747 516.265 265.871 516.265H268.332V515.103C268.332 514.219 268.068 513.517 267.539 512.997C267.01 512.469 266.231 512.204 265.201 512.204C264.299 512.204 263.542 512.432 262.932 512.888C262.321 513.344 262.016 513.895 262.016 514.542H259.473C259.473 513.804 259.732 513.093 260.252 512.409C260.781 511.717 261.492 511.17 262.385 510.769C263.287 510.368 264.276 510.167 265.352 510.167C267.056 510.167 268.391 510.596 269.357 511.452C270.324 512.3 270.825 513.471 270.861 514.966V521.775C270.861 523.133 271.035 524.213 271.381 525.015V525.234H268.729ZM264.531 523.306C265.324 523.306 266.076 523.101 266.787 522.691C267.498 522.281 268.013 521.747 268.332 521.091V518.056H266.35C263.251 518.056 261.701 518.963 261.701 520.777C261.701 521.57 261.965 522.189 262.494 522.636C263.023 523.083 263.702 523.306 264.531 523.306ZM280.76 523.443C281.662 523.443 282.451 523.169 283.125 522.622C283.799 522.075 284.173 521.392 284.246 520.572H286.639C286.593 521.419 286.301 522.226 285.764 522.991C285.226 523.757 284.506 524.368 283.604 524.823C282.71 525.279 281.762 525.507 280.76 525.507C278.745 525.507 277.141 524.837 275.947 523.497C274.762 522.148 274.17 520.307 274.17 517.974V517.55C274.17 516.11 274.434 514.829 274.963 513.708C275.492 512.587 276.248 511.717 277.232 511.097C278.226 510.477 279.397 510.167 280.746 510.167C282.405 510.167 283.781 510.664 284.875 511.657C285.978 512.651 286.566 513.941 286.639 515.527H284.246C284.173 514.57 283.809 513.786 283.152 513.175C282.505 512.555 281.703 512.245 280.746 512.245C279.461 512.245 278.463 512.71 277.752 513.64C277.05 514.56 276.699 515.896 276.699 517.646V518.124C276.699 519.829 277.05 521.141 277.752 522.062C278.454 522.982 279.456 523.443 280.76 523.443ZM295.621 525.507C293.616 525.507 291.984 524.851 290.727 523.538C289.469 522.217 288.84 520.453 288.84 518.247V517.782C288.84 516.315 289.118 515.007 289.674 513.859C290.239 512.701 291.023 511.799 292.025 511.152C293.037 510.495 294.131 510.167 295.307 510.167C297.23 510.167 298.725 510.801 299.791 512.068C300.857 513.335 301.391 515.148 301.391 517.509V518.562H291.369C291.406 520.02 291.829 521.2 292.641 522.103C293.461 522.996 294.5 523.443 295.758 523.443C296.651 523.443 297.408 523.26 298.027 522.896C298.647 522.531 299.189 522.048 299.654 521.447L301.199 522.65C299.96 524.555 298.1 525.507 295.621 525.507ZM295.307 512.245C294.286 512.245 293.429 512.619 292.736 513.366C292.044 514.105 291.615 515.144 291.451 516.484H298.861V516.292C298.788 515.007 298.442 514.014 297.822 513.312C297.202 512.601 296.364 512.245 295.307 512.245ZM67.6426 559.181H62.9668V567.234H60.3281V547.327H66.918C69.1602 547.327 70.8828 547.838 72.0859 548.859C73.2982 549.879 73.9043 551.365 73.9043 553.316C73.9043 554.555 73.5671 555.635 72.8926 556.556C72.2272 557.476 71.2975 558.165 70.1035 558.62L74.7793 567.07V567.234H71.9629L67.6426 559.181ZM62.9668 557.034H67C68.3034 557.034 69.3379 556.697 70.1035 556.023C70.8783 555.348 71.2656 554.446 71.2656 553.316C71.2656 552.085 70.8965 551.142 70.1582 550.486C69.429 549.829 68.3717 549.497 66.9863 549.488H62.9668V557.034ZM83.3379 567.507C81.3327 567.507 79.7012 566.851 78.4434 565.538C77.1855 564.217 76.5566 562.453 76.5566 560.247V559.782C76.5566 558.315 76.8346 557.007 77.3906 555.859C77.9557 554.701 78.7396 553.799 79.7422 553.152C80.7539 552.495 81.8477 552.167 83.0234 552.167C84.9466 552.167 86.4414 552.801 87.5078 554.068C88.5742 555.335 89.1074 557.148 89.1074 559.509V560.562H79.0859C79.1224 562.02 79.5462 563.2 80.3574 564.103C81.1777 564.996 82.2168 565.443 83.4746 565.443C84.3678 565.443 85.1243 565.26 85.7441 564.896C86.3639 564.531 86.9062 564.048 87.3711 563.447L88.916 564.65C87.6764 566.555 85.8171 567.507 83.3379 567.507ZM83.0234 554.245C82.0026 554.245 81.1458 554.619 80.4531 555.366C79.7604 556.105 79.332 557.144 79.168 558.484H86.5781V558.292C86.5052 557.007 86.1589 556.014 85.5391 555.312C84.9193 554.601 84.0807 554.245 83.0234 554.245ZM97.9805 565.443C98.8828 565.443 99.6712 565.169 100.346 564.622C101.02 564.075 101.394 563.392 101.467 562.572H103.859C103.814 563.419 103.522 564.226 102.984 564.991C102.447 565.757 101.727 566.368 100.824 566.823C99.931 567.279 98.9831 567.507 97.9805 567.507C95.9661 567.507 94.362 566.837 93.168 565.497C91.9831 564.148 91.3906 562.307 91.3906 559.974V559.55C91.3906 558.11 91.6549 556.829 92.1836 555.708C92.7122 554.587 93.4688 553.717 94.4531 553.097C95.4466 552.477 96.6178 552.167 97.9668 552.167C99.6257 552.167 101.002 552.664 102.096 553.657C103.199 554.651 103.786 555.941 103.859 557.527H101.467C101.394 556.57 101.029 555.786 100.373 555.175C99.7259 554.555 98.9238 554.245 97.9668 554.245C96.6816 554.245 95.6836 554.71 94.9727 555.64C94.2708 556.56 93.9199 557.896 93.9199 559.646V560.124C93.9199 561.829 94.2708 563.141 94.9727 564.062C95.6745 564.982 96.6771 565.443 97.9805 565.443ZM106.033 559.7C106.033 558.251 106.316 556.948 106.881 555.79C107.455 554.633 108.248 553.74 109.26 553.111C110.281 552.482 111.443 552.167 112.746 552.167C114.76 552.167 116.387 552.865 117.627 554.259C118.876 555.654 119.5 557.508 119.5 559.823V560.001C119.5 561.441 119.222 562.736 118.666 563.884C118.119 565.023 117.331 565.912 116.301 566.55C115.28 567.188 114.104 567.507 112.773 567.507C110.768 567.507 109.141 566.81 107.893 565.415C106.653 564.021 106.033 562.175 106.033 559.878V559.7ZM108.576 560.001C108.576 561.642 108.954 562.959 109.711 563.952C110.477 564.946 111.497 565.443 112.773 565.443C114.059 565.443 115.079 564.941 115.836 563.939C116.592 562.927 116.971 561.514 116.971 559.7C116.971 558.078 116.583 556.766 115.809 555.763C115.043 554.751 114.022 554.245 112.746 554.245C111.497 554.245 110.49 554.742 109.725 555.736C108.959 556.729 108.576 558.151 108.576 560.001ZM122.07 559.714C122.07 557.408 122.604 555.576 123.67 554.218C124.736 552.851 126.149 552.167 127.908 552.167C129.713 552.167 131.121 552.805 132.133 554.081L132.256 552.441H134.566V566.878C134.566 568.792 133.997 570.301 132.857 571.404C131.727 572.506 130.205 573.058 128.291 573.058C127.225 573.058 126.181 572.83 125.16 572.374C124.139 571.919 123.36 571.294 122.822 570.501L124.135 568.984C125.219 570.323 126.546 570.993 128.113 570.993C129.344 570.993 130.301 570.647 130.984 569.954C131.677 569.262 132.023 568.286 132.023 567.029V565.757C131.012 566.924 129.631 567.507 127.881 567.507C126.149 567.507 124.745 566.81 123.67 565.415C122.604 564.021 122.07 562.12 122.07 559.714ZM124.613 560.001C124.613 561.669 124.955 562.982 125.639 563.939C126.322 564.887 127.279 565.361 128.51 565.361C130.105 565.361 131.276 564.636 132.023 563.187V556.433C131.249 555.02 130.087 554.314 128.537 554.314C127.307 554.314 126.345 554.792 125.652 555.749C124.96 556.706 124.613 558.124 124.613 560.001ZM140.787 552.441L140.869 554.3C141.999 552.878 143.476 552.167 145.299 552.167C148.425 552.167 150.002 553.931 150.029 557.458V567.234H147.5V557.445C147.491 556.378 147.245 555.59 146.762 555.079C146.288 554.569 145.545 554.314 144.533 554.314C143.713 554.314 142.993 554.532 142.373 554.97C141.753 555.407 141.27 555.982 140.924 556.693V567.234H138.395V552.441H140.787ZM156.592 567.234H154.062V552.441H156.592V567.234ZM153.857 548.517C153.857 548.107 153.98 547.76 154.227 547.478C154.482 547.195 154.855 547.054 155.348 547.054C155.84 547.054 156.214 547.195 156.469 547.478C156.724 547.76 156.852 548.107 156.852 548.517C156.852 548.927 156.724 549.269 156.469 549.542C156.214 549.816 155.84 549.952 155.348 549.952C154.855 549.952 154.482 549.816 154.227 549.542C153.98 549.269 153.857 548.927 153.857 548.517ZM164.084 548.859V552.441H166.846V554.396H164.084V563.57C164.084 564.162 164.207 564.609 164.453 564.909C164.699 565.201 165.118 565.347 165.711 565.347C166.003 565.347 166.404 565.292 166.914 565.183V567.234C166.249 567.416 165.602 567.507 164.973 567.507C163.842 567.507 162.99 567.165 162.416 566.482C161.842 565.798 161.555 564.827 161.555 563.57V554.396H158.861V552.441H161.555V548.859H164.084ZM172.561 567.234H170.031V552.441H172.561V567.234ZM169.826 548.517C169.826 548.107 169.949 547.76 170.195 547.478C170.451 547.195 170.824 547.054 171.316 547.054C171.809 547.054 172.182 547.195 172.438 547.478C172.693 547.76 172.82 548.107 172.82 548.517C172.82 548.927 172.693 549.269 172.438 549.542C172.182 549.816 171.809 549.952 171.316 549.952C170.824 549.952 170.451 549.816 170.195 549.542C169.949 549.269 169.826 548.927 169.826 548.517ZM175.951 559.7C175.951 558.251 176.234 556.948 176.799 555.79C177.373 554.633 178.166 553.74 179.178 553.111C180.199 552.482 181.361 552.167 182.664 552.167C184.678 552.167 186.305 552.865 187.545 554.259C188.794 555.654 189.418 557.508 189.418 559.823V560.001C189.418 561.441 189.14 562.736 188.584 563.884C188.037 565.023 187.249 565.912 186.219 566.55C185.198 567.188 184.022 567.507 182.691 567.507C180.686 567.507 179.059 566.81 177.811 565.415C176.571 564.021 175.951 562.175 175.951 559.878V559.7ZM178.494 560.001C178.494 561.642 178.872 562.959 179.629 563.952C180.395 564.946 181.415 565.443 182.691 565.443C183.977 565.443 184.997 564.941 185.754 563.939C186.51 562.927 186.889 561.514 186.889 559.7C186.889 558.078 186.501 556.766 185.727 555.763C184.961 554.751 183.94 554.245 182.664 554.245C181.415 554.245 180.408 554.742 179.643 555.736C178.877 556.729 178.494 558.151 178.494 560.001ZM194.982 552.441L195.064 554.3C196.195 552.878 197.671 552.167 199.494 552.167C202.62 552.167 204.197 553.931 204.225 557.458V567.234H201.695V557.445C201.686 556.378 201.44 555.59 200.957 555.079C200.483 554.569 199.74 554.314 198.729 554.314C197.908 554.314 197.188 554.532 196.568 554.97C195.949 555.407 195.465 555.982 195.119 556.693V567.234H192.59V552.441H194.982ZM228.588 549.488H222.189V567.234H219.578V549.488H213.193V547.327H228.588V549.488ZM235.916 567.507C233.911 567.507 232.279 566.851 231.021 565.538C229.764 564.217 229.135 562.453 229.135 560.247V559.782C229.135 558.315 229.413 557.007 229.969 555.859C230.534 554.701 231.318 553.799 232.32 553.152C233.332 552.495 234.426 552.167 235.602 552.167C237.525 552.167 239.02 552.801 240.086 554.068C241.152 555.335 241.686 557.148 241.686 559.509V560.562H231.664C231.701 562.02 232.124 563.2 232.936 564.103C233.756 564.996 234.795 565.443 236.053 565.443C236.946 565.443 237.702 565.26 238.322 564.896C238.942 564.531 239.484 564.048 239.949 563.447L241.494 564.65C240.255 566.555 238.395 567.507 235.916 567.507ZM235.602 554.245C234.581 554.245 233.724 554.619 233.031 555.366C232.339 556.105 231.91 557.144 231.746 558.484H239.156V558.292C239.083 557.007 238.737 556.014 238.117 555.312C237.497 554.601 236.659 554.245 235.602 554.245ZM250.559 565.443C251.461 565.443 252.249 565.169 252.924 564.622C253.598 564.075 253.972 563.392 254.045 562.572H256.438C256.392 563.419 256.1 564.226 255.562 564.991C255.025 565.757 254.305 566.368 253.402 566.823C252.509 567.279 251.561 567.507 250.559 567.507C248.544 567.507 246.94 566.837 245.746 565.497C244.561 564.148 243.969 562.307 243.969 559.974V559.55C243.969 558.11 244.233 556.829 244.762 555.708C245.29 554.587 246.047 553.717 247.031 553.097C248.025 552.477 249.196 552.167 250.545 552.167C252.204 552.167 253.58 552.664 254.674 553.657C255.777 554.651 256.365 555.941 256.438 557.527H254.045C253.972 556.57 253.607 555.786 252.951 555.175C252.304 554.555 251.502 554.245 250.545 554.245C249.26 554.245 248.262 554.71 247.551 555.64C246.849 556.56 246.498 557.896 246.498 559.646V560.124C246.498 561.829 246.849 563.141 247.551 564.062C248.253 564.982 249.255 565.443 250.559 565.443ZM261.811 554.232C262.932 552.855 264.39 552.167 266.186 552.167C269.312 552.167 270.889 553.931 270.916 557.458V567.234H268.387V557.445C268.378 556.378 268.132 555.59 267.648 555.079C267.174 554.569 266.432 554.314 265.42 554.314C264.6 554.314 263.88 554.532 263.26 554.97C262.64 555.407 262.157 555.982 261.811 556.693V567.234H259.281V546.234H261.811V554.232ZM277.096 552.441L277.178 554.3C278.308 552.878 279.785 552.167 281.607 552.167C284.734 552.167 286.311 553.931 286.338 557.458V567.234H283.809V557.445C283.799 556.378 283.553 555.59 283.07 555.079C282.596 554.569 281.854 554.314 280.842 554.314C280.021 554.314 279.301 554.532 278.682 554.97C278.062 555.407 277.579 555.982 277.232 556.693V567.234H274.703V552.441H277.096ZM289.482 559.7C289.482 558.251 289.765 556.948 290.33 555.79C290.904 554.633 291.697 553.74 292.709 553.111C293.73 552.482 294.892 552.167 296.195 552.167C298.21 552.167 299.837 552.865 301.076 554.259C302.325 555.654 302.949 557.508 302.949 559.823V560.001C302.949 561.441 302.671 562.736 302.115 563.884C301.568 565.023 300.78 565.912 299.75 566.55C298.729 567.188 297.553 567.507 296.223 567.507C294.217 567.507 292.59 566.81 291.342 565.415C290.102 564.021 289.482 562.175 289.482 559.878V559.7ZM292.025 560.001C292.025 561.642 292.404 562.959 293.16 563.952C293.926 564.946 294.947 565.443 296.223 565.443C297.508 565.443 298.529 564.941 299.285 563.939C300.042 562.927 300.42 561.514 300.42 559.7C300.42 558.078 300.033 556.766 299.258 555.763C298.492 554.751 297.471 554.245 296.195 554.245C294.947 554.245 293.939 554.742 293.174 555.736C292.408 556.729 292.025 558.151 292.025 560.001ZM308.869 567.234H306.34V546.234H308.869V567.234ZM312.26 559.7C312.26 558.251 312.542 556.948 313.107 555.79C313.682 554.633 314.475 553.74 315.486 553.111C316.507 552.482 317.669 552.167 318.973 552.167C320.987 552.167 322.614 552.865 323.854 554.259C325.102 555.654 325.727 557.508 325.727 559.823V560.001C325.727 561.441 325.449 562.736 324.893 563.884C324.346 565.023 323.557 565.912 322.527 566.55C321.507 567.188 320.331 567.507 319 567.507C316.995 567.507 315.368 566.81 314.119 565.415C312.88 564.021 312.26 562.175 312.26 559.878V559.7ZM314.803 560.001C314.803 561.642 315.181 562.959 315.938 563.952C316.703 564.946 317.724 565.443 319 565.443C320.285 565.443 321.306 564.941 322.062 563.939C322.819 562.927 323.197 561.514 323.197 559.7C323.197 558.078 322.81 556.766 322.035 555.763C321.27 554.751 320.249 554.245 318.973 554.245C317.724 554.245 316.717 554.742 315.951 555.736C315.186 556.729 314.803 558.151 314.803 560.001ZM328.297 559.714C328.297 557.408 328.83 555.576 329.896 554.218C330.963 552.851 332.376 552.167 334.135 552.167C335.939 552.167 337.348 552.805 338.359 554.081L338.482 552.441H340.793V566.878C340.793 568.792 340.223 570.301 339.084 571.404C337.954 572.506 336.432 573.058 334.518 573.058C333.451 573.058 332.408 572.83 331.387 572.374C330.366 571.919 329.587 571.294 329.049 570.501L330.361 568.984C331.446 570.323 332.772 570.993 334.34 570.993C335.57 570.993 336.527 570.647 337.211 569.954C337.904 569.262 338.25 568.286 338.25 567.029V565.757C337.238 566.924 335.857 567.507 334.107 567.507C332.376 567.507 330.972 566.81 329.896 565.415C328.83 564.021 328.297 562.12 328.297 559.714ZM330.84 560.001C330.84 561.669 331.182 562.982 331.865 563.939C332.549 564.887 333.506 565.361 334.736 565.361C336.331 565.361 337.503 564.636 338.25 563.187V556.433C337.475 555.02 336.313 554.314 334.764 554.314C333.533 554.314 332.572 554.792 331.879 555.749C331.186 556.706 330.84 558.124 330.84 560.001ZM349.461 563.529L352.906 552.441H355.613L349.666 569.517C348.745 571.978 347.283 573.208 345.277 573.208L344.799 573.167L343.855 572.99V570.939L344.539 570.993C345.396 570.993 346.061 570.82 346.535 570.474C347.018 570.128 347.415 569.494 347.725 568.573L348.285 567.07L343.008 552.441H345.77L349.461 563.529Z" fill="#251F22"/>
<defs>
<linearGradient id="paint0_linear" x1="209.518" y1="188.818" x2="209.518" y2="257.103" gradientUnits="userSpaceOnUse">
<stop stop-color="#8491F6"/>
<stop offset="1" stop-color="#50A9DF"/>
</linearGradient>
<linearGradient id="paint1_linear" x1="118.001" y1="227.005" x2="118.001" y2="226.898" gradientUnits="userSpaceOnUse">
<stop stop-color="#808080" stop-opacity="0.251"/>
<stop offset="0.54" stop-color="#808080" stop-opacity="0.122"/>
<stop offset="1" stop-color="#808080" stop-opacity="0.102"/>
</linearGradient>
<linearGradient id="paint2_linear" x1="239.178" y1="641.688" x2="239.178" y2="656.983" gradientUnits="userSpaceOnUse">
<stop stop-color="#8491F6"/>
<stop offset="1" stop-color="#50A9DF"/>
</linearGradient>
<clipPath id="clip0">
<rect width="306" height="318" fill="white" transform="translate(54.3314 75)"/>
</clipPath>
<clipPath id="clip1">
<rect width="331" height="275" fill="white" transform="translate(41.2235 85.9346)"/>
</clipPath>
</defs>
</svg>
