<svg width="51" height="51" viewBox="0 0 51 51" fill="none" xmlns="http://www.w3.org/2000/svg">
<path d="M45.5033 14.1666H5.49659C4.79023 14.1666 4.1128 14.4472 3.61332 14.9467C3.11385 15.4462 2.83325 16.1236 2.83325 16.83V42.67C2.83325 43.3763 3.11385 44.0537 3.61332 44.5532C4.1128 45.0527 4.79023 45.3333 5.49659 45.3333H45.5033C46.2096 45.3333 46.887 45.0527 47.3865 44.5532C47.886 44.0537 48.1666 43.3763 48.1666 42.67V16.83C48.1666 16.1236 47.886 15.4462 47.3865 14.9467C46.887 14.4472 46.2096 14.1666 45.5033 14.1666ZM45.3333 42.5H5.66659V17H45.3333V42.5Z" fill="url(#paint0_linear)"/>
<path d="M42.6982 4.25004C42.6982 3.87432 42.549 3.51398 42.2833 3.24831C42.0176 2.98263 41.6573 2.83337 41.2816 2.83337H10.1149C9.73919 2.83337 9.37885 2.98263 9.11317 3.24831C8.8475 3.51398 8.69824 3.87432 8.69824 4.25004V5.66671H42.6982V4.25004Z" fill="url(#paint1_linear)"/>
<path d="M45.5033 9.91667C45.5033 9.54094 45.3541 9.18061 45.0884 8.91493C44.8227 8.64926 44.4624 8.5 44.0867 8.5H7.25334C6.87761 8.5 6.51728 8.64926 6.2516 8.91493C5.98593 9.18061 5.83667 9.54094 5.83667 9.91667V11.3333H45.5033V9.91667Z" fill="url(#paint2_linear)"/>
<path d="M18.1616 37.9525C18.5542 38.2071 19.0112 38.3446 19.4791 38.3491C19.8163 38.3483 20.1495 38.2759 20.4566 38.1366L34.2975 31.96C34.7253 31.774 35.0896 31.4672 35.3454 31.0771C35.6012 30.687 35.7375 30.2306 35.7375 29.7641C35.7375 29.2976 35.6012 28.8413 35.3454 28.4512C35.0896 28.0611 34.7253 27.7542 34.2975 27.5683L20.4566 21.3916C20.0904 21.229 19.6893 21.1603 19.2898 21.1918C18.8903 21.2233 18.5049 21.354 18.1687 21.5721C17.8325 21.7901 17.556 22.0886 17.3642 22.4406C17.1725 22.7925 17.0717 23.1867 17.0708 23.5875V35.9408C17.0715 36.3403 17.1716 36.7333 17.362 37.0845C17.5524 37.4356 17.8272 37.7339 18.1616 37.9525ZM19.0541 23.5875C19.0537 23.5163 19.0717 23.4463 19.1065 23.3842C19.1413 23.3221 19.1916 23.2701 19.2525 23.2333C19.3266 23.2128 19.405 23.2128 19.4791 23.2333C19.5351 23.2205 19.5932 23.2205 19.6491 23.2333L33.49 29.3958C33.5681 29.4277 33.6344 29.4829 33.68 29.5539C33.7257 29.6249 33.7483 29.7082 33.745 29.7925C33.7474 29.8748 33.7242 29.9559 33.6785 30.0244C33.6328 30.093 33.5669 30.1456 33.49 30.175L19.6491 36.3516C19.5888 36.3864 19.5204 36.4048 19.4508 36.4048C19.3812 36.4048 19.3128 36.3864 19.2525 36.3516C19.1934 36.3129 19.1445 36.2605 19.1099 36.1988C19.0754 36.1372 19.0563 36.0681 19.0541 35.9975V23.5875Z" fill="url(#paint3_linear)"/>
<defs>
<linearGradient id="paint0_linear" x1="25.4999" y1="14.1666" x2="25.4999" y2="45.3333" gradientUnits="userSpaceOnUse">
<stop stop-color="#8491F6"/>
<stop offset="1" stop-color="#50A9DF"/>
</linearGradient>
<linearGradient id="paint1_linear" x1="25.6982" y1="2.83337" x2="25.6982" y2="5.66671" gradientUnits="userSpaceOnUse">
<stop stop-color="#8491F6"/>
<stop offset="1" stop-color="#50A9DF"/>
</linearGradient>
<linearGradient id="paint2_linear" x1="25.67" y1="8.5" x2="25.67" y2="11.3333" gradientUnits="userSpaceOnUse">
<stop stop-color="#8491F6"/>
<stop offset="1" stop-color="#50A9DF"/>
</linearGradient>
<linearGradient id="paint3_linear" x1="26.4042" y1="21.1843" x2="26.4042" y2="38.3491" gradientUnits="userSpaceOnUse">
<stop stop-color="#8491F6"/>
<stop offset="1" stop-color="#50A9DF"/>
</linearGradient>
</defs>
</svg>
