<svg width="201" height="201" viewBox="0 0 201 201" fill="none" xmlns="http://www.w3.org/2000/svg">
<circle cx="100.372" cy="100.314" r="99.7916" fill="#FCF2F5"/>
<g filter="url(#filter0_d)">
<circle cx="100.372" cy="100.314" r="66.5334" fill="white"/>
</g>
<path d="M120.503 89.1666H80.4966C79.7902 89.1666 79.1128 89.4472 78.6133 89.9467C78.1139 90.4462 77.8333 91.1236 77.8333 91.83V117.67C77.8333 118.376 78.1139 119.054 78.6133 119.553C79.1128 120.053 79.7902 120.333 80.4966 120.333H120.503C121.21 120.333 121.887 120.053 122.387 119.553C122.886 119.054 123.167 118.376 123.167 117.67V91.83C123.167 91.1236 122.886 90.4462 122.387 89.9467C121.887 89.4472 121.21 89.1666 120.503 89.1666ZM120.333 117.5H80.6666V92H120.333V117.5Z" fill="url(#paint0_linear)"/>
<path d="M117.698 79.25C117.698 78.8743 117.549 78.514 117.283 78.2483C117.018 77.9826 116.657 77.8334 116.282 77.8334H85.1149C84.7392 77.8334 84.3789 77.9826 84.1132 78.2483C83.8475 78.514 83.6982 78.8743 83.6982 79.25V80.6667H117.698V79.25Z" fill="url(#paint1_linear)"/>
<path d="M120.503 84.9167C120.503 84.5409 120.354 84.1806 120.088 83.9149C119.823 83.6493 119.462 83.5 119.087 83.5H82.2533C81.8776 83.5 81.5173 83.6493 81.2516 83.9149C80.9859 84.1806 80.8367 84.5409 80.8367 84.9167V86.3333H120.503V84.9167Z" fill="url(#paint2_linear)"/>
<path d="M93.1616 112.952C93.5542 113.207 94.0112 113.345 94.4791 113.349C94.8163 113.348 95.1495 113.276 95.4566 113.137L109.297 106.96C109.725 106.774 110.09 106.467 110.345 106.077C110.601 105.687 110.738 105.231 110.738 104.764C110.738 104.298 110.601 103.841 110.345 103.451C110.09 103.061 109.725 102.754 109.297 102.568L95.4566 96.3916C95.0904 96.229 94.6893 96.1603 94.2898 96.1918C93.8903 96.2233 93.5049 96.354 93.1687 96.5721C92.8325 96.7901 92.556 97.0886 92.3642 97.4406C92.1725 97.7925 92.0717 98.1867 92.0708 98.5875V110.941C92.0715 111.34 92.1716 111.733 92.362 112.084C92.5524 112.436 92.8272 112.734 93.1616 112.952ZM94.0541 98.5875C94.0537 98.5163 94.0717 98.4463 94.1065 98.3842C94.1413 98.3221 94.1916 98.2701 94.2525 98.2333C94.3266 98.2128 94.405 98.2128 94.4791 98.2333C94.5351 98.2205 94.5932 98.2205 94.6491 98.2333L108.49 104.396C108.568 104.428 108.634 104.483 108.68 104.554C108.726 104.625 108.748 104.708 108.745 104.792C108.747 104.875 108.724 104.956 108.679 105.024C108.633 105.093 108.567 105.146 108.49 105.175L94.6491 111.352C94.5888 111.386 94.5204 111.405 94.4508 111.405C94.3812 111.405 94.3128 111.386 94.2525 111.352C94.1934 111.313 94.1445 111.26 94.1099 111.199C94.0754 111.137 94.0563 111.068 94.0541 110.997V98.5875Z" fill="url(#paint3_linear)"/>
<defs>
<filter id="filter0_d" x="3.83887" y="3.7804" width="193.067" height="193.067" filterUnits="userSpaceOnUse" color-interpolation-filters="sRGB">
<feFlood flood-opacity="0" result="BackgroundImageFix"/>
<feColorMatrix in="SourceAlpha" type="matrix" values="0 0 0 0 0 0 0 0 0 0 0 0 0 0 0 0 0 0 127 0"/>
<feOffset/>
<feGaussianBlur stdDeviation="15"/>
<feColorMatrix type="matrix" values="0 0 0 0 0.716667 0 0 0 0 0.716667 0 0 0 0 0.716667 0 0 0 0.25 0"/>
<feBlend mode="normal" in2="BackgroundImageFix" result="effect1_dropShadow"/>
<feBlend mode="normal" in="SourceGraphic" in2="effect1_dropShadow" result="shape"/>
</filter>
<linearGradient id="paint0_linear" x1="100.5" y1="89.1666" x2="100.5" y2="120.333" gradientUnits="userSpaceOnUse">
<stop stop-color="#8491F6"/>
<stop offset="1" stop-color="#50A9DF"/>
</linearGradient>
<linearGradient id="paint1_linear" x1="100.698" y1="77.8334" x2="100.698" y2="80.6667" gradientUnits="userSpaceOnUse">
<stop stop-color="#8491F6"/>
<stop offset="1" stop-color="#50A9DF"/>
</linearGradient>
<linearGradient id="paint2_linear" x1="100.67" y1="83.5" x2="100.67" y2="86.3333" gradientUnits="userSpaceOnUse">
<stop stop-color="#8491F6"/>
<stop offset="1" stop-color="#50A9DF"/>
</linearGradient>
<linearGradient id="paint3_linear" x1="101.404" y1="96.1843" x2="101.404" y2="113.349" gradientUnits="userSpaceOnUse">
<stop stop-color="#8491F6"/>
<stop offset="1" stop-color="#50A9DF"/>
</linearGradient>
</defs>
</svg>
