<svg width="201" height="201" viewBox="0 0 201 201" fill="none" xmlns="http://www.w3.org/2000/svg">
<circle cx="100.372" cy="100.695" r="99.7916" fill="#FCF2F5"/>
<path d="M103 89.2947C106.887 89.2947 110.616 90.8389 113.365 93.5878C116.113 96.3366 117.658 100.065 117.658 103.952C117.658 107.84 116.113 111.568 113.365 114.317C110.616 117.066 106.887 118.61 103 118.61C99.1126 118.61 95.3843 117.066 92.6355 114.317C89.8867 111.568 88.3424 107.84 88.3424 103.952C88.3424 100.065 89.8867 96.3366 92.6355 93.5878C95.3843 90.8389 99.1126 89.2947 103 89.2947ZM103 92.5519C99.9764 92.5519 97.0767 93.753 94.9387 95.891C92.8007 98.029 91.5996 100.929 91.5996 103.952C91.5996 106.976 92.8007 109.876 94.9387 112.014C97.0767 114.152 99.9764 115.353 103 115.353C106.024 115.353 108.923 114.152 111.061 112.014C113.199 109.876 114.4 106.976 114.4 103.952C114.4 100.929 113.199 98.029 111.061 95.891C108.923 93.753 106.024 92.5519 103 92.5519ZM81.8279 79.5229H88.3424L94.8569 73.0084H111.143L117.658 79.5229H124.172C126.764 79.5229 129.249 80.5524 131.082 82.385C132.914 84.2176 133.944 86.703 133.944 89.2947V118.61C133.944 121.202 132.914 123.687 131.082 125.52C129.249 127.352 126.764 128.382 124.172 128.382H81.8279C79.2363 128.382 76.7508 127.352 74.9182 125.52C73.0857 123.687 72.0562 121.202 72.0562 118.61V89.2947C72.0562 86.703 73.0857 84.2176 74.9182 82.385C76.7508 80.5524 79.2363 79.5229 81.8279 79.5229ZM96.2054 76.2657L89.6909 82.7802H81.8279C80.1001 82.7802 78.4432 83.4665 77.2215 84.6882C75.9997 85.9099 75.3134 87.5669 75.3134 89.2947V118.61C75.3134 120.338 75.9997 121.995 77.2215 123.216C78.4432 124.438 80.1001 125.124 81.8279 125.124H124.172C125.9 125.124 127.557 124.438 128.779 123.216C130 121.995 130.687 120.338 130.687 118.61V89.2947C130.687 87.5669 130 85.9099 128.779 84.6882C127.557 83.4665 125.9 82.7802 124.172 82.7802H116.309L109.795 76.2657H96.2054Z" fill="url(#paint0_linear)"/>
<defs>
<linearGradient id="paint0_linear" x1="103" y1="73.0084" x2="103" y2="128.382" gradientUnits="userSpaceOnUse">
<stop stop-color="#8491F6"/>
<stop offset="1" stop-color="#50A9DF"/>
</linearGradient>
</defs>
</svg>
