<svg width="62" height="56" viewBox="0 0 62 56" fill="none" xmlns="http://www.w3.org/2000/svg">
<path d="M31 16.2947C34.8874 16.2947 38.6157 17.8389 41.3645 20.5878C44.1133 23.3366 45.6576 27.0648 45.6576 30.9523C45.6576 34.8397 44.1133 38.5679 41.3645 41.3168C38.6157 44.0656 34.8874 45.6099 31 45.6099C27.1126 45.6099 23.3843 44.0656 20.6355 41.3168C17.8867 38.5679 16.3424 34.8397 16.3424 30.9523C16.3424 27.0648 17.8867 23.3366 20.6355 20.5878C23.3843 17.8389 27.1126 16.2947 31 16.2947ZM31 19.5519C27.9764 19.5519 25.0767 20.753 22.9387 22.891C20.8007 25.029 19.5996 27.9287 19.5996 30.9523C19.5996 33.9758 20.8007 36.8756 22.9387 39.0136C25.0767 41.1515 27.9764 42.3526 31 42.3526C34.0236 42.3526 36.9233 41.1515 39.0613 39.0136C41.1993 36.8756 42.4004 33.9758 42.4004 30.9523C42.4004 27.9287 41.1993 25.029 39.0613 22.891C36.9233 20.753 34.0236 19.5519 31 19.5519ZM9.8279 6.52292H16.3424L22.8569 0.00842285H39.1431L45.6576 6.52292H52.1721C54.7637 6.52292 57.2492 7.55244 59.0818 9.385C60.9143 11.2176 61.9439 13.703 61.9439 16.2947V45.6099C61.9439 48.2015 60.9143 50.687 59.0818 52.5196C57.2492 54.3521 54.7637 55.3816 52.1721 55.3816H9.8279C7.23627 55.3816 4.75079 54.3521 2.91823 52.5196C1.08567 50.687 0.0561523 48.2015 0.0561523 45.6099V16.2947C0.0561523 13.703 1.08567 11.2176 2.91823 9.385C4.75079 7.55244 7.23627 6.52292 9.8279 6.52292ZM24.2054 3.26567L17.6909 9.78017H9.8279C8.10014 9.78017 6.44316 10.4665 5.22145 11.6882C3.99975 12.9099 3.3134 14.5669 3.3134 16.2947V45.6099C3.3134 47.3376 3.99975 48.9946 5.22145 50.2163C6.44316 51.438 8.10014 52.1244 9.8279 52.1244H52.1721C53.8999 52.1244 55.5569 51.438 56.7786 50.2163C58.0003 48.9946 58.6866 47.3376 58.6866 45.6099V16.2947C58.6866 14.5669 58.0003 12.9099 56.7786 11.6882C55.5569 10.4665 53.8999 9.78017 52.1721 9.78017H44.3091L37.7946 3.26567H24.2054Z" fill="url(#paint0_linear)"/>
<defs>
<linearGradient id="paint0_linear" x1="31" y1="0.00842285" x2="31" y2="55.3816" gradientUnits="userSpaceOnUse">
<stop stop-color="#8491F6"/>
<stop offset="1" stop-color="#50A9DF"/>
</linearGradient>
</defs>
</svg>
