<svg width="414" height="896" viewBox="0 0 414 896" fill="none" xmlns="http://www.w3.org/2000/svg">
<g clip-path="url(#clip0)">
<rect width="414" height="896" fill="white"/>
<path d="M40.7256 121.852C37.9816 121.852 35.9563 121.124 34.6496 119.668C33.3616 118.193 32.7176 115.916 32.7176 112.836V102.56L30.7296 102.224V100.824H38.2056V102.224L35.8256 102.588V113.144C35.8256 115.682 36.2736 117.512 37.1696 118.632C38.0843 119.752 39.391 120.312 41.0896 120.312C42.7883 120.312 44.0576 119.714 44.8976 118.52C45.7563 117.325 46.1856 115.589 46.1856 113.312V102.588L43.8336 102.224V100.824H50.3576V102.224L48.3136 102.56V113.172C48.3136 116.084 47.623 118.258 46.2416 119.696C44.8603 121.133 43.0216 121.852 40.7256 121.852ZM67.1922 113.312C67.1922 114.898 66.8655 116.354 66.2122 117.68C65.5588 118.986 64.6255 120.022 63.4122 120.788C62.1988 121.553 60.7802 121.936 59.1562 121.936C58.7082 121.936 58.2228 121.898 57.7002 121.824C57.1775 121.749 56.7575 121.656 56.4402 121.544L56.5242 123.896V126.724L59.4362 127.032V128.404H51.6242V127.032L53.6402 126.724V108.244L51.5962 107.74V106.228L55.5722 105.724H55.6282L56.2162 106.228V107.88C56.7762 107.264 57.4668 106.741 58.2882 106.312C59.1282 105.882 60.0615 105.668 61.0882 105.668C62.1895 105.668 63.1975 105.938 64.1122 106.48C65.0455 107.021 65.7922 107.861 66.3522 109C66.9122 110.138 67.1922 111.576 67.1922 113.312ZM59.9402 107.628C59.2308 107.628 58.5682 107.777 57.9522 108.076C57.3362 108.374 56.8602 108.701 56.5242 109.056V119.612C56.6548 119.836 56.9815 120.041 57.5042 120.228C58.0455 120.396 58.6335 120.48 59.2682 120.48C60.7055 120.48 61.8628 119.91 62.7402 118.772C63.6362 117.633 64.0842 115.916 64.0842 113.62C64.0842 111.604 63.6922 110.101 62.9082 109.112C62.1428 108.122 61.1535 107.628 59.9402 107.628ZM71.6702 100.74L69.4022 100.432V99.2277L73.9102 98.6957H73.9662L74.5822 99.1157V120.032L76.9622 120.256V121.628H69.4022V120.256L71.6702 120.004V100.74ZM78.9504 113.816C78.9504 112.136 79.2958 110.68 79.9864 109.448C80.6771 108.216 81.5824 107.282 82.7024 106.648C83.8411 105.994 85.0544 105.668 86.3424 105.668C88.6944 105.668 90.4584 106.414 91.6344 107.908C92.8291 109.401 93.4264 111.361 93.4264 113.788C93.4264 115.486 93.0811 116.952 92.3904 118.184C91.6998 119.416 90.7851 120.349 89.6464 120.984C88.5264 121.618 87.3224 121.936 86.0344 121.936C83.6824 121.936 81.9091 121.189 80.7144 119.696C79.5384 118.202 78.9504 116.242 78.9504 113.816ZM86.2024 120.34C87.4904 120.34 88.4798 119.808 89.1704 118.744C89.8611 117.68 90.2064 116.102 90.2064 114.012C90.2064 111.94 89.8891 110.297 89.2544 109.084C88.6198 107.87 87.6024 107.264 86.2024 107.264C84.9144 107.264 83.9158 107.796 83.2064 108.86C82.5158 109.924 82.1704 111.501 82.1704 113.592C82.1704 115.664 82.4971 117.306 83.1504 118.52C83.8038 119.733 84.8211 120.34 86.2024 120.34ZM95.9856 117.428C95.9856 115.673 96.8629 114.385 98.6176 113.564C100.372 112.724 102.594 112.276 105.282 112.22V111.436C105.282 110.558 105.188 109.868 105.002 109.364C104.815 108.86 104.488 108.496 104.022 108.272C103.574 108.029 102.93 107.908 102.09 107.908C101.138 107.908 100.279 108.048 99.5136 108.328C98.7669 108.589 98.0203 108.916 97.2736 109.308L96.5736 107.852C96.8163 107.646 97.2643 107.376 97.9176 107.04C98.5709 106.704 99.3269 106.405 100.186 106.144C101.044 105.882 101.903 105.752 102.762 105.752C104.087 105.752 105.132 105.938 105.898 106.312C106.682 106.666 107.242 107.245 107.578 108.048C107.914 108.85 108.082 109.924 108.082 111.268V120.256H109.734V121.488C109.36 121.581 108.884 121.674 108.306 121.768C107.746 121.861 107.251 121.908 106.822 121.908C106.299 121.908 105.944 121.824 105.758 121.656C105.571 121.506 105.478 121.161 105.478 120.62V119.696C104.918 120.256 104.227 120.769 103.406 121.236C102.603 121.702 101.688 121.936 100.662 121.936C99.3176 121.936 98.1976 121.553 97.3016 120.788C96.4243 120.004 95.9856 118.884 95.9856 117.428ZM101.866 120.032C102.351 120.032 102.911 119.882 103.546 119.584C104.18 119.285 104.759 118.93 105.282 118.52V113.704C103.247 113.704 101.707 114.021 100.662 114.656C99.6349 115.272 99.1216 116.084 99.1216 117.092C99.1216 118.1 99.3643 118.846 99.8496 119.332C100.354 119.798 101.026 120.032 101.866 120.032ZM117.729 121.936C116.609 121.936 115.582 121.656 114.649 121.096C113.716 120.536 112.969 119.677 112.409 118.52C111.868 117.362 111.597 115.934 111.597 114.236C111.597 112.649 111.924 111.202 112.577 109.896C113.23 108.589 114.164 107.562 115.377 106.816C116.609 106.05 118.056 105.668 119.717 105.668C120.669 105.668 121.537 105.77 122.321 105.976V100.74L119.465 100.404V99.1997L124.505 98.6957H124.589L125.205 99.1437V120.2H126.829V121.488C126.232 121.618 125.709 121.721 125.261 121.796C124.832 121.87 124.374 121.908 123.889 121.908C123.404 121.908 123.058 121.824 122.853 121.656C122.648 121.488 122.545 121.133 122.545 120.592V119.696C122.022 120.33 121.332 120.862 120.473 121.292C119.633 121.721 118.718 121.936 117.729 121.936ZM118.849 119.948C119.577 119.948 120.258 119.789 120.893 119.472C121.528 119.136 122.004 118.753 122.321 118.324V108.076C122.172 107.852 121.817 107.656 121.257 107.488C120.716 107.301 120.137 107.208 119.521 107.208C118.065 107.208 116.898 107.768 116.021 108.888C115.162 109.989 114.733 111.697 114.733 114.012C114.733 116.028 115.116 117.521 115.881 118.492C116.646 119.462 117.636 119.948 118.849 119.948ZM138.068 102.56L135.66 102.224V100.824H150.64L150.92 105.584H149.1L148.26 102.476L141.064 102.28V110.4L146.132 110.316L146.608 107.992H148.092V114.544H146.636L146.132 112.108L141.064 111.996V119.976L145.432 120.256V121.628H135.828V120.256L138.068 119.976V102.56ZM156.356 103.288C155.759 103.288 155.311 103.12 155.012 102.784C154.713 102.448 154.564 102.018 154.564 101.496C154.564 100.898 154.741 100.404 155.096 100.012C155.469 99.6197 155.973 99.4237 156.608 99.4237C157.243 99.4237 157.709 99.5917 158.008 99.9277C158.307 100.264 158.456 100.693 158.456 101.216C158.456 101.85 158.269 102.354 157.896 102.728C157.541 103.101 157.037 103.288 156.384 103.288H156.356ZM155.236 108.244L153.108 107.74V106.256L157.448 105.724H157.504L158.148 106.228V120.032L160.388 120.256V121.628H152.968V120.256L155.236 120.004V108.244ZM164.42 100.74L162.152 100.432V99.2277L166.66 98.6957H166.716L167.332 99.1157V120.032L169.712 120.256V121.628H162.152V120.256L164.42 120.004V100.74ZM178.588 121.936C176.33 121.936 174.603 121.198 173.408 119.724C172.232 118.249 171.644 116.28 171.644 113.816C171.644 112.192 171.952 110.764 172.568 109.532C173.184 108.3 174.043 107.348 175.144 106.676C176.264 106.004 177.534 105.668 178.952 105.668C180.688 105.668 182.032 106.153 182.984 107.124C183.955 108.076 184.468 109.448 184.524 111.24C184.524 112.378 184.459 113.246 184.328 113.844H174.696C174.734 115.692 175.163 117.185 175.984 118.324C176.806 119.444 177.972 120.004 179.484 120.004C180.231 120.004 181.006 119.873 181.808 119.612C182.63 119.332 183.264 119.005 183.712 118.632L184.244 119.864C183.703 120.424 182.9 120.909 181.836 121.32C180.772 121.73 179.69 121.936 178.588 121.936ZM181.444 112.36C181.5 111.968 181.528 111.566 181.528 111.156C181.51 109.942 181.248 108.99 180.744 108.3C180.259 107.59 179.484 107.236 178.42 107.236C177.338 107.236 176.47 107.628 175.816 108.412C175.182 109.196 174.818 110.512 174.724 112.36H181.444ZM189.535 119.388C189.722 119.668 190.114 119.92 190.711 120.144C191.327 120.368 191.971 120.48 192.643 120.48C193.707 120.48 194.491 120.274 194.995 119.864C195.499 119.453 195.751 118.884 195.751 118.156C195.751 117.652 195.592 117.213 195.275 116.84C194.958 116.466 194.51 116.14 193.931 115.86C193.371 115.561 192.559 115.206 191.495 114.796C190.058 114.254 189.003 113.61 188.331 112.864C187.678 112.098 187.351 111.1 187.351 109.868C187.351 109.046 187.594 108.328 188.079 107.712C188.583 107.096 189.264 106.62 190.123 106.284C191 105.929 191.971 105.752 193.035 105.752C193.894 105.752 194.64 105.817 195.275 105.948C195.928 106.078 196.451 106.209 196.843 106.34C197.235 106.47 197.496 106.554 197.627 106.592V110.064H195.919L195.359 107.992C195.247 107.768 194.948 107.581 194.463 107.432C193.978 107.264 193.436 107.18 192.839 107.18C191.999 107.18 191.318 107.366 190.795 107.74C190.291 108.113 190.039 108.617 190.039 109.252C190.039 109.812 190.17 110.278 190.431 110.652C190.711 111.006 191.056 111.296 191.467 111.52C191.878 111.744 192.438 112.005 193.147 112.304L193.707 112.528C194.752 112.938 195.602 113.33 196.255 113.704C196.908 114.077 197.45 114.572 197.879 115.188C198.327 115.785 198.551 116.522 198.551 117.4C198.551 118.781 198.01 119.882 196.927 120.704C195.863 121.525 194.398 121.936 192.531 121.936C191.616 121.936 190.655 121.814 189.647 121.572C188.658 121.31 187.846 121.049 187.211 120.788V117.204H189.031L189.535 119.388Z" fill="#6A515E"/>
<path fill-rule="evenodd" clip-rule="evenodd" d="M53.9583 43.9454H39.6214L44.0113 38.9441C44.439 38.4577 44.3689 37.7339 43.8566 37.329C43.343 36.9229 42.5818 36.9895 42.1553 37.4758L36.1136 44.3584C36.0665 44.4123 36.0423 44.4754 36.0073 44.535C35.9783 44.5832 35.9432 44.6245 35.9215 44.6773C35.8671 44.8092 35.8345 44.948 35.8345 45.0879C35.8345 45.0891 35.8333 45.0914 35.8333 45.0925C35.8333 45.0937 35.8345 45.096 35.8345 45.0971C35.8345 45.2371 35.8671 45.3758 35.9215 45.5078C35.9432 45.5605 35.9783 45.6018 36.0073 45.65C36.0423 45.7097 36.0665 45.7727 36.1136 45.8267L42.1553 52.7092C42.3945 52.9811 42.7377 53.1221 43.0833 53.1221C43.3563 53.1221 43.6306 53.035 43.8566 52.856C44.3689 52.4511 44.439 51.7273 44.0113 51.2409L39.6214 46.2396H53.9583C54.6252 46.2396 55.1666 45.7257 55.1666 45.0925C55.1666 44.4593 54.6252 43.9454 53.9583 43.9454Z" fill="#6A515E"/>
<mask id="mask0" mask-type="alpha" maskUnits="userSpaceOnUse" x="35" y="37" width="25" height="17">
<path fill-rule="evenodd" clip-rule="evenodd" d="M58.4895 43.9454H40.5684L46.0557 38.9441C46.5904 38.4577 46.5028 37.7339 45.8624 37.329C45.2205 36.9229 44.2689 36.9895 43.7357 37.4758L36.1837 44.3584C36.1248 44.4123 36.0946 44.4754 36.0508 44.535C36.0145 44.5832 35.9707 44.6245 35.9435 44.6773C35.8755 44.8092 35.8348 44.948 35.8348 45.0879C35.8348 45.0891 35.8333 45.0914 35.8333 45.0925C35.8333 45.0937 35.8348 45.096 35.8348 45.0971C35.8348 45.2371 35.8755 45.3758 35.9435 45.5078C35.9707 45.5605 36.0145 45.6018 36.0508 45.65C36.0946 45.7097 36.1248 45.7727 36.1837 45.8267L43.7357 52.7092C44.0348 52.9811 44.4638 53.1221 44.8957 53.1221C45.2371 53.1221 45.58 53.035 45.8624 52.856C46.5028 52.4511 46.5904 51.7273 46.0557 51.2409L40.5684 46.2396H58.4895C59.3232 46.2396 59.9999 45.7257 59.9999 45.0925C59.9999 44.4593 59.3232 43.9454 58.4895 43.9454Z" fill="white"/>
</mask>
<g mask="url(#mask0)">
</g>
<circle cx="204.372" cy="593.695" r="99.7916" fill="#FCF2F5"/>
<path d="M207 582.295C210.887 582.295 214.616 583.839 217.365 586.588C220.113 589.337 221.658 593.065 221.658 596.952C221.658 600.84 220.113 604.568 217.365 607.317C214.616 610.066 210.887 611.61 207 611.61C203.113 611.61 199.384 610.066 196.636 607.317C193.887 604.568 192.342 600.84 192.342 596.952C192.342 593.065 193.887 589.337 196.636 586.588C199.384 583.839 203.113 582.295 207 582.295ZM207 585.552C203.976 585.552 201.077 586.753 198.939 588.891C196.801 591.029 195.6 593.929 195.6 596.952C195.6 599.976 196.801 602.876 198.939 605.014C201.077 607.152 203.976 608.353 207 608.353C210.024 608.353 212.923 607.152 215.061 605.014C217.199 602.876 218.4 599.976 218.4 596.952C218.4 593.929 217.199 591.029 215.061 588.891C212.923 586.753 210.024 585.552 207 585.552ZM185.828 572.523H192.342L198.857 566.008H215.143L221.658 572.523H228.172C230.764 572.523 233.249 573.552 235.082 575.385C236.914 577.218 237.944 579.703 237.944 582.295V611.61C237.944 614.202 236.914 616.687 235.082 618.52C233.249 620.352 230.764 621.382 228.172 621.382H185.828C183.236 621.382 180.751 620.352 178.918 618.52C177.086 616.687 176.056 614.202 176.056 611.61V582.295C176.056 579.703 177.086 577.218 178.918 575.385C180.751 573.552 183.236 572.523 185.828 572.523ZM200.205 569.266L193.691 575.78H185.828C184.1 575.78 182.443 576.467 181.221 577.688C180 578.91 179.313 580.567 179.313 582.295V611.61C179.313 613.338 180 614.995 181.221 616.216C182.443 617.438 184.1 618.124 185.828 618.124H228.172C229.9 618.124 231.557 617.438 232.779 616.216C234 614.995 234.687 613.338 234.687 611.61V582.295C234.687 580.567 234 578.91 232.779 577.688C231.557 576.467 229.9 575.78 228.172 575.78H220.309L213.795 569.266H200.205Z" fill="url(#paint0_linear)"/>
<path d="M160.213 424.596H154.246V430.875H152.371V416.657H161.18V418.2H154.246V423.063H160.213V424.596ZM167.996 421.93C167.723 421.885 167.426 421.862 167.107 421.862C165.923 421.862 165.118 422.366 164.695 423.375V430.875H162.889V420.309H164.646L164.676 421.53C165.268 420.586 166.108 420.114 167.195 420.114C167.547 420.114 167.814 420.159 167.996 420.25V421.93ZM168.992 425.495C168.992 424.459 169.194 423.528 169.598 422.702C170.008 421.875 170.574 421.237 171.297 420.788C172.026 420.338 172.856 420.114 173.787 420.114C175.226 420.114 176.388 420.612 177.273 421.608C178.165 422.604 178.611 423.929 178.611 425.583V425.709C178.611 426.738 178.413 427.663 178.016 428.483C177.625 429.297 177.062 429.931 176.326 430.387C175.597 430.843 174.757 431.071 173.807 431.071C172.374 431.071 171.212 430.573 170.32 429.577C169.435 428.581 168.992 427.262 168.992 425.622V425.495ZM170.809 425.709C170.809 426.881 171.079 427.822 171.619 428.532C172.166 429.241 172.895 429.596 173.807 429.596C174.725 429.596 175.454 429.238 175.994 428.522C176.535 427.799 176.805 426.79 176.805 425.495C176.805 424.336 176.528 423.398 175.975 422.682C175.428 421.959 174.699 421.598 173.787 421.598C172.895 421.598 172.176 421.953 171.629 422.663C171.082 423.372 170.809 424.388 170.809 425.709ZM182.576 420.309L182.625 421.481C183.4 420.569 184.445 420.114 185.76 420.114C187.238 420.114 188.243 420.68 188.777 421.813C189.129 421.305 189.585 420.895 190.145 420.583C190.711 420.27 191.378 420.114 192.146 420.114C194.464 420.114 195.643 421.341 195.682 423.795V430.875H193.875V423.903C193.875 423.148 193.702 422.584 193.357 422.213C193.012 421.836 192.433 421.647 191.619 421.647C190.949 421.647 190.392 421.849 189.949 422.252C189.507 422.65 189.249 423.187 189.178 423.864V430.875H187.361V423.952C187.361 422.415 186.609 421.647 185.105 421.647C183.921 421.647 183.11 422.152 182.674 423.161V430.875H180.867V420.309H182.576ZM214.158 429.01C213.676 429.7 213.003 430.218 212.137 430.563C211.277 430.902 210.275 431.071 209.129 431.071C207.97 431.071 206.941 430.801 206.043 430.26C205.145 429.713 204.448 428.939 203.953 427.936C203.465 426.933 203.214 425.771 203.201 424.45V423.209C203.201 421.068 203.699 419.407 204.695 418.229C205.698 417.051 207.104 416.461 208.914 416.461C210.398 416.461 211.593 416.842 212.498 417.604C213.403 418.359 213.956 419.433 214.158 420.827H212.283C211.932 418.945 210.812 418.004 208.924 418.004C207.667 418.004 206.714 418.447 206.062 419.333C205.418 420.211 205.092 421.487 205.086 423.161V424.323C205.086 425.918 205.451 427.187 206.18 428.131C206.909 429.069 207.895 429.538 209.139 429.538C209.842 429.538 210.457 429.459 210.984 429.303C211.512 429.147 211.948 428.883 212.293 428.512V425.319H209.002V423.795H214.158V429.01ZM223.533 430.875C223.429 430.667 223.344 430.296 223.279 429.762C222.439 430.635 221.437 431.071 220.271 431.071C219.23 431.071 218.374 430.778 217.703 430.192C217.039 429.599 216.707 428.851 216.707 427.946C216.707 426.846 217.124 425.993 217.957 425.387C218.797 424.775 219.975 424.469 221.492 424.469H223.25V423.639C223.25 423.008 223.061 422.506 222.684 422.135C222.306 421.758 221.749 421.569 221.014 421.569C220.369 421.569 219.829 421.732 219.393 422.057C218.956 422.383 218.738 422.777 218.738 423.239H216.922C216.922 422.711 217.107 422.204 217.479 421.715C217.856 421.221 218.364 420.83 219.002 420.543C219.646 420.257 220.353 420.114 221.121 420.114C222.339 420.114 223.292 420.42 223.982 421.032C224.673 421.637 225.031 422.474 225.057 423.542V428.405C225.057 429.375 225.18 430.146 225.428 430.719V430.875H223.533ZM220.535 429.499C221.102 429.499 221.639 429.352 222.146 429.059C222.654 428.766 223.022 428.385 223.25 427.917V425.749H221.834C219.62 425.749 218.514 426.396 218.514 427.692C218.514 428.258 218.702 428.701 219.08 429.02C219.458 429.339 219.943 429.499 220.535 429.499ZM229.852 430.875H228.045V415.875H229.852V430.875ZM234.715 430.875H232.908V415.875H234.715V430.875ZM242 431.071C240.568 431.071 239.402 430.602 238.504 429.665C237.605 428.721 237.156 427.461 237.156 425.885V425.553C237.156 424.505 237.355 423.571 237.752 422.75C238.156 421.924 238.715 421.279 239.432 420.817C240.154 420.348 240.936 420.114 241.775 420.114C243.149 420.114 244.217 420.566 244.979 421.471C245.74 422.376 246.121 423.672 246.121 425.358V426.11H238.963C238.989 427.152 239.292 427.995 239.871 428.639C240.457 429.277 241.199 429.596 242.098 429.596C242.736 429.596 243.276 429.466 243.719 429.206C244.161 428.945 244.549 428.6 244.881 428.17L245.984 429.03C245.099 430.39 243.771 431.071 242 431.071ZM241.775 421.598C241.046 421.598 240.434 421.865 239.939 422.399C239.445 422.926 239.139 423.668 239.021 424.625H244.314V424.489C244.262 423.571 244.015 422.861 243.572 422.36C243.13 421.852 242.531 421.598 241.775 421.598ZM253.328 421.93C253.055 421.885 252.758 421.862 252.439 421.862C251.255 421.862 250.451 422.366 250.027 423.375V430.875H248.221V420.309H249.979L250.008 421.53C250.6 420.586 251.44 420.114 252.527 420.114C252.879 420.114 253.146 420.159 253.328 420.25V421.93ZM258.631 428.229L261.092 420.309H263.025L258.777 432.506C258.12 434.264 257.075 435.143 255.643 435.143L255.301 435.114L254.627 434.987V433.522L255.115 433.561C255.727 433.561 256.202 433.437 256.541 433.19C256.886 432.943 257.169 432.49 257.391 431.833L257.791 430.758L254.021 420.309H255.994L258.631 428.229Z" fill="#6A515E"/>
<path d="M156.189 732.693H150.223V738.972H148.348V724.753H157.156V726.296H150.223V731.16H156.189V732.693ZM163.973 730.027C163.699 729.981 163.403 729.958 163.084 729.958C161.899 729.958 161.095 730.463 160.672 731.472V738.972H158.865V728.406H160.623L160.652 729.626C161.245 728.682 162.085 728.21 163.172 728.21C163.523 728.21 163.79 728.256 163.973 728.347V730.027ZM164.969 733.591C164.969 732.556 165.171 731.625 165.574 730.798C165.984 729.971 166.551 729.333 167.273 728.884C168.003 728.435 168.833 728.21 169.764 728.21C171.202 728.21 172.365 728.708 173.25 729.704C174.142 730.701 174.588 732.025 174.588 733.679V733.806C174.588 734.835 174.389 735.759 173.992 736.579C173.602 737.393 173.038 738.028 172.303 738.484C171.574 738.939 170.734 739.167 169.783 739.167C168.351 739.167 167.189 738.669 166.297 737.673C165.411 736.677 164.969 735.359 164.969 733.718V733.591ZM166.785 733.806C166.785 734.978 167.055 735.919 167.596 736.628C168.143 737.338 168.872 737.693 169.783 737.693C170.701 737.693 171.43 737.335 171.971 736.619C172.511 735.896 172.781 734.887 172.781 733.591C172.781 732.432 172.505 731.495 171.951 730.779C171.404 730.056 170.675 729.695 169.764 729.695C168.872 729.695 168.152 730.05 167.605 730.759C167.059 731.469 166.785 732.484 166.785 733.806ZM178.553 728.406L178.602 729.578C179.376 728.666 180.421 728.21 181.736 728.21C183.214 728.21 184.22 728.777 184.754 729.91C185.105 729.402 185.561 728.992 186.121 728.679C186.688 728.367 187.355 728.21 188.123 728.21C190.441 728.21 191.619 729.438 191.658 731.892V738.972H189.852V731.999C189.852 731.244 189.679 730.681 189.334 730.31C188.989 729.932 188.41 729.744 187.596 729.744C186.925 729.744 186.368 729.945 185.926 730.349C185.483 730.746 185.226 731.283 185.154 731.96V738.972H183.338V732.048C183.338 730.512 182.586 729.744 181.082 729.744C179.897 729.744 179.087 730.248 178.65 731.257V738.972H176.844V728.406H178.553ZM210.096 734.46C209.92 735.964 209.363 737.126 208.426 737.947C207.495 738.76 206.255 739.167 204.705 739.167C203.025 739.167 201.678 738.565 200.662 737.361C199.653 736.156 199.148 734.545 199.148 732.527V731.16C199.148 729.838 199.383 728.676 199.852 727.673C200.327 726.671 200.997 725.902 201.863 725.369C202.729 724.828 203.732 724.558 204.871 724.558C206.382 724.558 207.592 724.981 208.504 725.828C209.415 726.667 209.946 727.833 210.096 729.324H208.211C208.048 728.191 207.693 727.37 207.146 726.863C206.606 726.355 205.848 726.101 204.871 726.101C203.673 726.101 202.732 726.544 202.049 727.429C201.372 728.314 201.033 729.574 201.033 731.208V732.585C201.033 734.128 201.355 735.356 202 736.267C202.645 737.178 203.546 737.634 204.705 737.634C205.747 737.634 206.544 737.4 207.098 736.931C207.658 736.456 208.029 735.632 208.211 734.46H210.096ZM218.904 738.972C218.8 738.764 218.715 738.393 218.65 737.859C217.811 738.731 216.808 739.167 215.643 739.167C214.601 739.167 213.745 738.874 213.074 738.288C212.41 737.696 212.078 736.947 212.078 736.042C212.078 734.942 212.495 734.089 213.328 733.484C214.168 732.872 215.346 732.566 216.863 732.566H218.621V731.736C218.621 731.104 218.432 730.603 218.055 730.232C217.677 729.854 217.12 729.665 216.385 729.665C215.74 729.665 215.2 729.828 214.764 730.154C214.327 730.479 214.109 730.873 214.109 731.335H212.293C212.293 730.808 212.479 730.3 212.85 729.812C213.227 729.317 213.735 728.926 214.373 728.64C215.018 728.354 215.724 728.21 216.492 728.21C217.71 728.21 218.663 728.516 219.354 729.128C220.044 729.734 220.402 730.57 220.428 731.638V736.501C220.428 737.471 220.551 738.243 220.799 738.816V738.972H218.904ZM215.906 737.595C216.473 737.595 217.01 737.449 217.518 737.156C218.025 736.863 218.393 736.482 218.621 736.013V733.845H217.205C214.992 733.845 213.885 734.493 213.885 735.788C213.885 736.355 214.074 736.798 214.451 737.117C214.829 737.436 215.314 737.595 215.906 737.595ZM224.959 728.406L225.008 729.578C225.783 728.666 226.827 728.21 228.143 728.21C229.62 728.21 230.626 728.777 231.16 729.91C231.512 729.402 231.967 728.992 232.527 728.679C233.094 728.367 233.761 728.21 234.529 728.21C236.847 728.21 238.025 729.438 238.064 731.892V738.972H236.258V731.999C236.258 731.244 236.085 730.681 235.74 730.31C235.395 729.932 234.816 729.744 234.002 729.744C233.331 729.744 232.775 729.945 232.332 730.349C231.889 730.746 231.632 731.283 231.561 731.96V738.972H229.744V732.048C229.744 730.512 228.992 729.744 227.488 729.744C226.303 729.744 225.493 730.248 225.057 731.257V738.972H223.25V728.406H224.959ZM245.184 739.167C243.751 739.167 242.586 738.699 241.688 737.761C240.789 736.817 240.34 735.557 240.34 733.982V733.65C240.34 732.602 240.538 731.667 240.936 730.847C241.339 730.02 241.899 729.376 242.615 728.913C243.338 728.445 244.119 728.21 244.959 728.21C246.333 728.21 247.4 728.663 248.162 729.568C248.924 730.473 249.305 731.768 249.305 733.454V734.206H242.146C242.173 735.248 242.475 736.091 243.055 736.736C243.641 737.374 244.383 737.693 245.281 737.693C245.919 737.693 246.46 737.563 246.902 737.302C247.345 737.042 247.732 736.697 248.064 736.267L249.168 737.126C248.283 738.487 246.954 739.167 245.184 739.167ZM244.959 729.695C244.23 729.695 243.618 729.962 243.123 730.495C242.628 731.023 242.322 731.765 242.205 732.722H247.498V732.585C247.446 731.667 247.199 730.958 246.756 730.456C246.313 729.949 245.714 729.695 244.959 729.695ZM256.512 730.027C256.238 729.981 255.942 729.958 255.623 729.958C254.438 729.958 253.634 730.463 253.211 731.472V738.972H251.404V728.406H253.162L253.191 729.626C253.784 728.682 254.624 728.21 255.711 728.21C256.062 728.21 256.329 728.256 256.512 728.347V730.027ZM264.314 738.972C264.21 738.764 264.126 738.393 264.061 737.859C263.221 738.731 262.218 739.167 261.053 739.167C260.011 739.167 259.155 738.874 258.484 738.288C257.82 737.696 257.488 736.947 257.488 736.042C257.488 734.942 257.905 734.089 258.738 733.484C259.578 732.872 260.757 732.566 262.273 732.566H264.031V731.736C264.031 731.104 263.842 730.603 263.465 730.232C263.087 729.854 262.531 729.665 261.795 729.665C261.15 729.665 260.61 729.828 260.174 730.154C259.738 730.479 259.52 730.873 259.52 731.335H257.703C257.703 730.808 257.889 730.3 258.26 729.812C258.637 729.317 259.145 728.926 259.783 728.64C260.428 728.354 261.134 728.21 261.902 728.21C263.12 728.21 264.074 728.516 264.764 729.128C265.454 729.734 265.812 730.57 265.838 731.638V736.501C265.838 737.471 265.962 738.243 266.209 738.816V738.972H264.314ZM261.316 737.595C261.883 737.595 262.42 737.449 262.928 737.156C263.436 736.863 263.803 736.482 264.031 736.013V733.845H262.615C260.402 733.845 259.295 734.493 259.295 735.788C259.295 736.355 259.484 736.798 259.861 737.117C260.239 737.436 260.724 737.595 261.316 737.595Z" fill="#6A515E"/>
<line opacity="0.1" x1="47.7822" y1="455.319" x2="366.218" y2="455.319" stroke="black"/>
<circle cx="204.372" cy="287.314" r="99.7916" fill="#FCF2F5"/>
<g filter="url(#filter0_d)">
<circle cx="204.372" cy="287.314" r="66.5334" fill="white"/>
</g>
<path d="M224.503 276.167H184.497C183.79 276.167 183.113 276.447 182.613 276.947C182.114 277.446 181.833 278.124 181.833 278.83V304.67C181.833 305.376 182.114 306.054 182.613 306.553C183.113 307.053 183.79 307.333 184.497 307.333H224.503C225.21 307.333 225.887 307.053 226.387 306.553C226.886 306.054 227.167 305.376 227.167 304.67V278.83C227.167 278.124 226.886 277.446 226.387 276.947C225.887 276.447 225.21 276.167 224.503 276.167ZM224.333 304.5H184.667V279H224.333V304.5Z" fill="url(#paint1_linear)"/>
<path d="M221.698 266.25C221.698 265.874 221.549 265.514 221.283 265.248C221.018 264.983 220.657 264.833 220.282 264.833H189.115C188.739 264.833 188.379 264.983 188.113 265.248C187.847 265.514 187.698 265.874 187.698 266.25V267.667H221.698V266.25Z" fill="url(#paint2_linear)"/>
<path d="M224.503 271.917C224.503 271.541 224.354 271.181 224.088 270.915C223.823 270.649 223.462 270.5 223.087 270.5H186.253C185.878 270.5 185.517 270.649 185.252 270.915C184.986 271.181 184.837 271.541 184.837 271.917V273.333H224.503V271.917Z" fill="url(#paint3_linear)"/>
<path d="M197.162 299.952C197.554 300.207 198.011 300.345 198.479 300.349C198.816 300.348 199.15 300.276 199.457 300.137L213.297 293.96C213.725 293.774 214.09 293.467 214.345 293.077C214.601 292.687 214.738 292.231 214.738 291.764C214.738 291.298 214.601 290.841 214.345 290.451C214.09 290.061 213.725 289.754 213.297 289.568L199.457 283.392C199.09 283.229 198.689 283.16 198.29 283.192C197.89 283.223 197.505 283.354 197.169 283.572C196.832 283.79 196.556 284.089 196.364 284.441C196.173 284.792 196.072 285.187 196.071 285.587V297.941C196.072 298.34 196.172 298.733 196.362 299.084C196.552 299.436 196.827 299.734 197.162 299.952ZM198.054 285.587C198.054 285.516 198.072 285.446 198.107 285.384C198.141 285.322 198.192 285.27 198.252 285.233C198.327 285.213 198.405 285.213 198.479 285.233C198.535 285.221 198.593 285.221 198.649 285.233L212.49 291.396C212.568 291.428 212.634 291.483 212.68 291.554C212.726 291.625 212.748 291.708 212.745 291.792C212.747 291.875 212.724 291.956 212.679 292.024C212.633 292.093 212.567 292.146 212.49 292.175L198.649 298.352C198.589 298.386 198.52 298.405 198.451 298.405C198.381 298.405 198.313 298.386 198.252 298.352C198.193 298.313 198.144 298.26 198.11 298.199C198.075 298.137 198.056 298.068 198.054 297.997V285.587Z" fill="url(#paint4_linear)"/>
<g filter="url(#filter1_d)">
<path fill-rule="evenodd" clip-rule="evenodd" d="M-0.131189 820.381C1.00061 816.759 4.43723 805.76 20.5652 805.76H140.121C149.056 805.76 158.644 809.161 167.61 828.428C171.374 841.953 181.435 858.072 206.845 858.321L206.845 858.321C232.255 858.072 242.316 841.953 246.081 828.428C255.046 809.161 264.634 805.76 273.569 805.76H393.125C409.253 805.76 412.69 816.759 413.821 820.382C413.888 820.595 413.947 820.783 414 820.942V896H206.845L206.845 896H-0.30957V820.942C-0.25671 820.783 -0.19796 820.595 -0.131189 820.381Z" fill="white"/>
</g>
<path fill-rule="evenodd" clip-rule="evenodd" d="M35.8157 861.791V848.384H37.8782V861.791C37.8782 862.064 37.9868 862.326 38.1802 862.52C38.3736 862.713 38.6359 862.822 38.9094 862.822H57.4719C57.7454 862.822 58.0077 862.713 58.2011 862.52C58.3945 862.326 58.5032 862.064 58.5032 861.791V848.384H60.5657V861.791C60.5657 862.611 60.2397 863.398 59.6595 863.978C59.0793 864.558 58.2924 864.884 57.4719 864.884H38.9094C38.0889 864.884 37.302 864.558 36.7218 863.978C36.1416 863.398 35.8157 862.611 35.8157 861.791ZM58.5032 839.103V846.322L54.3782 842.197V839.103C54.3782 838.83 54.4868 838.567 54.6802 838.374C54.8736 838.181 55.1359 838.072 55.4094 838.072H57.4719C57.7454 838.072 58.0077 838.181 58.2011 838.374C58.3945 838.567 58.5032 838.83 58.5032 839.103Z" fill="url(#paint5_linear)"/>
<path fill-rule="evenodd" clip-rule="evenodd" d="M46.7323 837.041C47.1191 836.654 47.6436 836.437 48.1905 836.437C48.7374 836.437 49.2619 836.654 49.6487 837.041L63.3581 850.748C63.5518 850.942 63.6606 851.204 63.6606 851.478C63.6606 851.752 63.5518 852.015 63.3581 852.208C63.1645 852.402 62.9019 852.511 62.628 852.511C62.3542 852.511 62.0915 852.402 61.8979 852.208L48.1905 838.499L34.4831 852.208C34.2895 852.402 34.0269 852.511 33.753 852.511C33.4792 852.511 33.2165 852.402 33.0229 852.208C32.8292 852.015 32.7205 851.752 32.7205 851.478C32.7205 851.204 32.8292 850.942 33.0229 850.748L46.7323 837.041Z" fill="url(#paint6_linear)"/>
<path d="M366.294 834.614C361.929 834.614 358.378 838.165 358.378 842.53C358.378 846.895 361.929 850.447 366.294 850.447C370.66 850.447 374.211 846.895 374.211 842.53C374.211 838.165 370.66 834.614 366.294 834.614ZM366.294 847.28C363.676 847.28 361.544 845.149 361.544 842.53C361.544 839.911 363.676 837.78 366.294 837.78C368.913 837.78 371.044 839.911 371.044 842.53C371.044 845.149 368.913 847.28 366.294 847.28ZM380.544 864.697V863.114C380.544 857.003 375.571 852.03 369.461 852.03H363.128C357.016 852.03 352.044 857.003 352.044 863.114V864.697H355.211V863.114C355.211 858.748 358.763 855.197 363.128 855.197H369.461C373.826 855.197 377.378 858.748 377.378 863.114V864.697H380.544Z" fill="#DFE7ED"/>
<g filter="url(#filter2_d)">
<circle cx="206.845" cy="816.626" r="32.7021" fill="url(#paint7_linear)"/>
</g>
<path d="M206.93 807.381L197.285 817.847M206.93 807.381L216.405 817.847M206.93 807.381V825.871" stroke="white" stroke-width="3" stroke-linecap="round"/>
<path d="M278.325 835.562V858.624H282.7V863.749H308.95V840.687H304.575V835.562H278.325ZM280.513 838.124H302.388V856.062H280.513V838.124ZM282.7 840.687V853.499H300.2V840.687H282.7ZM284.888 843.249H298.013V850.937H284.888V843.249ZM304.575 843.249H306.763V861.187H284.888V858.624H304.575V843.249Z" fill="#DFE7ED"/>
<path d="M121.388 870.717C122.018 870.702 122.622 870.465 123.095 870.048C123.567 869.631 123.876 869.06 123.968 868.437H118.708C118.802 869.077 119.126 869.661 119.619 870.081C120.112 870.5 120.741 870.726 121.388 870.717Z" fill="#DFE7ED"/>
<path d="M135.898 864.267C134.934 863.407 134.089 862.422 133.388 861.337C132.622 859.839 132.163 858.204 132.038 856.527V851.587C132.034 850.987 131.98 850.388 131.878 849.797C131.091 849.639 130.334 849.356 129.638 848.957C129.903 849.812 130.038 850.702 130.038 851.597V856.537C130.161 858.583 130.723 860.578 131.688 862.387C132.378 863.481 133.198 864.488 134.128 865.387H108.518C109.448 864.488 110.268 863.481 110.958 862.387C111.923 860.578 112.485 858.583 112.608 856.537V851.587C112.603 850.429 112.826 849.282 113.264 848.212C113.703 847.141 114.349 846.167 115.164 845.345C115.98 844.524 116.949 843.872 118.017 843.426C119.085 842.98 120.231 842.749 121.388 842.747C123.082 842.748 124.738 843.249 126.148 844.187C125.992 843.616 125.905 843.028 125.888 842.437V841.807C124.844 841.293 123.722 840.955 122.568 840.807V839.547C122.568 839.193 122.427 838.853 122.177 838.603C121.927 838.352 121.587 838.212 121.233 838.212C120.879 838.212 120.539 838.352 120.289 838.603C120.039 838.853 119.898 839.193 119.898 839.547V840.857C117.314 841.221 114.949 842.509 113.239 844.481C111.53 846.453 110.592 848.977 110.598 851.587V856.527C110.473 858.204 110.014 859.839 109.248 861.337C108.559 862.419 107.728 863.405 106.778 864.267C106.671 864.361 106.586 864.476 106.527 864.605C106.469 864.734 106.438 864.875 106.438 865.017V866.377C106.438 866.642 106.543 866.896 106.731 867.084C106.918 867.271 107.173 867.377 107.438 867.377H135.238C135.503 867.377 135.758 867.271 135.945 867.084C136.133 866.896 136.238 866.642 136.238 866.377V865.017C136.238 864.875 136.207 864.734 136.149 864.605C136.09 864.476 136.005 864.361 135.898 864.267Z" fill="#DFE7ED"/>
<path d="M133.388 847.437C136.149 847.437 138.388 845.198 138.388 842.437C138.388 839.675 136.149 837.437 133.388 837.437C130.627 837.437 128.388 839.675 128.388 842.437C128.388 845.198 130.627 847.437 133.388 847.437Z" fill="#DFE7ED"/>
</g>
<defs>
<filter id="filter0_d" x="107.839" y="190.78" width="193.067" height="193.067" filterUnits="userSpaceOnUse" color-interpolation-filters="sRGB">
<feFlood flood-opacity="0" result="BackgroundImageFix"/>
<feColorMatrix in="SourceAlpha" type="matrix" values="0 0 0 0 0 0 0 0 0 0 0 0 0 0 0 0 0 0 127 0"/>
<feOffset/>
<feGaussianBlur stdDeviation="15"/>
<feColorMatrix type="matrix" values="0 0 0 0 0.716667 0 0 0 0 0.716667 0 0 0 0 0.716667 0 0 0 0.25 0"/>
<feBlend mode="normal" in2="BackgroundImageFix" result="effect1_dropShadow"/>
<feBlend mode="normal" in="SourceGraphic" in2="effect1_dropShadow" result="shape"/>
</filter>
<filter id="filter1_d" x="-15.3096" y="783.76" width="444.309" height="120.24" filterUnits="userSpaceOnUse" color-interpolation-filters="sRGB">
<feFlood flood-opacity="0" result="BackgroundImageFix"/>
<feColorMatrix in="SourceAlpha" type="matrix" values="0 0 0 0 0 0 0 0 0 0 0 0 0 0 0 0 0 0 127 0"/>
<feOffset dy="-7"/>
<feGaussianBlur stdDeviation="7.5"/>
<feColorMatrix type="matrix" values="0 0 0 0 0.895833 0 0 0 0 0.895833 0 0 0 0 0.895833 0 0 0 0.74 0"/>
<feBlend mode="normal" in2="BackgroundImageFix" result="effect1_dropShadow"/>
<feBlend mode="normal" in="SourceGraphic" in2="effect1_dropShadow" result="shape"/>
</filter>
<filter id="filter2_d" x="167.143" y="776.924" width="79.4041" height="79.4041" filterUnits="userSpaceOnUse" color-interpolation-filters="sRGB">
<feFlood flood-opacity="0" result="BackgroundImageFix"/>
<feColorMatrix in="SourceAlpha" type="matrix" values="0 0 0 0 0 0 0 0 0 0 0 0 0 0 0 0 0 0 127 0"/>
<feOffset/>
<feGaussianBlur stdDeviation="3.5"/>
<feColorMatrix type="matrix" values="0 0 0 0 0.517647 0 0 0 0 0.568627 0 0 0 0 0.964706 0 0 0 1 0"/>
<feBlend mode="normal" in2="BackgroundImageFix" result="effect1_dropShadow"/>
<feBlend mode="normal" in="SourceGraphic" in2="effect1_dropShadow" result="shape"/>
</filter>
<linearGradient id="paint0_linear" x1="207" y1="566.008" x2="207" y2="621.382" gradientUnits="userSpaceOnUse">
<stop stop-color="#8491F6"/>
<stop offset="1" stop-color="#50A9DF"/>
</linearGradient>
<linearGradient id="paint1_linear" x1="204.5" y1="276.167" x2="204.5" y2="307.333" gradientUnits="userSpaceOnUse">
<stop stop-color="#8491F6"/>
<stop offset="1" stop-color="#50A9DF"/>
</linearGradient>
<linearGradient id="paint2_linear" x1="204.698" y1="264.833" x2="204.698" y2="267.667" gradientUnits="userSpaceOnUse">
<stop stop-color="#8491F6"/>
<stop offset="1" stop-color="#50A9DF"/>
</linearGradient>
<linearGradient id="paint3_linear" x1="204.67" y1="270.5" x2="204.67" y2="273.333" gradientUnits="userSpaceOnUse">
<stop stop-color="#8491F6"/>
<stop offset="1" stop-color="#50A9DF"/>
</linearGradient>
<linearGradient id="paint4_linear" x1="205.404" y1="283.184" x2="205.404" y2="300.349" gradientUnits="userSpaceOnUse">
<stop stop-color="#8491F6"/>
<stop offset="1" stop-color="#50A9DF"/>
</linearGradient>
<linearGradient id="paint5_linear" x1="48.1907" y1="838.072" x2="48.1907" y2="864.884" gradientUnits="userSpaceOnUse">
<stop stop-color="#8491F6"/>
<stop offset="1" stop-color="#50A9DF"/>
</linearGradient>
<linearGradient id="paint6_linear" x1="48.1905" y1="836.437" x2="48.1905" y2="852.511" gradientUnits="userSpaceOnUse">
<stop stop-color="#8491F6"/>
<stop offset="1" stop-color="#50A9DF"/>
</linearGradient>
<linearGradient id="paint7_linear" x1="206.845" y1="783.924" x2="206.845" y2="849.328" gradientUnits="userSpaceOnUse">
<stop stop-color="#8491F6"/>
<stop offset="1" stop-color="#50A9DF"/>
</linearGradient>
<clipPath id="clip0">
<rect width="414" height="896" fill="white"/>
</clipPath>
</defs>
</svg>
