<svg width="27" height="25" viewBox="0 0 27 25" fill="none" xmlns="http://www.w3.org/2000/svg">
<g id="27) Icon/arrow-left">
<path id="&#240;&#159;&#142;&#168; Icon &#208;&#161;olor" fill-rule="evenodd" clip-rule="evenodd" d="M24.8681 11.1851H5.50545L11.4342 4.41336C12.0119 3.75483 11.9172 2.77479 11.2253 2.22652C10.5317 1.67671 9.50364 1.76679 8.92758 2.42533L0.768008 11.7442C0.704364 11.8172 0.671725 11.9027 0.6244 11.9834C0.585234 12.0487 0.537908 12.1046 0.508534 12.176C0.435098 12.3546 0.391036 12.5426 0.391036 12.732C0.391036 12.7336 0.389404 12.7367 0.389404 12.7383C0.389404 12.7398 0.391036 12.7429 0.391036 12.7445C0.391036 12.934 0.435098 13.1219 0.508534 13.3005C0.537908 13.3719 0.585234 13.4279 0.6244 13.4931C0.671725 13.5739 0.704364 13.6593 0.768008 13.7323L8.92758 23.0512C9.2507 23.4193 9.71416 23.6103 10.1809 23.6103C10.5497 23.6103 10.9201 23.4923 11.2253 23.25C11.9172 22.7017 12.0119 21.7217 11.4342 21.0632L5.50545 14.2914H24.8681C25.7689 14.2914 26.5 13.5956 26.5 12.7383C26.5 11.8809 25.7689 11.1851 24.8681 11.1851Z" fill="#6A515E"/>
</g>
</svg>
